<?xml version="1.0" encoding="utf-8" standalone="no"?>
<!DOCTYPE svg PUBLIC "-//W3C//DTD SVG 1.1//EN"
  "http://www.w3.org/Graphics/SVG/1.1/DTD/svg11.dtd">
<svg xmlns:xlink="http://www.w3.org/1999/xlink" width="565.90625pt" height="281.634375pt" viewBox="0 0 565.90625 281.634375" xmlns="http://www.w3.org/2000/svg" version="1.1">
 <metadata>
  <rdf:RDF xmlns:dc="http://purl.org/dc/elements/1.1/" xmlns:cc="http://creativecommons.org/ns#" xmlns:rdf="http://www.w3.org/1999/02/22-rdf-syntax-ns#">
   <cc:Work>
    <dc:type rdf:resource="http://purl.org/dc/dcmitype/StillImage"/>
    <dc:date>2026-03-30T12:23:30.263623</dc:date>
    <dc:format>image/svg+xml</dc:format>
    <dc:creator>
     <cc:Agent>
      <dc:title>Matplotlib v3.10.8, https://matplotlib.org/</dc:title>
     </cc:Agent>
    </dc:creator>
   </cc:Work>
  </rdf:RDF>
 </metadata>
 <defs>
  <style type="text/css">*{stroke-linejoin: round; stroke-linecap: butt}</style>
 </defs>
 <g id="figure_1">
  <g id="patch_1">
   <path d="M 0 281.634375 
L 565.90625 281.634375 
L 565.90625 0 
L 0 0 
z
" style="fill: #ffffff"/>
  </g>
  <g id="axes_1">
   <g id="patch_2">
    <path d="M 56.50625 244.078125 
L 558.70625 244.078125 
L 558.70625 22.318125 
L 56.50625 22.318125 
z
" style="fill: #ffffff"/>
   </g>
   <g id="patch_3">
    <path d="M 258.582121 244.078125 
L 259.909601 244.078125 
L 259.909601 243.720159 
L 258.582121 243.720159 
z
" clip-path="url(#p944ee5407c)" style="fill: #1f77b4; opacity: 0.6"/>
   </g>
   <g id="patch_4">
    <path d="M 259.909601 244.078125 
L 261.237081 244.078125 
L 261.237081 244.078125 
L 259.909601 244.078125 
z
" clip-path="url(#p944ee5407c)" style="fill: #1f77b4; opacity: 0.6"/>
   </g>
   <g id="patch_5">
    <path d="M 261.237081 244.078125 
L 262.564561 244.078125 
L 262.564561 244.078125 
L 261.237081 244.078125 
z
" clip-path="url(#p944ee5407c)" style="fill: #1f77b4; opacity: 0.6"/>
   </g>
   <g id="patch_6">
    <path d="M 262.564561 244.078125 
L 263.892041 244.078125 
L 263.892041 244.078125 
L 262.564561 244.078125 
z
" clip-path="url(#p944ee5407c)" style="fill: #1f77b4; opacity: 0.6"/>
   </g>
   <g id="patch_7">
    <path d="M 263.892041 244.078125 
L 265.219521 244.078125 
L 265.219521 244.078125 
L 263.892041 244.078125 
z
" clip-path="url(#p944ee5407c)" style="fill: #1f77b4; opacity: 0.6"/>
   </g>
   <g id="patch_8">
    <path d="M 265.219521 244.078125 
L 266.547001 244.078125 
L 266.547001 243.720159 
L 265.219521 243.720159 
z
" clip-path="url(#p944ee5407c)" style="fill: #1f77b4; opacity: 0.6"/>
   </g>
   <g id="patch_9">
    <path d="M 266.547001 244.078125 
L 267.874481 244.078125 
L 267.874481 243.362193 
L 266.547001 243.362193 
z
" clip-path="url(#p944ee5407c)" style="fill: #1f77b4; opacity: 0.6"/>
   </g>
   <g id="patch_10">
    <path d="M 267.874481 244.078125 
L 269.201961 244.078125 
L 269.201961 244.078125 
L 267.874481 244.078125 
z
" clip-path="url(#p944ee5407c)" style="fill: #1f77b4; opacity: 0.6"/>
   </g>
   <g id="patch_11">
    <path d="M 269.201961 244.078125 
L 270.529441 244.078125 
L 270.529441 242.646261 
L 269.201961 242.646261 
z
" clip-path="url(#p944ee5407c)" style="fill: #1f77b4; opacity: 0.6"/>
   </g>
   <g id="patch_12">
    <path d="M 270.529441 244.078125 
L 271.856921 244.078125 
L 271.856921 241.214396 
L 270.529441 241.214396 
z
" clip-path="url(#p944ee5407c)" style="fill: #1f77b4; opacity: 0.6"/>
   </g>
   <g id="patch_13">
    <path d="M 271.856921 244.078125 
L 273.184401 244.078125 
L 273.184401 240.498464 
L 271.856921 240.498464 
z
" clip-path="url(#p944ee5407c)" style="fill: #1f77b4; opacity: 0.6"/>
   </g>
   <g id="patch_14">
    <path d="M 273.184401 244.078125 
L 274.511881 244.078125 
L 274.511881 237.276769 
L 273.184401 237.276769 
z
" clip-path="url(#p944ee5407c)" style="fill: #1f77b4; opacity: 0.6"/>
   </g>
   <g id="patch_15">
    <path d="M 274.511881 244.078125 
L 275.839361 244.078125 
L 275.839361 236.918803 
L 274.511881 236.918803 
z
" clip-path="url(#p944ee5407c)" style="fill: #1f77b4; opacity: 0.6"/>
   </g>
   <g id="patch_16">
    <path d="M 275.839361 244.078125 
L 277.166841 244.078125 
L 277.166841 236.202871 
L 275.839361 236.202871 
z
" clip-path="url(#p944ee5407c)" style="fill: #1f77b4; opacity: 0.6"/>
   </g>
   <g id="patch_17">
    <path d="M 277.166841 244.078125 
L 278.494321 244.078125 
L 278.494321 231.549311 
L 277.166841 231.549311 
z
" clip-path="url(#p944ee5407c)" style="fill: #1f77b4; opacity: 0.6"/>
   </g>
   <g id="patch_18">
    <path d="M 278.494321 244.078125 
L 279.821801 244.078125 
L 279.821801 226.537786 
L 278.494321 226.537786 
z
" clip-path="url(#p944ee5407c)" style="fill: #1f77b4; opacity: 0.6"/>
   </g>
   <g id="patch_19">
    <path d="M 279.821801 244.078125 
L 281.149281 244.078125 
L 281.149281 223.316091 
L 279.821801 223.316091 
z
" clip-path="url(#p944ee5407c)" style="fill: #1f77b4; opacity: 0.6"/>
   </g>
   <g id="patch_20">
    <path d="M 281.149281 244.078125 
L 282.476761 244.078125 
L 282.476761 213.29304 
L 281.149281 213.29304 
z
" clip-path="url(#p944ee5407c)" style="fill: #1f77b4; opacity: 0.6"/>
   </g>
   <g id="patch_21">
    <path d="M 282.476761 244.078125 
L 283.804241 244.078125 
L 283.804241 195.752701 
L 282.476761 195.752701 
z
" clip-path="url(#p944ee5407c)" style="fill: #1f77b4; opacity: 0.6"/>
   </g>
   <g id="patch_22">
    <path d="M 283.804241 244.078125 
L 285.131721 244.078125 
L 285.131721 191.099142 
L 283.804241 191.099142 
z
" clip-path="url(#p944ee5407c)" style="fill: #1f77b4; opacity: 0.6"/>
   </g>
   <g id="patch_23">
    <path d="M 285.131721 244.078125 
L 286.4592 244.078125 
L 286.4592 179.644227 
L 285.131721 179.644227 
z
" clip-path="url(#p944ee5407c)" style="fill: #1f77b4; opacity: 0.6"/>
   </g>
   <g id="patch_24">
    <path d="M 286.4592 244.078125 
L 287.78668 244.078125 
L 287.78668 159.240159 
L 286.4592 159.240159 
z
" clip-path="url(#p944ee5407c)" style="fill: #1f77b4; opacity: 0.6"/>
   </g>
   <g id="patch_25">
    <path d="M 287.78668 244.078125 
L 289.11416 244.078125 
L 289.11416 156.018464 
L 287.78668 156.018464 
z
" clip-path="url(#p944ee5407c)" style="fill: #1f77b4; opacity: 0.6"/>
   </g>
   <g id="patch_26">
    <path d="M 289.11416 244.078125 
L 290.44164 244.078125 
L 290.44164 126.307278 
L 289.11416 126.307278 
z
" clip-path="url(#p944ee5407c)" style="fill: #1f77b4; opacity: 0.6"/>
   </g>
   <g id="patch_27">
    <path d="M 290.44164 244.078125 
L 291.76912 244.078125 
L 291.76912 127.02321 
L 290.44164 127.02321 
z
" clip-path="url(#p944ee5407c)" style="fill: #1f77b4; opacity: 0.6"/>
   </g>
   <g id="patch_28">
    <path d="M 291.76912 244.078125 
L 293.0966 244.078125 
L 293.0966 105.187278 
L 291.76912 105.187278 
z
" clip-path="url(#p944ee5407c)" style="fill: #1f77b4; opacity: 0.6"/>
   </g>
   <g id="patch_29">
    <path d="M 293.0966 244.078125 
L 294.42408 244.078125 
L 294.42408 88.720837 
L 293.0966 88.720837 
z
" clip-path="url(#p944ee5407c)" style="fill: #1f77b4; opacity: 0.6"/>
   </g>
   <g id="patch_30">
    <path d="M 294.42408 244.078125 
L 295.75156 244.078125 
L 295.75156 74.402193 
L 294.42408 74.402193 
z
" clip-path="url(#p944ee5407c)" style="fill: #1f77b4; opacity: 0.6"/>
   </g>
   <g id="patch_31">
    <path d="M 295.75156 244.078125 
L 297.07904 244.078125 
L 297.07904 58.293718 
L 295.75156 58.293718 
z
" clip-path="url(#p944ee5407c)" style="fill: #1f77b4; opacity: 0.6"/>
   </g>
   <g id="patch_32">
    <path d="M 297.07904 244.078125 
L 298.40652 244.078125 
L 298.40652 41.827278 
L 297.07904 41.827278 
z
" clip-path="url(#p944ee5407c)" style="fill: #1f77b4; opacity: 0.6"/>
   </g>
   <g id="patch_33">
    <path d="M 298.40652 244.078125 
L 299.734 244.078125 
L 299.734 32.878125 
L 298.40652 32.878125 
z
" clip-path="url(#p944ee5407c)" style="fill: #1f77b4; opacity: 0.6"/>
   </g>
   <g id="patch_34">
    <path d="M 299.734 244.078125 
L 301.06148 244.078125 
L 301.06148 38.247617 
L 299.734 38.247617 
z
" clip-path="url(#p944ee5407c)" style="fill: #1f77b4; opacity: 0.6"/>
   </g>
   <g id="patch_35">
    <path d="M 301.06148 244.078125 
L 302.38896 244.078125 
L 302.38896 51.492362 
L 301.06148 51.492362 
z
" clip-path="url(#p944ee5407c)" style="fill: #1f77b4; opacity: 0.6"/>
   </g>
   <g id="patch_36">
    <path d="M 302.38896 244.078125 
L 303.71644 244.078125 
L 303.71644 64.379142 
L 302.38896 64.379142 
z
" clip-path="url(#p944ee5407c)" style="fill: #1f77b4; opacity: 0.6"/>
   </g>
   <g id="patch_37">
    <path d="M 303.71644 244.078125 
L 305.04392 244.078125 
L 305.04392 57.577786 
L 303.71644 57.577786 
z
" clip-path="url(#p944ee5407c)" style="fill: #1f77b4; opacity: 0.6"/>
   </g>
   <g id="patch_38">
    <path d="M 305.04392 244.078125 
L 306.3714 244.078125 
L 306.3714 64.379142 
L 305.04392 64.379142 
z
" clip-path="url(#p944ee5407c)" style="fill: #1f77b4; opacity: 0.6"/>
   </g>
   <g id="patch_39">
    <path d="M 306.3714 244.078125 
L 307.69888 244.078125 
L 307.69888 90.868633 
L 306.3714 90.868633 
z
" clip-path="url(#p944ee5407c)" style="fill: #1f77b4; opacity: 0.6"/>
   </g>
   <g id="patch_40">
    <path d="M 307.69888 244.078125 
L 309.02636 244.078125 
L 309.02636 120.57982 
L 307.69888 120.57982 
z
" clip-path="url(#p944ee5407c)" style="fill: #1f77b4; opacity: 0.6"/>
   </g>
   <g id="patch_41">
    <path d="M 309.02636 244.078125 
L 310.35384 244.078125 
L 310.35384 134.182532 
L 309.02636 134.182532 
z
" clip-path="url(#p944ee5407c)" style="fill: #1f77b4; opacity: 0.6"/>
   </g>
   <g id="patch_42">
    <path d="M 310.35384 244.078125 
L 311.68132 244.078125 
L 311.68132 143.48965 
L 310.35384 143.48965 
z
" clip-path="url(#p944ee5407c)" style="fill: #1f77b4; opacity: 0.6"/>
   </g>
   <g id="patch_43">
    <path d="M 311.68132 244.078125 
L 313.0088 244.078125 
L 313.0088 160.314057 
L 311.68132 160.314057 
z
" clip-path="url(#p944ee5407c)" style="fill: #1f77b4; opacity: 0.6"/>
   </g>
   <g id="patch_44">
    <path d="M 313.0088 244.078125 
L 314.33628 244.078125 
L 314.33628 167.473379 
L 313.0088 167.473379 
z
" clip-path="url(#p944ee5407c)" style="fill: #1f77b4; opacity: 0.6"/>
   </g>
   <g id="patch_45">
    <path d="M 314.33628 244.078125 
L 315.66376 244.078125 
L 315.66376 186.087617 
L 314.33628 186.087617 
z
" clip-path="url(#p944ee5407c)" style="fill: #1f77b4; opacity: 0.6"/>
   </g>
   <g id="patch_46">
    <path d="M 315.66376 244.078125 
L 316.99124 244.078125 
L 316.99124 197.900498 
L 315.66376 197.900498 
z
" clip-path="url(#p944ee5407c)" style="fill: #1f77b4; opacity: 0.6"/>
   </g>
   <g id="patch_47">
    <path d="M 316.99124 244.078125 
L 318.31872 244.078125 
L 318.31872 208.997447 
L 316.99124 208.997447 
z
" clip-path="url(#p944ee5407c)" style="fill: #1f77b4; opacity: 0.6"/>
   </g>
   <g id="patch_48">
    <path d="M 318.31872 244.078125 
L 319.6462 244.078125 
L 319.6462 212.219142 
L 318.31872 212.219142 
z
" clip-path="url(#p944ee5407c)" style="fill: #1f77b4; opacity: 0.6"/>
   </g>
   <g id="patch_49">
    <path d="M 319.6462 244.078125 
L 320.97368 244.078125 
L 320.97368 226.895752 
L 319.6462 226.895752 
z
" clip-path="url(#p944ee5407c)" style="fill: #1f77b4; opacity: 0.6"/>
   </g>
   <g id="patch_50">
    <path d="M 320.97368 244.078125 
L 322.30116 244.078125 
L 322.30116 231.191345 
L 320.97368 231.191345 
z
" clip-path="url(#p944ee5407c)" style="fill: #1f77b4; opacity: 0.6"/>
   </g>
   <g id="patch_51">
    <path d="M 322.30116 244.078125 
L 323.62864 244.078125 
L 323.62864 232.265244 
L 322.30116 232.265244 
z
" clip-path="url(#p944ee5407c)" style="fill: #1f77b4; opacity: 0.6"/>
   </g>
   <g id="patch_52">
    <path d="M 323.62864 244.078125 
L 324.956119 244.078125 
L 324.956119 235.844905 
L 323.62864 235.844905 
z
" clip-path="url(#p944ee5407c)" style="fill: #1f77b4; opacity: 0.6"/>
   </g>
   <g id="patch_53">
    <path d="M 324.956119 244.078125 
L 326.283599 244.078125 
L 326.283599 239.424566 
L 324.956119 239.424566 
z
" clip-path="url(#p944ee5407c)" style="fill: #1f77b4; opacity: 0.6"/>
   </g>
   <g id="patch_54">
    <path d="M 326.283599 244.078125 
L 327.611079 244.078125 
L 327.611079 239.424566 
L 326.283599 239.424566 
z
" clip-path="url(#p944ee5407c)" style="fill: #1f77b4; opacity: 0.6"/>
   </g>
   <g id="patch_55">
    <path d="M 327.611079 244.078125 
L 328.938559 244.078125 
L 328.938559 241.572362 
L 327.611079 241.572362 
z
" clip-path="url(#p944ee5407c)" style="fill: #1f77b4; opacity: 0.6"/>
   </g>
   <g id="patch_56">
    <path d="M 328.938559 244.078125 
L 330.266039 244.078125 
L 330.266039 241.572362 
L 328.938559 241.572362 
z
" clip-path="url(#p944ee5407c)" style="fill: #1f77b4; opacity: 0.6"/>
   </g>
   <g id="patch_57">
    <path d="M 330.266039 244.078125 
L 331.593519 244.078125 
L 331.593519 242.288294 
L 330.266039 242.288294 
z
" clip-path="url(#p944ee5407c)" style="fill: #1f77b4; opacity: 0.6"/>
   </g>
   <g id="patch_58">
    <path d="M 331.593519 244.078125 
L 332.920999 244.078125 
L 332.920999 243.362193 
L 331.593519 243.362193 
z
" clip-path="url(#p944ee5407c)" style="fill: #1f77b4; opacity: 0.6"/>
   </g>
   <g id="patch_59">
    <path d="M 332.920999 244.078125 
L 334.248479 244.078125 
L 334.248479 244.078125 
L 332.920999 244.078125 
z
" clip-path="url(#p944ee5407c)" style="fill: #1f77b4; opacity: 0.6"/>
   </g>
   <g id="patch_60">
    <path d="M 334.248479 244.078125 
L 335.575959 244.078125 
L 335.575959 244.078125 
L 334.248479 244.078125 
z
" clip-path="url(#p944ee5407c)" style="fill: #1f77b4; opacity: 0.6"/>
   </g>
   <g id="patch_61">
    <path d="M 335.575959 244.078125 
L 336.903439 244.078125 
L 336.903439 244.078125 
L 335.575959 244.078125 
z
" clip-path="url(#p944ee5407c)" style="fill: #1f77b4; opacity: 0.6"/>
   </g>
   <g id="patch_62">
    <path d="M 336.903439 244.078125 
L 338.230919 244.078125 
L 338.230919 243.720159 
L 336.903439 243.720159 
z
" clip-path="url(#p944ee5407c)" style="fill: #1f77b4; opacity: 0.6"/>
   </g>
   <g id="patch_63">
    <path d="M 79.333523 244.078125 
L 86.942614 244.078125 
L 86.942614 244.015674 
L 79.333523 244.015674 
z
" clip-path="url(#p944ee5407c)" style="fill: #ff7f0e; opacity: 0.6"/>
   </g>
   <g id="patch_64">
    <path d="M 86.942614 244.078125 
L 94.551705 244.078125 
L 94.551705 244.015674 
L 86.942614 244.015674 
z
" clip-path="url(#p944ee5407c)" style="fill: #ff7f0e; opacity: 0.6"/>
   </g>
   <g id="patch_65">
    <path d="M 94.551705 244.078125 
L 102.160795 244.078125 
L 102.160795 244.015674 
L 94.551705 244.015674 
z
" clip-path="url(#p944ee5407c)" style="fill: #ff7f0e; opacity: 0.6"/>
   </g>
   <g id="patch_66">
    <path d="M 102.160795 244.078125 
L 109.769886 244.078125 
L 109.769886 243.953224 
L 102.160795 243.953224 
z
" clip-path="url(#p944ee5407c)" style="fill: #ff7f0e; opacity: 0.6"/>
   </g>
   <g id="patch_67">
    <path d="M 109.769886 244.078125 
L 117.378977 244.078125 
L 117.378977 243.953224 
L 109.769886 243.953224 
z
" clip-path="url(#p944ee5407c)" style="fill: #ff7f0e; opacity: 0.6"/>
   </g>
   <g id="patch_68">
    <path d="M 117.378977 244.078125 
L 124.988068 244.078125 
L 124.988068 243.828322 
L 117.378977 243.828322 
z
" clip-path="url(#p944ee5407c)" style="fill: #ff7f0e; opacity: 0.6"/>
   </g>
   <g id="patch_69">
    <path d="M 124.988068 244.078125 
L 132.597159 244.078125 
L 132.597159 243.765872 
L 124.988068 243.765872 
z
" clip-path="url(#p944ee5407c)" style="fill: #ff7f0e; opacity: 0.6"/>
   </g>
   <g id="patch_70">
    <path d="M 132.597159 244.078125 
L 140.20625 244.078125 
L 140.20625 243.57852 
L 132.597159 243.57852 
z
" clip-path="url(#p944ee5407c)" style="fill: #ff7f0e; opacity: 0.6"/>
   </g>
   <g id="patch_71">
    <path d="M 140.20625 244.078125 
L 147.815341 244.078125 
L 147.815341 243.765872 
L 140.20625 243.765872 
z
" clip-path="url(#p944ee5407c)" style="fill: #ff7f0e; opacity: 0.6"/>
   </g>
   <g id="patch_72">
    <path d="M 147.815341 244.078125 
L 155.424432 244.078125 
L 155.424432 243.141365 
L 147.815341 243.141365 
z
" clip-path="url(#p944ee5407c)" style="fill: #ff7f0e; opacity: 0.6"/>
   </g>
   <g id="patch_73">
    <path d="M 155.424432 244.078125 
L 163.033523 244.078125 
L 163.033523 242.454408 
L 155.424432 242.454408 
z
" clip-path="url(#p944ee5407c)" style="fill: #ff7f0e; opacity: 0.6"/>
   </g>
   <g id="patch_74">
    <path d="M 163.033523 244.078125 
L 170.642614 244.078125 
L 170.642614 242.142154 
L 163.033523 242.142154 
z
" clip-path="url(#p944ee5407c)" style="fill: #ff7f0e; opacity: 0.6"/>
   </g>
   <g id="patch_75">
    <path d="M 170.642614 244.078125 
L 178.251705 244.078125 
L 178.251705 241.205394 
L 170.642614 241.205394 
z
" clip-path="url(#p944ee5407c)" style="fill: #ff7f0e; opacity: 0.6"/>
   </g>
   <g id="patch_76">
    <path d="M 178.251705 244.078125 
L 185.860795 244.078125 
L 185.860795 240.393535 
L 178.251705 240.393535 
z
" clip-path="url(#p944ee5407c)" style="fill: #ff7f0e; opacity: 0.6"/>
   </g>
   <g id="patch_77">
    <path d="M 185.860795 244.078125 
L 193.469886 244.078125 
L 193.469886 239.269423 
L 185.860795 239.269423 
z
" clip-path="url(#p944ee5407c)" style="fill: #ff7f0e; opacity: 0.6"/>
   </g>
   <g id="patch_78">
    <path d="M 193.469886 244.078125 
L 201.078977 244.078125 
L 201.078977 238.332663 
L 193.469886 238.332663 
z
" clip-path="url(#p944ee5407c)" style="fill: #ff7f0e; opacity: 0.6"/>
   </g>
   <g id="patch_79">
    <path d="M 201.078977 244.078125 
L 208.688068 244.078125 
L 208.688068 235.834637 
L 201.078977 235.834637 
z
" clip-path="url(#p944ee5407c)" style="fill: #ff7f0e; opacity: 0.6"/>
   </g>
   <g id="patch_80">
    <path d="M 208.688068 244.078125 
L 216.297159 244.078125 
L 216.297159 234.27337 
L 208.688068 234.27337 
z
" clip-path="url(#p944ee5407c)" style="fill: #ff7f0e; opacity: 0.6"/>
   </g>
   <g id="patch_81">
    <path d="M 216.297159 244.078125 
L 223.90625 244.078125 
L 223.90625 230.963484 
L 216.297159 230.963484 
z
" clip-path="url(#p944ee5407c)" style="fill: #ff7f0e; opacity: 0.6"/>
   </g>
   <g id="patch_82">
    <path d="M 223.90625 244.078125 
L 231.515341 244.078125 
L 231.515341 229.589569 
L 223.90625 229.589569 
z
" clip-path="url(#p944ee5407c)" style="fill: #ff7f0e; opacity: 0.6"/>
   </g>
   <g id="patch_83">
    <path d="M 231.515341 244.078125 
L 239.124432 244.078125 
L 239.124432 228.028303 
L 231.515341 228.028303 
z
" clip-path="url(#p944ee5407c)" style="fill: #ff7f0e; opacity: 0.6"/>
   </g>
   <g id="patch_84">
    <path d="M 239.124432 244.078125 
L 246.733523 244.078125 
L 246.733523 224.468614 
L 239.124432 224.468614 
z
" clip-path="url(#p944ee5407c)" style="fill: #ff7f0e; opacity: 0.6"/>
   </g>
   <g id="patch_85">
    <path d="M 246.733523 244.078125 
L 254.342614 244.078125 
L 254.342614 220.971377 
L 246.733523 220.971377 
z
" clip-path="url(#p944ee5407c)" style="fill: #ff7f0e; opacity: 0.6"/>
   </g>
   <g id="patch_86">
    <path d="M 254.342614 244.078125 
L 261.951705 244.078125 
L 261.951705 217.723942 
L 254.342614 217.723942 
z
" clip-path="url(#p944ee5407c)" style="fill: #ff7f0e; opacity: 0.6"/>
   </g>
   <g id="patch_87">
    <path d="M 261.951705 244.078125 
L 269.560795 244.078125 
L 269.560795 215.850422 
L 261.951705 215.850422 
z
" clip-path="url(#p944ee5407c)" style="fill: #ff7f0e; opacity: 0.6"/>
   </g>
   <g id="patch_88">
    <path d="M 269.560795 244.078125 
L 277.169886 244.078125 
L 277.169886 215.413267 
L 269.560795 215.413267 
z
" clip-path="url(#p944ee5407c)" style="fill: #ff7f0e; opacity: 0.6"/>
   </g>
   <g id="patch_89">
    <path d="M 277.169886 244.078125 
L 284.778977 244.078125 
L 284.778977 214.039353 
L 277.169886 214.039353 
z
" clip-path="url(#p944ee5407c)" style="fill: #ff7f0e; opacity: 0.6"/>
   </g>
   <g id="patch_90">
    <path d="M 284.778977 244.078125 
L 292.388068 244.078125 
L 292.388068 209.355552 
L 284.778977 209.355552 
z
" clip-path="url(#p944ee5407c)" style="fill: #ff7f0e; opacity: 0.6"/>
   </g>
   <g id="patch_91">
    <path d="M 292.388068 244.078125 
L 299.997159 244.078125 
L 299.997159 210.667016 
L 292.388068 210.667016 
z
" clip-path="url(#p944ee5407c)" style="fill: #ff7f0e; opacity: 0.6"/>
   </g>
   <g id="patch_92">
    <path d="M 299.997159 244.078125 
L 307.60625 244.078125 
L 307.60625 211.91603 
L 299.997159 211.91603 
z
" clip-path="url(#p944ee5407c)" style="fill: #ff7f0e; opacity: 0.6"/>
   </g>
   <g id="patch_93">
    <path d="M 307.60625 244.078125 
L 315.215341 244.078125 
L 315.215341 211.291523 
L 307.60625 211.291523 
z
" clip-path="url(#p944ee5407c)" style="fill: #ff7f0e; opacity: 0.6"/>
   </g>
   <g id="patch_94">
    <path d="M 315.215341 244.078125 
L 322.824432 244.078125 
L 322.824432 211.853579 
L 315.215341 211.853579 
z
" clip-path="url(#p944ee5407c)" style="fill: #ff7f0e; opacity: 0.6"/>
   </g>
   <g id="patch_95">
    <path d="M 322.824432 244.078125 
L 330.433523 244.078125 
L 330.433523 213.78955 
L 322.824432 213.78955 
z
" clip-path="url(#p944ee5407c)" style="fill: #ff7f0e; opacity: 0.6"/>
   </g>
   <g id="patch_96">
    <path d="M 330.433523 244.078125 
L 338.042614 244.078125 
L 338.042614 217.973745 
L 330.433523 217.973745 
z
" clip-path="url(#p944ee5407c)" style="fill: #ff7f0e; opacity: 0.6"/>
   </g>
   <g id="patch_97">
    <path d="M 338.042614 244.078125 
L 345.651705 244.078125 
L 345.651705 219.222758 
L 338.042614 219.222758 
z
" clip-path="url(#p944ee5407c)" style="fill: #ff7f0e; opacity: 0.6"/>
   </g>
   <g id="patch_98">
    <path d="M 345.651705 244.078125 
L 353.260795 244.078125 
L 353.260795 221.658334 
L 345.651705 221.658334 
z
" clip-path="url(#p944ee5407c)" style="fill: #ff7f0e; opacity: 0.6"/>
   </g>
   <g id="patch_99">
    <path d="M 353.260795 244.078125 
L 360.869886 244.078125 
L 360.869886 225.280473 
L 353.260795 225.280473 
z
" clip-path="url(#p944ee5407c)" style="fill: #ff7f0e; opacity: 0.6"/>
   </g>
   <g id="patch_100">
    <path d="M 360.869886 244.078125 
L 368.478977 244.078125 
L 368.478977 225.030671 
L 360.869886 225.030671 
z
" clip-path="url(#p944ee5407c)" style="fill: #ff7f0e; opacity: 0.6"/>
   </g>
   <g id="patch_101">
    <path d="M 368.478977 244.078125 
L 376.088068 244.078125 
L 376.088068 228.965063 
L 368.478977 228.965063 
z
" clip-path="url(#p944ee5407c)" style="fill: #ff7f0e; opacity: 0.6"/>
   </g>
   <g id="patch_102">
    <path d="M 376.088068 244.078125 
L 383.697159 244.078125 
L 383.697159 230.214076 
L 376.088068 230.214076 
z
" clip-path="url(#p944ee5407c)" style="fill: #ff7f0e; opacity: 0.6"/>
   </g>
   <g id="patch_103">
    <path d="M 383.697159 244.078125 
L 391.30625 244.078125 
L 391.30625 233.149258 
L 383.697159 233.149258 
z
" clip-path="url(#p944ee5407c)" style="fill: #ff7f0e; opacity: 0.6"/>
   </g>
   <g id="patch_104">
    <path d="M 391.30625 244.078125 
L 398.915341 244.078125 
L 398.915341 236.271791 
L 391.30625 236.271791 
z
" clip-path="url(#p944ee5407c)" style="fill: #ff7f0e; opacity: 0.6"/>
   </g>
   <g id="patch_105">
    <path d="M 398.915341 244.078125 
L 406.524432 244.078125 
L 406.524432 236.209341 
L 398.915341 236.209341 
z
" clip-path="url(#p944ee5407c)" style="fill: #ff7f0e; opacity: 0.6"/>
   </g>
   <g id="patch_106">
    <path d="M 406.524432 244.078125 
L 414.133523 244.078125 
L 414.133523 237.957959 
L 406.524432 237.957959 
z
" clip-path="url(#p944ee5407c)" style="fill: #ff7f0e; opacity: 0.6"/>
   </g>
   <g id="patch_107">
    <path d="M 414.133523 244.078125 
L 421.742614 244.078125 
L 421.742614 239.956381 
L 414.133523 239.956381 
z
" clip-path="url(#p944ee5407c)" style="fill: #ff7f0e; opacity: 0.6"/>
   </g>
   <g id="patch_108">
    <path d="M 421.742614 244.078125 
L 429.351705 244.078125 
L 429.351705 240.518437 
L 421.742614 240.518437 
z
" clip-path="url(#p944ee5407c)" style="fill: #ff7f0e; opacity: 0.6"/>
   </g>
   <g id="patch_109">
    <path d="M 429.351705 244.078125 
L 436.960795 244.078125 
L 436.960795 241.892352 
L 429.351705 241.892352 
z
" clip-path="url(#p944ee5407c)" style="fill: #ff7f0e; opacity: 0.6"/>
   </g>
   <g id="patch_110">
    <path d="M 436.960795 244.078125 
L 444.569886 244.078125 
L 444.569886 242.579309 
L 436.960795 242.579309 
z
" clip-path="url(#p944ee5407c)" style="fill: #ff7f0e; opacity: 0.6"/>
   </g>
   <g id="patch_111">
    <path d="M 444.569886 244.078125 
L 452.178977 244.078125 
L 452.178977 242.64176 
L 444.569886 242.64176 
z
" clip-path="url(#p944ee5407c)" style="fill: #ff7f0e; opacity: 0.6"/>
   </g>
   <g id="patch_112">
    <path d="M 452.178977 244.078125 
L 459.788068 244.078125 
L 459.788068 243.391168 
L 452.178977 243.391168 
z
" clip-path="url(#p944ee5407c)" style="fill: #ff7f0e; opacity: 0.6"/>
   </g>
   <g id="patch_113">
    <path d="M 459.788068 244.078125 
L 467.397159 244.078125 
L 467.397159 243.453618 
L 459.788068 243.453618 
z
" clip-path="url(#p944ee5407c)" style="fill: #ff7f0e; opacity: 0.6"/>
   </g>
   <g id="patch_114">
    <path d="M 467.397159 244.078125 
L 475.00625 244.078125 
L 475.00625 243.765872 
L 467.397159 243.765872 
z
" clip-path="url(#p944ee5407c)" style="fill: #ff7f0e; opacity: 0.6"/>
   </g>
   <g id="patch_115">
    <path d="M 475.00625 244.078125 
L 482.615341 244.078125 
L 482.615341 243.703421 
L 475.00625 243.703421 
z
" clip-path="url(#p944ee5407c)" style="fill: #ff7f0e; opacity: 0.6"/>
   </g>
   <g id="patch_116">
    <path d="M 482.615341 244.078125 
L 490.224432 244.078125 
L 490.224432 244.078125 
L 482.615341 244.078125 
z
" clip-path="url(#p944ee5407c)" style="fill: #ff7f0e; opacity: 0.6"/>
   </g>
   <g id="patch_117">
    <path d="M 490.224432 244.078125 
L 497.833523 244.078125 
L 497.833523 244.078125 
L 490.224432 244.078125 
z
" clip-path="url(#p944ee5407c)" style="fill: #ff7f0e; opacity: 0.6"/>
   </g>
   <g id="patch_118">
    <path d="M 497.833523 244.078125 
L 505.442614 244.078125 
L 505.442614 244.078125 
L 497.833523 244.078125 
z
" clip-path="url(#p944ee5407c)" style="fill: #ff7f0e; opacity: 0.6"/>
   </g>
   <g id="patch_119">
    <path d="M 505.442614 244.078125 
L 513.051705 244.078125 
L 513.051705 244.078125 
L 505.442614 244.078125 
z
" clip-path="url(#p944ee5407c)" style="fill: #ff7f0e; opacity: 0.6"/>
   </g>
   <g id="patch_120">
    <path d="M 513.051705 244.078125 
L 520.660795 244.078125 
L 520.660795 244.078125 
L 513.051705 244.078125 
z
" clip-path="url(#p944ee5407c)" style="fill: #ff7f0e; opacity: 0.6"/>
   </g>
   <g id="patch_121">
    <path d="M 520.660795 244.078125 
L 528.269886 244.078125 
L 528.269886 244.078125 
L 520.660795 244.078125 
z
" clip-path="url(#p944ee5407c)" style="fill: #ff7f0e; opacity: 0.6"/>
   </g>
   <g id="patch_122">
    <path d="M 528.269886 244.078125 
L 535.878977 244.078125 
L 535.878977 244.015674 
L 528.269886 244.015674 
z
" clip-path="url(#p944ee5407c)" style="fill: #ff7f0e; opacity: 0.6"/>
   </g>
   <g id="matplotlib.axis_1">
    <g id="xtick_1">
     <g id="line2d_1">
      <path d="M 63.496652 244.078125 
L 63.496652 22.318125 
" clip-path="url(#p944ee5407c)" style="fill: none; stroke: #b0b0b0; stroke-opacity: 0.3; stroke-width: 0.8; stroke-linecap: square"/>
     </g>
     <g id="line2d_2">
      <defs>
       <path id="mc6c74f36c7" d="M 0 0 
L 0 3.5 
" style="stroke: #000000; stroke-width: 0.8"/>
      </defs>
      <g>
       <use xlink:href="#mc6c74f36c7" x="63.496652" y="244.078125" style="stroke: #000000; stroke-width: 0.8"/>
      </g>
     </g>
     <g id="text_1">
      <!-- −40 -->
      <g transform="translate(52.944308 258.676562) scale(0.1 -0.1)">
       <defs>
        <path id="DejaVuSans-2212" d="M 678 2272 
L 4684 2272 
L 4684 1741 
L 678 1741 
L 678 2272 
z
" transform="scale(0.015625)"/>
        <path id="DejaVuSans-34" d="M 2419 4116 
L 825 1625 
L 2419 1625 
L 2419 4116 
z
M 2253 4666 
L 3047 4666 
L 3047 1625 
L 3713 1625 
L 3713 1100 
L 3047 1100 
L 3047 0 
L 2419 0 
L 2419 1100 
L 313 1100 
L 313 1709 
L 2253 4666 
z
" transform="scale(0.015625)"/>
        <path id="DejaVuSans-30" d="M 2034 4250 
Q 1547 4250 1301 3770 
Q 1056 3291 1056 2328 
Q 1056 1369 1301 889 
Q 1547 409 2034 409 
Q 2525 409 2770 889 
Q 3016 1369 3016 2328 
Q 3016 3291 2770 3770 
Q 2525 4250 2034 4250 
z
M 2034 4750 
Q 2819 4750 3233 4129 
Q 3647 3509 3647 2328 
Q 3647 1150 3233 529 
Q 2819 -91 2034 -91 
Q 1250 -91 836 529 
Q 422 1150 422 2328 
Q 422 3509 836 4129 
Q 1250 4750 2034 4750 
z
" transform="scale(0.015625)"/>
       </defs>
       <use xlink:href="#DejaVuSans-2212"/>
       <use xlink:href="#DejaVuSans-34" transform="translate(83.789062 0)"/>
       <use xlink:href="#DejaVuSans-30" transform="translate(147.412109 0)"/>
      </g>
     </g>
    </g>
    <g id="xtick_2">
     <g id="line2d_3">
      <path d="M 158.14832 244.078125 
L 158.14832 22.318125 
" clip-path="url(#p944ee5407c)" style="fill: none; stroke: #b0b0b0; stroke-opacity: 0.3; stroke-width: 0.8; stroke-linecap: square"/>
     </g>
     <g id="line2d_4">
      <g>
       <use xlink:href="#mc6c74f36c7" x="158.14832" y="244.078125" style="stroke: #000000; stroke-width: 0.8"/>
      </g>
     </g>
     <g id="text_2">
      <!-- −20 -->
      <g transform="translate(147.595977 258.676562) scale(0.1 -0.1)">
       <defs>
        <path id="DejaVuSans-32" d="M 1228 531 
L 3431 531 
L 3431 0 
L 469 0 
L 469 531 
Q 828 903 1448 1529 
Q 2069 2156 2228 2338 
Q 2531 2678 2651 2914 
Q 2772 3150 2772 3378 
Q 2772 3750 2511 3984 
Q 2250 4219 1831 4219 
Q 1534 4219 1204 4116 
Q 875 4013 500 3803 
L 500 4441 
Q 881 4594 1212 4672 
Q 1544 4750 1819 4750 
Q 2544 4750 2975 4387 
Q 3406 4025 3406 3419 
Q 3406 3131 3298 2873 
Q 3191 2616 2906 2266 
Q 2828 2175 2409 1742 
Q 1991 1309 1228 531 
z
" transform="scale(0.015625)"/>
       </defs>
       <use xlink:href="#DejaVuSans-2212"/>
       <use xlink:href="#DejaVuSans-32" transform="translate(83.789062 0)"/>
       <use xlink:href="#DejaVuSans-30" transform="translate(147.412109 0)"/>
      </g>
     </g>
    </g>
    <g id="xtick_3">
     <g id="line2d_5">
      <path d="M 252.799989 244.078125 
L 252.799989 22.318125 
" clip-path="url(#p944ee5407c)" style="fill: none; stroke: #b0b0b0; stroke-opacity: 0.3; stroke-width: 0.8; stroke-linecap: square"/>
     </g>
     <g id="line2d_6">
      <g>
       <use xlink:href="#mc6c74f36c7" x="252.799989" y="244.078125" style="stroke: #000000; stroke-width: 0.8"/>
      </g>
     </g>
     <g id="text_3">
      <!-- 0 -->
      <g transform="translate(249.618739 258.676562) scale(0.1 -0.1)">
       <use xlink:href="#DejaVuSans-30"/>
      </g>
     </g>
    </g>
    <g id="xtick_4">
     <g id="line2d_7">
      <path d="M 347.451657 244.078125 
L 347.451657 22.318125 
" clip-path="url(#p944ee5407c)" style="fill: none; stroke: #b0b0b0; stroke-opacity: 0.3; stroke-width: 0.8; stroke-linecap: square"/>
     </g>
     <g id="line2d_8">
      <g>
       <use xlink:href="#mc6c74f36c7" x="347.451657" y="244.078125" style="stroke: #000000; stroke-width: 0.8"/>
      </g>
     </g>
     <g id="text_4">
      <!-- 20 -->
      <g transform="translate(341.089157 258.676562) scale(0.1 -0.1)">
       <use xlink:href="#DejaVuSans-32"/>
       <use xlink:href="#DejaVuSans-30" transform="translate(63.623047 0)"/>
      </g>
     </g>
    </g>
    <g id="xtick_5">
     <g id="line2d_9">
      <path d="M 442.103325 244.078125 
L 442.103325 22.318125 
" clip-path="url(#p944ee5407c)" style="fill: none; stroke: #b0b0b0; stroke-opacity: 0.3; stroke-width: 0.8; stroke-linecap: square"/>
     </g>
     <g id="line2d_10">
      <g>
       <use xlink:href="#mc6c74f36c7" x="442.103325" y="244.078125" style="stroke: #000000; stroke-width: 0.8"/>
      </g>
     </g>
     <g id="text_5">
      <!-- 40 -->
      <g transform="translate(435.740825 258.676562) scale(0.1 -0.1)">
       <use xlink:href="#DejaVuSans-34"/>
       <use xlink:href="#DejaVuSans-30" transform="translate(63.623047 0)"/>
      </g>
     </g>
    </g>
    <g id="xtick_6">
     <g id="line2d_11">
      <path d="M 536.754994 244.078125 
L 536.754994 22.318125 
" clip-path="url(#p944ee5407c)" style="fill: none; stroke: #b0b0b0; stroke-opacity: 0.3; stroke-width: 0.8; stroke-linecap: square"/>
     </g>
     <g id="line2d_12">
      <g>
       <use xlink:href="#mc6c74f36c7" x="536.754994" y="244.078125" style="stroke: #000000; stroke-width: 0.8"/>
      </g>
     </g>
     <g id="text_6">
      <!-- 60 -->
      <g transform="translate(530.392494 258.676562) scale(0.1 -0.1)">
       <defs>
        <path id="DejaVuSans-36" d="M 2113 2584 
Q 1688 2584 1439 2293 
Q 1191 2003 1191 1497 
Q 1191 994 1439 701 
Q 1688 409 2113 409 
Q 2538 409 2786 701 
Q 3034 994 3034 1497 
Q 3034 2003 2786 2293 
Q 2538 2584 2113 2584 
z
M 3366 4563 
L 3366 3988 
Q 3128 4100 2886 4159 
Q 2644 4219 2406 4219 
Q 1781 4219 1451 3797 
Q 1122 3375 1075 2522 
Q 1259 2794 1537 2939 
Q 1816 3084 2150 3084 
Q 2853 3084 3261 2657 
Q 3669 2231 3669 1497 
Q 3669 778 3244 343 
Q 2819 -91 2113 -91 
Q 1303 -91 875 529 
Q 447 1150 447 2328 
Q 447 3434 972 4092 
Q 1497 4750 2381 4750 
Q 2619 4750 2861 4703 
Q 3103 4656 3366 4563 
z
" transform="scale(0.015625)"/>
       </defs>
       <use xlink:href="#DejaVuSans-36"/>
       <use xlink:href="#DejaVuSans-30" transform="translate(63.623047 0)"/>
      </g>
     </g>
    </g>
    <g id="text_7">
     <!-- Return -->
     <g transform="translate(291.014844 272.354687) scale(0.1 -0.1)">
      <defs>
       <path id="DejaVuSans-52" d="M 2841 2188 
Q 3044 2119 3236 1894 
Q 3428 1669 3622 1275 
L 4263 0 
L 3584 0 
L 2988 1197 
Q 2756 1666 2539 1819 
Q 2322 1972 1947 1972 
L 1259 1972 
L 1259 0 
L 628 0 
L 628 4666 
L 2053 4666 
Q 2853 4666 3247 4331 
Q 3641 3997 3641 3322 
Q 3641 2881 3436 2590 
Q 3231 2300 2841 2188 
z
M 1259 4147 
L 1259 2491 
L 2053 2491 
Q 2509 2491 2742 2702 
Q 2975 2913 2975 3322 
Q 2975 3731 2742 3939 
Q 2509 4147 2053 4147 
L 1259 4147 
z
" transform="scale(0.015625)"/>
       <path id="DejaVuSans-65" d="M 3597 1894 
L 3597 1613 
L 953 1613 
Q 991 1019 1311 708 
Q 1631 397 2203 397 
Q 2534 397 2845 478 
Q 3156 559 3463 722 
L 3463 178 
Q 3153 47 2828 -22 
Q 2503 -91 2169 -91 
Q 1331 -91 842 396 
Q 353 884 353 1716 
Q 353 2575 817 3079 
Q 1281 3584 2069 3584 
Q 2775 3584 3186 3129 
Q 3597 2675 3597 1894 
z
M 3022 2063 
Q 3016 2534 2758 2815 
Q 2500 3097 2075 3097 
Q 1594 3097 1305 2825 
Q 1016 2553 972 2059 
L 3022 2063 
z
" transform="scale(0.015625)"/>
       <path id="DejaVuSans-74" d="M 1172 4494 
L 1172 3500 
L 2356 3500 
L 2356 3053 
L 1172 3053 
L 1172 1153 
Q 1172 725 1289 603 
Q 1406 481 1766 481 
L 2356 481 
L 2356 0 
L 1766 0 
Q 1100 0 847 248 
Q 594 497 594 1153 
L 594 3053 
L 172 3053 
L 172 3500 
L 594 3500 
L 594 4494 
L 1172 4494 
z
" transform="scale(0.015625)"/>
       <path id="DejaVuSans-75" d="M 544 1381 
L 544 3500 
L 1119 3500 
L 1119 1403 
Q 1119 906 1312 657 
Q 1506 409 1894 409 
Q 2359 409 2629 706 
Q 2900 1003 2900 1516 
L 2900 3500 
L 3475 3500 
L 3475 0 
L 2900 0 
L 2900 538 
Q 2691 219 2414 64 
Q 2138 -91 1772 -91 
Q 1169 -91 856 284 
Q 544 659 544 1381 
z
M 1991 3584 
L 1991 3584 
z
" transform="scale(0.015625)"/>
       <path id="DejaVuSans-72" d="M 2631 2963 
Q 2534 3019 2420 3045 
Q 2306 3072 2169 3072 
Q 1681 3072 1420 2755 
Q 1159 2438 1159 1844 
L 1159 0 
L 581 0 
L 581 3500 
L 1159 3500 
L 1159 2956 
Q 1341 3275 1631 3429 
Q 1922 3584 2338 3584 
Q 2397 3584 2469 3576 
Q 2541 3569 2628 3553 
L 2631 2963 
z
" transform="scale(0.015625)"/>
       <path id="DejaVuSans-6e" d="M 3513 2113 
L 3513 0 
L 2938 0 
L 2938 2094 
Q 2938 2591 2744 2837 
Q 2550 3084 2163 3084 
Q 1697 3084 1428 2787 
Q 1159 2491 1159 1978 
L 1159 0 
L 581 0 
L 581 3500 
L 1159 3500 
L 1159 2956 
Q 1366 3272 1645 3428 
Q 1925 3584 2291 3584 
Q 2894 3584 3203 3211 
Q 3513 2838 3513 2113 
z
" transform="scale(0.015625)"/>
      </defs>
      <use xlink:href="#DejaVuSans-52"/>
      <use xlink:href="#DejaVuSans-65" transform="translate(64.982422 0)"/>
      <use xlink:href="#DejaVuSans-74" transform="translate(126.505859 0)"/>
      <use xlink:href="#DejaVuSans-75" transform="translate(165.714844 0)"/>
      <use xlink:href="#DejaVuSans-72" transform="translate(229.09375 0)"/>
      <use xlink:href="#DejaVuSans-6e" transform="translate(268.457031 0)"/>
     </g>
    </g>
   </g>
   <g id="matplotlib.axis_2">
    <g id="ytick_1">
     <g id="line2d_13">
      <path d="M 56.50625 244.078125 
L 558.70625 244.078125 
" clip-path="url(#p944ee5407c)" style="fill: none; stroke: #b0b0b0; stroke-opacity: 0.3; stroke-width: 0.8; stroke-linecap: square"/>
     </g>
     <g id="line2d_14">
      <defs>
       <path id="m3180a2a280" d="M 0 0 
L -3.5 0 
" style="stroke: #000000; stroke-width: 0.8"/>
      </defs>
      <g>
       <use xlink:href="#m3180a2a280" x="56.50625" y="244.078125" style="stroke: #000000; stroke-width: 0.8"/>
      </g>
     </g>
     <g id="text_8">
      <!-- 0.000 -->
      <g transform="translate(20.878125 247.877344) scale(0.1 -0.1)">
       <defs>
        <path id="DejaVuSans-2e" d="M 684 794 
L 1344 794 
L 1344 0 
L 684 0 
L 684 794 
z
" transform="scale(0.015625)"/>
       </defs>
       <use xlink:href="#DejaVuSans-30"/>
       <use xlink:href="#DejaVuSans-2e" transform="translate(63.623047 0)"/>
       <use xlink:href="#DejaVuSans-30" transform="translate(95.410156 0)"/>
       <use xlink:href="#DejaVuSans-30" transform="translate(159.033203 0)"/>
       <use xlink:href="#DejaVuSans-30" transform="translate(222.65625 0)"/>
      </g>
     </g>
    </g>
    <g id="ytick_2">
     <g id="line2d_15">
      <path d="M 56.50625 218.975935 
L 558.70625 218.975935 
" clip-path="url(#p944ee5407c)" style="fill: none; stroke: #b0b0b0; stroke-opacity: 0.3; stroke-width: 0.8; stroke-linecap: square"/>
     </g>
     <g id="line2d_16">
      <g>
       <use xlink:href="#m3180a2a280" x="56.50625" y="218.975935" style="stroke: #000000; stroke-width: 0.8"/>
      </g>
     </g>
     <g id="text_9">
      <!-- 0.025 -->
      <g transform="translate(20.878125 222.775154) scale(0.1 -0.1)">
       <defs>
        <path id="DejaVuSans-35" d="M 691 4666 
L 3169 4666 
L 3169 4134 
L 1269 4134 
L 1269 2991 
Q 1406 3038 1543 3061 
Q 1681 3084 1819 3084 
Q 2600 3084 3056 2656 
Q 3513 2228 3513 1497 
Q 3513 744 3044 326 
Q 2575 -91 1722 -91 
Q 1428 -91 1123 -41 
Q 819 9 494 109 
L 494 744 
Q 775 591 1075 516 
Q 1375 441 1709 441 
Q 2250 441 2565 725 
Q 2881 1009 2881 1497 
Q 2881 1984 2565 2268 
Q 2250 2553 1709 2553 
Q 1456 2553 1204 2497 
Q 953 2441 691 2322 
L 691 4666 
z
" transform="scale(0.015625)"/>
       </defs>
       <use xlink:href="#DejaVuSans-30"/>
       <use xlink:href="#DejaVuSans-2e" transform="translate(63.623047 0)"/>
       <use xlink:href="#DejaVuSans-30" transform="translate(95.410156 0)"/>
       <use xlink:href="#DejaVuSans-32" transform="translate(159.033203 0)"/>
       <use xlink:href="#DejaVuSans-35" transform="translate(222.65625 0)"/>
      </g>
     </g>
    </g>
    <g id="ytick_3">
     <g id="line2d_17">
      <path d="M 56.50625 193.873745 
L 558.70625 193.873745 
" clip-path="url(#p944ee5407c)" style="fill: none; stroke: #b0b0b0; stroke-opacity: 0.3; stroke-width: 0.8; stroke-linecap: square"/>
     </g>
     <g id="line2d_18">
      <g>
       <use xlink:href="#m3180a2a280" x="56.50625" y="193.873745" style="stroke: #000000; stroke-width: 0.8"/>
      </g>
     </g>
     <g id="text_10">
      <!-- 0.050 -->
      <g transform="translate(20.878125 197.672964) scale(0.1 -0.1)">
       <use xlink:href="#DejaVuSans-30"/>
       <use xlink:href="#DejaVuSans-2e" transform="translate(63.623047 0)"/>
       <use xlink:href="#DejaVuSans-30" transform="translate(95.410156 0)"/>
       <use xlink:href="#DejaVuSans-35" transform="translate(159.033203 0)"/>
       <use xlink:href="#DejaVuSans-30" transform="translate(222.65625 0)"/>
      </g>
     </g>
    </g>
    <g id="ytick_4">
     <g id="line2d_19">
      <path d="M 56.50625 168.771556 
L 558.70625 168.771556 
" clip-path="url(#p944ee5407c)" style="fill: none; stroke: #b0b0b0; stroke-opacity: 0.3; stroke-width: 0.8; stroke-linecap: square"/>
     </g>
     <g id="line2d_20">
      <g>
       <use xlink:href="#m3180a2a280" x="56.50625" y="168.771556" style="stroke: #000000; stroke-width: 0.8"/>
      </g>
     </g>
     <g id="text_11">
      <!-- 0.075 -->
      <g transform="translate(20.878125 172.570774) scale(0.1 -0.1)">
       <defs>
        <path id="DejaVuSans-37" d="M 525 4666 
L 3525 4666 
L 3525 4397 
L 1831 0 
L 1172 0 
L 2766 4134 
L 525 4134 
L 525 4666 
z
" transform="scale(0.015625)"/>
       </defs>
       <use xlink:href="#DejaVuSans-30"/>
       <use xlink:href="#DejaVuSans-2e" transform="translate(63.623047 0)"/>
       <use xlink:href="#DejaVuSans-30" transform="translate(95.410156 0)"/>
       <use xlink:href="#DejaVuSans-37" transform="translate(159.033203 0)"/>
       <use xlink:href="#DejaVuSans-35" transform="translate(222.65625 0)"/>
      </g>
     </g>
    </g>
    <g id="ytick_5">
     <g id="line2d_21">
      <path d="M 56.50625 143.669366 
L 558.70625 143.669366 
" clip-path="url(#p944ee5407c)" style="fill: none; stroke: #b0b0b0; stroke-opacity: 0.3; stroke-width: 0.8; stroke-linecap: square"/>
     </g>
     <g id="line2d_22">
      <g>
       <use xlink:href="#m3180a2a280" x="56.50625" y="143.669366" style="stroke: #000000; stroke-width: 0.8"/>
      </g>
     </g>
     <g id="text_12">
      <!-- 0.100 -->
      <g transform="translate(20.878125 147.468585) scale(0.1 -0.1)">
       <defs>
        <path id="DejaVuSans-31" d="M 794 531 
L 1825 531 
L 1825 4091 
L 703 3866 
L 703 4441 
L 1819 4666 
L 2450 4666 
L 2450 531 
L 3481 531 
L 3481 0 
L 794 0 
L 794 531 
z
" transform="scale(0.015625)"/>
       </defs>
       <use xlink:href="#DejaVuSans-30"/>
       <use xlink:href="#DejaVuSans-2e" transform="translate(63.623047 0)"/>
       <use xlink:href="#DejaVuSans-31" transform="translate(95.410156 0)"/>
       <use xlink:href="#DejaVuSans-30" transform="translate(159.033203 0)"/>
       <use xlink:href="#DejaVuSans-30" transform="translate(222.65625 0)"/>
      </g>
     </g>
    </g>
    <g id="ytick_6">
     <g id="line2d_23">
      <path d="M 56.50625 118.567176 
L 558.70625 118.567176 
" clip-path="url(#p944ee5407c)" style="fill: none; stroke: #b0b0b0; stroke-opacity: 0.3; stroke-width: 0.8; stroke-linecap: square"/>
     </g>
     <g id="line2d_24">
      <g>
       <use xlink:href="#m3180a2a280" x="56.50625" y="118.567176" style="stroke: #000000; stroke-width: 0.8"/>
      </g>
     </g>
     <g id="text_13">
      <!-- 0.125 -->
      <g transform="translate(20.878125 122.366395) scale(0.1 -0.1)">
       <use xlink:href="#DejaVuSans-30"/>
       <use xlink:href="#DejaVuSans-2e" transform="translate(63.623047 0)"/>
       <use xlink:href="#DejaVuSans-31" transform="translate(95.410156 0)"/>
       <use xlink:href="#DejaVuSans-32" transform="translate(159.033203 0)"/>
       <use xlink:href="#DejaVuSans-35" transform="translate(222.65625 0)"/>
      </g>
     </g>
    </g>
    <g id="ytick_7">
     <g id="line2d_25">
      <path d="M 56.50625 93.464986 
L 558.70625 93.464986 
" clip-path="url(#p944ee5407c)" style="fill: none; stroke: #b0b0b0; stroke-opacity: 0.3; stroke-width: 0.8; stroke-linecap: square"/>
     </g>
     <g id="line2d_26">
      <g>
       <use xlink:href="#m3180a2a280" x="56.50625" y="93.464986" style="stroke: #000000; stroke-width: 0.8"/>
      </g>
     </g>
     <g id="text_14">
      <!-- 0.150 -->
      <g transform="translate(20.878125 97.264205) scale(0.1 -0.1)">
       <use xlink:href="#DejaVuSans-30"/>
       <use xlink:href="#DejaVuSans-2e" transform="translate(63.623047 0)"/>
       <use xlink:href="#DejaVuSans-31" transform="translate(95.410156 0)"/>
       <use xlink:href="#DejaVuSans-35" transform="translate(159.033203 0)"/>
       <use xlink:href="#DejaVuSans-30" transform="translate(222.65625 0)"/>
      </g>
     </g>
    </g>
    <g id="ytick_8">
     <g id="line2d_27">
      <path d="M 56.50625 68.362796 
L 558.70625 68.362796 
" clip-path="url(#p944ee5407c)" style="fill: none; stroke: #b0b0b0; stroke-opacity: 0.3; stroke-width: 0.8; stroke-linecap: square"/>
     </g>
     <g id="line2d_28">
      <g>
       <use xlink:href="#m3180a2a280" x="56.50625" y="68.362796" style="stroke: #000000; stroke-width: 0.8"/>
      </g>
     </g>
     <g id="text_15">
      <!-- 0.175 -->
      <g transform="translate(20.878125 72.162015) scale(0.1 -0.1)">
       <use xlink:href="#DejaVuSans-30"/>
       <use xlink:href="#DejaVuSans-2e" transform="translate(63.623047 0)"/>
       <use xlink:href="#DejaVuSans-31" transform="translate(95.410156 0)"/>
       <use xlink:href="#DejaVuSans-37" transform="translate(159.033203 0)"/>
       <use xlink:href="#DejaVuSans-35" transform="translate(222.65625 0)"/>
      </g>
     </g>
    </g>
    <g id="ytick_9">
     <g id="line2d_29">
      <path d="M 56.50625 43.260607 
L 558.70625 43.260607 
" clip-path="url(#p944ee5407c)" style="fill: none; stroke: #b0b0b0; stroke-opacity: 0.3; stroke-width: 0.8; stroke-linecap: square"/>
     </g>
     <g id="line2d_30">
      <g>
       <use xlink:href="#m3180a2a280" x="56.50625" y="43.260607" style="stroke: #000000; stroke-width: 0.8"/>
      </g>
     </g>
     <g id="text_16">
      <!-- 0.200 -->
      <g transform="translate(20.878125 47.059825) scale(0.1 -0.1)">
       <use xlink:href="#DejaVuSans-30"/>
       <use xlink:href="#DejaVuSans-2e" transform="translate(63.623047 0)"/>
       <use xlink:href="#DejaVuSans-32" transform="translate(95.410156 0)"/>
       <use xlink:href="#DejaVuSans-30" transform="translate(159.033203 0)"/>
       <use xlink:href="#DejaVuSans-30" transform="translate(222.65625 0)"/>
      </g>
     </g>
    </g>
    <g id="text_17">
     <!-- Density -->
     <g transform="translate(14.798438 152.206719) rotate(-90) scale(0.1 -0.1)">
      <defs>
       <path id="DejaVuSans-44" d="M 1259 4147 
L 1259 519 
L 2022 519 
Q 2988 519 3436 956 
Q 3884 1394 3884 2338 
Q 3884 3275 3436 3711 
Q 2988 4147 2022 4147 
L 1259 4147 
z
M 628 4666 
L 1925 4666 
Q 3281 4666 3915 4102 
Q 4550 3538 4550 2338 
Q 4550 1131 3912 565 
Q 3275 0 1925 0 
L 628 0 
L 628 4666 
z
" transform="scale(0.015625)"/>
       <path id="DejaVuSans-73" d="M 2834 3397 
L 2834 2853 
Q 2591 2978 2328 3040 
Q 2066 3103 1784 3103 
Q 1356 3103 1142 2972 
Q 928 2841 928 2578 
Q 928 2378 1081 2264 
Q 1234 2150 1697 2047 
L 1894 2003 
Q 2506 1872 2764 1633 
Q 3022 1394 3022 966 
Q 3022 478 2636 193 
Q 2250 -91 1575 -91 
Q 1294 -91 989 -36 
Q 684 19 347 128 
L 347 722 
Q 666 556 975 473 
Q 1284 391 1588 391 
Q 1994 391 2212 530 
Q 2431 669 2431 922 
Q 2431 1156 2273 1281 
Q 2116 1406 1581 1522 
L 1381 1569 
Q 847 1681 609 1914 
Q 372 2147 372 2553 
Q 372 3047 722 3315 
Q 1072 3584 1716 3584 
Q 2034 3584 2315 3537 
Q 2597 3491 2834 3397 
z
" transform="scale(0.015625)"/>
       <path id="DejaVuSans-69" d="M 603 3500 
L 1178 3500 
L 1178 0 
L 603 0 
L 603 3500 
z
M 603 4863 
L 1178 4863 
L 1178 4134 
L 603 4134 
L 603 4863 
z
" transform="scale(0.015625)"/>
       <path id="DejaVuSans-79" d="M 2059 -325 
Q 1816 -950 1584 -1140 
Q 1353 -1331 966 -1331 
L 506 -1331 
L 506 -850 
L 844 -850 
Q 1081 -850 1212 -737 
Q 1344 -625 1503 -206 
L 1606 56 
L 191 3500 
L 800 3500 
L 1894 763 
L 2988 3500 
L 3597 3500 
L 2059 -325 
z
" transform="scale(0.015625)"/>
      </defs>
      <use xlink:href="#DejaVuSans-44"/>
      <use xlink:href="#DejaVuSans-65" transform="translate(77.001953 0)"/>
      <use xlink:href="#DejaVuSans-6e" transform="translate(138.525391 0)"/>
      <use xlink:href="#DejaVuSans-73" transform="translate(201.904297 0)"/>
      <use xlink:href="#DejaVuSans-69" transform="translate(254.003906 0)"/>
      <use xlink:href="#DejaVuSans-74" transform="translate(281.787109 0)"/>
      <use xlink:href="#DejaVuSans-79" transform="translate(320.996094 0)"/>
     </g>
    </g>
   </g>
   <g id="patch_123">
    <path d="M 56.50625 244.078125 
L 56.50625 22.318125 
" style="fill: none; stroke: #000000; stroke-width: 0.8; stroke-linejoin: miter; stroke-linecap: square"/>
   </g>
   <g id="patch_124">
    <path d="M 558.70625 244.078125 
L 558.70625 22.318125 
" style="fill: none; stroke: #000000; stroke-width: 0.8; stroke-linejoin: miter; stroke-linecap: square"/>
   </g>
   <g id="patch_125">
    <path d="M 56.50625 244.078125 
L 558.70625 244.078125 
" style="fill: none; stroke: #000000; stroke-width: 0.8; stroke-linejoin: miter; stroke-linecap: square"/>
   </g>
   <g id="patch_126">
    <path d="M 56.50625 22.318125 
L 558.70625 22.318125 
" style="fill: none; stroke: #000000; stroke-width: 0.8; stroke-linejoin: miter; stroke-linecap: square"/>
   </g>
   <g id="text_18">
    <!-- Dua investasi dengan mean hampir sama, variance sangat berbeda -->
    <g transform="translate(103.258438 16.318125) scale(0.12 -0.12)">
     <defs>
      <path id="DejaVuSans-61" d="M 2194 1759 
Q 1497 1759 1228 1600 
Q 959 1441 959 1056 
Q 959 750 1161 570 
Q 1363 391 1709 391 
Q 2188 391 2477 730 
Q 2766 1069 2766 1631 
L 2766 1759 
L 2194 1759 
z
M 3341 1997 
L 3341 0 
L 2766 0 
L 2766 531 
Q 2569 213 2275 61 
Q 1981 -91 1556 -91 
Q 1019 -91 701 211 
Q 384 513 384 1019 
Q 384 1609 779 1909 
Q 1175 2209 1959 2209 
L 2766 2209 
L 2766 2266 
Q 2766 2663 2505 2880 
Q 2244 3097 1772 3097 
Q 1472 3097 1187 3025 
Q 903 2953 641 2809 
L 641 3341 
Q 956 3463 1253 3523 
Q 1550 3584 1831 3584 
Q 2591 3584 2966 3190 
Q 3341 2797 3341 1997 
z
" transform="scale(0.015625)"/>
      <path id="DejaVuSans-20" transform="scale(0.015625)"/>
      <path id="DejaVuSans-76" d="M 191 3500 
L 800 3500 
L 1894 563 
L 2988 3500 
L 3597 3500 
L 2284 0 
L 1503 0 
L 191 3500 
z
" transform="scale(0.015625)"/>
      <path id="DejaVuSans-64" d="M 2906 2969 
L 2906 4863 
L 3481 4863 
L 3481 0 
L 2906 0 
L 2906 525 
Q 2725 213 2448 61 
Q 2172 -91 1784 -91 
Q 1150 -91 751 415 
Q 353 922 353 1747 
Q 353 2572 751 3078 
Q 1150 3584 1784 3584 
Q 2172 3584 2448 3432 
Q 2725 3281 2906 2969 
z
M 947 1747 
Q 947 1113 1208 752 
Q 1469 391 1925 391 
Q 2381 391 2643 752 
Q 2906 1113 2906 1747 
Q 2906 2381 2643 2742 
Q 2381 3103 1925 3103 
Q 1469 3103 1208 2742 
Q 947 2381 947 1747 
z
" transform="scale(0.015625)"/>
      <path id="DejaVuSans-67" d="M 2906 1791 
Q 2906 2416 2648 2759 
Q 2391 3103 1925 3103 
Q 1463 3103 1205 2759 
Q 947 2416 947 1791 
Q 947 1169 1205 825 
Q 1463 481 1925 481 
Q 2391 481 2648 825 
Q 2906 1169 2906 1791 
z
M 3481 434 
Q 3481 -459 3084 -895 
Q 2688 -1331 1869 -1331 
Q 1566 -1331 1297 -1286 
Q 1028 -1241 775 -1147 
L 775 -588 
Q 1028 -725 1275 -790 
Q 1522 -856 1778 -856 
Q 2344 -856 2625 -561 
Q 2906 -266 2906 331 
L 2906 616 
Q 2728 306 2450 153 
Q 2172 0 1784 0 
Q 1141 0 747 490 
Q 353 981 353 1791 
Q 353 2603 747 3093 
Q 1141 3584 1784 3584 
Q 2172 3584 2450 3431 
Q 2728 3278 2906 2969 
L 2906 3500 
L 3481 3500 
L 3481 434 
z
" transform="scale(0.015625)"/>
      <path id="DejaVuSans-6d" d="M 3328 2828 
Q 3544 3216 3844 3400 
Q 4144 3584 4550 3584 
Q 5097 3584 5394 3201 
Q 5691 2819 5691 2113 
L 5691 0 
L 5113 0 
L 5113 2094 
Q 5113 2597 4934 2840 
Q 4756 3084 4391 3084 
Q 3944 3084 3684 2787 
Q 3425 2491 3425 1978 
L 3425 0 
L 2847 0 
L 2847 2094 
Q 2847 2600 2669 2842 
Q 2491 3084 2119 3084 
Q 1678 3084 1418 2786 
Q 1159 2488 1159 1978 
L 1159 0 
L 581 0 
L 581 3500 
L 1159 3500 
L 1159 2956 
Q 1356 3278 1631 3431 
Q 1906 3584 2284 3584 
Q 2666 3584 2933 3390 
Q 3200 3197 3328 2828 
z
" transform="scale(0.015625)"/>
      <path id="DejaVuSans-68" d="M 3513 2113 
L 3513 0 
L 2938 0 
L 2938 2094 
Q 2938 2591 2744 2837 
Q 2550 3084 2163 3084 
Q 1697 3084 1428 2787 
Q 1159 2491 1159 1978 
L 1159 0 
L 581 0 
L 581 4863 
L 1159 4863 
L 1159 2956 
Q 1366 3272 1645 3428 
Q 1925 3584 2291 3584 
Q 2894 3584 3203 3211 
Q 3513 2838 3513 2113 
z
" transform="scale(0.015625)"/>
      <path id="DejaVuSans-70" d="M 1159 525 
L 1159 -1331 
L 581 -1331 
L 581 3500 
L 1159 3500 
L 1159 2969 
Q 1341 3281 1617 3432 
Q 1894 3584 2278 3584 
Q 2916 3584 3314 3078 
Q 3713 2572 3713 1747 
Q 3713 922 3314 415 
Q 2916 -91 2278 -91 
Q 1894 -91 1617 61 
Q 1341 213 1159 525 
z
M 3116 1747 
Q 3116 2381 2855 2742 
Q 2594 3103 2138 3103 
Q 1681 3103 1420 2742 
Q 1159 2381 1159 1747 
Q 1159 1113 1420 752 
Q 1681 391 2138 391 
Q 2594 391 2855 752 
Q 3116 1113 3116 1747 
z
" transform="scale(0.015625)"/>
      <path id="DejaVuSans-2c" d="M 750 794 
L 1409 794 
L 1409 256 
L 897 -744 
L 494 -744 
L 750 256 
L 750 794 
z
" transform="scale(0.015625)"/>
      <path id="DejaVuSans-63" d="M 3122 3366 
L 3122 2828 
Q 2878 2963 2633 3030 
Q 2388 3097 2138 3097 
Q 1578 3097 1268 2742 
Q 959 2388 959 1747 
Q 959 1106 1268 751 
Q 1578 397 2138 397 
Q 2388 397 2633 464 
Q 2878 531 3122 666 
L 3122 134 
Q 2881 22 2623 -34 
Q 2366 -91 2075 -91 
Q 1284 -91 818 406 
Q 353 903 353 1747 
Q 353 2603 823 3093 
Q 1294 3584 2113 3584 
Q 2378 3584 2631 3529 
Q 2884 3475 3122 3366 
z
" transform="scale(0.015625)"/>
      <path id="DejaVuSans-62" d="M 3116 1747 
Q 3116 2381 2855 2742 
Q 2594 3103 2138 3103 
Q 1681 3103 1420 2742 
Q 1159 2381 1159 1747 
Q 1159 1113 1420 752 
Q 1681 391 2138 391 
Q 2594 391 2855 752 
Q 3116 1113 3116 1747 
z
M 1159 2969 
Q 1341 3281 1617 3432 
Q 1894 3584 2278 3584 
Q 2916 3584 3314 3078 
Q 3713 2572 3713 1747 
Q 3713 922 3314 415 
Q 2916 -91 2278 -91 
Q 1894 -91 1617 61 
Q 1341 213 1159 525 
L 1159 0 
L 581 0 
L 581 4863 
L 1159 4863 
L 1159 2969 
z
" transform="scale(0.015625)"/>
     </defs>
     <use xlink:href="#DejaVuSans-44"/>
     <use xlink:href="#DejaVuSans-75" transform="translate(77.001953 0)"/>
     <use xlink:href="#DejaVuSans-61" transform="translate(140.380859 0)"/>
     <use xlink:href="#DejaVuSans-20" transform="translate(201.660156 0)"/>
     <use xlink:href="#DejaVuSans-69" transform="translate(233.447266 0)"/>
     <use xlink:href="#DejaVuSans-6e" transform="translate(261.230469 0)"/>
     <use xlink:href="#DejaVuSans-76" transform="translate(324.609375 0)"/>
     <use xlink:href="#DejaVuSans-65" transform="translate(383.789062 0)"/>
     <use xlink:href="#DejaVuSans-73" transform="translate(445.3125 0)"/>
     <use xlink:href="#DejaVuSans-74" transform="translate(497.412109 0)"/>
     <use xlink:href="#DejaVuSans-61" transform="translate(536.621094 0)"/>
     <use xlink:href="#DejaVuSans-73" transform="translate(597.900391 0)"/>
     <use xlink:href="#DejaVuSans-69" transform="translate(650 0)"/>
     <use xlink:href="#DejaVuSans-20" transform="translate(677.783203 0)"/>
     <use xlink:href="#DejaVuSans-64" transform="translate(709.570312 0)"/>
     <use xlink:href="#DejaVuSans-65" transform="translate(773.046875 0)"/>
     <use xlink:href="#DejaVuSans-6e" transform="translate(834.570312 0)"/>
     <use xlink:href="#DejaVuSans-67" transform="translate(897.949219 0)"/>
     <use xlink:href="#DejaVuSans-61" transform="translate(961.425781 0)"/>
     <use xlink:href="#DejaVuSans-6e" transform="translate(1022.705078 0)"/>
     <use xlink:href="#DejaVuSans-20" transform="translate(1086.083984 0)"/>
     <use xlink:href="#DejaVuSans-6d" transform="translate(1117.871094 0)"/>
     <use xlink:href="#DejaVuSans-65" transform="translate(1215.283203 0)"/>
     <use xlink:href="#DejaVuSans-61" transform="translate(1276.806641 0)"/>
     <use xlink:href="#DejaVuSans-6e" transform="translate(1338.085938 0)"/>
     <use xlink:href="#DejaVuSans-20" transform="translate(1401.464844 0)"/>
     <use xlink:href="#DejaVuSans-68" transform="translate(1433.251953 0)"/>
     <use xlink:href="#DejaVuSans-61" transform="translate(1496.630859 0)"/>
     <use xlink:href="#DejaVuSans-6d" transform="translate(1557.910156 0)"/>
     <use xlink:href="#DejaVuSans-70" transform="translate(1655.322266 0)"/>
     <use xlink:href="#DejaVuSans-69" transform="translate(1718.798828 0)"/>
     <use xlink:href="#DejaVuSans-72" transform="translate(1746.582031 0)"/>
     <use xlink:href="#DejaVuSans-20" transform="translate(1787.695312 0)"/>
     <use xlink:href="#DejaVuSans-73" transform="translate(1819.482422 0)"/>
     <use xlink:href="#DejaVuSans-61" transform="translate(1871.582031 0)"/>
     <use xlink:href="#DejaVuSans-6d" transform="translate(1932.861328 0)"/>
     <use xlink:href="#DejaVuSans-61" transform="translate(2030.273438 0)"/>
     <use xlink:href="#DejaVuSans-2c" transform="translate(2091.552734 0)"/>
     <use xlink:href="#DejaVuSans-20" transform="translate(2123.339844 0)"/>
     <use xlink:href="#DejaVuSans-76" transform="translate(2155.126953 0)"/>
     <use xlink:href="#DejaVuSans-61" transform="translate(2214.306641 0)"/>
     <use xlink:href="#DejaVuSans-72" transform="translate(2275.585938 0)"/>
     <use xlink:href="#DejaVuSans-69" transform="translate(2316.699219 0)"/>
     <use xlink:href="#DejaVuSans-61" transform="translate(2344.482422 0)"/>
     <use xlink:href="#DejaVuSans-6e" transform="translate(2405.761719 0)"/>
     <use xlink:href="#DejaVuSans-63" transform="translate(2469.140625 0)"/>
     <use xlink:href="#DejaVuSans-65" transform="translate(2524.121094 0)"/>
     <use xlink:href="#DejaVuSans-20" transform="translate(2585.644531 0)"/>
     <use xlink:href="#DejaVuSans-73" transform="translate(2617.431641 0)"/>
     <use xlink:href="#DejaVuSans-61" transform="translate(2669.53125 0)"/>
     <use xlink:href="#DejaVuSans-6e" transform="translate(2730.810547 0)"/>
     <use xlink:href="#DejaVuSans-67" transform="translate(2794.189453 0)"/>
     <use xlink:href="#DejaVuSans-61" transform="translate(2857.666016 0)"/>
     <use xlink:href="#DejaVuSans-74" transform="translate(2918.945312 0)"/>
     <use xlink:href="#DejaVuSans-20" transform="translate(2958.154297 0)"/>
     <use xlink:href="#DejaVuSans-62" transform="translate(2989.941406 0)"/>
     <use xlink:href="#DejaVuSans-65" transform="translate(3053.417969 0)"/>
     <use xlink:href="#DejaVuSans-72" transform="translate(3114.941406 0)"/>
     <use xlink:href="#DejaVuSans-62" transform="translate(3156.054688 0)"/>
     <use xlink:href="#DejaVuSans-65" transform="translate(3219.53125 0)"/>
     <use xlink:href="#DejaVuSans-64" transform="translate(3281.054688 0)"/>
     <use xlink:href="#DejaVuSans-61" transform="translate(3344.53125 0)"/>
    </g>
   </g>
   <g id="legend_1">
    <g id="patch_127">
     <path d="M 465.0625 59.674375 
L 551.70625 59.674375 
Q 553.70625 59.674375 553.70625 57.674375 
L 553.70625 29.318125 
Q 553.70625 27.318125 551.70625 27.318125 
L 465.0625 27.318125 
Q 463.0625 27.318125 463.0625 29.318125 
L 463.0625 57.674375 
Q 463.0625 59.674375 465.0625 59.674375 
z
" style="fill: #ffffff; opacity: 0.8; stroke: #cccccc; stroke-linejoin: miter"/>
    </g>
    <g id="patch_128">
     <path d="M 467.0625 38.916562 
L 487.0625 38.916562 
L 487.0625 31.916562 
L 467.0625 31.916562 
z
" style="fill: #1f77b4; opacity: 0.6"/>
    </g>
    <g id="text_19">
     <!-- Investasi A -->
     <g transform="translate(495.0625 38.916562) scale(0.1 -0.1)">
      <defs>
       <path id="DejaVuSans-49" d="M 628 4666 
L 1259 4666 
L 1259 0 
L 628 0 
L 628 4666 
z
" transform="scale(0.015625)"/>
       <path id="DejaVuSans-41" d="M 2188 4044 
L 1331 1722 
L 3047 1722 
L 2188 4044 
z
M 1831 4666 
L 2547 4666 
L 4325 0 
L 3669 0 
L 3244 1197 
L 1141 1197 
L 716 0 
L 50 0 
L 1831 4666 
z
" transform="scale(0.015625)"/>
      </defs>
      <use xlink:href="#DejaVuSans-49"/>
      <use xlink:href="#DejaVuSans-6e" transform="translate(29.492188 0)"/>
      <use xlink:href="#DejaVuSans-76" transform="translate(92.871094 0)"/>
      <use xlink:href="#DejaVuSans-65" transform="translate(152.050781 0)"/>
      <use xlink:href="#DejaVuSans-73" transform="translate(213.574219 0)"/>
      <use xlink:href="#DejaVuSans-74" transform="translate(265.673828 0)"/>
      <use xlink:href="#DejaVuSans-61" transform="translate(304.882812 0)"/>
      <use xlink:href="#DejaVuSans-73" transform="translate(366.162109 0)"/>
      <use xlink:href="#DejaVuSans-69" transform="translate(418.261719 0)"/>
      <use xlink:href="#DejaVuSans-20" transform="translate(446.044922 0)"/>
      <use xlink:href="#DejaVuSans-41" transform="translate(477.832031 0)"/>
     </g>
    </g>
    <g id="patch_129">
     <path d="M 467.0625 53.594687 
L 487.0625 53.594687 
L 487.0625 46.594687 
L 467.0625 46.594687 
z
" style="fill: #ff7f0e; opacity: 0.6"/>
    </g>
    <g id="text_20">
     <!-- Investasi B -->
     <g transform="translate(495.0625 53.594687) scale(0.1 -0.1)">
      <defs>
       <path id="DejaVuSans-42" d="M 1259 2228 
L 1259 519 
L 2272 519 
Q 2781 519 3026 730 
Q 3272 941 3272 1375 
Q 3272 1813 3026 2020 
Q 2781 2228 2272 2228 
L 1259 2228 
z
M 1259 4147 
L 1259 2741 
L 2194 2741 
Q 2656 2741 2882 2914 
Q 3109 3088 3109 3444 
Q 3109 3797 2882 3972 
Q 2656 4147 2194 4147 
L 1259 4147 
z
M 628 4666 
L 2241 4666 
Q 2963 4666 3353 4366 
Q 3744 4066 3744 3513 
Q 3744 3084 3544 2831 
Q 3344 2578 2956 2516 
Q 3422 2416 3680 2098 
Q 3938 1781 3938 1306 
Q 3938 681 3513 340 
Q 3088 0 2303 0 
L 628 0 
L 628 4666 
z
" transform="scale(0.015625)"/>
      </defs>
      <use xlink:href="#DejaVuSans-49"/>
      <use xlink:href="#DejaVuSans-6e" transform="translate(29.492188 0)"/>
      <use xlink:href="#DejaVuSans-76" transform="translate(92.871094 0)"/>
      <use xlink:href="#DejaVuSans-65" transform="translate(152.050781 0)"/>
      <use xlink:href="#DejaVuSans-73" transform="translate(213.574219 0)"/>
      <use xlink:href="#DejaVuSans-74" transform="translate(265.673828 0)"/>
      <use xlink:href="#DejaVuSans-61" transform="translate(304.882812 0)"/>
      <use xlink:href="#DejaVuSans-73" transform="translate(366.162109 0)"/>
      <use xlink:href="#DejaVuSans-69" transform="translate(418.261719 0)"/>
      <use xlink:href="#DejaVuSans-20" transform="translate(446.044922 0)"/>
      <use xlink:href="#DejaVuSans-42" transform="translate(477.832031 0)"/>
     </g>
    </g>
   </g>
  </g>
 </g>
 <defs>
  <clipPath id="p944ee5407c">
   <rect x="56.50625" y="22.318125" width="502.2" height="221.76"/>
  </clipPath>
 </defs>
</svg>
