<?xml version="1.0" encoding="utf-8" standalone="no"?>
<!DOCTYPE svg PUBLIC "-//W3C//DTD SVG 1.1//EN"
  "http://www.w3.org/Graphics/SVG/1.1/DTD/svg11.dtd">
<svg xmlns:xlink="http://www.w3.org/1999/xlink" width="553.18125pt" height="281.634375pt" viewBox="0 0 553.18125 281.634375" xmlns="http://www.w3.org/2000/svg" version="1.1">
 <metadata>
  <rdf:RDF xmlns:dc="http://purl.org/dc/elements/1.1/" xmlns:cc="http://creativecommons.org/ns#" xmlns:rdf="http://www.w3.org/1999/02/22-rdf-syntax-ns#">
   <cc:Work>
    <dc:type rdf:resource="http://purl.org/dc/dcmitype/StillImage"/>
    <dc:date>2026-03-30T14:07:41.136485</dc:date>
    <dc:format>image/svg+xml</dc:format>
    <dc:creator>
     <cc:Agent>
      <dc:title>Matplotlib v3.10.8, https://matplotlib.org/</dc:title>
     </cc:Agent>
    </dc:creator>
   </cc:Work>
  </rdf:RDF>
 </metadata>
 <defs>
  <style type="text/css">*{stroke-linejoin: round; stroke-linecap: butt}</style>
 </defs>
 <g id="figure_1">
  <g id="patch_1">
   <path d="M 0 281.634375 
L 553.18125 281.634375 
L 553.18125 0 
L 0 0 
z
" style="fill: #ffffff"/>
  </g>
  <g id="axes_1">
   <g id="patch_2">
    <path d="M 43.78125 244.078125 
L 545.98125 244.078125 
L 545.98125 22.318125 
L 43.78125 22.318125 
z
" style="fill: #ffffff"/>
   </g>
   <g id="patch_3">
    <path d="M 66.608523 244.078125 
L 66.667669 244.078125 
L 66.667669 244.042419 
L 66.608523 244.042419 
z
" clip-path="url(#p957e4db0ff)" style="fill: #1f77b4; opacity: 0.6"/>
   </g>
   <g id="patch_4">
    <path d="M 66.667669 244.078125 
L 66.726815 244.078125 
L 66.726815 244.078125 
L 66.667669 244.078125 
z
" clip-path="url(#p957e4db0ff)" style="fill: #1f77b4; opacity: 0.6"/>
   </g>
   <g id="patch_5">
    <path d="M 66.726815 244.078125 
L 66.785961 244.078125 
L 66.785961 244.078125 
L 66.726815 244.078125 
z
" clip-path="url(#p957e4db0ff)" style="fill: #1f77b4; opacity: 0.6"/>
   </g>
   <g id="patch_6">
    <path d="M 66.785961 244.078125 
L 66.845107 244.078125 
L 66.845107 243.971008 
L 66.785961 243.971008 
z
" clip-path="url(#p957e4db0ff)" style="fill: #1f77b4; opacity: 0.6"/>
   </g>
   <g id="patch_7">
    <path d="M 66.845107 244.078125 
L 66.904253 244.078125 
L 66.904253 243.792478 
L 66.845107 243.792478 
z
" clip-path="url(#p957e4db0ff)" style="fill: #1f77b4; opacity: 0.6"/>
   </g>
   <g id="patch_8">
    <path d="M 66.904253 244.078125 
L 66.963399 244.078125 
L 66.963399 243.756773 
L 66.904253 243.756773 
z
" clip-path="url(#p957e4db0ff)" style="fill: #1f77b4; opacity: 0.6"/>
   </g>
   <g id="patch_9">
    <path d="M 66.963399 244.078125 
L 67.022545 244.078125 
L 67.022545 243.292597 
L 66.963399 243.292597 
z
" clip-path="url(#p957e4db0ff)" style="fill: #1f77b4; opacity: 0.6"/>
   </g>
   <g id="patch_10">
    <path d="M 67.022545 244.078125 
L 67.081691 244.078125 
L 67.081691 243.149773 
L 67.022545 243.149773 
z
" clip-path="url(#p957e4db0ff)" style="fill: #1f77b4; opacity: 0.6"/>
   </g>
   <g id="patch_11">
    <path d="M 67.081691 244.078125 
L 67.140837 244.078125 
L 67.140837 242.899833 
L 67.081691 242.899833 
z
" clip-path="url(#p957e4db0ff)" style="fill: #1f77b4; opacity: 0.6"/>
   </g>
   <g id="patch_12">
    <path d="M 67.140837 244.078125 
L 67.199983 244.078125 
L 67.199983 241.971481 
L 67.140837 241.971481 
z
" clip-path="url(#p957e4db0ff)" style="fill: #1f77b4; opacity: 0.6"/>
   </g>
   <g id="patch_13">
    <path d="M 67.199983 244.078125 
L 67.259129 244.078125 
L 67.259129 240.828894 
L 67.199983 240.828894 
z
" clip-path="url(#p957e4db0ff)" style="fill: #1f77b4; opacity: 0.6"/>
   </g>
   <g id="patch_14">
    <path d="M 67.259129 244.078125 
L 67.318275 244.078125 
L 67.318275 238.436603 
L 67.259129 238.436603 
z
" clip-path="url(#p957e4db0ff)" style="fill: #1f77b4; opacity: 0.6"/>
   </g>
   <g id="patch_15">
    <path d="M 67.318275 244.078125 
L 67.377421 244.078125 
L 67.377421 237.115488 
L 67.318275 237.115488 
z
" clip-path="url(#p957e4db0ff)" style="fill: #1f77b4; opacity: 0.6"/>
   </g>
   <g id="patch_16">
    <path d="M 67.377421 244.078125 
L 67.436567 244.078125 
L 67.436567 232.830788 
L 67.377421 232.830788 
z
" clip-path="url(#p957e4db0ff)" style="fill: #1f77b4; opacity: 0.6"/>
   </g>
   <g id="patch_17">
    <path d="M 67.436567 244.078125 
L 67.495713 244.078125 
L 67.495713 229.081675 
L 67.436567 229.081675 
z
" clip-path="url(#p957e4db0ff)" style="fill: #1f77b4; opacity: 0.6"/>
   </g>
   <g id="patch_18">
    <path d="M 67.495713 244.078125 
L 67.554859 244.078125 
L 67.554859 222.333273 
L 67.495713 222.333273 
z
" clip-path="url(#p957e4db0ff)" style="fill: #1f77b4; opacity: 0.6"/>
   </g>
   <g id="patch_19">
    <path d="M 67.554859 244.078125 
L 67.614005 244.078125 
L 67.614005 215.727694 
L 67.554859 215.727694 
z
" clip-path="url(#p957e4db0ff)" style="fill: #1f77b4; opacity: 0.6"/>
   </g>
   <g id="patch_20">
    <path d="M 67.614005 244.078125 
L 67.673151 244.078125 
L 67.673151 205.622943 
L 67.614005 205.622943 
z
" clip-path="url(#p957e4db0ff)" style="fill: #1f77b4; opacity: 0.6"/>
   </g>
   <g id="patch_21">
    <path d="M 67.673151 244.078125 
L 67.732297 244.078125 
L 67.732297 195.661016 
L 67.673151 195.661016 
z
" clip-path="url(#p957e4db0ff)" style="fill: #1f77b4; opacity: 0.6"/>
   </g>
   <g id="patch_22">
    <path d="M 67.732297 244.078125 
L 67.791443 244.078125 
L 67.791443 181.128742 
L 67.732297 181.128742 
z
" clip-path="url(#p957e4db0ff)" style="fill: #1f77b4; opacity: 0.6"/>
   </g>
   <g id="patch_23">
    <path d="M 67.791443 244.078125 
L 67.850589 244.078125 
L 67.850589 164.882588 
L 67.791443 164.882588 
z
" clip-path="url(#p957e4db0ff)" style="fill: #1f77b4; opacity: 0.6"/>
   </g>
   <g id="patch_24">
    <path d="M 67.850589 244.078125 
L 67.909735 244.078125 
L 67.909735 150.743079 
L 67.850589 150.743079 
z
" clip-path="url(#p957e4db0ff)" style="fill: #1f77b4; opacity: 0.6"/>
   </g>
   <g id="patch_25">
    <path d="M 67.909735 244.078125 
L 67.968881 244.078125 
L 67.968881 131.497635 
L 67.909735 131.497635 
z
" clip-path="url(#p957e4db0ff)" style="fill: #1f77b4; opacity: 0.6"/>
   </g>
   <g id="patch_26">
    <path d="M 67.968881 244.078125 
L 68.028027 244.078125 
L 68.028027 115.037246 
L 67.968881 115.037246 
z
" clip-path="url(#p957e4db0ff)" style="fill: #1f77b4; opacity: 0.6"/>
   </g>
   <g id="patch_27">
    <path d="M 68.028027 244.078125 
L 68.087173 244.078125 
L 68.087173 93.14957 
L 68.028027 93.14957 
z
" clip-path="url(#p957e4db0ff)" style="fill: #1f77b4; opacity: 0.6"/>
   </g>
   <g id="patch_28">
    <path d="M 68.087173 244.078125 
L 68.146319 244.078125 
L 68.146319 76.296417 
L 68.087173 76.296417 
z
" clip-path="url(#p957e4db0ff)" style="fill: #1f77b4; opacity: 0.6"/>
   </g>
   <g id="patch_29">
    <path d="M 68.146319 244.078125 
L 68.205465 244.078125 
L 68.205465 59.800323 
L 68.146319 59.800323 
z
" clip-path="url(#p957e4db0ff)" style="fill: #1f77b4; opacity: 0.6"/>
   </g>
   <g id="patch_30">
    <path d="M 68.205465 244.078125 
L 68.264611 244.078125 
L 68.264611 48.874338 
L 68.205465 48.874338 
z
" clip-path="url(#p957e4db0ff)" style="fill: #1f77b4; opacity: 0.6"/>
   </g>
   <g id="patch_31">
    <path d="M 68.264611 244.078125 
L 68.323757 244.078125 
L 68.323757 36.591532 
L 68.264611 36.591532 
z
" clip-path="url(#p957e4db0ff)" style="fill: #1f77b4; opacity: 0.6"/>
   </g>
   <g id="patch_32">
    <path d="M 68.323757 244.078125 
L 68.382903 244.078125 
L 68.382903 34.484887 
L 68.323757 34.484887 
z
" clip-path="url(#p957e4db0ff)" style="fill: #1f77b4; opacity: 0.6"/>
   </g>
   <g id="patch_33">
    <path d="M 68.382903 244.078125 
L 68.442049 244.078125 
L 68.442049 32.878125 
L 68.382903 32.878125 
z
" clip-path="url(#p957e4db0ff)" style="fill: #1f77b4; opacity: 0.6"/>
   </g>
   <g id="patch_34">
    <path d="M 68.442049 244.078125 
L 68.501195 244.078125 
L 68.501195 40.37635 
L 68.442049 40.37635 
z
" clip-path="url(#p957e4db0ff)" style="fill: #1f77b4; opacity: 0.6"/>
   </g>
   <g id="patch_35">
    <path d="M 68.501195 244.078125 
L 68.560341 244.078125 
L 68.560341 49.588455 
L 68.501195 49.588455 
z
" clip-path="url(#p957e4db0ff)" style="fill: #1f77b4; opacity: 0.6"/>
   </g>
   <g id="patch_36">
    <path d="M 68.560341 244.078125 
L 68.619487 244.078125 
L 68.619487 59.157618 
L 68.560341 59.157618 
z
" clip-path="url(#p957e4db0ff)" style="fill: #1f77b4; opacity: 0.6"/>
   </g>
   <g id="patch_37">
    <path d="M 68.619487 244.078125 
L 68.678633 244.078125 
L 68.678633 82.116468 
L 68.619487 82.116468 
z
" clip-path="url(#p957e4db0ff)" style="fill: #1f77b4; opacity: 0.6"/>
   </g>
   <g id="patch_38">
    <path d="M 68.678633 244.078125 
L 68.737779 244.078125 
L 68.737779 93.113865 
L 68.678633 93.113865 
z
" clip-path="url(#p957e4db0ff)" style="fill: #1f77b4; opacity: 0.6"/>
   </g>
   <g id="patch_39">
    <path d="M 68.737779 244.078125 
L 68.796925 244.078125 
L 68.796925 107.110551 
L 68.737779 107.110551 
z
" clip-path="url(#p957e4db0ff)" style="fill: #1f77b4; opacity: 0.6"/>
   </g>
   <g id="patch_40">
    <path d="M 68.796925 244.078125 
L 68.856071 244.078125 
L 68.856071 128.926815 
L 68.796925 128.926815 
z
" clip-path="url(#p957e4db0ff)" style="fill: #1f77b4; opacity: 0.6"/>
   </g>
   <g id="patch_41">
    <path d="M 68.856071 244.078125 
L 68.915217 244.078125 
L 68.915217 146.922554 
L 68.856071 146.922554 
z
" clip-path="url(#p957e4db0ff)" style="fill: #1f77b4; opacity: 0.6"/>
   </g>
   <g id="patch_42">
    <path d="M 68.915217 244.078125 
L 68.974363 244.078125 
L 68.974363 162.740238 
L 68.915217 162.740238 
z
" clip-path="url(#p957e4db0ff)" style="fill: #1f77b4; opacity: 0.6"/>
   </g>
   <g id="patch_43">
    <path d="M 68.974363 244.078125 
L 69.033509 244.078125 
L 69.033509 183.092563 
L 68.974363 183.092563 
z
" clip-path="url(#p957e4db0ff)" style="fill: #1f77b4; opacity: 0.6"/>
   </g>
   <g id="patch_44">
    <path d="M 69.033509 244.078125 
L 69.092655 244.078125 
L 69.092655 193.125902 
L 69.033509 193.125902 
z
" clip-path="url(#p957e4db0ff)" style="fill: #1f77b4; opacity: 0.6"/>
   </g>
   <g id="patch_45">
    <path d="M 69.092655 244.078125 
L 69.151801 244.078125 
L 69.151801 203.623417 
L 69.092655 203.623417 
z
" clip-path="url(#p957e4db0ff)" style="fill: #1f77b4; opacity: 0.6"/>
   </g>
   <g id="patch_46">
    <path d="M 69.151801 244.078125 
L 69.210947 244.078125 
L 69.210947 214.977871 
L 69.151801 214.977871 
z
" clip-path="url(#p957e4db0ff)" style="fill: #1f77b4; opacity: 0.6"/>
   </g>
   <g id="patch_47">
    <path d="M 69.210947 244.078125 
L 69.270093 244.078125 
L 69.270093 219.976688 
L 69.210947 219.976688 
z
" clip-path="url(#p957e4db0ff)" style="fill: #1f77b4; opacity: 0.6"/>
   </g>
   <g id="patch_48">
    <path d="M 69.270093 244.078125 
L 69.329239 244.078125 
L 69.329239 226.368032 
L 69.270093 226.368032 
z
" clip-path="url(#p957e4db0ff)" style="fill: #1f77b4; opacity: 0.6"/>
   </g>
   <g id="patch_49">
    <path d="M 69.329239 244.078125 
L 69.388385 244.078125 
L 69.388385 233.866257 
L 69.329239 233.866257 
z
" clip-path="url(#p957e4db0ff)" style="fill: #1f77b4; opacity: 0.6"/>
   </g>
   <g id="patch_50">
    <path d="M 69.388385 244.078125 
L 69.447531 244.078125 
L 69.447531 236.794135 
L 69.388385 236.794135 
z
" clip-path="url(#p957e4db0ff)" style="fill: #1f77b4; opacity: 0.6"/>
   </g>
   <g id="patch_51">
    <path d="M 69.447531 244.078125 
L 69.506677 244.078125 
L 69.506677 238.793662 
L 69.447531 238.793662 
z
" clip-path="url(#p957e4db0ff)" style="fill: #1f77b4; opacity: 0.6"/>
   </g>
   <g id="patch_52">
    <path d="M 69.506677 244.078125 
L 69.565823 244.078125 
L 69.565823 240.293307 
L 69.506677 240.293307 
z
" clip-path="url(#p957e4db0ff)" style="fill: #1f77b4; opacity: 0.6"/>
   </g>
   <g id="patch_53">
    <path d="M 69.565823 244.078125 
L 69.624969 244.078125 
L 69.624969 242.364245 
L 69.565823 242.364245 
z
" clip-path="url(#p957e4db0ff)" style="fill: #1f77b4; opacity: 0.6"/>
   </g>
   <g id="patch_54">
    <path d="M 69.624969 244.078125 
L 69.684115 244.078125 
L 69.684115 242.399951 
L 69.624969 242.399951 
z
" clip-path="url(#p957e4db0ff)" style="fill: #1f77b4; opacity: 0.6"/>
   </g>
   <g id="patch_55">
    <path d="M 69.684115 244.078125 
L 69.743261 244.078125 
L 69.743261 243.328303 
L 69.684115 243.328303 
z
" clip-path="url(#p957e4db0ff)" style="fill: #1f77b4; opacity: 0.6"/>
   </g>
   <g id="patch_56">
    <path d="M 69.743261 244.078125 
L 69.802407 244.078125 
L 69.802407 243.43542 
L 69.743261 243.43542 
z
" clip-path="url(#p957e4db0ff)" style="fill: #1f77b4; opacity: 0.6"/>
   </g>
   <g id="patch_57">
    <path d="M 69.802407 244.078125 
L 69.861553 244.078125 
L 69.861553 243.649655 
L 69.802407 243.649655 
z
" clip-path="url(#p957e4db0ff)" style="fill: #1f77b4; opacity: 0.6"/>
   </g>
   <g id="patch_58">
    <path d="M 69.861553 244.078125 
L 69.920699 244.078125 
L 69.920699 243.899596 
L 69.861553 243.899596 
z
" clip-path="url(#p957e4db0ff)" style="fill: #1f77b4; opacity: 0.6"/>
   </g>
   <g id="patch_59">
    <path d="M 69.920699 244.078125 
L 69.979845 244.078125 
L 69.979845 243.935302 
L 69.920699 243.935302 
z
" clip-path="url(#p957e4db0ff)" style="fill: #1f77b4; opacity: 0.6"/>
   </g>
   <g id="patch_60">
    <path d="M 69.979845 244.078125 
L 70.038991 244.078125 
L 70.038991 244.042419 
L 69.979845 244.042419 
z
" clip-path="url(#p957e4db0ff)" style="fill: #1f77b4; opacity: 0.6"/>
   </g>
   <g id="patch_61">
    <path d="M 70.038991 244.078125 
L 70.098137 244.078125 
L 70.098137 244.006713 
L 70.038991 244.006713 
z
" clip-path="url(#p957e4db0ff)" style="fill: #1f77b4; opacity: 0.6"/>
   </g>
   <g id="patch_62">
    <path d="M 70.098137 244.078125 
L 70.157283 244.078125 
L 70.157283 244.042419 
L 70.098137 244.042419 
z
" clip-path="url(#p957e4db0ff)" style="fill: #1f77b4; opacity: 0.6"/>
   </g>
   <g id="patch_63">
    <path d="M 168.480154 244.078125 
L 174.391384 244.078125 
L 174.391384 244.077768 
L 168.480154 244.077768 
z
" clip-path="url(#p957e4db0ff)" style="fill: #ff7f0e; opacity: 0.6"/>
   </g>
   <g id="patch_64">
    <path d="M 174.391384 244.078125 
L 180.302615 244.078125 
L 180.302615 244.078125 
L 174.391384 244.078125 
z
" clip-path="url(#p957e4db0ff)" style="fill: #ff7f0e; opacity: 0.6"/>
   </g>
   <g id="patch_65">
    <path d="M 180.302615 244.078125 
L 186.213845 244.078125 
L 186.213845 244.075624 
L 180.302615 244.075624 
z
" clip-path="url(#p957e4db0ff)" style="fill: #ff7f0e; opacity: 0.6"/>
   </g>
   <g id="patch_66">
    <path d="M 186.213845 244.078125 
L 192.125075 244.078125 
L 192.125075 244.073838 
L 186.213845 244.073838 
z
" clip-path="url(#p957e4db0ff)" style="fill: #ff7f0e; opacity: 0.6"/>
   </g>
   <g id="patch_67">
    <path d="M 192.125075 244.078125 
L 198.036306 244.078125 
L 198.036306 244.068122 
L 192.125075 244.068122 
z
" clip-path="url(#p957e4db0ff)" style="fill: #ff7f0e; opacity: 0.6"/>
   </g>
   <g id="patch_68">
    <path d="M 198.036306 244.078125 
L 203.947536 244.078125 
L 203.947536 244.06312 
L 198.036306 244.06312 
z
" clip-path="url(#p957e4db0ff)" style="fill: #ff7f0e; opacity: 0.6"/>
   </g>
   <g id="patch_69">
    <path d="M 203.947536 244.078125 
L 209.858767 244.078125 
L 209.858767 244.054903 
L 203.947536 244.054903 
z
" clip-path="url(#p957e4db0ff)" style="fill: #ff7f0e; opacity: 0.6"/>
   </g>
   <g id="patch_70">
    <path d="M 209.858767 244.078125 
L 215.769997 244.078125 
L 215.769997 244.034539 
L 209.858767 244.034539 
z
" clip-path="url(#p957e4db0ff)" style="fill: #ff7f0e; opacity: 0.6"/>
   </g>
   <g id="patch_71">
    <path d="M 215.769997 244.078125 
L 221.681227 244.078125 
L 221.681227 243.998813 
L 215.769997 243.998813 
z
" clip-path="url(#p957e4db0ff)" style="fill: #ff7f0e; opacity: 0.6"/>
   </g>
   <g id="patch_72">
    <path d="M 221.681227 244.078125 
L 227.592458 244.078125 
L 227.592458 243.960943 
L 221.681227 243.960943 
z
" clip-path="url(#p957e4db0ff)" style="fill: #ff7f0e; opacity: 0.6"/>
   </g>
   <g id="patch_73">
    <path d="M 227.592458 244.078125 
L 233.503688 244.078125 
L 233.503688 243.902709 
L 227.592458 243.902709 
z
" clip-path="url(#p957e4db0ff)" style="fill: #ff7f0e; opacity: 0.6"/>
   </g>
   <g id="patch_74">
    <path d="M 233.503688 244.078125 
L 239.414919 244.078125 
L 239.414919 243.809821 
L 233.503688 243.809821 
z
" clip-path="url(#p957e4db0ff)" style="fill: #ff7f0e; opacity: 0.6"/>
   </g>
   <g id="patch_75">
    <path d="M 239.414919 244.078125 
L 245.326149 244.078125 
L 245.326149 243.715861 
L 239.414919 243.715861 
z
" clip-path="url(#p957e4db0ff)" style="fill: #ff7f0e; opacity: 0.6"/>
   </g>
   <g id="patch_76">
    <path d="M 245.326149 244.078125 
L 251.237379 244.078125 
L 251.237379 243.572599 
L 245.326149 243.572599 
z
" clip-path="url(#p957e4db0ff)" style="fill: #ff7f0e; opacity: 0.6"/>
   </g>
   <g id="patch_77">
    <path d="M 251.237379 244.078125 
L 257.14861 244.078125 
L 257.14861 243.43291 
L 251.237379 243.43291 
z
" clip-path="url(#p957e4db0ff)" style="fill: #ff7f0e; opacity: 0.6"/>
   </g>
   <g id="patch_78">
    <path d="M 257.14861 244.078125 
L 263.05984 244.078125 
L 263.05984 243.239631 
L 257.14861 243.239631 
z
" clip-path="url(#p957e4db0ff)" style="fill: #ff7f0e; opacity: 0.6"/>
   </g>
   <g id="patch_79">
    <path d="M 263.05984 244.078125 
L 268.971071 244.078125 
L 268.971071 243.052069 
L 263.05984 243.052069 
z
" clip-path="url(#p957e4db0ff)" style="fill: #ff7f0e; opacity: 0.6"/>
   </g>
   <g id="patch_80">
    <path d="M 268.971071 244.078125 
L 274.882301 244.078125 
L 274.882301 242.85486 
L 268.971071 242.85486 
z
" clip-path="url(#p957e4db0ff)" style="fill: #ff7f0e; opacity: 0.6"/>
   </g>
   <g id="patch_81">
    <path d="M 274.882301 244.078125 
L 280.793531 244.078125 
L 280.793531 242.66051 
L 274.882301 242.66051 
z
" clip-path="url(#p957e4db0ff)" style="fill: #ff7f0e; opacity: 0.6"/>
   </g>
   <g id="patch_82">
    <path d="M 280.793531 244.078125 
L 286.704762 244.078125 
L 286.704762 242.459014 
L 280.793531 242.459014 
z
" clip-path="url(#p957e4db0ff)" style="fill: #ff7f0e; opacity: 0.6"/>
   </g>
   <g id="patch_83">
    <path d="M 286.704762 244.078125 
L 292.615992 244.078125 
L 292.615992 242.260734 
L 286.704762 242.260734 
z
" clip-path="url(#p957e4db0ff)" style="fill: #ff7f0e; opacity: 0.6"/>
   </g>
   <g id="patch_84">
    <path d="M 292.615992 244.078125 
L 298.527222 244.078125 
L 298.527222 242.15034 
L 292.615992 242.15034 
z
" clip-path="url(#p957e4db0ff)" style="fill: #ff7f0e; opacity: 0.6"/>
   </g>
   <g id="patch_85">
    <path d="M 298.527222 244.078125 
L 304.438453 244.078125 
L 304.438453 242.014581 
L 298.527222 242.014581 
z
" clip-path="url(#p957e4db0ff)" style="fill: #ff7f0e; opacity: 0.6"/>
   </g>
   <g id="patch_86">
    <path d="M 304.438453 244.078125 
L 310.349683 244.078125 
L 310.349683 241.978854 
L 304.438453 241.978854 
z
" clip-path="url(#p957e4db0ff)" style="fill: #ff7f0e; opacity: 0.6"/>
   </g>
   <g id="patch_87">
    <path d="M 310.349683 244.078125 
L 316.260914 244.078125 
L 316.260914 241.963135 
L 310.349683 241.963135 
z
" clip-path="url(#p957e4db0ff)" style="fill: #ff7f0e; opacity: 0.6"/>
   </g>
   <g id="patch_88">
    <path d="M 316.260914 244.078125 
L 322.172144 244.078125 
L 322.172144 241.987071 
L 316.260914 241.987071 
z
" clip-path="url(#p957e4db0ff)" style="fill: #ff7f0e; opacity: 0.6"/>
   </g>
   <g id="patch_89">
    <path d="M 322.172144 244.078125 
L 328.083374 244.078125 
L 328.083374 242.130333 
L 322.172144 242.130333 
z
" clip-path="url(#p957e4db0ff)" style="fill: #ff7f0e; opacity: 0.6"/>
   </g>
   <g id="patch_90">
    <path d="M 328.083374 244.078125 
L 333.994605 244.078125 
L 333.994605 242.192497 
L 328.083374 242.192497 
z
" clip-path="url(#p957e4db0ff)" style="fill: #ff7f0e; opacity: 0.6"/>
   </g>
   <g id="patch_91">
    <path d="M 333.994605 244.078125 
L 339.905835 244.078125 
L 339.905835 242.358266 
L 333.994605 242.358266 
z
" clip-path="url(#p957e4db0ff)" style="fill: #ff7f0e; opacity: 0.6"/>
   </g>
   <g id="patch_92">
    <path d="M 339.905835 244.078125 
L 345.817066 244.078125 
L 345.817066 242.532253 
L 339.905835 242.532253 
z
" clip-path="url(#p957e4db0ff)" style="fill: #ff7f0e; opacity: 0.6"/>
   </g>
   <g id="patch_93">
    <path d="M 345.817066 244.078125 
L 351.728296 244.078125 
L 351.728296 242.695522 
L 345.817066 242.695522 
z
" clip-path="url(#p957e4db0ff)" style="fill: #ff7f0e; opacity: 0.6"/>
   </g>
   <g id="patch_94">
    <path d="M 351.728296 244.078125 
L 357.639526 244.078125 
L 357.639526 242.811632 
L 351.728296 242.811632 
z
" clip-path="url(#p957e4db0ff)" style="fill: #ff7f0e; opacity: 0.6"/>
   </g>
   <g id="patch_95">
    <path d="M 357.639526 244.078125 
L 363.550757 244.078125 
L 363.550757 243.018486 
L 357.639526 243.018486 
z
" clip-path="url(#p957e4db0ff)" style="fill: #ff7f0e; opacity: 0.6"/>
   </g>
   <g id="patch_96">
    <path d="M 363.550757 244.078125 
L 369.461987 244.078125 
L 369.461987 243.170323 
L 363.550757 243.170323 
z
" clip-path="url(#p957e4db0ff)" style="fill: #ff7f0e; opacity: 0.6"/>
   </g>
   <g id="patch_97">
    <path d="M 369.461987 244.078125 
L 375.373218 244.078125 
L 375.373218 243.310369 
L 369.461987 243.310369 
z
" clip-path="url(#p957e4db0ff)" style="fill: #ff7f0e; opacity: 0.6"/>
   </g>
   <g id="patch_98">
    <path d="M 375.373218 244.078125 
L 381.284448 244.078125 
L 381.284448 243.476496 
L 375.373218 243.476496 
z
" clip-path="url(#p957e4db0ff)" style="fill: #ff7f0e; opacity: 0.6"/>
   </g>
   <g id="patch_99">
    <path d="M 381.284448 244.078125 
L 387.195678 244.078125 
L 387.195678 243.594392 
L 381.284448 243.594392 
z
" clip-path="url(#p957e4db0ff)" style="fill: #ff7f0e; opacity: 0.6"/>
   </g>
   <g id="patch_100">
    <path d="M 387.195678 244.078125 
L 393.106909 244.078125 
L 393.106909 243.68478 
L 387.195678 243.68478 
z
" clip-path="url(#p957e4db0ff)" style="fill: #ff7f0e; opacity: 0.6"/>
   </g>
   <g id="patch_101">
    <path d="M 393.106909 244.078125 
L 399.018139 244.078125 
L 399.018139 243.754089 
L 393.106909 243.754089 
z
" clip-path="url(#p957e4db0ff)" style="fill: #ff7f0e; opacity: 0.6"/>
   </g>
   <g id="patch_102">
    <path d="M 399.018139 244.078125 
L 404.929369 244.078125 
L 404.929369 243.838045 
L 399.018139 243.838045 
z
" clip-path="url(#p957e4db0ff)" style="fill: #ff7f0e; opacity: 0.6"/>
   </g>
   <g id="patch_103">
    <path d="M 404.929369 244.078125 
L 410.8406 244.078125 
L 410.8406 243.873414 
L 404.929369 243.873414 
z
" clip-path="url(#p957e4db0ff)" style="fill: #ff7f0e; opacity: 0.6"/>
   </g>
   <g id="patch_104">
    <path d="M 410.8406 244.078125 
L 416.75183 244.078125 
L 416.75183 243.919858 
L 410.8406 243.919858 
z
" clip-path="url(#p957e4db0ff)" style="fill: #ff7f0e; opacity: 0.6"/>
   </g>
   <g id="patch_105">
    <path d="M 416.75183 244.078125 
L 422.663061 244.078125 
L 422.663061 243.983093 
L 416.75183 243.983093 
z
" clip-path="url(#p957e4db0ff)" style="fill: #ff7f0e; opacity: 0.6"/>
   </g>
   <g id="patch_106">
    <path d="M 422.663061 244.078125 
L 428.574291 244.078125 
L 428.574291 244.008459 
L 422.663061 244.008459 
z
" clip-path="url(#p957e4db0ff)" style="fill: #ff7f0e; opacity: 0.6"/>
   </g>
   <g id="patch_107">
    <path d="M 428.574291 244.078125 
L 434.485521 244.078125 
L 434.485521 244.028108 
L 428.574291 244.028108 
z
" clip-path="url(#p957e4db0ff)" style="fill: #ff7f0e; opacity: 0.6"/>
   </g>
   <g id="patch_108">
    <path d="M 434.485521 244.078125 
L 440.396752 244.078125 
L 440.396752 244.035968 
L 434.485521 244.035968 
z
" clip-path="url(#p957e4db0ff)" style="fill: #ff7f0e; opacity: 0.6"/>
   </g>
   <g id="patch_109">
    <path d="M 440.396752 244.078125 
L 446.307982 244.078125 
L 446.307982 244.0474 
L 440.396752 244.0474 
z
" clip-path="url(#p957e4db0ff)" style="fill: #ff7f0e; opacity: 0.6"/>
   </g>
   <g id="patch_110">
    <path d="M 446.307982 244.078125 
L 452.219213 244.078125 
L 452.219213 244.062763 
L 446.307982 244.062763 
z
" clip-path="url(#p957e4db0ff)" style="fill: #ff7f0e; opacity: 0.6"/>
   </g>
   <g id="patch_111">
    <path d="M 452.219213 244.078125 
L 458.130443 244.078125 
L 458.130443 244.063835 
L 452.219213 244.063835 
z
" clip-path="url(#p957e4db0ff)" style="fill: #ff7f0e; opacity: 0.6"/>
   </g>
   <g id="patch_112">
    <path d="M 458.130443 244.078125 
L 464.041673 244.078125 
L 464.041673 244.069908 
L 458.130443 244.069908 
z
" clip-path="url(#p957e4db0ff)" style="fill: #ff7f0e; opacity: 0.6"/>
   </g>
   <g id="patch_113">
    <path d="M 464.041673 244.078125 
L 469.952904 244.078125 
L 469.952904 244.071337 
L 464.041673 244.071337 
z
" clip-path="url(#p957e4db0ff)" style="fill: #ff7f0e; opacity: 0.6"/>
   </g>
   <g id="patch_114">
    <path d="M 469.952904 244.078125 
L 475.864134 244.078125 
L 475.864134 244.073838 
L 469.952904 244.073838 
z
" clip-path="url(#p957e4db0ff)" style="fill: #ff7f0e; opacity: 0.6"/>
   </g>
   <g id="patch_115">
    <path d="M 475.864134 244.078125 
L 481.775365 244.078125 
L 481.775365 244.074195 
L 475.864134 244.074195 
z
" clip-path="url(#p957e4db0ff)" style="fill: #ff7f0e; opacity: 0.6"/>
   </g>
   <g id="patch_116">
    <path d="M 481.775365 244.078125 
L 487.686595 244.078125 
L 487.686595 244.075981 
L 481.775365 244.075981 
z
" clip-path="url(#p957e4db0ff)" style="fill: #ff7f0e; opacity: 0.6"/>
   </g>
   <g id="patch_117">
    <path d="M 487.686595 244.078125 
L 493.597825 244.078125 
L 493.597825 244.076696 
L 487.686595 244.076696 
z
" clip-path="url(#p957e4db0ff)" style="fill: #ff7f0e; opacity: 0.6"/>
   </g>
   <g id="patch_118">
    <path d="M 493.597825 244.078125 
L 499.509056 244.078125 
L 499.509056 244.07741 
L 493.597825 244.07741 
z
" clip-path="url(#p957e4db0ff)" style="fill: #ff7f0e; opacity: 0.6"/>
   </g>
   <g id="patch_119">
    <path d="M 499.509056 244.078125 
L 505.420286 244.078125 
L 505.420286 244.077768 
L 499.509056 244.077768 
z
" clip-path="url(#p957e4db0ff)" style="fill: #ff7f0e; opacity: 0.6"/>
   </g>
   <g id="patch_120">
    <path d="M 505.420286 244.078125 
L 511.331516 244.078125 
L 511.331516 244.07741 
L 505.420286 244.07741 
z
" clip-path="url(#p957e4db0ff)" style="fill: #ff7f0e; opacity: 0.6"/>
   </g>
   <g id="patch_121">
    <path d="M 511.331516 244.078125 
L 517.242747 244.078125 
L 517.242747 244.078125 
L 511.331516 244.078125 
z
" clip-path="url(#p957e4db0ff)" style="fill: #ff7f0e; opacity: 0.6"/>
   </g>
   <g id="patch_122">
    <path d="M 517.242747 244.078125 
L 523.153977 244.078125 
L 523.153977 244.077768 
L 517.242747 244.077768 
z
" clip-path="url(#p957e4db0ff)" style="fill: #ff7f0e; opacity: 0.6"/>
   </g>
   <g id="matplotlib.axis_1">
    <g id="xtick_1">
     <g id="line2d_1">
      <path d="M 63.356907 244.078125 
L 63.356907 22.318125 
" clip-path="url(#p957e4db0ff)" style="fill: none; stroke: #b0b0b0; stroke-opacity: 0.3; stroke-width: 0.8; stroke-linecap: square"/>
     </g>
     <g id="line2d_2">
      <defs>
       <path id="md24530c3ae" d="M 0 0 
L 0 3.5 
" style="stroke: #000000; stroke-width: 0.8"/>
      </defs>
      <g>
       <use xlink:href="#md24530c3ae" x="63.356907" y="244.078125" style="stroke: #000000; stroke-width: 0.8"/>
      </g>
     </g>
     <g id="text_1">
      <!-- 0 -->
      <g transform="translate(60.175657 258.676562) scale(0.1 -0.1)">
       <defs>
        <path id="DejaVuSans-30" d="M 2034 4250 
Q 1547 4250 1301 3770 
Q 1056 3291 1056 2328 
Q 1056 1369 1301 889 
Q 1547 409 2034 409 
Q 2525 409 2770 889 
Q 3016 1369 3016 2328 
Q 3016 3291 2770 3770 
Q 2525 4250 2034 4250 
z
M 2034 4750 
Q 2819 4750 3233 4129 
Q 3647 3509 3647 2328 
Q 3647 1150 3233 529 
Q 2819 -91 2034 -91 
Q 1250 -91 836 529 
Q 422 1150 422 2328 
Q 422 3509 836 4129 
Q 1250 4750 2034 4750 
z
" transform="scale(0.015625)"/>
       </defs>
       <use xlink:href="#DejaVuSans-30"/>
      </g>
     </g>
    </g>
    <g id="xtick_2">
     <g id="line2d_3">
      <path d="M 163.934108 244.078125 
L 163.934108 22.318125 
" clip-path="url(#p957e4db0ff)" style="fill: none; stroke: #b0b0b0; stroke-opacity: 0.3; stroke-width: 0.8; stroke-linecap: square"/>
     </g>
     <g id="line2d_4">
      <g>
       <use xlink:href="#md24530c3ae" x="163.934108" y="244.078125" style="stroke: #000000; stroke-width: 0.8"/>
      </g>
     </g>
     <g id="text_2">
      <!-- 200 -->
      <g transform="translate(154.390358 258.676562) scale(0.1 -0.1)">
       <defs>
        <path id="DejaVuSans-32" d="M 1228 531 
L 3431 531 
L 3431 0 
L 469 0 
L 469 531 
Q 828 903 1448 1529 
Q 2069 2156 2228 2338 
Q 2531 2678 2651 2914 
Q 2772 3150 2772 3378 
Q 2772 3750 2511 3984 
Q 2250 4219 1831 4219 
Q 1534 4219 1204 4116 
Q 875 4013 500 3803 
L 500 4441 
Q 881 4594 1212 4672 
Q 1544 4750 1819 4750 
Q 2544 4750 2975 4387 
Q 3406 4025 3406 3419 
Q 3406 3131 3298 2873 
Q 3191 2616 2906 2266 
Q 2828 2175 2409 1742 
Q 1991 1309 1228 531 
z
" transform="scale(0.015625)"/>
       </defs>
       <use xlink:href="#DejaVuSans-32"/>
       <use xlink:href="#DejaVuSans-30" transform="translate(63.623047 0)"/>
       <use xlink:href="#DejaVuSans-30" transform="translate(127.246094 0)"/>
      </g>
     </g>
    </g>
    <g id="xtick_3">
     <g id="line2d_5">
      <path d="M 264.51131 244.078125 
L 264.51131 22.318125 
" clip-path="url(#p957e4db0ff)" style="fill: none; stroke: #b0b0b0; stroke-opacity: 0.3; stroke-width: 0.8; stroke-linecap: square"/>
     </g>
     <g id="line2d_6">
      <g>
       <use xlink:href="#md24530c3ae" x="264.51131" y="244.078125" style="stroke: #000000; stroke-width: 0.8"/>
      </g>
     </g>
     <g id="text_3">
      <!-- 400 -->
      <g transform="translate(254.96756 258.676562) scale(0.1 -0.1)">
       <defs>
        <path id="DejaVuSans-34" d="M 2419 4116 
L 825 1625 
L 2419 1625 
L 2419 4116 
z
M 2253 4666 
L 3047 4666 
L 3047 1625 
L 3713 1625 
L 3713 1100 
L 3047 1100 
L 3047 0 
L 2419 0 
L 2419 1100 
L 313 1100 
L 313 1709 
L 2253 4666 
z
" transform="scale(0.015625)"/>
       </defs>
       <use xlink:href="#DejaVuSans-34"/>
       <use xlink:href="#DejaVuSans-30" transform="translate(63.623047 0)"/>
       <use xlink:href="#DejaVuSans-30" transform="translate(127.246094 0)"/>
      </g>
     </g>
    </g>
    <g id="xtick_4">
     <g id="line2d_7">
      <path d="M 365.088511 244.078125 
L 365.088511 22.318125 
" clip-path="url(#p957e4db0ff)" style="fill: none; stroke: #b0b0b0; stroke-opacity: 0.3; stroke-width: 0.8; stroke-linecap: square"/>
     </g>
     <g id="line2d_8">
      <g>
       <use xlink:href="#md24530c3ae" x="365.088511" y="244.078125" style="stroke: #000000; stroke-width: 0.8"/>
      </g>
     </g>
     <g id="text_4">
      <!-- 600 -->
      <g transform="translate(355.544761 258.676562) scale(0.1 -0.1)">
       <defs>
        <path id="DejaVuSans-36" d="M 2113 2584 
Q 1688 2584 1439 2293 
Q 1191 2003 1191 1497 
Q 1191 994 1439 701 
Q 1688 409 2113 409 
Q 2538 409 2786 701 
Q 3034 994 3034 1497 
Q 3034 2003 2786 2293 
Q 2538 2584 2113 2584 
z
M 3366 4563 
L 3366 3988 
Q 3128 4100 2886 4159 
Q 2644 4219 2406 4219 
Q 1781 4219 1451 3797 
Q 1122 3375 1075 2522 
Q 1259 2794 1537 2939 
Q 1816 3084 2150 3084 
Q 2853 3084 3261 2657 
Q 3669 2231 3669 1497 
Q 3669 778 3244 343 
Q 2819 -91 2113 -91 
Q 1303 -91 875 529 
Q 447 1150 447 2328 
Q 447 3434 972 4092 
Q 1497 4750 2381 4750 
Q 2619 4750 2861 4703 
Q 3103 4656 3366 4563 
z
" transform="scale(0.015625)"/>
       </defs>
       <use xlink:href="#DejaVuSans-36"/>
       <use xlink:href="#DejaVuSans-30" transform="translate(63.623047 0)"/>
       <use xlink:href="#DejaVuSans-30" transform="translate(127.246094 0)"/>
      </g>
     </g>
    </g>
    <g id="xtick_5">
     <g id="line2d_9">
      <path d="M 465.665712 244.078125 
L 465.665712 22.318125 
" clip-path="url(#p957e4db0ff)" style="fill: none; stroke: #b0b0b0; stroke-opacity: 0.3; stroke-width: 0.8; stroke-linecap: square"/>
     </g>
     <g id="line2d_10">
      <g>
       <use xlink:href="#md24530c3ae" x="465.665712" y="244.078125" style="stroke: #000000; stroke-width: 0.8"/>
      </g>
     </g>
     <g id="text_5">
      <!-- 800 -->
      <g transform="translate(456.121962 258.676562) scale(0.1 -0.1)">
       <defs>
        <path id="DejaVuSans-38" d="M 2034 2216 
Q 1584 2216 1326 1975 
Q 1069 1734 1069 1313 
Q 1069 891 1326 650 
Q 1584 409 2034 409 
Q 2484 409 2743 651 
Q 3003 894 3003 1313 
Q 3003 1734 2745 1975 
Q 2488 2216 2034 2216 
z
M 1403 2484 
Q 997 2584 770 2862 
Q 544 3141 544 3541 
Q 544 4100 942 4425 
Q 1341 4750 2034 4750 
Q 2731 4750 3128 4425 
Q 3525 4100 3525 3541 
Q 3525 3141 3298 2862 
Q 3072 2584 2669 2484 
Q 3125 2378 3379 2068 
Q 3634 1759 3634 1313 
Q 3634 634 3220 271 
Q 2806 -91 2034 -91 
Q 1263 -91 848 271 
Q 434 634 434 1313 
Q 434 1759 690 2068 
Q 947 2378 1403 2484 
z
M 1172 3481 
Q 1172 3119 1398 2916 
Q 1625 2713 2034 2713 
Q 2441 2713 2670 2916 
Q 2900 3119 2900 3481 
Q 2900 3844 2670 4047 
Q 2441 4250 2034 4250 
Q 1625 4250 1398 4047 
Q 1172 3844 1172 3481 
z
" transform="scale(0.015625)"/>
       </defs>
       <use xlink:href="#DejaVuSans-38"/>
       <use xlink:href="#DejaVuSans-30" transform="translate(63.623047 0)"/>
       <use xlink:href="#DejaVuSans-30" transform="translate(127.246094 0)"/>
      </g>
     </g>
    </g>
    <g id="text_6">
     <!-- Nilai -->
     <g transform="translate(283.909375 272.354687) scale(0.1 -0.1)">
      <defs>
       <path id="DejaVuSans-4e" d="M 628 4666 
L 1478 4666 
L 3547 763 
L 3547 4666 
L 4159 4666 
L 4159 0 
L 3309 0 
L 1241 3903 
L 1241 0 
L 628 0 
L 628 4666 
z
" transform="scale(0.015625)"/>
       <path id="DejaVuSans-69" d="M 603 3500 
L 1178 3500 
L 1178 0 
L 603 0 
L 603 3500 
z
M 603 4863 
L 1178 4863 
L 1178 4134 
L 603 4134 
L 603 4863 
z
" transform="scale(0.015625)"/>
       <path id="DejaVuSans-6c" d="M 603 4863 
L 1178 4863 
L 1178 0 
L 603 0 
L 603 4863 
z
" transform="scale(0.015625)"/>
       <path id="DejaVuSans-61" d="M 2194 1759 
Q 1497 1759 1228 1600 
Q 959 1441 959 1056 
Q 959 750 1161 570 
Q 1363 391 1709 391 
Q 2188 391 2477 730 
Q 2766 1069 2766 1631 
L 2766 1759 
L 2194 1759 
z
M 3341 1997 
L 3341 0 
L 2766 0 
L 2766 531 
Q 2569 213 2275 61 
Q 1981 -91 1556 -91 
Q 1019 -91 701 211 
Q 384 513 384 1019 
Q 384 1609 779 1909 
Q 1175 2209 1959 2209 
L 2766 2209 
L 2766 2266 
Q 2766 2663 2505 2880 
Q 2244 3097 1772 3097 
Q 1472 3097 1187 3025 
Q 903 2953 641 2809 
L 641 3341 
Q 956 3463 1253 3523 
Q 1550 3584 1831 3584 
Q 2591 3584 2966 3190 
Q 3341 2797 3341 1997 
z
" transform="scale(0.015625)"/>
      </defs>
      <use xlink:href="#DejaVuSans-4e"/>
      <use xlink:href="#DejaVuSans-69" transform="translate(74.804688 0)"/>
      <use xlink:href="#DejaVuSans-6c" transform="translate(102.587891 0)"/>
      <use xlink:href="#DejaVuSans-61" transform="translate(130.371094 0)"/>
      <use xlink:href="#DejaVuSans-69" transform="translate(191.650391 0)"/>
     </g>
    </g>
   </g>
   <g id="matplotlib.axis_2">
    <g id="ytick_1">
     <g id="line2d_11">
      <path d="M 43.78125 244.078125 
L 545.98125 244.078125 
" clip-path="url(#p957e4db0ff)" style="fill: none; stroke: #b0b0b0; stroke-opacity: 0.3; stroke-width: 0.8; stroke-linecap: square"/>
     </g>
     <g id="line2d_12">
      <defs>
       <path id="m8d2e84c8c3" d="M 0 0 
L -3.5 0 
" style="stroke: #000000; stroke-width: 0.8"/>
      </defs>
      <g>
       <use xlink:href="#m8d2e84c8c3" x="43.78125" y="244.078125" style="stroke: #000000; stroke-width: 0.8"/>
      </g>
     </g>
     <g id="text_7">
      <!-- 0.0 -->
      <g transform="translate(20.878125 247.877344) scale(0.1 -0.1)">
       <defs>
        <path id="DejaVuSans-2e" d="M 684 794 
L 1344 794 
L 1344 0 
L 684 0 
L 684 794 
z
" transform="scale(0.015625)"/>
       </defs>
       <use xlink:href="#DejaVuSans-30"/>
       <use xlink:href="#DejaVuSans-2e" transform="translate(63.623047 0)"/>
       <use xlink:href="#DejaVuSans-30" transform="translate(95.410156 0)"/>
      </g>
     </g>
    </g>
    <g id="ytick_2">
     <g id="line2d_13">
      <path d="M 43.78125 202.083377 
L 545.98125 202.083377 
" clip-path="url(#p957e4db0ff)" style="fill: none; stroke: #b0b0b0; stroke-opacity: 0.3; stroke-width: 0.8; stroke-linecap: square"/>
     </g>
     <g id="line2d_14">
      <g>
       <use xlink:href="#m8d2e84c8c3" x="43.78125" y="202.083377" style="stroke: #000000; stroke-width: 0.8"/>
      </g>
     </g>
     <g id="text_8">
      <!-- 0.1 -->
      <g transform="translate(20.878125 205.882596) scale(0.1 -0.1)">
       <defs>
        <path id="DejaVuSans-31" d="M 794 531 
L 1825 531 
L 1825 4091 
L 703 3866 
L 703 4441 
L 1819 4666 
L 2450 4666 
L 2450 531 
L 3481 531 
L 3481 0 
L 794 0 
L 794 531 
z
" transform="scale(0.015625)"/>
       </defs>
       <use xlink:href="#DejaVuSans-30"/>
       <use xlink:href="#DejaVuSans-2e" transform="translate(63.623047 0)"/>
       <use xlink:href="#DejaVuSans-31" transform="translate(95.410156 0)"/>
      </g>
     </g>
    </g>
    <g id="ytick_3">
     <g id="line2d_15">
      <path d="M 43.78125 160.088629 
L 545.98125 160.088629 
" clip-path="url(#p957e4db0ff)" style="fill: none; stroke: #b0b0b0; stroke-opacity: 0.3; stroke-width: 0.8; stroke-linecap: square"/>
     </g>
     <g id="line2d_16">
      <g>
       <use xlink:href="#m8d2e84c8c3" x="43.78125" y="160.088629" style="stroke: #000000; stroke-width: 0.8"/>
      </g>
     </g>
     <g id="text_9">
      <!-- 0.2 -->
      <g transform="translate(20.878125 163.887848) scale(0.1 -0.1)">
       <use xlink:href="#DejaVuSans-30"/>
       <use xlink:href="#DejaVuSans-2e" transform="translate(63.623047 0)"/>
       <use xlink:href="#DejaVuSans-32" transform="translate(95.410156 0)"/>
      </g>
     </g>
    </g>
    <g id="ytick_4">
     <g id="line2d_17">
      <path d="M 43.78125 118.093881 
L 545.98125 118.093881 
" clip-path="url(#p957e4db0ff)" style="fill: none; stroke: #b0b0b0; stroke-opacity: 0.3; stroke-width: 0.8; stroke-linecap: square"/>
     </g>
     <g id="line2d_18">
      <g>
       <use xlink:href="#m8d2e84c8c3" x="43.78125" y="118.093881" style="stroke: #000000; stroke-width: 0.8"/>
      </g>
     </g>
     <g id="text_10">
      <!-- 0.3 -->
      <g transform="translate(20.878125 121.8931) scale(0.1 -0.1)">
       <defs>
        <path id="DejaVuSans-33" d="M 2597 2516 
Q 3050 2419 3304 2112 
Q 3559 1806 3559 1356 
Q 3559 666 3084 287 
Q 2609 -91 1734 -91 
Q 1441 -91 1130 -33 
Q 819 25 488 141 
L 488 750 
Q 750 597 1062 519 
Q 1375 441 1716 441 
Q 2309 441 2620 675 
Q 2931 909 2931 1356 
Q 2931 1769 2642 2001 
Q 2353 2234 1838 2234 
L 1294 2234 
L 1294 2753 
L 1863 2753 
Q 2328 2753 2575 2939 
Q 2822 3125 2822 3475 
Q 2822 3834 2567 4026 
Q 2313 4219 1838 4219 
Q 1578 4219 1281 4162 
Q 984 4106 628 3988 
L 628 4550 
Q 988 4650 1302 4700 
Q 1616 4750 1894 4750 
Q 2613 4750 3031 4423 
Q 3450 4097 3450 3541 
Q 3450 3153 3228 2886 
Q 3006 2619 2597 2516 
z
" transform="scale(0.015625)"/>
       </defs>
       <use xlink:href="#DejaVuSans-30"/>
       <use xlink:href="#DejaVuSans-2e" transform="translate(63.623047 0)"/>
       <use xlink:href="#DejaVuSans-33" transform="translate(95.410156 0)"/>
      </g>
     </g>
    </g>
    <g id="ytick_5">
     <g id="line2d_19">
      <path d="M 43.78125 76.099133 
L 545.98125 76.099133 
" clip-path="url(#p957e4db0ff)" style="fill: none; stroke: #b0b0b0; stroke-opacity: 0.3; stroke-width: 0.8; stroke-linecap: square"/>
     </g>
     <g id="line2d_20">
      <g>
       <use xlink:href="#m8d2e84c8c3" x="43.78125" y="76.099133" style="stroke: #000000; stroke-width: 0.8"/>
      </g>
     </g>
     <g id="text_11">
      <!-- 0.4 -->
      <g transform="translate(20.878125 79.898352) scale(0.1 -0.1)">
       <use xlink:href="#DejaVuSans-30"/>
       <use xlink:href="#DejaVuSans-2e" transform="translate(63.623047 0)"/>
       <use xlink:href="#DejaVuSans-34" transform="translate(95.410156 0)"/>
      </g>
     </g>
    </g>
    <g id="ytick_6">
     <g id="line2d_21">
      <path d="M 43.78125 34.104385 
L 545.98125 34.104385 
" clip-path="url(#p957e4db0ff)" style="fill: none; stroke: #b0b0b0; stroke-opacity: 0.3; stroke-width: 0.8; stroke-linecap: square"/>
     </g>
     <g id="line2d_22">
      <g>
       <use xlink:href="#m8d2e84c8c3" x="43.78125" y="34.104385" style="stroke: #000000; stroke-width: 0.8"/>
      </g>
     </g>
     <g id="text_12">
      <!-- 0.5 -->
      <g transform="translate(20.878125 37.903603) scale(0.1 -0.1)">
       <defs>
        <path id="DejaVuSans-35" d="M 691 4666 
L 3169 4666 
L 3169 4134 
L 1269 4134 
L 1269 2991 
Q 1406 3038 1543 3061 
Q 1681 3084 1819 3084 
Q 2600 3084 3056 2656 
Q 3513 2228 3513 1497 
Q 3513 744 3044 326 
Q 2575 -91 1722 -91 
Q 1428 -91 1123 -41 
Q 819 9 494 109 
L 494 744 
Q 775 591 1075 516 
Q 1375 441 1709 441 
Q 2250 441 2565 725 
Q 2881 1009 2881 1497 
Q 2881 1984 2565 2268 
Q 2250 2553 1709 2553 
Q 1456 2553 1204 2497 
Q 953 2441 691 2322 
L 691 4666 
z
" transform="scale(0.015625)"/>
       </defs>
       <use xlink:href="#DejaVuSans-30"/>
       <use xlink:href="#DejaVuSans-2e" transform="translate(63.623047 0)"/>
       <use xlink:href="#DejaVuSans-35" transform="translate(95.410156 0)"/>
      </g>
     </g>
    </g>
    <g id="text_13">
     <!-- Density -->
     <g transform="translate(14.798438 152.206719) rotate(-90) scale(0.1 -0.1)">
      <defs>
       <path id="DejaVuSans-44" d="M 1259 4147 
L 1259 519 
L 2022 519 
Q 2988 519 3436 956 
Q 3884 1394 3884 2338 
Q 3884 3275 3436 3711 
Q 2988 4147 2022 4147 
L 1259 4147 
z
M 628 4666 
L 1925 4666 
Q 3281 4666 3915 4102 
Q 4550 3538 4550 2338 
Q 4550 1131 3912 565 
Q 3275 0 1925 0 
L 628 0 
L 628 4666 
z
" transform="scale(0.015625)"/>
       <path id="DejaVuSans-65" d="M 3597 1894 
L 3597 1613 
L 953 1613 
Q 991 1019 1311 708 
Q 1631 397 2203 397 
Q 2534 397 2845 478 
Q 3156 559 3463 722 
L 3463 178 
Q 3153 47 2828 -22 
Q 2503 -91 2169 -91 
Q 1331 -91 842 396 
Q 353 884 353 1716 
Q 353 2575 817 3079 
Q 1281 3584 2069 3584 
Q 2775 3584 3186 3129 
Q 3597 2675 3597 1894 
z
M 3022 2063 
Q 3016 2534 2758 2815 
Q 2500 3097 2075 3097 
Q 1594 3097 1305 2825 
Q 1016 2553 972 2059 
L 3022 2063 
z
" transform="scale(0.015625)"/>
       <path id="DejaVuSans-6e" d="M 3513 2113 
L 3513 0 
L 2938 0 
L 2938 2094 
Q 2938 2591 2744 2837 
Q 2550 3084 2163 3084 
Q 1697 3084 1428 2787 
Q 1159 2491 1159 1978 
L 1159 0 
L 581 0 
L 581 3500 
L 1159 3500 
L 1159 2956 
Q 1366 3272 1645 3428 
Q 1925 3584 2291 3584 
Q 2894 3584 3203 3211 
Q 3513 2838 3513 2113 
z
" transform="scale(0.015625)"/>
       <path id="DejaVuSans-73" d="M 2834 3397 
L 2834 2853 
Q 2591 2978 2328 3040 
Q 2066 3103 1784 3103 
Q 1356 3103 1142 2972 
Q 928 2841 928 2578 
Q 928 2378 1081 2264 
Q 1234 2150 1697 2047 
L 1894 2003 
Q 2506 1872 2764 1633 
Q 3022 1394 3022 966 
Q 3022 478 2636 193 
Q 2250 -91 1575 -91 
Q 1294 -91 989 -36 
Q 684 19 347 128 
L 347 722 
Q 666 556 975 473 
Q 1284 391 1588 391 
Q 1994 391 2212 530 
Q 2431 669 2431 922 
Q 2431 1156 2273 1281 
Q 2116 1406 1581 1522 
L 1381 1569 
Q 847 1681 609 1914 
Q 372 2147 372 2553 
Q 372 3047 722 3315 
Q 1072 3584 1716 3584 
Q 2034 3584 2315 3537 
Q 2597 3491 2834 3397 
z
" transform="scale(0.015625)"/>
       <path id="DejaVuSans-74" d="M 1172 4494 
L 1172 3500 
L 2356 3500 
L 2356 3053 
L 1172 3053 
L 1172 1153 
Q 1172 725 1289 603 
Q 1406 481 1766 481 
L 2356 481 
L 2356 0 
L 1766 0 
Q 1100 0 847 248 
Q 594 497 594 1153 
L 594 3053 
L 172 3053 
L 172 3500 
L 594 3500 
L 594 4494 
L 1172 4494 
z
" transform="scale(0.015625)"/>
       <path id="DejaVuSans-79" d="M 2059 -325 
Q 1816 -950 1584 -1140 
Q 1353 -1331 966 -1331 
L 506 -1331 
L 506 -850 
L 844 -850 
Q 1081 -850 1212 -737 
Q 1344 -625 1503 -206 
L 1606 56 
L 191 3500 
L 800 3500 
L 1894 763 
L 2988 3500 
L 3597 3500 
L 2059 -325 
z
" transform="scale(0.015625)"/>
      </defs>
      <use xlink:href="#DejaVuSans-44"/>
      <use xlink:href="#DejaVuSans-65" transform="translate(77.001953 0)"/>
      <use xlink:href="#DejaVuSans-6e" transform="translate(138.525391 0)"/>
      <use xlink:href="#DejaVuSans-73" transform="translate(201.904297 0)"/>
      <use xlink:href="#DejaVuSans-69" transform="translate(254.003906 0)"/>
      <use xlink:href="#DejaVuSans-74" transform="translate(281.787109 0)"/>
      <use xlink:href="#DejaVuSans-79" transform="translate(320.996094 0)"/>
     </g>
    </g>
   </g>
   <g id="patch_123">
    <path d="M 43.78125 244.078125 
L 43.78125 22.318125 
" style="fill: none; stroke: #000000; stroke-width: 0.8; stroke-linejoin: miter; stroke-linecap: square"/>
   </g>
   <g id="patch_124">
    <path d="M 545.98125 244.078125 
L 545.98125 22.318125 
" style="fill: none; stroke: #000000; stroke-width: 0.8; stroke-linejoin: miter; stroke-linecap: square"/>
   </g>
   <g id="patch_125">
    <path d="M 43.78125 244.078125 
L 545.98125 244.078125 
" style="fill: none; stroke: #000000; stroke-width: 0.8; stroke-linejoin: miter; stroke-linecap: square"/>
   </g>
   <g id="patch_126">
    <path d="M 43.78125 22.318125 
L 545.98125 22.318125 
" style="fill: none; stroke: #000000; stroke-width: 0.8; stroke-linejoin: miter; stroke-linecap: square"/>
   </g>
   <g id="text_14">
    <!-- Distribusi input vs distribusi output setelah transformasi nonlinear -->
    <g transform="translate(95.701875 16.318125) scale(0.12 -0.12)">
     <defs>
      <path id="DejaVuSans-72" d="M 2631 2963 
Q 2534 3019 2420 3045 
Q 2306 3072 2169 3072 
Q 1681 3072 1420 2755 
Q 1159 2438 1159 1844 
L 1159 0 
L 581 0 
L 581 3500 
L 1159 3500 
L 1159 2956 
Q 1341 3275 1631 3429 
Q 1922 3584 2338 3584 
Q 2397 3584 2469 3576 
Q 2541 3569 2628 3553 
L 2631 2963 
z
" transform="scale(0.015625)"/>
      <path id="DejaVuSans-62" d="M 3116 1747 
Q 3116 2381 2855 2742 
Q 2594 3103 2138 3103 
Q 1681 3103 1420 2742 
Q 1159 2381 1159 1747 
Q 1159 1113 1420 752 
Q 1681 391 2138 391 
Q 2594 391 2855 752 
Q 3116 1113 3116 1747 
z
M 1159 2969 
Q 1341 3281 1617 3432 
Q 1894 3584 2278 3584 
Q 2916 3584 3314 3078 
Q 3713 2572 3713 1747 
Q 3713 922 3314 415 
Q 2916 -91 2278 -91 
Q 1894 -91 1617 61 
Q 1341 213 1159 525 
L 1159 0 
L 581 0 
L 581 4863 
L 1159 4863 
L 1159 2969 
z
" transform="scale(0.015625)"/>
      <path id="DejaVuSans-75" d="M 544 1381 
L 544 3500 
L 1119 3500 
L 1119 1403 
Q 1119 906 1312 657 
Q 1506 409 1894 409 
Q 2359 409 2629 706 
Q 2900 1003 2900 1516 
L 2900 3500 
L 3475 3500 
L 3475 0 
L 2900 0 
L 2900 538 
Q 2691 219 2414 64 
Q 2138 -91 1772 -91 
Q 1169 -91 856 284 
Q 544 659 544 1381 
z
M 1991 3584 
L 1991 3584 
z
" transform="scale(0.015625)"/>
      <path id="DejaVuSans-20" transform="scale(0.015625)"/>
      <path id="DejaVuSans-70" d="M 1159 525 
L 1159 -1331 
L 581 -1331 
L 581 3500 
L 1159 3500 
L 1159 2969 
Q 1341 3281 1617 3432 
Q 1894 3584 2278 3584 
Q 2916 3584 3314 3078 
Q 3713 2572 3713 1747 
Q 3713 922 3314 415 
Q 2916 -91 2278 -91 
Q 1894 -91 1617 61 
Q 1341 213 1159 525 
z
M 3116 1747 
Q 3116 2381 2855 2742 
Q 2594 3103 2138 3103 
Q 1681 3103 1420 2742 
Q 1159 2381 1159 1747 
Q 1159 1113 1420 752 
Q 1681 391 2138 391 
Q 2594 391 2855 752 
Q 3116 1113 3116 1747 
z
" transform="scale(0.015625)"/>
      <path id="DejaVuSans-76" d="M 191 3500 
L 800 3500 
L 1894 563 
L 2988 3500 
L 3597 3500 
L 2284 0 
L 1503 0 
L 191 3500 
z
" transform="scale(0.015625)"/>
      <path id="DejaVuSans-64" d="M 2906 2969 
L 2906 4863 
L 3481 4863 
L 3481 0 
L 2906 0 
L 2906 525 
Q 2725 213 2448 61 
Q 2172 -91 1784 -91 
Q 1150 -91 751 415 
Q 353 922 353 1747 
Q 353 2572 751 3078 
Q 1150 3584 1784 3584 
Q 2172 3584 2448 3432 
Q 2725 3281 2906 2969 
z
M 947 1747 
Q 947 1113 1208 752 
Q 1469 391 1925 391 
Q 2381 391 2643 752 
Q 2906 1113 2906 1747 
Q 2906 2381 2643 2742 
Q 2381 3103 1925 3103 
Q 1469 3103 1208 2742 
Q 947 2381 947 1747 
z
" transform="scale(0.015625)"/>
      <path id="DejaVuSans-6f" d="M 1959 3097 
Q 1497 3097 1228 2736 
Q 959 2375 959 1747 
Q 959 1119 1226 758 
Q 1494 397 1959 397 
Q 2419 397 2687 759 
Q 2956 1122 2956 1747 
Q 2956 2369 2687 2733 
Q 2419 3097 1959 3097 
z
M 1959 3584 
Q 2709 3584 3137 3096 
Q 3566 2609 3566 1747 
Q 3566 888 3137 398 
Q 2709 -91 1959 -91 
Q 1206 -91 779 398 
Q 353 888 353 1747 
Q 353 2609 779 3096 
Q 1206 3584 1959 3584 
z
" transform="scale(0.015625)"/>
      <path id="DejaVuSans-68" d="M 3513 2113 
L 3513 0 
L 2938 0 
L 2938 2094 
Q 2938 2591 2744 2837 
Q 2550 3084 2163 3084 
Q 1697 3084 1428 2787 
Q 1159 2491 1159 1978 
L 1159 0 
L 581 0 
L 581 4863 
L 1159 4863 
L 1159 2956 
Q 1366 3272 1645 3428 
Q 1925 3584 2291 3584 
Q 2894 3584 3203 3211 
Q 3513 2838 3513 2113 
z
" transform="scale(0.015625)"/>
      <path id="DejaVuSans-66" d="M 2375 4863 
L 2375 4384 
L 1825 4384 
Q 1516 4384 1395 4259 
Q 1275 4134 1275 3809 
L 1275 3500 
L 2222 3500 
L 2222 3053 
L 1275 3053 
L 1275 0 
L 697 0 
L 697 3053 
L 147 3053 
L 147 3500 
L 697 3500 
L 697 3744 
Q 697 4328 969 4595 
Q 1241 4863 1831 4863 
L 2375 4863 
z
" transform="scale(0.015625)"/>
      <path id="DejaVuSans-6d" d="M 3328 2828 
Q 3544 3216 3844 3400 
Q 4144 3584 4550 3584 
Q 5097 3584 5394 3201 
Q 5691 2819 5691 2113 
L 5691 0 
L 5113 0 
L 5113 2094 
Q 5113 2597 4934 2840 
Q 4756 3084 4391 3084 
Q 3944 3084 3684 2787 
Q 3425 2491 3425 1978 
L 3425 0 
L 2847 0 
L 2847 2094 
Q 2847 2600 2669 2842 
Q 2491 3084 2119 3084 
Q 1678 3084 1418 2786 
Q 1159 2488 1159 1978 
L 1159 0 
L 581 0 
L 581 3500 
L 1159 3500 
L 1159 2956 
Q 1356 3278 1631 3431 
Q 1906 3584 2284 3584 
Q 2666 3584 2933 3390 
Q 3200 3197 3328 2828 
z
" transform="scale(0.015625)"/>
     </defs>
     <use xlink:href="#DejaVuSans-44"/>
     <use xlink:href="#DejaVuSans-69" transform="translate(77.001953 0)"/>
     <use xlink:href="#DejaVuSans-73" transform="translate(104.785156 0)"/>
     <use xlink:href="#DejaVuSans-74" transform="translate(156.884766 0)"/>
     <use xlink:href="#DejaVuSans-72" transform="translate(196.09375 0)"/>
     <use xlink:href="#DejaVuSans-69" transform="translate(237.207031 0)"/>
     <use xlink:href="#DejaVuSans-62" transform="translate(264.990234 0)"/>
     <use xlink:href="#DejaVuSans-75" transform="translate(328.466797 0)"/>
     <use xlink:href="#DejaVuSans-73" transform="translate(391.845703 0)"/>
     <use xlink:href="#DejaVuSans-69" transform="translate(443.945312 0)"/>
     <use xlink:href="#DejaVuSans-20" transform="translate(471.728516 0)"/>
     <use xlink:href="#DejaVuSans-69" transform="translate(503.515625 0)"/>
     <use xlink:href="#DejaVuSans-6e" transform="translate(531.298828 0)"/>
     <use xlink:href="#DejaVuSans-70" transform="translate(594.677734 0)"/>
     <use xlink:href="#DejaVuSans-75" transform="translate(658.154297 0)"/>
     <use xlink:href="#DejaVuSans-74" transform="translate(721.533203 0)"/>
     <use xlink:href="#DejaVuSans-20" transform="translate(760.742188 0)"/>
     <use xlink:href="#DejaVuSans-76" transform="translate(792.529297 0)"/>
     <use xlink:href="#DejaVuSans-73" transform="translate(851.708984 0)"/>
     <use xlink:href="#DejaVuSans-20" transform="translate(903.808594 0)"/>
     <use xlink:href="#DejaVuSans-64" transform="translate(935.595703 0)"/>
     <use xlink:href="#DejaVuSans-69" transform="translate(999.072266 0)"/>
     <use xlink:href="#DejaVuSans-73" transform="translate(1026.855469 0)"/>
     <use xlink:href="#DejaVuSans-74" transform="translate(1078.955078 0)"/>
     <use xlink:href="#DejaVuSans-72" transform="translate(1118.164062 0)"/>
     <use xlink:href="#DejaVuSans-69" transform="translate(1159.277344 0)"/>
     <use xlink:href="#DejaVuSans-62" transform="translate(1187.060547 0)"/>
     <use xlink:href="#DejaVuSans-75" transform="translate(1250.537109 0)"/>
     <use xlink:href="#DejaVuSans-73" transform="translate(1313.916016 0)"/>
     <use xlink:href="#DejaVuSans-69" transform="translate(1366.015625 0)"/>
     <use xlink:href="#DejaVuSans-20" transform="translate(1393.798828 0)"/>
     <use xlink:href="#DejaVuSans-6f" transform="translate(1425.585938 0)"/>
     <use xlink:href="#DejaVuSans-75" transform="translate(1486.767578 0)"/>
     <use xlink:href="#DejaVuSans-74" transform="translate(1550.146484 0)"/>
     <use xlink:href="#DejaVuSans-70" transform="translate(1589.355469 0)"/>
     <use xlink:href="#DejaVuSans-75" transform="translate(1652.832031 0)"/>
     <use xlink:href="#DejaVuSans-74" transform="translate(1716.210938 0)"/>
     <use xlink:href="#DejaVuSans-20" transform="translate(1755.419922 0)"/>
     <use xlink:href="#DejaVuSans-73" transform="translate(1787.207031 0)"/>
     <use xlink:href="#DejaVuSans-65" transform="translate(1839.306641 0)"/>
     <use xlink:href="#DejaVuSans-74" transform="translate(1900.830078 0)"/>
     <use xlink:href="#DejaVuSans-65" transform="translate(1940.039062 0)"/>
     <use xlink:href="#DejaVuSans-6c" transform="translate(2001.5625 0)"/>
     <use xlink:href="#DejaVuSans-61" transform="translate(2029.345703 0)"/>
     <use xlink:href="#DejaVuSans-68" transform="translate(2090.625 0)"/>
     <use xlink:href="#DejaVuSans-20" transform="translate(2154.003906 0)"/>
     <use xlink:href="#DejaVuSans-74" transform="translate(2185.791016 0)"/>
     <use xlink:href="#DejaVuSans-72" transform="translate(2225 0)"/>
     <use xlink:href="#DejaVuSans-61" transform="translate(2266.113281 0)"/>
     <use xlink:href="#DejaVuSans-6e" transform="translate(2327.392578 0)"/>
     <use xlink:href="#DejaVuSans-73" transform="translate(2390.771484 0)"/>
     <use xlink:href="#DejaVuSans-66" transform="translate(2442.871094 0)"/>
     <use xlink:href="#DejaVuSans-6f" transform="translate(2478.076172 0)"/>
     <use xlink:href="#DejaVuSans-72" transform="translate(2539.257812 0)"/>
     <use xlink:href="#DejaVuSans-6d" transform="translate(2578.621094 0)"/>
     <use xlink:href="#DejaVuSans-61" transform="translate(2676.033203 0)"/>
     <use xlink:href="#DejaVuSans-73" transform="translate(2737.3125 0)"/>
     <use xlink:href="#DejaVuSans-69" transform="translate(2789.412109 0)"/>
     <use xlink:href="#DejaVuSans-20" transform="translate(2817.195312 0)"/>
     <use xlink:href="#DejaVuSans-6e" transform="translate(2848.982422 0)"/>
     <use xlink:href="#DejaVuSans-6f" transform="translate(2912.361328 0)"/>
     <use xlink:href="#DejaVuSans-6e" transform="translate(2973.542969 0)"/>
     <use xlink:href="#DejaVuSans-6c" transform="translate(3036.921875 0)"/>
     <use xlink:href="#DejaVuSans-69" transform="translate(3064.705078 0)"/>
     <use xlink:href="#DejaVuSans-6e" transform="translate(3092.488281 0)"/>
     <use xlink:href="#DejaVuSans-65" transform="translate(3155.867188 0)"/>
     <use xlink:href="#DejaVuSans-61" transform="translate(3217.390625 0)"/>
     <use xlink:href="#DejaVuSans-72" transform="translate(3278.669922 0)"/>
    </g>
   </g>
   <g id="legend_1">
    <g id="patch_127">
     <path d="M 429.34375 59.674375 
L 538.98125 59.674375 
Q 540.98125 59.674375 540.98125 57.674375 
L 540.98125 29.318125 
Q 540.98125 27.318125 538.98125 27.318125 
L 429.34375 27.318125 
Q 427.34375 27.318125 427.34375 29.318125 
L 427.34375 57.674375 
Q 427.34375 59.674375 429.34375 59.674375 
z
" style="fill: #ffffff; opacity: 0.8; stroke: #cccccc; stroke-linejoin: miter"/>
    </g>
    <g id="patch_128">
     <path d="M 431.34375 38.916562 
L 451.34375 38.916562 
L 451.34375 31.916562 
L 431.34375 31.916562 
z
" style="fill: #1f77b4; opacity: 0.6"/>
    </g>
    <g id="text_15">
     <!-- Arus I -->
     <g transform="translate(459.34375 38.916562) scale(0.1 -0.1)">
      <defs>
       <path id="DejaVuSans-41" d="M 2188 4044 
L 1331 1722 
L 3047 1722 
L 2188 4044 
z
M 1831 4666 
L 2547 4666 
L 4325 0 
L 3669 0 
L 3244 1197 
L 1141 1197 
L 716 0 
L 50 0 
L 1831 4666 
z
" transform="scale(0.015625)"/>
       <path id="DejaVuSans-49" d="M 628 4666 
L 1259 4666 
L 1259 0 
L 628 0 
L 628 4666 
z
" transform="scale(0.015625)"/>
      </defs>
      <use xlink:href="#DejaVuSans-41"/>
      <use xlink:href="#DejaVuSans-72" transform="translate(68.408203 0)"/>
      <use xlink:href="#DejaVuSans-75" transform="translate(109.521484 0)"/>
      <use xlink:href="#DejaVuSans-73" transform="translate(172.900391 0)"/>
      <use xlink:href="#DejaVuSans-20" transform="translate(225 0)"/>
      <use xlink:href="#DejaVuSans-49" transform="translate(256.787109 0)"/>
     </g>
    </g>
    <g id="patch_129">
     <path d="M 431.34375 53.594687 
L 451.34375 53.594687 
L 451.34375 46.594687 
L 431.34375 46.594687 
z
" style="fill: #ff7f0e; opacity: 0.6"/>
    </g>
    <g id="text_16">
     <!-- Daya P = I^2 R -->
     <g transform="translate(459.34375 53.594687) scale(0.1 -0.1)">
      <defs>
       <path id="DejaVuSans-50" d="M 1259 4147 
L 1259 2394 
L 2053 2394 
Q 2494 2394 2734 2622 
Q 2975 2850 2975 3272 
Q 2975 3691 2734 3919 
Q 2494 4147 2053 4147 
L 1259 4147 
z
M 628 4666 
L 2053 4666 
Q 2838 4666 3239 4311 
Q 3641 3956 3641 3272 
Q 3641 2581 3239 2228 
Q 2838 1875 2053 1875 
L 1259 1875 
L 1259 0 
L 628 0 
L 628 4666 
z
" transform="scale(0.015625)"/>
       <path id="DejaVuSans-3d" d="M 678 2906 
L 4684 2906 
L 4684 2381 
L 678 2381 
L 678 2906 
z
M 678 1631 
L 4684 1631 
L 4684 1100 
L 678 1100 
L 678 1631 
z
" transform="scale(0.015625)"/>
       <path id="DejaVuSans-5e" d="M 2988 4666 
L 4684 2925 
L 4056 2925 
L 2681 4159 
L 1306 2925 
L 678 2925 
L 2375 4666 
L 2988 4666 
z
" transform="scale(0.015625)"/>
       <path id="DejaVuSans-52" d="M 2841 2188 
Q 3044 2119 3236 1894 
Q 3428 1669 3622 1275 
L 4263 0 
L 3584 0 
L 2988 1197 
Q 2756 1666 2539 1819 
Q 2322 1972 1947 1972 
L 1259 1972 
L 1259 0 
L 628 0 
L 628 4666 
L 2053 4666 
Q 2853 4666 3247 4331 
Q 3641 3997 3641 3322 
Q 3641 2881 3436 2590 
Q 3231 2300 2841 2188 
z
M 1259 4147 
L 1259 2491 
L 2053 2491 
Q 2509 2491 2742 2702 
Q 2975 2913 2975 3322 
Q 2975 3731 2742 3939 
Q 2509 4147 2053 4147 
L 1259 4147 
z
" transform="scale(0.015625)"/>
      </defs>
      <use xlink:href="#DejaVuSans-44"/>
      <use xlink:href="#DejaVuSans-61" transform="translate(77.001953 0)"/>
      <use xlink:href="#DejaVuSans-79" transform="translate(138.28125 0)"/>
      <use xlink:href="#DejaVuSans-61" transform="translate(197.460938 0)"/>
      <use xlink:href="#DejaVuSans-20" transform="translate(258.740234 0)"/>
      <use xlink:href="#DejaVuSans-50" transform="translate(290.527344 0)"/>
      <use xlink:href="#DejaVuSans-20" transform="translate(350.830078 0)"/>
      <use xlink:href="#DejaVuSans-3d" transform="translate(382.617188 0)"/>
      <use xlink:href="#DejaVuSans-20" transform="translate(466.40625 0)"/>
      <use xlink:href="#DejaVuSans-49" transform="translate(498.193359 0)"/>
      <use xlink:href="#DejaVuSans-5e" transform="translate(527.685547 0)"/>
      <use xlink:href="#DejaVuSans-32" transform="translate(611.474609 0)"/>
      <use xlink:href="#DejaVuSans-20" transform="translate(675.097656 0)"/>
      <use xlink:href="#DejaVuSans-52" transform="translate(706.884766 0)"/>
     </g>
    </g>
   </g>
  </g>
 </g>
 <defs>
  <clipPath id="p957e4db0ff">
   <rect x="43.78125" y="22.318125" width="502.2" height="221.76"/>
  </clipPath>
 </defs>
</svg>
