<?xml version="1.0" encoding="utf-8" standalone="no"?>
<!DOCTYPE svg PUBLIC "-//W3C//DTD SVG 1.1//EN"
  "http://www.w3.org/Graphics/SVG/1.1/DTD/svg11.dtd">
<svg xmlns:xlink="http://www.w3.org/1999/xlink" width="503.74375pt" height="281.634375pt" viewBox="0 0 503.74375 281.634375" xmlns="http://www.w3.org/2000/svg" version="1.1">
 <metadata>
  <rdf:RDF xmlns:dc="http://purl.org/dc/elements/1.1/" xmlns:cc="http://creativecommons.org/ns#" xmlns:rdf="http://www.w3.org/1999/02/22-rdf-syntax-ns#">
   <cc:Work>
    <dc:type rdf:resource="http://purl.org/dc/dcmitype/StillImage"/>
    <dc:date>2026-03-30T12:24:17.227937</dc:date>
    <dc:format>image/svg+xml</dc:format>
    <dc:creator>
     <cc:Agent>
      <dc:title>Matplotlib v3.10.8, https://matplotlib.org/</dc:title>
     </cc:Agent>
    </dc:creator>
   </cc:Work>
  </rdf:RDF>
 </metadata>
 <defs>
  <style type="text/css">*{stroke-linejoin: round; stroke-linecap: butt}</style>
 </defs>
 <g id="figure_1">
  <g id="patch_1">
   <path d="M 0 281.634375 
L 503.74375 281.634375 
L 503.74375 0 
L 0 0 
z
" style="fill: #ffffff"/>
  </g>
  <g id="axes_1">
   <g id="patch_2">
    <path d="M 50.14375 244.078125 
L 496.54375 244.078125 
L 496.54375 22.318125 
L 50.14375 22.318125 
z
" style="fill: #ffffff"/>
   </g>
   <g id="matplotlib.axis_1">
    <g id="xtick_1">
     <g id="line2d_1">
      <path d="M 70.434659 244.078125 
L 70.434659 22.318125 
" clip-path="url(#p6d3becd017)" style="fill: none; stroke: #b0b0b0; stroke-opacity: 0.3; stroke-width: 0.8; stroke-linecap: square"/>
     </g>
     <g id="line2d_2">
      <defs>
       <path id="ma537a46dbf" d="M 0 0 
L 0 3.5 
" style="stroke: #000000; stroke-width: 0.8"/>
      </defs>
      <g>
       <use xlink:href="#ma537a46dbf" x="70.434659" y="244.078125" style="stroke: #000000; stroke-width: 0.8"/>
      </g>
     </g>
     <g id="text_1">
      <!-- 20 -->
      <g transform="translate(64.072159 258.676562) scale(0.1 -0.1)">
       <defs>
        <path id="DejaVuSans-32" d="M 1228 531 
L 3431 531 
L 3431 0 
L 469 0 
L 469 531 
Q 828 903 1448 1529 
Q 2069 2156 2228 2338 
Q 2531 2678 2651 2914 
Q 2772 3150 2772 3378 
Q 2772 3750 2511 3984 
Q 2250 4219 1831 4219 
Q 1534 4219 1204 4116 
Q 875 4013 500 3803 
L 500 4441 
Q 881 4594 1212 4672 
Q 1544 4750 1819 4750 
Q 2544 4750 2975 4387 
Q 3406 4025 3406 3419 
Q 3406 3131 3298 2873 
Q 3191 2616 2906 2266 
Q 2828 2175 2409 1742 
Q 1991 1309 1228 531 
z
" transform="scale(0.015625)"/>
        <path id="DejaVuSans-30" d="M 2034 4250 
Q 1547 4250 1301 3770 
Q 1056 3291 1056 2328 
Q 1056 1369 1301 889 
Q 1547 409 2034 409 
Q 2525 409 2770 889 
Q 3016 1369 3016 2328 
Q 3016 3291 2770 3770 
Q 2525 4250 2034 4250 
z
M 2034 4750 
Q 2819 4750 3233 4129 
Q 3647 3509 3647 2328 
Q 3647 1150 3233 529 
Q 2819 -91 2034 -91 
Q 1250 -91 836 529 
Q 422 1150 422 2328 
Q 422 3509 836 4129 
Q 1250 4750 2034 4750 
z
" transform="scale(0.015625)"/>
       </defs>
       <use xlink:href="#DejaVuSans-32"/>
       <use xlink:href="#DejaVuSans-30" transform="translate(63.623047 0)"/>
      </g>
     </g>
    </g>
    <g id="xtick_2">
     <g id="line2d_3">
      <path d="M 121.161932 244.078125 
L 121.161932 22.318125 
" clip-path="url(#p6d3becd017)" style="fill: none; stroke: #b0b0b0; stroke-opacity: 0.3; stroke-width: 0.8; stroke-linecap: square"/>
     </g>
     <g id="line2d_4">
      <g>
       <use xlink:href="#ma537a46dbf" x="121.161932" y="244.078125" style="stroke: #000000; stroke-width: 0.8"/>
      </g>
     </g>
     <g id="text_2">
      <!-- 25 -->
      <g transform="translate(114.799432 258.676562) scale(0.1 -0.1)">
       <defs>
        <path id="DejaVuSans-35" d="M 691 4666 
L 3169 4666 
L 3169 4134 
L 1269 4134 
L 1269 2991 
Q 1406 3038 1543 3061 
Q 1681 3084 1819 3084 
Q 2600 3084 3056 2656 
Q 3513 2228 3513 1497 
Q 3513 744 3044 326 
Q 2575 -91 1722 -91 
Q 1428 -91 1123 -41 
Q 819 9 494 109 
L 494 744 
Q 775 591 1075 516 
Q 1375 441 1709 441 
Q 2250 441 2565 725 
Q 2881 1009 2881 1497 
Q 2881 1984 2565 2268 
Q 2250 2553 1709 2553 
Q 1456 2553 1204 2497 
Q 953 2441 691 2322 
L 691 4666 
z
" transform="scale(0.015625)"/>
       </defs>
       <use xlink:href="#DejaVuSans-32"/>
       <use xlink:href="#DejaVuSans-35" transform="translate(63.623047 0)"/>
      </g>
     </g>
    </g>
    <g id="xtick_3">
     <g id="line2d_5">
      <path d="M 171.889205 244.078125 
L 171.889205 22.318125 
" clip-path="url(#p6d3becd017)" style="fill: none; stroke: #b0b0b0; stroke-opacity: 0.3; stroke-width: 0.8; stroke-linecap: square"/>
     </g>
     <g id="line2d_6">
      <g>
       <use xlink:href="#ma537a46dbf" x="171.889205" y="244.078125" style="stroke: #000000; stroke-width: 0.8"/>
      </g>
     </g>
     <g id="text_3">
      <!-- 30 -->
      <g transform="translate(165.526705 258.676562) scale(0.1 -0.1)">
       <defs>
        <path id="DejaVuSans-33" d="M 2597 2516 
Q 3050 2419 3304 2112 
Q 3559 1806 3559 1356 
Q 3559 666 3084 287 
Q 2609 -91 1734 -91 
Q 1441 -91 1130 -33 
Q 819 25 488 141 
L 488 750 
Q 750 597 1062 519 
Q 1375 441 1716 441 
Q 2309 441 2620 675 
Q 2931 909 2931 1356 
Q 2931 1769 2642 2001 
Q 2353 2234 1838 2234 
L 1294 2234 
L 1294 2753 
L 1863 2753 
Q 2328 2753 2575 2939 
Q 2822 3125 2822 3475 
Q 2822 3834 2567 4026 
Q 2313 4219 1838 4219 
Q 1578 4219 1281 4162 
Q 984 4106 628 3988 
L 628 4550 
Q 988 4650 1302 4700 
Q 1616 4750 1894 4750 
Q 2613 4750 3031 4423 
Q 3450 4097 3450 3541 
Q 3450 3153 3228 2886 
Q 3006 2619 2597 2516 
z
" transform="scale(0.015625)"/>
       </defs>
       <use xlink:href="#DejaVuSans-33"/>
       <use xlink:href="#DejaVuSans-30" transform="translate(63.623047 0)"/>
      </g>
     </g>
    </g>
    <g id="xtick_4">
     <g id="line2d_7">
      <path d="M 222.616477 244.078125 
L 222.616477 22.318125 
" clip-path="url(#p6d3becd017)" style="fill: none; stroke: #b0b0b0; stroke-opacity: 0.3; stroke-width: 0.8; stroke-linecap: square"/>
     </g>
     <g id="line2d_8">
      <g>
       <use xlink:href="#ma537a46dbf" x="222.616477" y="244.078125" style="stroke: #000000; stroke-width: 0.8"/>
      </g>
     </g>
     <g id="text_4">
      <!-- 35 -->
      <g transform="translate(216.253977 258.676562) scale(0.1 -0.1)">
       <use xlink:href="#DejaVuSans-33"/>
       <use xlink:href="#DejaVuSans-35" transform="translate(63.623047 0)"/>
      </g>
     </g>
    </g>
    <g id="xtick_5">
     <g id="line2d_9">
      <path d="M 273.34375 244.078125 
L 273.34375 22.318125 
" clip-path="url(#p6d3becd017)" style="fill: none; stroke: #b0b0b0; stroke-opacity: 0.3; stroke-width: 0.8; stroke-linecap: square"/>
     </g>
     <g id="line2d_10">
      <g>
       <use xlink:href="#ma537a46dbf" x="273.34375" y="244.078125" style="stroke: #000000; stroke-width: 0.8"/>
      </g>
     </g>
     <g id="text_5">
      <!-- 40 -->
      <g transform="translate(266.98125 258.676562) scale(0.1 -0.1)">
       <defs>
        <path id="DejaVuSans-34" d="M 2419 4116 
L 825 1625 
L 2419 1625 
L 2419 4116 
z
M 2253 4666 
L 3047 4666 
L 3047 1625 
L 3713 1625 
L 3713 1100 
L 3047 1100 
L 3047 0 
L 2419 0 
L 2419 1100 
L 313 1100 
L 313 1709 
L 2253 4666 
z
" transform="scale(0.015625)"/>
       </defs>
       <use xlink:href="#DejaVuSans-34"/>
       <use xlink:href="#DejaVuSans-30" transform="translate(63.623047 0)"/>
      </g>
     </g>
    </g>
    <g id="xtick_6">
     <g id="line2d_11">
      <path d="M 324.071023 244.078125 
L 324.071023 22.318125 
" clip-path="url(#p6d3becd017)" style="fill: none; stroke: #b0b0b0; stroke-opacity: 0.3; stroke-width: 0.8; stroke-linecap: square"/>
     </g>
     <g id="line2d_12">
      <g>
       <use xlink:href="#ma537a46dbf" x="324.071023" y="244.078125" style="stroke: #000000; stroke-width: 0.8"/>
      </g>
     </g>
     <g id="text_6">
      <!-- 45 -->
      <g transform="translate(317.708523 258.676562) scale(0.1 -0.1)">
       <use xlink:href="#DejaVuSans-34"/>
       <use xlink:href="#DejaVuSans-35" transform="translate(63.623047 0)"/>
      </g>
     </g>
    </g>
    <g id="xtick_7">
     <g id="line2d_13">
      <path d="M 374.798295 244.078125 
L 374.798295 22.318125 
" clip-path="url(#p6d3becd017)" style="fill: none; stroke: #b0b0b0; stroke-opacity: 0.3; stroke-width: 0.8; stroke-linecap: square"/>
     </g>
     <g id="line2d_14">
      <g>
       <use xlink:href="#ma537a46dbf" x="374.798295" y="244.078125" style="stroke: #000000; stroke-width: 0.8"/>
      </g>
     </g>
     <g id="text_7">
      <!-- 50 -->
      <g transform="translate(368.435795 258.676562) scale(0.1 -0.1)">
       <use xlink:href="#DejaVuSans-35"/>
       <use xlink:href="#DejaVuSans-30" transform="translate(63.623047 0)"/>
      </g>
     </g>
    </g>
    <g id="xtick_8">
     <g id="line2d_15">
      <path d="M 425.525568 244.078125 
L 425.525568 22.318125 
" clip-path="url(#p6d3becd017)" style="fill: none; stroke: #b0b0b0; stroke-opacity: 0.3; stroke-width: 0.8; stroke-linecap: square"/>
     </g>
     <g id="line2d_16">
      <g>
       <use xlink:href="#ma537a46dbf" x="425.525568" y="244.078125" style="stroke: #000000; stroke-width: 0.8"/>
      </g>
     </g>
     <g id="text_8">
      <!-- 55 -->
      <g transform="translate(419.163068 258.676562) scale(0.1 -0.1)">
       <use xlink:href="#DejaVuSans-35"/>
       <use xlink:href="#DejaVuSans-35" transform="translate(63.623047 0)"/>
      </g>
     </g>
    </g>
    <g id="xtick_9">
     <g id="line2d_17">
      <path d="M 476.252841 244.078125 
L 476.252841 22.318125 
" clip-path="url(#p6d3becd017)" style="fill: none; stroke: #b0b0b0; stroke-opacity: 0.3; stroke-width: 0.8; stroke-linecap: square"/>
     </g>
     <g id="line2d_18">
      <g>
       <use xlink:href="#ma537a46dbf" x="476.252841" y="244.078125" style="stroke: #000000; stroke-width: 0.8"/>
      </g>
     </g>
     <g id="text_9">
      <!-- 60 -->
      <g transform="translate(469.890341 258.676562) scale(0.1 -0.1)">
       <defs>
        <path id="DejaVuSans-36" d="M 2113 2584 
Q 1688 2584 1439 2293 
Q 1191 2003 1191 1497 
Q 1191 994 1439 701 
Q 1688 409 2113 409 
Q 2538 409 2786 701 
Q 3034 994 3034 1497 
Q 3034 2003 2786 2293 
Q 2538 2584 2113 2584 
z
M 3366 4563 
L 3366 3988 
Q 3128 4100 2886 4159 
Q 2644 4219 2406 4219 
Q 1781 4219 1451 3797 
Q 1122 3375 1075 2522 
Q 1259 2794 1537 2939 
Q 1816 3084 2150 3084 
Q 2853 3084 3261 2657 
Q 3669 2231 3669 1497 
Q 3669 778 3244 343 
Q 2819 -91 2113 -91 
Q 1303 -91 875 529 
Q 447 1150 447 2328 
Q 447 3434 972 4092 
Q 1497 4750 2381 4750 
Q 2619 4750 2861 4703 
Q 3103 4656 3366 4563 
z
" transform="scale(0.015625)"/>
       </defs>
       <use xlink:href="#DejaVuSans-36"/>
       <use xlink:href="#DejaVuSans-30" transform="translate(63.623047 0)"/>
      </g>
     </g>
    </g>
    <g id="text_10">
     <!-- x -->
     <g transform="translate(270.384375 272.354687) scale(0.1 -0.1)">
      <defs>
       <path id="DejaVuSans-78" d="M 3513 3500 
L 2247 1797 
L 3578 0 
L 2900 0 
L 1881 1375 
L 863 0 
L 184 0 
L 1544 1831 
L 300 3500 
L 978 3500 
L 1906 2253 
L 2834 3500 
L 3513 3500 
z
" transform="scale(0.015625)"/>
      </defs>
      <use xlink:href="#DejaVuSans-78"/>
     </g>
    </g>
   </g>
   <g id="matplotlib.axis_2">
    <g id="ytick_1">
     <g id="line2d_19">
      <path d="M 50.14375 233.998125 
L 496.54375 233.998125 
" clip-path="url(#p6d3becd017)" style="fill: none; stroke: #b0b0b0; stroke-opacity: 0.3; stroke-width: 0.8; stroke-linecap: square"/>
     </g>
     <g id="line2d_20">
      <defs>
       <path id="mb84adec1bd" d="M 0 0 
L -3.5 0 
" style="stroke: #000000; stroke-width: 0.8"/>
      </defs>
      <g>
       <use xlink:href="#mb84adec1bd" x="50.14375" y="233.998125" style="stroke: #000000; stroke-width: 0.8"/>
      </g>
     </g>
     <g id="text_11">
      <!-- 0.00 -->
      <g transform="translate(20.878125 237.797344) scale(0.1 -0.1)">
       <defs>
        <path id="DejaVuSans-2e" d="M 684 794 
L 1344 794 
L 1344 0 
L 684 0 
L 684 794 
z
" transform="scale(0.015625)"/>
       </defs>
       <use xlink:href="#DejaVuSans-30"/>
       <use xlink:href="#DejaVuSans-2e" transform="translate(63.623047 0)"/>
       <use xlink:href="#DejaVuSans-30" transform="translate(95.410156 0)"/>
       <use xlink:href="#DejaVuSans-30" transform="translate(159.033203 0)"/>
      </g>
     </g>
    </g>
    <g id="ytick_2">
     <g id="line2d_21">
      <path d="M 50.14375 209.240977 
L 496.54375 209.240977 
" clip-path="url(#p6d3becd017)" style="fill: none; stroke: #b0b0b0; stroke-opacity: 0.3; stroke-width: 0.8; stroke-linecap: square"/>
     </g>
     <g id="line2d_22">
      <g>
       <use xlink:href="#mb84adec1bd" x="50.14375" y="209.240977" style="stroke: #000000; stroke-width: 0.8"/>
      </g>
     </g>
     <g id="text_12">
      <!-- 0.01 -->
      <g transform="translate(20.878125 213.040195) scale(0.1 -0.1)">
       <defs>
        <path id="DejaVuSans-31" d="M 794 531 
L 1825 531 
L 1825 4091 
L 703 3866 
L 703 4441 
L 1819 4666 
L 2450 4666 
L 2450 531 
L 3481 531 
L 3481 0 
L 794 0 
L 794 531 
z
" transform="scale(0.015625)"/>
       </defs>
       <use xlink:href="#DejaVuSans-30"/>
       <use xlink:href="#DejaVuSans-2e" transform="translate(63.623047 0)"/>
       <use xlink:href="#DejaVuSans-30" transform="translate(95.410156 0)"/>
       <use xlink:href="#DejaVuSans-31" transform="translate(159.033203 0)"/>
      </g>
     </g>
    </g>
    <g id="ytick_3">
     <g id="line2d_23">
      <path d="M 50.14375 184.483828 
L 496.54375 184.483828 
" clip-path="url(#p6d3becd017)" style="fill: none; stroke: #b0b0b0; stroke-opacity: 0.3; stroke-width: 0.8; stroke-linecap: square"/>
     </g>
     <g id="line2d_24">
      <g>
       <use xlink:href="#mb84adec1bd" x="50.14375" y="184.483828" style="stroke: #000000; stroke-width: 0.8"/>
      </g>
     </g>
     <g id="text_13">
      <!-- 0.02 -->
      <g transform="translate(20.878125 188.283047) scale(0.1 -0.1)">
       <use xlink:href="#DejaVuSans-30"/>
       <use xlink:href="#DejaVuSans-2e" transform="translate(63.623047 0)"/>
       <use xlink:href="#DejaVuSans-30" transform="translate(95.410156 0)"/>
       <use xlink:href="#DejaVuSans-32" transform="translate(159.033203 0)"/>
      </g>
     </g>
    </g>
    <g id="ytick_4">
     <g id="line2d_25">
      <path d="M 50.14375 159.72668 
L 496.54375 159.72668 
" clip-path="url(#p6d3becd017)" style="fill: none; stroke: #b0b0b0; stroke-opacity: 0.3; stroke-width: 0.8; stroke-linecap: square"/>
     </g>
     <g id="line2d_26">
      <g>
       <use xlink:href="#mb84adec1bd" x="50.14375" y="159.72668" style="stroke: #000000; stroke-width: 0.8"/>
      </g>
     </g>
     <g id="text_14">
      <!-- 0.03 -->
      <g transform="translate(20.878125 163.525899) scale(0.1 -0.1)">
       <use xlink:href="#DejaVuSans-30"/>
       <use xlink:href="#DejaVuSans-2e" transform="translate(63.623047 0)"/>
       <use xlink:href="#DejaVuSans-30" transform="translate(95.410156 0)"/>
       <use xlink:href="#DejaVuSans-33" transform="translate(159.033203 0)"/>
      </g>
     </g>
    </g>
    <g id="ytick_5">
     <g id="line2d_27">
      <path d="M 50.14375 134.969532 
L 496.54375 134.969532 
" clip-path="url(#p6d3becd017)" style="fill: none; stroke: #b0b0b0; stroke-opacity: 0.3; stroke-width: 0.8; stroke-linecap: square"/>
     </g>
     <g id="line2d_28">
      <g>
       <use xlink:href="#mb84adec1bd" x="50.14375" y="134.969532" style="stroke: #000000; stroke-width: 0.8"/>
      </g>
     </g>
     <g id="text_15">
      <!-- 0.04 -->
      <g transform="translate(20.878125 138.768751) scale(0.1 -0.1)">
       <use xlink:href="#DejaVuSans-30"/>
       <use xlink:href="#DejaVuSans-2e" transform="translate(63.623047 0)"/>
       <use xlink:href="#DejaVuSans-30" transform="translate(95.410156 0)"/>
       <use xlink:href="#DejaVuSans-34" transform="translate(159.033203 0)"/>
      </g>
     </g>
    </g>
    <g id="ytick_6">
     <g id="line2d_29">
      <path d="M 50.14375 110.212384 
L 496.54375 110.212384 
" clip-path="url(#p6d3becd017)" style="fill: none; stroke: #b0b0b0; stroke-opacity: 0.3; stroke-width: 0.8; stroke-linecap: square"/>
     </g>
     <g id="line2d_30">
      <g>
       <use xlink:href="#mb84adec1bd" x="50.14375" y="110.212384" style="stroke: #000000; stroke-width: 0.8"/>
      </g>
     </g>
     <g id="text_16">
      <!-- 0.05 -->
      <g transform="translate(20.878125 114.011602) scale(0.1 -0.1)">
       <use xlink:href="#DejaVuSans-30"/>
       <use xlink:href="#DejaVuSans-2e" transform="translate(63.623047 0)"/>
       <use xlink:href="#DejaVuSans-30" transform="translate(95.410156 0)"/>
       <use xlink:href="#DejaVuSans-35" transform="translate(159.033203 0)"/>
      </g>
     </g>
    </g>
    <g id="ytick_7">
     <g id="line2d_31">
      <path d="M 50.14375 85.455235 
L 496.54375 85.455235 
" clip-path="url(#p6d3becd017)" style="fill: none; stroke: #b0b0b0; stroke-opacity: 0.3; stroke-width: 0.8; stroke-linecap: square"/>
     </g>
     <g id="line2d_32">
      <g>
       <use xlink:href="#mb84adec1bd" x="50.14375" y="85.455235" style="stroke: #000000; stroke-width: 0.8"/>
      </g>
     </g>
     <g id="text_17">
      <!-- 0.06 -->
      <g transform="translate(20.878125 89.254454) scale(0.1 -0.1)">
       <use xlink:href="#DejaVuSans-30"/>
       <use xlink:href="#DejaVuSans-2e" transform="translate(63.623047 0)"/>
       <use xlink:href="#DejaVuSans-30" transform="translate(95.410156 0)"/>
       <use xlink:href="#DejaVuSans-36" transform="translate(159.033203 0)"/>
      </g>
     </g>
    </g>
    <g id="ytick_8">
     <g id="line2d_33">
      <path d="M 50.14375 60.698087 
L 496.54375 60.698087 
" clip-path="url(#p6d3becd017)" style="fill: none; stroke: #b0b0b0; stroke-opacity: 0.3; stroke-width: 0.8; stroke-linecap: square"/>
     </g>
     <g id="line2d_34">
      <g>
       <use xlink:href="#mb84adec1bd" x="50.14375" y="60.698087" style="stroke: #000000; stroke-width: 0.8"/>
      </g>
     </g>
     <g id="text_18">
      <!-- 0.07 -->
      <g transform="translate(20.878125 64.497306) scale(0.1 -0.1)">
       <defs>
        <path id="DejaVuSans-37" d="M 525 4666 
L 3525 4666 
L 3525 4397 
L 1831 0 
L 1172 0 
L 2766 4134 
L 525 4134 
L 525 4666 
z
" transform="scale(0.015625)"/>
       </defs>
       <use xlink:href="#DejaVuSans-30"/>
       <use xlink:href="#DejaVuSans-2e" transform="translate(63.623047 0)"/>
       <use xlink:href="#DejaVuSans-30" transform="translate(95.410156 0)"/>
       <use xlink:href="#DejaVuSans-37" transform="translate(159.033203 0)"/>
      </g>
     </g>
    </g>
    <g id="ytick_9">
     <g id="line2d_35">
      <path d="M 50.14375 35.940939 
L 496.54375 35.940939 
" clip-path="url(#p6d3becd017)" style="fill: none; stroke: #b0b0b0; stroke-opacity: 0.3; stroke-width: 0.8; stroke-linecap: square"/>
     </g>
     <g id="line2d_36">
      <g>
       <use xlink:href="#mb84adec1bd" x="50.14375" y="35.940939" style="stroke: #000000; stroke-width: 0.8"/>
      </g>
     </g>
     <g id="text_19">
      <!-- 0.08 -->
      <g transform="translate(20.878125 39.740158) scale(0.1 -0.1)">
       <defs>
        <path id="DejaVuSans-38" d="M 2034 2216 
Q 1584 2216 1326 1975 
Q 1069 1734 1069 1313 
Q 1069 891 1326 650 
Q 1584 409 2034 409 
Q 2484 409 2743 651 
Q 3003 894 3003 1313 
Q 3003 1734 2745 1975 
Q 2488 2216 2034 2216 
z
M 1403 2484 
Q 997 2584 770 2862 
Q 544 3141 544 3541 
Q 544 4100 942 4425 
Q 1341 4750 2034 4750 
Q 2731 4750 3128 4425 
Q 3525 4100 3525 3541 
Q 3525 3141 3298 2862 
Q 3072 2584 2669 2484 
Q 3125 2378 3379 2068 
Q 3634 1759 3634 1313 
Q 3634 634 3220 271 
Q 2806 -91 2034 -91 
Q 1263 -91 848 271 
Q 434 634 434 1313 
Q 434 1759 690 2068 
Q 947 2378 1403 2484 
z
M 1172 3481 
Q 1172 3119 1398 2916 
Q 1625 2713 2034 2713 
Q 2441 2713 2670 2916 
Q 2900 3119 2900 3481 
Q 2900 3844 2670 4047 
Q 2441 4250 2034 4250 
Q 1625 4250 1398 4047 
Q 1172 3844 1172 3481 
z
" transform="scale(0.015625)"/>
       </defs>
       <use xlink:href="#DejaVuSans-30"/>
       <use xlink:href="#DejaVuSans-2e" transform="translate(63.623047 0)"/>
       <use xlink:href="#DejaVuSans-30" transform="translate(95.410156 0)"/>
       <use xlink:href="#DejaVuSans-38" transform="translate(159.033203 0)"/>
      </g>
     </g>
    </g>
    <g id="text_20">
     <!-- Probability / Density -->
     <g transform="translate(14.798438 183.498125) rotate(-90) scale(0.1 -0.1)">
      <defs>
       <path id="DejaVuSans-50" d="M 1259 4147 
L 1259 2394 
L 2053 2394 
Q 2494 2394 2734 2622 
Q 2975 2850 2975 3272 
Q 2975 3691 2734 3919 
Q 2494 4147 2053 4147 
L 1259 4147 
z
M 628 4666 
L 2053 4666 
Q 2838 4666 3239 4311 
Q 3641 3956 3641 3272 
Q 3641 2581 3239 2228 
Q 2838 1875 2053 1875 
L 1259 1875 
L 1259 0 
L 628 0 
L 628 4666 
z
" transform="scale(0.015625)"/>
       <path id="DejaVuSans-72" d="M 2631 2963 
Q 2534 3019 2420 3045 
Q 2306 3072 2169 3072 
Q 1681 3072 1420 2755 
Q 1159 2438 1159 1844 
L 1159 0 
L 581 0 
L 581 3500 
L 1159 3500 
L 1159 2956 
Q 1341 3275 1631 3429 
Q 1922 3584 2338 3584 
Q 2397 3584 2469 3576 
Q 2541 3569 2628 3553 
L 2631 2963 
z
" transform="scale(0.015625)"/>
       <path id="DejaVuSans-6f" d="M 1959 3097 
Q 1497 3097 1228 2736 
Q 959 2375 959 1747 
Q 959 1119 1226 758 
Q 1494 397 1959 397 
Q 2419 397 2687 759 
Q 2956 1122 2956 1747 
Q 2956 2369 2687 2733 
Q 2419 3097 1959 3097 
z
M 1959 3584 
Q 2709 3584 3137 3096 
Q 3566 2609 3566 1747 
Q 3566 888 3137 398 
Q 2709 -91 1959 -91 
Q 1206 -91 779 398 
Q 353 888 353 1747 
Q 353 2609 779 3096 
Q 1206 3584 1959 3584 
z
" transform="scale(0.015625)"/>
       <path id="DejaVuSans-62" d="M 3116 1747 
Q 3116 2381 2855 2742 
Q 2594 3103 2138 3103 
Q 1681 3103 1420 2742 
Q 1159 2381 1159 1747 
Q 1159 1113 1420 752 
Q 1681 391 2138 391 
Q 2594 391 2855 752 
Q 3116 1113 3116 1747 
z
M 1159 2969 
Q 1341 3281 1617 3432 
Q 1894 3584 2278 3584 
Q 2916 3584 3314 3078 
Q 3713 2572 3713 1747 
Q 3713 922 3314 415 
Q 2916 -91 2278 -91 
Q 1894 -91 1617 61 
Q 1341 213 1159 525 
L 1159 0 
L 581 0 
L 581 4863 
L 1159 4863 
L 1159 2969 
z
" transform="scale(0.015625)"/>
       <path id="DejaVuSans-61" d="M 2194 1759 
Q 1497 1759 1228 1600 
Q 959 1441 959 1056 
Q 959 750 1161 570 
Q 1363 391 1709 391 
Q 2188 391 2477 730 
Q 2766 1069 2766 1631 
L 2766 1759 
L 2194 1759 
z
M 3341 1997 
L 3341 0 
L 2766 0 
L 2766 531 
Q 2569 213 2275 61 
Q 1981 -91 1556 -91 
Q 1019 -91 701 211 
Q 384 513 384 1019 
Q 384 1609 779 1909 
Q 1175 2209 1959 2209 
L 2766 2209 
L 2766 2266 
Q 2766 2663 2505 2880 
Q 2244 3097 1772 3097 
Q 1472 3097 1187 3025 
Q 903 2953 641 2809 
L 641 3341 
Q 956 3463 1253 3523 
Q 1550 3584 1831 3584 
Q 2591 3584 2966 3190 
Q 3341 2797 3341 1997 
z
" transform="scale(0.015625)"/>
       <path id="DejaVuSans-69" d="M 603 3500 
L 1178 3500 
L 1178 0 
L 603 0 
L 603 3500 
z
M 603 4863 
L 1178 4863 
L 1178 4134 
L 603 4134 
L 603 4863 
z
" transform="scale(0.015625)"/>
       <path id="DejaVuSans-6c" d="M 603 4863 
L 1178 4863 
L 1178 0 
L 603 0 
L 603 4863 
z
" transform="scale(0.015625)"/>
       <path id="DejaVuSans-74" d="M 1172 4494 
L 1172 3500 
L 2356 3500 
L 2356 3053 
L 1172 3053 
L 1172 1153 
Q 1172 725 1289 603 
Q 1406 481 1766 481 
L 2356 481 
L 2356 0 
L 1766 0 
Q 1100 0 847 248 
Q 594 497 594 1153 
L 594 3053 
L 172 3053 
L 172 3500 
L 594 3500 
L 594 4494 
L 1172 4494 
z
" transform="scale(0.015625)"/>
       <path id="DejaVuSans-79" d="M 2059 -325 
Q 1816 -950 1584 -1140 
Q 1353 -1331 966 -1331 
L 506 -1331 
L 506 -850 
L 844 -850 
Q 1081 -850 1212 -737 
Q 1344 -625 1503 -206 
L 1606 56 
L 191 3500 
L 800 3500 
L 1894 763 
L 2988 3500 
L 3597 3500 
L 2059 -325 
z
" transform="scale(0.015625)"/>
       <path id="DejaVuSans-20" transform="scale(0.015625)"/>
       <path id="DejaVuSans-2f" d="M 1625 4666 
L 2156 4666 
L 531 -594 
L 0 -594 
L 1625 4666 
z
" transform="scale(0.015625)"/>
       <path id="DejaVuSans-44" d="M 1259 4147 
L 1259 519 
L 2022 519 
Q 2988 519 3436 956 
Q 3884 1394 3884 2338 
Q 3884 3275 3436 3711 
Q 2988 4147 2022 4147 
L 1259 4147 
z
M 628 4666 
L 1925 4666 
Q 3281 4666 3915 4102 
Q 4550 3538 4550 2338 
Q 4550 1131 3912 565 
Q 3275 0 1925 0 
L 628 0 
L 628 4666 
z
" transform="scale(0.015625)"/>
       <path id="DejaVuSans-65" d="M 3597 1894 
L 3597 1613 
L 953 1613 
Q 991 1019 1311 708 
Q 1631 397 2203 397 
Q 2534 397 2845 478 
Q 3156 559 3463 722 
L 3463 178 
Q 3153 47 2828 -22 
Q 2503 -91 2169 -91 
Q 1331 -91 842 396 
Q 353 884 353 1716 
Q 353 2575 817 3079 
Q 1281 3584 2069 3584 
Q 2775 3584 3186 3129 
Q 3597 2675 3597 1894 
z
M 3022 2063 
Q 3016 2534 2758 2815 
Q 2500 3097 2075 3097 
Q 1594 3097 1305 2825 
Q 1016 2553 972 2059 
L 3022 2063 
z
" transform="scale(0.015625)"/>
       <path id="DejaVuSans-6e" d="M 3513 2113 
L 3513 0 
L 2938 0 
L 2938 2094 
Q 2938 2591 2744 2837 
Q 2550 3084 2163 3084 
Q 1697 3084 1428 2787 
Q 1159 2491 1159 1978 
L 1159 0 
L 581 0 
L 581 3500 
L 1159 3500 
L 1159 2956 
Q 1366 3272 1645 3428 
Q 1925 3584 2291 3584 
Q 2894 3584 3203 3211 
Q 3513 2838 3513 2113 
z
" transform="scale(0.015625)"/>
       <path id="DejaVuSans-73" d="M 2834 3397 
L 2834 2853 
Q 2591 2978 2328 3040 
Q 2066 3103 1784 3103 
Q 1356 3103 1142 2972 
Q 928 2841 928 2578 
Q 928 2378 1081 2264 
Q 1234 2150 1697 2047 
L 1894 2003 
Q 2506 1872 2764 1633 
Q 3022 1394 3022 966 
Q 3022 478 2636 193 
Q 2250 -91 1575 -91 
Q 1294 -91 989 -36 
Q 684 19 347 128 
L 347 722 
Q 666 556 975 473 
Q 1284 391 1588 391 
Q 1994 391 2212 530 
Q 2431 669 2431 922 
Q 2431 1156 2273 1281 
Q 2116 1406 1581 1522 
L 1381 1569 
Q 847 1681 609 1914 
Q 372 2147 372 2553 
Q 372 3047 722 3315 
Q 1072 3584 1716 3584 
Q 2034 3584 2315 3537 
Q 2597 3491 2834 3397 
z
" transform="scale(0.015625)"/>
      </defs>
      <use xlink:href="#DejaVuSans-50"/>
      <use xlink:href="#DejaVuSans-72" transform="translate(58.552734 0)"/>
      <use xlink:href="#DejaVuSans-6f" transform="translate(97.416016 0)"/>
      <use xlink:href="#DejaVuSans-62" transform="translate(158.597656 0)"/>
      <use xlink:href="#DejaVuSans-61" transform="translate(222.074219 0)"/>
      <use xlink:href="#DejaVuSans-62" transform="translate(283.353516 0)"/>
      <use xlink:href="#DejaVuSans-69" transform="translate(346.830078 0)"/>
      <use xlink:href="#DejaVuSans-6c" transform="translate(374.613281 0)"/>
      <use xlink:href="#DejaVuSans-69" transform="translate(402.396484 0)"/>
      <use xlink:href="#DejaVuSans-74" transform="translate(430.179688 0)"/>
      <use xlink:href="#DejaVuSans-79" transform="translate(469.388672 0)"/>
      <use xlink:href="#DejaVuSans-20" transform="translate(528.568359 0)"/>
      <use xlink:href="#DejaVuSans-2f" transform="translate(560.355469 0)"/>
      <use xlink:href="#DejaVuSans-20" transform="translate(594.046875 0)"/>
      <use xlink:href="#DejaVuSans-44" transform="translate(625.833984 0)"/>
      <use xlink:href="#DejaVuSans-65" transform="translate(702.835938 0)"/>
      <use xlink:href="#DejaVuSans-6e" transform="translate(764.359375 0)"/>
      <use xlink:href="#DejaVuSans-73" transform="translate(827.738281 0)"/>
      <use xlink:href="#DejaVuSans-69" transform="translate(879.837891 0)"/>
      <use xlink:href="#DejaVuSans-74" transform="translate(907.621094 0)"/>
      <use xlink:href="#DejaVuSans-79" transform="translate(946.830078 0)"/>
     </g>
    </g>
   </g>
   <g id="LineCollection_1">
    <path d="M 70.434659 233.998125 
L 70.434659 233.972054 
" clip-path="url(#p6d3becd017)" style="fill: none; stroke: #1f77b4; stroke-width: 1.5"/>
    <path d="M 80.580114 233.998125 
L 80.580114 233.931914 
" clip-path="url(#p6d3becd017)" style="fill: none; stroke: #1f77b4; stroke-width: 1.5"/>
    <path d="M 90.725568 233.998125 
L 90.725568 233.839619 
" clip-path="url(#p6d3becd017)" style="fill: none; stroke: #1f77b4; stroke-width: 1.5"/>
    <path d="M 100.871023 233.998125 
L 100.871023 233.639765 
" clip-path="url(#p6d3becd017)" style="fill: none; stroke: #1f77b4; stroke-width: 1.5"/>
    <path d="M 111.016477 233.998125 
L 111.016477 233.231632 
" clip-path="url(#p6d3becd017)" style="fill: none; stroke: #1f77b4; stroke-width: 1.5"/>
    <path d="M 121.161932 233.998125 
L 121.161932 232.444699 
" clip-path="url(#p6d3becd017)" style="fill: none; stroke: #1f77b4; stroke-width: 1.5"/>
    <path d="M 131.307386 233.998125 
L 131.307386 231.010768 
" clip-path="url(#p6d3becd017)" style="fill: none; stroke: #1f77b4; stroke-width: 1.5"/>
    <path d="M 141.452841 233.998125 
L 141.452841 228.539745 
" clip-path="url(#p6d3becd017)" style="fill: none; stroke: #1f77b4; stroke-width: 1.5"/>
    <path d="M 151.598295 233.998125 
L 151.598295 224.51094 
" clip-path="url(#p6d3becd017)" style="fill: none; stroke: #1f77b4; stroke-width: 1.5"/>
    <path d="M 161.74375 233.998125 
L 161.74375 218.295199 
" clip-path="url(#p6d3becd017)" style="fill: none; stroke: #1f77b4; stroke-width: 1.5"/>
    <path d="M 171.889205 233.998125 
L 171.889205 209.222397 
" clip-path="url(#p6d3becd017)" style="fill: none; stroke: #1f77b4; stroke-width: 1.5"/>
    <path d="M 182.034659 233.998125 
L 182.034659 196.70133 
" clip-path="url(#p6d3becd017)" style="fill: none; stroke: #1f77b4; stroke-width: 1.5"/>
    <path d="M 192.180114 233.998125 
L 192.180114 180.383982 
" clip-path="url(#p6d3becd017)" style="fill: none; stroke: #1f77b4; stroke-width: 1.5"/>
    <path d="M 202.325568 233.998125 
L 202.325568 160.346373 
" clip-path="url(#p6d3becd017)" style="fill: none; stroke: #1f77b4; stroke-width: 1.5"/>
    <path d="M 212.471023 233.998125 
L 212.471023 137.239941 
" clip-path="url(#p6d3becd017)" style="fill: none; stroke: #1f77b4; stroke-width: 1.5"/>
    <path d="M 222.616477 233.998125 
L 222.616477 112.359265 
" clip-path="url(#p6d3becd017)" style="fill: none; stroke: #1f77b4; stroke-width: 1.5"/>
    <path d="M 232.761932 233.998125 
L 232.761932 87.580979 
" clip-path="url(#p6d3becd017)" style="fill: none; stroke: #1f77b4; stroke-width: 1.5"/>
    <path d="M 242.907386 233.998125 
L 242.907386 65.156731 
" clip-path="url(#p6d3becd017)" style="fill: none; stroke: #1f77b4; stroke-width: 1.5"/>
    <path d="M 253.052841 233.998125 
L 253.052841 47.383953 
" clip-path="url(#p6d3becd017)" style="fill: none; stroke: #1f77b4; stroke-width: 1.5"/>
    <path d="M 263.198295 233.998125 
L 263.198295 36.219002 
" clip-path="url(#p6d3becd017)" style="fill: none; stroke: #1f77b4; stroke-width: 1.5"/>
    <path d="M 273.34375 233.998125 
L 273.34375 32.922684 
" clip-path="url(#p6d3becd017)" style="fill: none; stroke: #1f77b4; stroke-width: 1.5"/>
    <path d="M 283.489205 233.998125 
L 283.489205 37.826963 
" clip-path="url(#p6d3becd017)" style="fill: none; stroke: #1f77b4; stroke-width: 1.5"/>
    <path d="M 293.634659 233.998125 
L 293.634659 50.282275 
" clip-path="url(#p6d3becd017)" style="fill: none; stroke: #1f77b4; stroke-width: 1.5"/>
    <path d="M 303.780114 233.998125 
L 303.780114 68.796275 
" clip-path="url(#p6d3becd017)" style="fill: none; stroke: #1f77b4; stroke-width: 1.5"/>
    <path d="M 313.925568 233.998125 
L 313.925568 91.3238 
" clip-path="url(#p6d3becd017)" style="fill: none; stroke: #1f77b4; stroke-width: 1.5"/>
    <path d="M 324.071023 233.998125 
L 324.071023 115.631278 
" clip-path="url(#p6d3becd017)" style="fill: none; stroke: #1f77b4; stroke-width: 1.5"/>
    <path d="M 334.216477 233.998125 
L 334.216477 139.647739 
" clip-path="url(#p6d3becd017)" style="fill: none; stroke: #1f77b4; stroke-width: 1.5"/>
    <path d="M 344.361932 233.998125 
L 344.361932 161.729745 
" clip-path="url(#p6d3becd017)" style="fill: none; stroke: #1f77b4; stroke-width: 1.5"/>
    <path d="M 354.507386 233.998125 
L 354.507386 180.800567 
" clip-path="url(#p6d3becd017)" style="fill: none; stroke: #1f77b4; stroke-width: 1.5"/>
    <path d="M 364.652841 233.998125 
L 364.652841 196.361758 
" clip-path="url(#p6d3becd017)" style="fill: none; stroke: #1f77b4; stroke-width: 1.5"/>
    <path d="M 374.798295 233.998125 
L 374.798295 208.405395 
" clip-path="url(#p6d3becd017)" style="fill: none; stroke: #1f77b4; stroke-width: 1.5"/>
    <path d="M 384.94375 233.998125 
L 384.94375 217.270851 
" clip-path="url(#p6d3becd017)" style="fill: none; stroke: #1f77b4; stroke-width: 1.5"/>
    <path d="M 395.089205 233.998125 
L 395.089205 223.489965 
" clip-path="url(#p6d3becd017)" style="fill: none; stroke: #1f77b4; stroke-width: 1.5"/>
    <path d="M 405.234659 233.998125 
L 405.234659 227.653576 
" clip-path="url(#p6d3becd017)" style="fill: none; stroke: #1f77b4; stroke-width: 1.5"/>
    <path d="M 415.380114 233.998125 
L 415.380114 230.31672 
" clip-path="url(#p6d3becd017)" style="fill: none; stroke: #1f77b4; stroke-width: 1.5"/>
    <path d="M 425.525568 233.998125 
L 425.525568 231.945463 
" clip-path="url(#p6d3becd017)" style="fill: none; stroke: #1f77b4; stroke-width: 1.5"/>
    <path d="M 435.671023 233.998125 
L 435.671023 232.898485 
" clip-path="url(#p6d3becd017)" style="fill: none; stroke: #1f77b4; stroke-width: 1.5"/>
    <path d="M 445.816477 233.998125 
L 445.816477 233.432228 
" clip-path="url(#p6d3becd017)" style="fill: none; stroke: #1f77b4; stroke-width: 1.5"/>
    <path d="M 455.961932 233.998125 
L 455.961932 233.718429 
" clip-path="url(#p6d3becd017)" style="fill: none; stroke: #1f77b4; stroke-width: 1.5"/>
    <path d="M 466.107386 233.998125 
L 466.107386 233.865388 
" clip-path="url(#p6d3becd017)" style="fill: none; stroke: #1f77b4; stroke-width: 1.5"/>
    <path d="M 476.252841 233.998125 
L 476.252841 233.937656 
" clip-path="url(#p6d3becd017)" style="fill: none; stroke: #1f77b4; stroke-width: 1.5"/>
   </g>
   <g id="line2d_37">
    <defs>
     <path id="m6cc396c214" d="M 0 3 
C 0.795609 3 1.55874 2.683901 2.12132 2.12132 
C 2.683901 1.55874 3 0.795609 3 0 
C 3 -0.795609 2.683901 -1.55874 2.12132 -2.12132 
C 1.55874 -2.683901 0.795609 -3 0 -3 
C -0.795609 -3 -1.55874 -2.683901 -2.12132 -2.12132 
C -2.683901 -1.55874 -3 -0.795609 -3 0 
C -3 0.795609 -2.683901 1.55874 -2.12132 2.12132 
C -1.55874 2.683901 -0.795609 3 0 3 
z
" style="stroke: #1f77b4"/>
    </defs>
    <g clip-path="url(#p6d3becd017)">
     <use xlink:href="#m6cc396c214" x="70.434659" y="233.972054" style="fill: #1f77b4; stroke: #1f77b4"/>
     <use xlink:href="#m6cc396c214" x="80.580114" y="233.931914" style="fill: #1f77b4; stroke: #1f77b4"/>
     <use xlink:href="#m6cc396c214" x="90.725568" y="233.839619" style="fill: #1f77b4; stroke: #1f77b4"/>
     <use xlink:href="#m6cc396c214" x="100.871023" y="233.639765" style="fill: #1f77b4; stroke: #1f77b4"/>
     <use xlink:href="#m6cc396c214" x="111.016477" y="233.231632" style="fill: #1f77b4; stroke: #1f77b4"/>
     <use xlink:href="#m6cc396c214" x="121.161932" y="232.444699" style="fill: #1f77b4; stroke: #1f77b4"/>
     <use xlink:href="#m6cc396c214" x="131.307386" y="231.010768" style="fill: #1f77b4; stroke: #1f77b4"/>
     <use xlink:href="#m6cc396c214" x="141.452841" y="228.539745" style="fill: #1f77b4; stroke: #1f77b4"/>
     <use xlink:href="#m6cc396c214" x="151.598295" y="224.51094" style="fill: #1f77b4; stroke: #1f77b4"/>
     <use xlink:href="#m6cc396c214" x="161.74375" y="218.295199" style="fill: #1f77b4; stroke: #1f77b4"/>
     <use xlink:href="#m6cc396c214" x="171.889205" y="209.222397" style="fill: #1f77b4; stroke: #1f77b4"/>
     <use xlink:href="#m6cc396c214" x="182.034659" y="196.70133" style="fill: #1f77b4; stroke: #1f77b4"/>
     <use xlink:href="#m6cc396c214" x="192.180114" y="180.383982" style="fill: #1f77b4; stroke: #1f77b4"/>
     <use xlink:href="#m6cc396c214" x="202.325568" y="160.346373" style="fill: #1f77b4; stroke: #1f77b4"/>
     <use xlink:href="#m6cc396c214" x="212.471023" y="137.239941" style="fill: #1f77b4; stroke: #1f77b4"/>
     <use xlink:href="#m6cc396c214" x="222.616477" y="112.359265" style="fill: #1f77b4; stroke: #1f77b4"/>
     <use xlink:href="#m6cc396c214" x="232.761932" y="87.580979" style="fill: #1f77b4; stroke: #1f77b4"/>
     <use xlink:href="#m6cc396c214" x="242.907386" y="65.156731" style="fill: #1f77b4; stroke: #1f77b4"/>
     <use xlink:href="#m6cc396c214" x="253.052841" y="47.383953" style="fill: #1f77b4; stroke: #1f77b4"/>
     <use xlink:href="#m6cc396c214" x="263.198295" y="36.219002" style="fill: #1f77b4; stroke: #1f77b4"/>
     <use xlink:href="#m6cc396c214" x="273.34375" y="32.922684" style="fill: #1f77b4; stroke: #1f77b4"/>
     <use xlink:href="#m6cc396c214" x="283.489205" y="37.826963" style="fill: #1f77b4; stroke: #1f77b4"/>
     <use xlink:href="#m6cc396c214" x="293.634659" y="50.282275" style="fill: #1f77b4; stroke: #1f77b4"/>
     <use xlink:href="#m6cc396c214" x="303.780114" y="68.796275" style="fill: #1f77b4; stroke: #1f77b4"/>
     <use xlink:href="#m6cc396c214" x="313.925568" y="91.3238" style="fill: #1f77b4; stroke: #1f77b4"/>
     <use xlink:href="#m6cc396c214" x="324.071023" y="115.631278" style="fill: #1f77b4; stroke: #1f77b4"/>
     <use xlink:href="#m6cc396c214" x="334.216477" y="139.647739" style="fill: #1f77b4; stroke: #1f77b4"/>
     <use xlink:href="#m6cc396c214" x="344.361932" y="161.729745" style="fill: #1f77b4; stroke: #1f77b4"/>
     <use xlink:href="#m6cc396c214" x="354.507386" y="180.800567" style="fill: #1f77b4; stroke: #1f77b4"/>
     <use xlink:href="#m6cc396c214" x="364.652841" y="196.361758" style="fill: #1f77b4; stroke: #1f77b4"/>
     <use xlink:href="#m6cc396c214" x="374.798295" y="208.405395" style="fill: #1f77b4; stroke: #1f77b4"/>
     <use xlink:href="#m6cc396c214" x="384.94375" y="217.270851" style="fill: #1f77b4; stroke: #1f77b4"/>
     <use xlink:href="#m6cc396c214" x="395.089205" y="223.489965" style="fill: #1f77b4; stroke: #1f77b4"/>
     <use xlink:href="#m6cc396c214" x="405.234659" y="227.653576" style="fill: #1f77b4; stroke: #1f77b4"/>
     <use xlink:href="#m6cc396c214" x="415.380114" y="230.31672" style="fill: #1f77b4; stroke: #1f77b4"/>
     <use xlink:href="#m6cc396c214" x="425.525568" y="231.945463" style="fill: #1f77b4; stroke: #1f77b4"/>
     <use xlink:href="#m6cc396c214" x="435.671023" y="232.898485" style="fill: #1f77b4; stroke: #1f77b4"/>
     <use xlink:href="#m6cc396c214" x="445.816477" y="233.432228" style="fill: #1f77b4; stroke: #1f77b4"/>
     <use xlink:href="#m6cc396c214" x="455.961932" y="233.718429" style="fill: #1f77b4; stroke: #1f77b4"/>
     <use xlink:href="#m6cc396c214" x="466.107386" y="233.865388" style="fill: #1f77b4; stroke: #1f77b4"/>
     <use xlink:href="#m6cc396c214" x="476.252841" y="233.937656" style="fill: #1f77b4; stroke: #1f77b4"/>
    </g>
   </g>
   <g id="line2d_38"/>
   <g id="line2d_39">
    <path d="M 70.434659 233.949665 
L 90.766231 233.761357 
L 102.965175 233.432143 
L 111.911066 232.966012 
L 119.230432 232.350927 
L 124.923273 231.663926 
L 129.80285 230.883773 
L 134.682427 229.88273 
L 138.748742 228.844844 
L 142.815056 227.588256 
L 146.881371 226.078445 
L 150.134422 224.663403 
L 153.387474 223.042561 
L 156.640525 221.195246 
L 159.893577 219.100393 
L 163.146628 216.736875 
L 166.39968 214.083878 
L 169.652732 211.121334 
L 172.905783 207.830403 
L 176.158835 204.194005 
L 179.411886 200.197381 
L 182.664938 195.828685 
L 185.917989 191.079589 
L 189.171041 185.945891 
L 192.424093 180.428101 
L 195.677144 174.531995 
L 199.743459 166.648024 
L 203.809773 158.227667 
L 207.876087 149.323232 
L 212.755665 138.097104 
L 219.261768 122.465177 
L 234.713763 84.948588 
L 239.59334 73.903608 
L 243.659655 65.323258 
L 246.912706 58.974556 
L 250.165758 53.163218 
L 252.605546 49.198679 
L 255.045335 45.601737 
L 257.485124 42.397028 
L 259.924912 39.606781 
L 262.364701 37.25056 
L 263.991227 35.92923 
L 265.617753 34.812458 
L 267.244278 33.903793 
L 268.870804 33.206137 
L 270.49733 32.721719 
L 272.123856 32.452093 
L 273.750381 32.398125 
L 275.376907 32.559987 
L 277.003433 32.93716 
L 278.629959 33.528434 
L 280.256485 34.331915 
L 281.88301 35.345037 
L 283.509536 36.564572 
L 285.136062 37.986651 
L 287.575851 40.489546 
L 290.015639 43.420258 
L 292.455428 46.758306 
L 294.895217 50.480629 
L 297.335005 54.561848 
L 300.588057 60.514132 
L 303.841108 66.985944 
L 307.907423 75.693776 
L 311.973737 84.948588 
L 317.666577 98.535365 
L 335.558361 141.896884 
L 340.437938 152.93906 
L 344.504253 161.657197 
L 348.570567 169.86836 
L 352.636882 177.526757 
L 355.889933 183.234776 
L 359.142985 188.560901 
L 362.396036 193.502054 
L 365.649088 198.060152 
L 368.90214 202.241537 
L 372.155191 206.056371 
L 375.408243 209.518032 
L 378.661294 212.642512 
L 381.914346 215.447839 
L 385.167397 217.95353 
L 388.420449 220.180085 
L 391.6735 222.148523 
L 394.926552 223.879987 
L 398.179604 225.39538 
L 402.245918 227.016743 
L 406.312232 228.370323 
L 410.378547 229.49173 
L 415.258124 230.576907 
L 420.137702 231.425679 
L 425.830542 232.175983 
L 432.336645 232.789069 
L 439.656011 233.25142 
L 448.601903 233.595825 
L 460.800846 233.833837 
L 476.252841 233.949665 
L 476.252841 233.949665 
" clip-path="url(#p6d3becd017)" style="fill: none; stroke: #ff0000; stroke-width: 1.5; stroke-linecap: square"/>
   </g>
   <g id="patch_3">
    <path d="M 50.14375 244.078125 
L 50.14375 22.318125 
" style="fill: none; stroke: #000000; stroke-width: 0.8; stroke-linejoin: miter; stroke-linecap: square"/>
   </g>
   <g id="patch_4">
    <path d="M 496.54375 244.078125 
L 496.54375 22.318125 
" style="fill: none; stroke: #000000; stroke-width: 0.8; stroke-linejoin: miter; stroke-linecap: square"/>
   </g>
   <g id="patch_5">
    <path d="M 50.14375 244.078125 
L 496.54375 244.078125 
" style="fill: none; stroke: #000000; stroke-width: 0.8; stroke-linejoin: miter; stroke-linecap: square"/>
   </g>
   <g id="patch_6">
    <path d="M 50.14375 22.318125 
L 496.54375 22.318125 
" style="fill: none; stroke: #000000; stroke-width: 0.8; stroke-linejoin: miter; stroke-linecap: square"/>
   </g>
   <g id="text_21">
    <!-- Pendekatan Normal terhadap Binomial -->
    <g transform="translate(157.347813 16.318125) scale(0.12 -0.12)">
     <defs>
      <path id="DejaVuSans-64" d="M 2906 2969 
L 2906 4863 
L 3481 4863 
L 3481 0 
L 2906 0 
L 2906 525 
Q 2725 213 2448 61 
Q 2172 -91 1784 -91 
Q 1150 -91 751 415 
Q 353 922 353 1747 
Q 353 2572 751 3078 
Q 1150 3584 1784 3584 
Q 2172 3584 2448 3432 
Q 2725 3281 2906 2969 
z
M 947 1747 
Q 947 1113 1208 752 
Q 1469 391 1925 391 
Q 2381 391 2643 752 
Q 2906 1113 2906 1747 
Q 2906 2381 2643 2742 
Q 2381 3103 1925 3103 
Q 1469 3103 1208 2742 
Q 947 2381 947 1747 
z
" transform="scale(0.015625)"/>
      <path id="DejaVuSans-6b" d="M 581 4863 
L 1159 4863 
L 1159 1991 
L 2875 3500 
L 3609 3500 
L 1753 1863 
L 3688 0 
L 2938 0 
L 1159 1709 
L 1159 0 
L 581 0 
L 581 4863 
z
" transform="scale(0.015625)"/>
      <path id="DejaVuSans-4e" d="M 628 4666 
L 1478 4666 
L 3547 763 
L 3547 4666 
L 4159 4666 
L 4159 0 
L 3309 0 
L 1241 3903 
L 1241 0 
L 628 0 
L 628 4666 
z
" transform="scale(0.015625)"/>
      <path id="DejaVuSans-6d" d="M 3328 2828 
Q 3544 3216 3844 3400 
Q 4144 3584 4550 3584 
Q 5097 3584 5394 3201 
Q 5691 2819 5691 2113 
L 5691 0 
L 5113 0 
L 5113 2094 
Q 5113 2597 4934 2840 
Q 4756 3084 4391 3084 
Q 3944 3084 3684 2787 
Q 3425 2491 3425 1978 
L 3425 0 
L 2847 0 
L 2847 2094 
Q 2847 2600 2669 2842 
Q 2491 3084 2119 3084 
Q 1678 3084 1418 2786 
Q 1159 2488 1159 1978 
L 1159 0 
L 581 0 
L 581 3500 
L 1159 3500 
L 1159 2956 
Q 1356 3278 1631 3431 
Q 1906 3584 2284 3584 
Q 2666 3584 2933 3390 
Q 3200 3197 3328 2828 
z
" transform="scale(0.015625)"/>
      <path id="DejaVuSans-68" d="M 3513 2113 
L 3513 0 
L 2938 0 
L 2938 2094 
Q 2938 2591 2744 2837 
Q 2550 3084 2163 3084 
Q 1697 3084 1428 2787 
Q 1159 2491 1159 1978 
L 1159 0 
L 581 0 
L 581 4863 
L 1159 4863 
L 1159 2956 
Q 1366 3272 1645 3428 
Q 1925 3584 2291 3584 
Q 2894 3584 3203 3211 
Q 3513 2838 3513 2113 
z
" transform="scale(0.015625)"/>
      <path id="DejaVuSans-70" d="M 1159 525 
L 1159 -1331 
L 581 -1331 
L 581 3500 
L 1159 3500 
L 1159 2969 
Q 1341 3281 1617 3432 
Q 1894 3584 2278 3584 
Q 2916 3584 3314 3078 
Q 3713 2572 3713 1747 
Q 3713 922 3314 415 
Q 2916 -91 2278 -91 
Q 1894 -91 1617 61 
Q 1341 213 1159 525 
z
M 3116 1747 
Q 3116 2381 2855 2742 
Q 2594 3103 2138 3103 
Q 1681 3103 1420 2742 
Q 1159 2381 1159 1747 
Q 1159 1113 1420 752 
Q 1681 391 2138 391 
Q 2594 391 2855 752 
Q 3116 1113 3116 1747 
z
" transform="scale(0.015625)"/>
      <path id="DejaVuSans-42" d="M 1259 2228 
L 1259 519 
L 2272 519 
Q 2781 519 3026 730 
Q 3272 941 3272 1375 
Q 3272 1813 3026 2020 
Q 2781 2228 2272 2228 
L 1259 2228 
z
M 1259 4147 
L 1259 2741 
L 2194 2741 
Q 2656 2741 2882 2914 
Q 3109 3088 3109 3444 
Q 3109 3797 2882 3972 
Q 2656 4147 2194 4147 
L 1259 4147 
z
M 628 4666 
L 2241 4666 
Q 2963 4666 3353 4366 
Q 3744 4066 3744 3513 
Q 3744 3084 3544 2831 
Q 3344 2578 2956 2516 
Q 3422 2416 3680 2098 
Q 3938 1781 3938 1306 
Q 3938 681 3513 340 
Q 3088 0 2303 0 
L 628 0 
L 628 4666 
z
" transform="scale(0.015625)"/>
     </defs>
     <use xlink:href="#DejaVuSans-50"/>
     <use xlink:href="#DejaVuSans-65" transform="translate(56.677734 0)"/>
     <use xlink:href="#DejaVuSans-6e" transform="translate(118.201172 0)"/>
     <use xlink:href="#DejaVuSans-64" transform="translate(181.580078 0)"/>
     <use xlink:href="#DejaVuSans-65" transform="translate(245.056641 0)"/>
     <use xlink:href="#DejaVuSans-6b" transform="translate(306.580078 0)"/>
     <use xlink:href="#DejaVuSans-61" transform="translate(362.740234 0)"/>
     <use xlink:href="#DejaVuSans-74" transform="translate(424.019531 0)"/>
     <use xlink:href="#DejaVuSans-61" transform="translate(463.228516 0)"/>
     <use xlink:href="#DejaVuSans-6e" transform="translate(524.507812 0)"/>
     <use xlink:href="#DejaVuSans-20" transform="translate(587.886719 0)"/>
     <use xlink:href="#DejaVuSans-4e" transform="translate(619.673828 0)"/>
     <use xlink:href="#DejaVuSans-6f" transform="translate(694.478516 0)"/>
     <use xlink:href="#DejaVuSans-72" transform="translate(755.660156 0)"/>
     <use xlink:href="#DejaVuSans-6d" transform="translate(795.023438 0)"/>
     <use xlink:href="#DejaVuSans-61" transform="translate(892.435547 0)"/>
     <use xlink:href="#DejaVuSans-6c" transform="translate(953.714844 0)"/>
     <use xlink:href="#DejaVuSans-20" transform="translate(981.498047 0)"/>
     <use xlink:href="#DejaVuSans-74" transform="translate(1013.285156 0)"/>
     <use xlink:href="#DejaVuSans-65" transform="translate(1052.494141 0)"/>
     <use xlink:href="#DejaVuSans-72" transform="translate(1114.017578 0)"/>
     <use xlink:href="#DejaVuSans-68" transform="translate(1153.380859 0)"/>
     <use xlink:href="#DejaVuSans-61" transform="translate(1216.759766 0)"/>
     <use xlink:href="#DejaVuSans-64" transform="translate(1278.039062 0)"/>
     <use xlink:href="#DejaVuSans-61" transform="translate(1341.515625 0)"/>
     <use xlink:href="#DejaVuSans-70" transform="translate(1402.794922 0)"/>
     <use xlink:href="#DejaVuSans-20" transform="translate(1466.271484 0)"/>
     <use xlink:href="#DejaVuSans-42" transform="translate(1498.058594 0)"/>
     <use xlink:href="#DejaVuSans-69" transform="translate(1566.662109 0)"/>
     <use xlink:href="#DejaVuSans-6e" transform="translate(1594.445312 0)"/>
     <use xlink:href="#DejaVuSans-6f" transform="translate(1657.824219 0)"/>
     <use xlink:href="#DejaVuSans-6d" transform="translate(1719.005859 0)"/>
     <use xlink:href="#DejaVuSans-69" transform="translate(1816.417969 0)"/>
     <use xlink:href="#DejaVuSans-61" transform="translate(1844.201172 0)"/>
     <use xlink:href="#DejaVuSans-6c" transform="translate(1905.480469 0)"/>
    </g>
   </g>
   <g id="legend_1">
    <g id="patch_7">
     <path d="M 345.945312 59.674375 
L 489.54375 59.674375 
Q 491.54375 59.674375 491.54375 57.674375 
L 491.54375 29.318125 
Q 491.54375 27.318125 489.54375 27.318125 
L 345.945312 27.318125 
Q 343.945312 27.318125 343.945312 29.318125 
L 343.945312 57.674375 
Q 343.945312 59.674375 345.945312 59.674375 
z
" style="fill: #ffffff; opacity: 0.8; stroke: #cccccc; stroke-linejoin: miter"/>
    </g>
    <g id="line2d_40">
     <path d="M 347.945312 35.416562 
L 357.945312 35.416562 
L 367.945312 35.416562 
" style="fill: none; stroke: #ff0000; stroke-width: 1.5; stroke-linecap: square"/>
    </g>
    <g id="text_22">
     <!-- Normal approximation -->
     <g transform="translate(375.945312 38.916562) scale(0.1 -0.1)">
      <use xlink:href="#DejaVuSans-4e"/>
      <use xlink:href="#DejaVuSans-6f" transform="translate(74.804688 0)"/>
      <use xlink:href="#DejaVuSans-72" transform="translate(135.986328 0)"/>
      <use xlink:href="#DejaVuSans-6d" transform="translate(175.349609 0)"/>
      <use xlink:href="#DejaVuSans-61" transform="translate(272.761719 0)"/>
      <use xlink:href="#DejaVuSans-6c" transform="translate(334.041016 0)"/>
      <use xlink:href="#DejaVuSans-20" transform="translate(361.824219 0)"/>
      <use xlink:href="#DejaVuSans-61" transform="translate(393.611328 0)"/>
      <use xlink:href="#DejaVuSans-70" transform="translate(454.890625 0)"/>
      <use xlink:href="#DejaVuSans-70" transform="translate(518.367188 0)"/>
      <use xlink:href="#DejaVuSans-72" transform="translate(581.84375 0)"/>
      <use xlink:href="#DejaVuSans-6f" transform="translate(620.707031 0)"/>
      <use xlink:href="#DejaVuSans-78" transform="translate(678.763672 0)"/>
      <use xlink:href="#DejaVuSans-69" transform="translate(737.943359 0)"/>
      <use xlink:href="#DejaVuSans-6d" transform="translate(765.726562 0)"/>
      <use xlink:href="#DejaVuSans-61" transform="translate(863.138672 0)"/>
      <use xlink:href="#DejaVuSans-74" transform="translate(924.417969 0)"/>
      <use xlink:href="#DejaVuSans-69" transform="translate(963.626953 0)"/>
      <use xlink:href="#DejaVuSans-6f" transform="translate(991.410156 0)"/>
      <use xlink:href="#DejaVuSans-6e" transform="translate(1052.591797 0)"/>
     </g>
    </g>
    <g id="line2d_41">
     <path d="M 357.945312 53.594687 
L 357.945312 48.782187 
" style="fill: none; stroke: #1f77b4; stroke-width: 1.5"/>
    </g>
    <g id="line2d_42"/>
    <g id="line2d_43">
     <g>
      <use xlink:href="#m6cc396c214" x="357.945312" y="48.782187" style="fill: #1f77b4; stroke: #1f77b4"/>
     </g>
    </g>
    <g id="text_23">
     <!-- Binomial -->
     <g transform="translate(375.945312 53.594687) scale(0.1 -0.1)">
      <use xlink:href="#DejaVuSans-42"/>
      <use xlink:href="#DejaVuSans-69" transform="translate(68.603516 0)"/>
      <use xlink:href="#DejaVuSans-6e" transform="translate(96.386719 0)"/>
      <use xlink:href="#DejaVuSans-6f" transform="translate(159.765625 0)"/>
      <use xlink:href="#DejaVuSans-6d" transform="translate(220.947266 0)"/>
      <use xlink:href="#DejaVuSans-69" transform="translate(318.359375 0)"/>
      <use xlink:href="#DejaVuSans-61" transform="translate(346.142578 0)"/>
      <use xlink:href="#DejaVuSans-6c" transform="translate(407.421875 0)"/>
     </g>
    </g>
   </g>
  </g>
 </g>
 <defs>
  <clipPath id="p6d3becd017">
   <rect x="50.14375" y="22.318125" width="446.4" height="221.76"/>
  </clipPath>
 </defs>
</svg>
