<?xml version="1.0" encoding="utf-8" standalone="no"?>
<!DOCTYPE svg PUBLIC "-//W3C//DTD SVG 1.1//EN"
  "http://www.w3.org/Graphics/SVG/1.1/DTD/svg11.dtd">
<svg xmlns:xlink="http://www.w3.org/1999/xlink" width="503.74375pt" height="281.634375pt" viewBox="0 0 503.74375 281.634375" xmlns="http://www.w3.org/2000/svg" version="1.1">
 <metadata>
  <rdf:RDF xmlns:dc="http://purl.org/dc/elements/1.1/" xmlns:cc="http://creativecommons.org/ns#" xmlns:rdf="http://www.w3.org/1999/02/22-rdf-syntax-ns#">
   <cc:Work>
    <dc:type rdf:resource="http://purl.org/dc/dcmitype/StillImage"/>
    <dc:date>2026-03-30T14:08:22.372506</dc:date>
    <dc:format>image/svg+xml</dc:format>
    <dc:creator>
     <cc:Agent>
      <dc:title>Matplotlib v3.10.8, https://matplotlib.org/</dc:title>
     </cc:Agent>
    </dc:creator>
   </cc:Work>
  </rdf:RDF>
 </metadata>
 <defs>
  <style type="text/css">*{stroke-linejoin: round; stroke-linecap: butt}</style>
 </defs>
 <g id="figure_1">
  <g id="patch_1">
   <path d="M 0 281.634375 
L 503.74375 281.634375 
L 503.74375 0 
L 0 0 
z
" style="fill: #ffffff"/>
  </g>
  <g id="axes_1">
   <g id="patch_2">
    <path d="M 50.14375 244.078125 
L 496.54375 244.078125 
L 496.54375 22.318125 
L 50.14375 22.318125 
z
" style="fill: #ffffff"/>
   </g>
   <g id="patch_3">
    <path d="M 70.435217 244.078125 
L 77.198844 244.078125 
L 77.198844 49.406919 
L 70.435217 49.406919 
z
" clip-path="url(#p0c29e102ba)" style="fill: #1f77b4; opacity: 0.6"/>
   </g>
   <g id="patch_4">
    <path d="M 77.198844 244.078125 
L 83.962471 244.078125 
L 83.962471 85.394172 
L 77.198844 85.394172 
z
" clip-path="url(#p0c29e102ba)" style="fill: #1f77b4; opacity: 0.6"/>
   </g>
   <g id="patch_5">
    <path d="M 83.962471 244.078125 
L 90.726098 244.078125 
L 90.726098 111.071329 
L 83.962471 111.071329 
z
" clip-path="url(#p0c29e102ba)" style="fill: #1f77b4; opacity: 0.6"/>
   </g>
   <g id="patch_6">
    <path d="M 90.726098 244.078125 
L 97.489725 244.078125 
L 97.489725 136.290742 
L 90.726098 136.290742 
z
" clip-path="url(#p0c29e102ba)" style="fill: #1f77b4; opacity: 0.6"/>
   </g>
   <g id="patch_7">
    <path d="M 97.489725 244.078125 
L 104.253352 244.078125 
L 104.253352 157.848219 
L 97.489725 157.848219 
z
" clip-path="url(#p0c29e102ba)" style="fill: #1f77b4; opacity: 0.6"/>
   </g>
   <g id="patch_8">
    <path d="M 104.253352 244.078125 
L 111.016979 244.078125 
L 111.016979 172.910116 
L 104.253352 172.910116 
z
" clip-path="url(#p0c29e102ba)" style="fill: #1f77b4; opacity: 0.6"/>
   </g>
   <g id="patch_9">
    <path d="M 111.016979 244.078125 
L 117.780606 244.078125 
L 117.780606 185.356344 
L 111.016979 185.356344 
z
" clip-path="url(#p0c29e102ba)" style="fill: #1f77b4; opacity: 0.6"/>
   </g>
   <g id="patch_10">
    <path d="M 117.780606 244.078125 
L 124.544233 244.078125 
L 124.544233 195.143307 
L 117.780606 195.143307 
z
" clip-path="url(#p0c29e102ba)" style="fill: #1f77b4; opacity: 0.6"/>
   </g>
   <g id="patch_11">
    <path d="M 124.544233 244.078125 
L 131.30786 244.078125 
L 131.30786 203.51345 
L 124.544233 203.51345 
z
" clip-path="url(#p0c29e102ba)" style="fill: #1f77b4; opacity: 0.6"/>
   </g>
   <g id="patch_12">
    <path d="M 131.30786 244.078125 
L 138.071487 244.078125 
L 138.071487 210.314191 
L 131.30786 210.314191 
z
" clip-path="url(#p0c29e102ba)" style="fill: #1f77b4; opacity: 0.6"/>
   </g>
   <g id="patch_13">
    <path d="M 138.071487 244.078125 
L 144.835115 244.078125 
L 144.835115 216.548203 
L 138.071487 216.548203 
z
" clip-path="url(#p0c29e102ba)" style="fill: #1f77b4; opacity: 0.6"/>
   </g>
   <g id="patch_14">
    <path d="M 144.835115 244.078125 
L 151.598742 244.078125 
L 151.598742 221.71415 
L 144.835115 221.71415 
z
" clip-path="url(#p0c29e102ba)" style="fill: #1f77b4; opacity: 0.6"/>
   </g>
   <g id="patch_15">
    <path d="M 151.598742 244.078125 
L 158.362369 244.078125 
L 158.362369 225.20171 
L 151.598742 225.20171 
z
" clip-path="url(#p0c29e102ba)" style="fill: #1f77b4; opacity: 0.6"/>
   </g>
   <g id="patch_16">
    <path d="M 158.362369 244.078125 
L 165.125996 244.078125 
L 165.125996 228.384108 
L 158.362369 228.384108 
z
" clip-path="url(#p0c29e102ba)" style="fill: #1f77b4; opacity: 0.6"/>
   </g>
   <g id="patch_17">
    <path d="M 165.125996 244.078125 
L 171.889623 244.078125 
L 171.889623 231.653695 
L 165.125996 231.653695 
z
" clip-path="url(#p0c29e102ba)" style="fill: #1f77b4; opacity: 0.6"/>
   </g>
   <g id="patch_18">
    <path d="M 171.889623 244.078125 
L 178.65325 244.078125 
L 178.65325 233.157705 
L 171.889623 233.157705 
z
" clip-path="url(#p0c29e102ba)" style="fill: #1f77b4; opacity: 0.6"/>
   </g>
   <g id="patch_19">
    <path d="M 178.65325 244.078125 
L 185.416877 244.078125 
L 185.416877 235.88236 
L 178.65325 235.88236 
z
" clip-path="url(#p0c29e102ba)" style="fill: #1f77b4; opacity: 0.6"/>
   </g>
   <g id="patch_20">
    <path d="M 185.416877 244.078125 
L 192.180504 244.078125 
L 192.180504 236.99402 
L 185.416877 236.99402 
z
" clip-path="url(#p0c29e102ba)" style="fill: #1f77b4; opacity: 0.6"/>
   </g>
   <g id="patch_21">
    <path d="M 192.180504 244.078125 
L 198.944131 244.078125 
L 198.944131 238.192869 
L 192.180504 238.192869 
z
" clip-path="url(#p0c29e102ba)" style="fill: #1f77b4; opacity: 0.6"/>
   </g>
   <g id="patch_22">
    <path d="M 198.944131 244.078125 
L 205.707758 244.078125 
L 205.707758 239.457109 
L 198.944131 239.457109 
z
" clip-path="url(#p0c29e102ba)" style="fill: #1f77b4; opacity: 0.6"/>
   </g>
   <g id="patch_23">
    <path d="M 205.707758 244.078125 
L 212.471385 244.078125 
L 212.471385 240.525174 
L 205.707758 240.525174 
z
" clip-path="url(#p0c29e102ba)" style="fill: #1f77b4; opacity: 0.6"/>
   </g>
   <g id="patch_24">
    <path d="M 212.471385 244.078125 
L 219.235012 244.078125 
L 219.235012 240.590566 
L 212.471385 240.590566 
z
" clip-path="url(#p0c29e102ba)" style="fill: #1f77b4; opacity: 0.6"/>
   </g>
   <g id="patch_25">
    <path d="M 219.235012 244.078125 
L 225.998639 244.078125 
L 225.998639 240.939322 
L 219.235012 240.939322 
z
" clip-path="url(#p0c29e102ba)" style="fill: #1f77b4; opacity: 0.6"/>
   </g>
   <g id="patch_26">
    <path d="M 225.998639 244.078125 
L 232.762266 244.078125 
L 232.762266 241.74582 
L 225.998639 241.74582 
z
" clip-path="url(#p0c29e102ba)" style="fill: #1f77b4; opacity: 0.6"/>
   </g>
   <g id="patch_27">
    <path d="M 232.762266 244.078125 
L 239.525894 244.078125 
L 239.525894 242.312548 
L 232.762266 242.312548 
z
" clip-path="url(#p0c29e102ba)" style="fill: #1f77b4; opacity: 0.6"/>
   </g>
   <g id="patch_28">
    <path d="M 239.525894 244.078125 
L 246.289521 244.078125 
L 246.289521 242.37794 
L 239.525894 242.37794 
z
" clip-path="url(#p0c29e102ba)" style="fill: #1f77b4; opacity: 0.6"/>
   </g>
   <g id="patch_29">
    <path d="M 246.289521 244.078125 
L 253.053148 244.078125 
L 253.053148 242.77029 
L 246.289521 242.77029 
z
" clip-path="url(#p0c29e102ba)" style="fill: #1f77b4; opacity: 0.6"/>
   </g>
   <g id="patch_30">
    <path d="M 253.053148 244.078125 
L 259.816775 244.078125 
L 259.816775 243.140843 
L 253.053148 243.140843 
z
" clip-path="url(#p0c29e102ba)" style="fill: #1f77b4; opacity: 0.6"/>
   </g>
   <g id="patch_31">
    <path d="M 259.816775 244.078125 
L 266.580402 244.078125 
L 266.580402 243.24983 
L 259.816775 243.24983 
z
" clip-path="url(#p0c29e102ba)" style="fill: #1f77b4; opacity: 0.6"/>
   </g>
   <g id="patch_32">
    <path d="M 266.580402 244.078125 
L 273.344029 244.078125 
L 273.344029 243.40241 
L 266.580402 243.40241 
z
" clip-path="url(#p0c29e102ba)" style="fill: #1f77b4; opacity: 0.6"/>
   </g>
   <g id="patch_33">
    <path d="M 273.344029 244.078125 
L 280.107656 244.078125 
L 280.107656 243.446005 
L 273.344029 243.446005 
z
" clip-path="url(#p0c29e102ba)" style="fill: #1f77b4; opacity: 0.6"/>
   </g>
   <g id="patch_34">
    <path d="M 280.107656 244.078125 
L 286.871283 244.078125 
L 286.871283 243.489599 
L 280.107656 243.489599 
z
" clip-path="url(#p0c29e102ba)" style="fill: #1f77b4; opacity: 0.6"/>
   </g>
   <g id="patch_35">
    <path d="M 286.871283 244.078125 
L 293.63491 244.078125 
L 293.63491 243.707572 
L 286.871283 243.707572 
z
" clip-path="url(#p0c29e102ba)" style="fill: #1f77b4; opacity: 0.6"/>
   </g>
   <g id="patch_36">
    <path d="M 293.63491 244.078125 
L 300.398537 244.078125 
L 300.398537 243.88195 
L 293.63491 243.88195 
z
" clip-path="url(#p0c29e102ba)" style="fill: #1f77b4; opacity: 0.6"/>
   </g>
   <g id="patch_37">
    <path d="M 300.398537 244.078125 
L 307.162164 244.078125 
L 307.162164 243.947342 
L 300.398537 243.947342 
z
" clip-path="url(#p0c29e102ba)" style="fill: #1f77b4; opacity: 0.6"/>
   </g>
   <g id="patch_38">
    <path d="M 307.162164 244.078125 
L 313.925791 244.078125 
L 313.925791 243.751166 
L 307.162164 243.751166 
z
" clip-path="url(#p0c29e102ba)" style="fill: #1f77b4; opacity: 0.6"/>
   </g>
   <g id="patch_39">
    <path d="M 313.925791 244.078125 
L 320.689418 244.078125 
L 320.689418 243.947342 
L 313.925791 243.947342 
z
" clip-path="url(#p0c29e102ba)" style="fill: #1f77b4; opacity: 0.6"/>
   </g>
   <g id="patch_40">
    <path d="M 320.689418 244.078125 
L 327.453045 244.078125 
L 327.453045 244.034531 
L 320.689418 244.034531 
z
" clip-path="url(#p0c29e102ba)" style="fill: #1f77b4; opacity: 0.6"/>
   </g>
   <g id="patch_41">
    <path d="M 327.453045 244.078125 
L 334.216672 244.078125 
L 334.216672 243.903747 
L 327.453045 243.903747 
z
" clip-path="url(#p0c29e102ba)" style="fill: #1f77b4; opacity: 0.6"/>
   </g>
   <g id="patch_42">
    <path d="M 334.216672 244.078125 
L 340.9803 244.078125 
L 340.9803 244.012733 
L 334.216672 244.012733 
z
" clip-path="url(#p0c29e102ba)" style="fill: #1f77b4; opacity: 0.6"/>
   </g>
   <g id="patch_43">
    <path d="M 340.9803 244.078125 
L 347.743927 244.078125 
L 347.743927 243.990936 
L 340.9803 243.990936 
z
" clip-path="url(#p0c29e102ba)" style="fill: #1f77b4; opacity: 0.6"/>
   </g>
   <g id="patch_44">
    <path d="M 347.743927 244.078125 
L 354.507554 244.078125 
L 354.507554 244.034531 
L 347.743927 244.034531 
z
" clip-path="url(#p0c29e102ba)" style="fill: #1f77b4; opacity: 0.6"/>
   </g>
   <g id="patch_45">
    <path d="M 354.507554 244.078125 
L 361.271181 244.078125 
L 361.271181 244.034531 
L 354.507554 244.034531 
z
" clip-path="url(#p0c29e102ba)" style="fill: #1f77b4; opacity: 0.6"/>
   </g>
   <g id="patch_46">
    <path d="M 361.271181 244.078125 
L 368.034808 244.078125 
L 368.034808 244.056328 
L 361.271181 244.056328 
z
" clip-path="url(#p0c29e102ba)" style="fill: #1f77b4; opacity: 0.6"/>
   </g>
   <g id="patch_47">
    <path d="M 368.034808 244.078125 
L 374.798435 244.078125 
L 374.798435 244.078125 
L 368.034808 244.078125 
z
" clip-path="url(#p0c29e102ba)" style="fill: #1f77b4; opacity: 0.6"/>
   </g>
   <g id="patch_48">
    <path d="M 374.798435 244.078125 
L 381.562062 244.078125 
L 381.562062 244.056328 
L 374.798435 244.056328 
z
" clip-path="url(#p0c29e102ba)" style="fill: #1f77b4; opacity: 0.6"/>
   </g>
   <g id="patch_49">
    <path d="M 381.562062 244.078125 
L 388.325689 244.078125 
L 388.325689 244.034531 
L 381.562062 244.034531 
z
" clip-path="url(#p0c29e102ba)" style="fill: #1f77b4; opacity: 0.6"/>
   </g>
   <g id="patch_50">
    <path d="M 388.325689 244.078125 
L 395.089316 244.078125 
L 395.089316 244.034531 
L 388.325689 244.034531 
z
" clip-path="url(#p0c29e102ba)" style="fill: #1f77b4; opacity: 0.6"/>
   </g>
   <g id="patch_51">
    <path d="M 395.089316 244.078125 
L 401.852943 244.078125 
L 401.852943 244.078125 
L 395.089316 244.078125 
z
" clip-path="url(#p0c29e102ba)" style="fill: #1f77b4; opacity: 0.6"/>
   </g>
   <g id="patch_52">
    <path d="M 401.852943 244.078125 
L 408.61657 244.078125 
L 408.61657 244.078125 
L 401.852943 244.078125 
z
" clip-path="url(#p0c29e102ba)" style="fill: #1f77b4; opacity: 0.6"/>
   </g>
   <g id="patch_53">
    <path d="M 408.61657 244.078125 
L 415.380197 244.078125 
L 415.380197 244.078125 
L 408.61657 244.078125 
z
" clip-path="url(#p0c29e102ba)" style="fill: #1f77b4; opacity: 0.6"/>
   </g>
   <g id="patch_54">
    <path d="M 415.380197 244.078125 
L 422.143824 244.078125 
L 422.143824 244.078125 
L 415.380197 244.078125 
z
" clip-path="url(#p0c29e102ba)" style="fill: #1f77b4; opacity: 0.6"/>
   </g>
   <g id="patch_55">
    <path d="M 422.143824 244.078125 
L 428.907451 244.078125 
L 428.907451 244.078125 
L 422.143824 244.078125 
z
" clip-path="url(#p0c29e102ba)" style="fill: #1f77b4; opacity: 0.6"/>
   </g>
   <g id="patch_56">
    <path d="M 428.907451 244.078125 
L 435.671078 244.078125 
L 435.671078 244.078125 
L 428.907451 244.078125 
z
" clip-path="url(#p0c29e102ba)" style="fill: #1f77b4; opacity: 0.6"/>
   </g>
   <g id="patch_57">
    <path d="M 435.671078 244.078125 
L 442.434706 244.078125 
L 442.434706 244.056328 
L 435.671078 244.056328 
z
" clip-path="url(#p0c29e102ba)" style="fill: #1f77b4; opacity: 0.6"/>
   </g>
   <g id="patch_58">
    <path d="M 442.434706 244.078125 
L 449.198333 244.078125 
L 449.198333 244.078125 
L 442.434706 244.078125 
z
" clip-path="url(#p0c29e102ba)" style="fill: #1f77b4; opacity: 0.6"/>
   </g>
   <g id="patch_59">
    <path d="M 449.198333 244.078125 
L 455.96196 244.078125 
L 455.96196 244.078125 
L 449.198333 244.078125 
z
" clip-path="url(#p0c29e102ba)" style="fill: #1f77b4; opacity: 0.6"/>
   </g>
   <g id="patch_60">
    <path d="M 455.96196 244.078125 
L 462.725587 244.078125 
L 462.725587 244.078125 
L 455.96196 244.078125 
z
" clip-path="url(#p0c29e102ba)" style="fill: #1f77b4; opacity: 0.6"/>
   </g>
   <g id="patch_61">
    <path d="M 462.725587 244.078125 
L 469.489214 244.078125 
L 469.489214 244.078125 
L 462.725587 244.078125 
z
" clip-path="url(#p0c29e102ba)" style="fill: #1f77b4; opacity: 0.6"/>
   </g>
   <g id="patch_62">
    <path d="M 469.489214 244.078125 
L 476.252841 244.078125 
L 476.252841 244.056328 
L 469.489214 244.056328 
z
" clip-path="url(#p0c29e102ba)" style="fill: #1f77b4; opacity: 0.6"/>
   </g>
   <g id="matplotlib.axis_1">
    <g id="xtick_1">
     <g id="line2d_1">
      <path d="M 70.434659 244.078125 
L 70.434659 22.318125 
" clip-path="url(#p0c29e102ba)" style="fill: none; stroke: #b0b0b0; stroke-opacity: 0.3; stroke-width: 0.8; stroke-linecap: square"/>
     </g>
     <g id="line2d_2">
      <defs>
       <path id="md40db4f68d" d="M 0 0 
L 0 3.5 
" style="stroke: #000000; stroke-width: 0.8"/>
      </defs>
      <g>
       <use xlink:href="#md40db4f68d" x="70.434659" y="244.078125" style="stroke: #000000; stroke-width: 0.8"/>
      </g>
     </g>
     <g id="text_1">
      <!-- 0 -->
      <g transform="translate(67.253409 258.676562) scale(0.1 -0.1)">
       <defs>
        <path id="DejaVuSans-30" d="M 2034 4250 
Q 1547 4250 1301 3770 
Q 1056 3291 1056 2328 
Q 1056 1369 1301 889 
Q 1547 409 2034 409 
Q 2525 409 2770 889 
Q 3016 1369 3016 2328 
Q 3016 3291 2770 3770 
Q 2525 4250 2034 4250 
z
M 2034 4750 
Q 2819 4750 3233 4129 
Q 3647 3509 3647 2328 
Q 3647 1150 3233 529 
Q 2819 -91 2034 -91 
Q 1250 -91 836 529 
Q 422 1150 422 2328 
Q 422 3509 836 4129 
Q 1250 4750 2034 4750 
z
" transform="scale(0.015625)"/>
       </defs>
       <use xlink:href="#DejaVuSans-30"/>
      </g>
     </g>
    </g>
    <g id="xtick_2">
     <g id="line2d_3">
      <path d="M 140.239794 244.078125 
L 140.239794 22.318125 
" clip-path="url(#p0c29e102ba)" style="fill: none; stroke: #b0b0b0; stroke-opacity: 0.3; stroke-width: 0.8; stroke-linecap: square"/>
     </g>
     <g id="line2d_4">
      <g>
       <use xlink:href="#md40db4f68d" x="140.239794" y="244.078125" style="stroke: #000000; stroke-width: 0.8"/>
      </g>
     </g>
     <g id="text_2">
      <!-- 1 -->
      <g transform="translate(137.058544 258.676562) scale(0.1 -0.1)">
       <defs>
        <path id="DejaVuSans-31" d="M 794 531 
L 1825 531 
L 1825 4091 
L 703 3866 
L 703 4441 
L 1819 4666 
L 2450 4666 
L 2450 531 
L 3481 531 
L 3481 0 
L 794 0 
L 794 531 
z
" transform="scale(0.015625)"/>
       </defs>
       <use xlink:href="#DejaVuSans-31"/>
      </g>
     </g>
    </g>
    <g id="xtick_3">
     <g id="line2d_5">
      <path d="M 210.044929 244.078125 
L 210.044929 22.318125 
" clip-path="url(#p0c29e102ba)" style="fill: none; stroke: #b0b0b0; stroke-opacity: 0.3; stroke-width: 0.8; stroke-linecap: square"/>
     </g>
     <g id="line2d_6">
      <g>
       <use xlink:href="#md40db4f68d" x="210.044929" y="244.078125" style="stroke: #000000; stroke-width: 0.8"/>
      </g>
     </g>
     <g id="text_3">
      <!-- 2 -->
      <g transform="translate(206.863679 258.676562) scale(0.1 -0.1)">
       <defs>
        <path id="DejaVuSans-32" d="M 1228 531 
L 3431 531 
L 3431 0 
L 469 0 
L 469 531 
Q 828 903 1448 1529 
Q 2069 2156 2228 2338 
Q 2531 2678 2651 2914 
Q 2772 3150 2772 3378 
Q 2772 3750 2511 3984 
Q 2250 4219 1831 4219 
Q 1534 4219 1204 4116 
Q 875 4013 500 3803 
L 500 4441 
Q 881 4594 1212 4672 
Q 1544 4750 1819 4750 
Q 2544 4750 2975 4387 
Q 3406 4025 3406 3419 
Q 3406 3131 3298 2873 
Q 3191 2616 2906 2266 
Q 2828 2175 2409 1742 
Q 1991 1309 1228 531 
z
" transform="scale(0.015625)"/>
       </defs>
       <use xlink:href="#DejaVuSans-32"/>
      </g>
     </g>
    </g>
    <g id="xtick_4">
     <g id="line2d_7">
      <path d="M 279.850063 244.078125 
L 279.850063 22.318125 
" clip-path="url(#p0c29e102ba)" style="fill: none; stroke: #b0b0b0; stroke-opacity: 0.3; stroke-width: 0.8; stroke-linecap: square"/>
     </g>
     <g id="line2d_8">
      <g>
       <use xlink:href="#md40db4f68d" x="279.850063" y="244.078125" style="stroke: #000000; stroke-width: 0.8"/>
      </g>
     </g>
     <g id="text_4">
      <!-- 3 -->
      <g transform="translate(276.668813 258.676562) scale(0.1 -0.1)">
       <defs>
        <path id="DejaVuSans-33" d="M 2597 2516 
Q 3050 2419 3304 2112 
Q 3559 1806 3559 1356 
Q 3559 666 3084 287 
Q 2609 -91 1734 -91 
Q 1441 -91 1130 -33 
Q 819 25 488 141 
L 488 750 
Q 750 597 1062 519 
Q 1375 441 1716 441 
Q 2309 441 2620 675 
Q 2931 909 2931 1356 
Q 2931 1769 2642 2001 
Q 2353 2234 1838 2234 
L 1294 2234 
L 1294 2753 
L 1863 2753 
Q 2328 2753 2575 2939 
Q 2822 3125 2822 3475 
Q 2822 3834 2567 4026 
Q 2313 4219 1838 4219 
Q 1578 4219 1281 4162 
Q 984 4106 628 3988 
L 628 4550 
Q 988 4650 1302 4700 
Q 1616 4750 1894 4750 
Q 2613 4750 3031 4423 
Q 3450 4097 3450 3541 
Q 3450 3153 3228 2886 
Q 3006 2619 2597 2516 
z
" transform="scale(0.015625)"/>
       </defs>
       <use xlink:href="#DejaVuSans-33"/>
      </g>
     </g>
    </g>
    <g id="xtick_5">
     <g id="line2d_9">
      <path d="M 349.655198 244.078125 
L 349.655198 22.318125 
" clip-path="url(#p0c29e102ba)" style="fill: none; stroke: #b0b0b0; stroke-opacity: 0.3; stroke-width: 0.8; stroke-linecap: square"/>
     </g>
     <g id="line2d_10">
      <g>
       <use xlink:href="#md40db4f68d" x="349.655198" y="244.078125" style="stroke: #000000; stroke-width: 0.8"/>
      </g>
     </g>
     <g id="text_5">
      <!-- 4 -->
      <g transform="translate(346.473948 258.676562) scale(0.1 -0.1)">
       <defs>
        <path id="DejaVuSans-34" d="M 2419 4116 
L 825 1625 
L 2419 1625 
L 2419 4116 
z
M 2253 4666 
L 3047 4666 
L 3047 1625 
L 3713 1625 
L 3713 1100 
L 3047 1100 
L 3047 0 
L 2419 0 
L 2419 1100 
L 313 1100 
L 313 1709 
L 2253 4666 
z
" transform="scale(0.015625)"/>
       </defs>
       <use xlink:href="#DejaVuSans-34"/>
      </g>
     </g>
    </g>
    <g id="xtick_6">
     <g id="line2d_11">
      <path d="M 419.460333 244.078125 
L 419.460333 22.318125 
" clip-path="url(#p0c29e102ba)" style="fill: none; stroke: #b0b0b0; stroke-opacity: 0.3; stroke-width: 0.8; stroke-linecap: square"/>
     </g>
     <g id="line2d_12">
      <g>
       <use xlink:href="#md40db4f68d" x="419.460333" y="244.078125" style="stroke: #000000; stroke-width: 0.8"/>
      </g>
     </g>
     <g id="text_6">
      <!-- 5 -->
      <g transform="translate(416.279083 258.676562) scale(0.1 -0.1)">
       <defs>
        <path id="DejaVuSans-35" d="M 691 4666 
L 3169 4666 
L 3169 4134 
L 1269 4134 
L 1269 2991 
Q 1406 3038 1543 3061 
Q 1681 3084 1819 3084 
Q 2600 3084 3056 2656 
Q 3513 2228 3513 1497 
Q 3513 744 3044 326 
Q 2575 -91 1722 -91 
Q 1428 -91 1123 -41 
Q 819 9 494 109 
L 494 744 
Q 775 591 1075 516 
Q 1375 441 1709 441 
Q 2250 441 2565 725 
Q 2881 1009 2881 1497 
Q 2881 1984 2565 2268 
Q 2250 2553 1709 2553 
Q 1456 2553 1204 2497 
Q 953 2441 691 2322 
L 691 4666 
z
" transform="scale(0.015625)"/>
       </defs>
       <use xlink:href="#DejaVuSans-35"/>
      </g>
     </g>
    </g>
    <g id="xtick_7">
     <g id="line2d_13">
      <path d="M 489.265468 244.078125 
L 489.265468 22.318125 
" clip-path="url(#p0c29e102ba)" style="fill: none; stroke: #b0b0b0; stroke-opacity: 0.3; stroke-width: 0.8; stroke-linecap: square"/>
     </g>
     <g id="line2d_14">
      <g>
       <use xlink:href="#md40db4f68d" x="489.265468" y="244.078125" style="stroke: #000000; stroke-width: 0.8"/>
      </g>
     </g>
     <g id="text_7">
      <!-- 6 -->
      <g transform="translate(486.084218 258.676562) scale(0.1 -0.1)">
       <defs>
        <path id="DejaVuSans-36" d="M 2113 2584 
Q 1688 2584 1439 2293 
Q 1191 2003 1191 1497 
Q 1191 994 1439 701 
Q 1688 409 2113 409 
Q 2538 409 2786 701 
Q 3034 994 3034 1497 
Q 3034 2003 2786 2293 
Q 2538 2584 2113 2584 
z
M 3366 4563 
L 3366 3988 
Q 3128 4100 2886 4159 
Q 2644 4219 2406 4219 
Q 1781 4219 1451 3797 
Q 1122 3375 1075 2522 
Q 1259 2794 1537 2939 
Q 1816 3084 2150 3084 
Q 2853 3084 3261 2657 
Q 3669 2231 3669 1497 
Q 3669 778 3244 343 
Q 2819 -91 2113 -91 
Q 1303 -91 875 529 
Q 447 1150 447 2328 
Q 447 3434 972 4092 
Q 1497 4750 2381 4750 
Q 2619 4750 2861 4703 
Q 3103 4656 3366 4563 
z
" transform="scale(0.015625)"/>
       </defs>
       <use xlink:href="#DejaVuSans-36"/>
      </g>
     </g>
    </g>
    <g id="text_8">
     <!-- Interarrival time -->
     <g transform="translate(232.833594 272.354687) scale(0.1 -0.1)">
      <defs>
       <path id="DejaVuSans-49" d="M 628 4666 
L 1259 4666 
L 1259 0 
L 628 0 
L 628 4666 
z
" transform="scale(0.015625)"/>
       <path id="DejaVuSans-6e" d="M 3513 2113 
L 3513 0 
L 2938 0 
L 2938 2094 
Q 2938 2591 2744 2837 
Q 2550 3084 2163 3084 
Q 1697 3084 1428 2787 
Q 1159 2491 1159 1978 
L 1159 0 
L 581 0 
L 581 3500 
L 1159 3500 
L 1159 2956 
Q 1366 3272 1645 3428 
Q 1925 3584 2291 3584 
Q 2894 3584 3203 3211 
Q 3513 2838 3513 2113 
z
" transform="scale(0.015625)"/>
       <path id="DejaVuSans-74" d="M 1172 4494 
L 1172 3500 
L 2356 3500 
L 2356 3053 
L 1172 3053 
L 1172 1153 
Q 1172 725 1289 603 
Q 1406 481 1766 481 
L 2356 481 
L 2356 0 
L 1766 0 
Q 1100 0 847 248 
Q 594 497 594 1153 
L 594 3053 
L 172 3053 
L 172 3500 
L 594 3500 
L 594 4494 
L 1172 4494 
z
" transform="scale(0.015625)"/>
       <path id="DejaVuSans-65" d="M 3597 1894 
L 3597 1613 
L 953 1613 
Q 991 1019 1311 708 
Q 1631 397 2203 397 
Q 2534 397 2845 478 
Q 3156 559 3463 722 
L 3463 178 
Q 3153 47 2828 -22 
Q 2503 -91 2169 -91 
Q 1331 -91 842 396 
Q 353 884 353 1716 
Q 353 2575 817 3079 
Q 1281 3584 2069 3584 
Q 2775 3584 3186 3129 
Q 3597 2675 3597 1894 
z
M 3022 2063 
Q 3016 2534 2758 2815 
Q 2500 3097 2075 3097 
Q 1594 3097 1305 2825 
Q 1016 2553 972 2059 
L 3022 2063 
z
" transform="scale(0.015625)"/>
       <path id="DejaVuSans-72" d="M 2631 2963 
Q 2534 3019 2420 3045 
Q 2306 3072 2169 3072 
Q 1681 3072 1420 2755 
Q 1159 2438 1159 1844 
L 1159 0 
L 581 0 
L 581 3500 
L 1159 3500 
L 1159 2956 
Q 1341 3275 1631 3429 
Q 1922 3584 2338 3584 
Q 2397 3584 2469 3576 
Q 2541 3569 2628 3553 
L 2631 2963 
z
" transform="scale(0.015625)"/>
       <path id="DejaVuSans-61" d="M 2194 1759 
Q 1497 1759 1228 1600 
Q 959 1441 959 1056 
Q 959 750 1161 570 
Q 1363 391 1709 391 
Q 2188 391 2477 730 
Q 2766 1069 2766 1631 
L 2766 1759 
L 2194 1759 
z
M 3341 1997 
L 3341 0 
L 2766 0 
L 2766 531 
Q 2569 213 2275 61 
Q 1981 -91 1556 -91 
Q 1019 -91 701 211 
Q 384 513 384 1019 
Q 384 1609 779 1909 
Q 1175 2209 1959 2209 
L 2766 2209 
L 2766 2266 
Q 2766 2663 2505 2880 
Q 2244 3097 1772 3097 
Q 1472 3097 1187 3025 
Q 903 2953 641 2809 
L 641 3341 
Q 956 3463 1253 3523 
Q 1550 3584 1831 3584 
Q 2591 3584 2966 3190 
Q 3341 2797 3341 1997 
z
" transform="scale(0.015625)"/>
       <path id="DejaVuSans-69" d="M 603 3500 
L 1178 3500 
L 1178 0 
L 603 0 
L 603 3500 
z
M 603 4863 
L 1178 4863 
L 1178 4134 
L 603 4134 
L 603 4863 
z
" transform="scale(0.015625)"/>
       <path id="DejaVuSans-76" d="M 191 3500 
L 800 3500 
L 1894 563 
L 2988 3500 
L 3597 3500 
L 2284 0 
L 1503 0 
L 191 3500 
z
" transform="scale(0.015625)"/>
       <path id="DejaVuSans-6c" d="M 603 4863 
L 1178 4863 
L 1178 0 
L 603 0 
L 603 4863 
z
" transform="scale(0.015625)"/>
       <path id="DejaVuSans-20" transform="scale(0.015625)"/>
       <path id="DejaVuSans-6d" d="M 3328 2828 
Q 3544 3216 3844 3400 
Q 4144 3584 4550 3584 
Q 5097 3584 5394 3201 
Q 5691 2819 5691 2113 
L 5691 0 
L 5113 0 
L 5113 2094 
Q 5113 2597 4934 2840 
Q 4756 3084 4391 3084 
Q 3944 3084 3684 2787 
Q 3425 2491 3425 1978 
L 3425 0 
L 2847 0 
L 2847 2094 
Q 2847 2600 2669 2842 
Q 2491 3084 2119 3084 
Q 1678 3084 1418 2786 
Q 1159 2488 1159 1978 
L 1159 0 
L 581 0 
L 581 3500 
L 1159 3500 
L 1159 2956 
Q 1356 3278 1631 3431 
Q 1906 3584 2284 3584 
Q 2666 3584 2933 3390 
Q 3200 3197 3328 2828 
z
" transform="scale(0.015625)"/>
      </defs>
      <use xlink:href="#DejaVuSans-49"/>
      <use xlink:href="#DejaVuSans-6e" transform="translate(29.492188 0)"/>
      <use xlink:href="#DejaVuSans-74" transform="translate(92.871094 0)"/>
      <use xlink:href="#DejaVuSans-65" transform="translate(132.080078 0)"/>
      <use xlink:href="#DejaVuSans-72" transform="translate(193.603516 0)"/>
      <use xlink:href="#DejaVuSans-61" transform="translate(234.716797 0)"/>
      <use xlink:href="#DejaVuSans-72" transform="translate(295.996094 0)"/>
      <use xlink:href="#DejaVuSans-72" transform="translate(335.359375 0)"/>
      <use xlink:href="#DejaVuSans-69" transform="translate(376.472656 0)"/>
      <use xlink:href="#DejaVuSans-76" transform="translate(404.255859 0)"/>
      <use xlink:href="#DejaVuSans-61" transform="translate(463.435547 0)"/>
      <use xlink:href="#DejaVuSans-6c" transform="translate(524.714844 0)"/>
      <use xlink:href="#DejaVuSans-20" transform="translate(552.498047 0)"/>
      <use xlink:href="#DejaVuSans-74" transform="translate(584.285156 0)"/>
      <use xlink:href="#DejaVuSans-69" transform="translate(623.494141 0)"/>
      <use xlink:href="#DejaVuSans-6d" transform="translate(651.277344 0)"/>
      <use xlink:href="#DejaVuSans-65" transform="translate(748.689453 0)"/>
     </g>
    </g>
   </g>
   <g id="matplotlib.axis_2">
    <g id="ytick_1">
     <g id="line2d_15">
      <path d="M 50.14375 244.078125 
L 496.54375 244.078125 
" clip-path="url(#p0c29e102ba)" style="fill: none; stroke: #b0b0b0; stroke-opacity: 0.3; stroke-width: 0.8; stroke-linecap: square"/>
     </g>
     <g id="line2d_16">
      <defs>
       <path id="m1ed5a7977d" d="M 0 0 
L -3.5 0 
" style="stroke: #000000; stroke-width: 0.8"/>
      </defs>
      <g>
       <use xlink:href="#m1ed5a7977d" x="50.14375" y="244.078125" style="stroke: #000000; stroke-width: 0.8"/>
      </g>
     </g>
     <g id="text_9">
      <!-- 0.00 -->
      <g transform="translate(20.878125 247.877344) scale(0.1 -0.1)">
       <defs>
        <path id="DejaVuSans-2e" d="M 684 794 
L 1344 794 
L 1344 0 
L 684 0 
L 684 794 
z
" transform="scale(0.015625)"/>
       </defs>
       <use xlink:href="#DejaVuSans-30"/>
       <use xlink:href="#DejaVuSans-2e" transform="translate(63.623047 0)"/>
       <use xlink:href="#DejaVuSans-30" transform="translate(95.410156 0)"/>
       <use xlink:href="#DejaVuSans-30" transform="translate(159.033203 0)"/>
      </g>
     </g>
    </g>
    <g id="ytick_2">
     <g id="line2d_17">
      <path d="M 50.14375 217.678125 
L 496.54375 217.678125 
" clip-path="url(#p0c29e102ba)" style="fill: none; stroke: #b0b0b0; stroke-opacity: 0.3; stroke-width: 0.8; stroke-linecap: square"/>
     </g>
     <g id="line2d_18">
      <g>
       <use xlink:href="#m1ed5a7977d" x="50.14375" y="217.678125" style="stroke: #000000; stroke-width: 0.8"/>
      </g>
     </g>
     <g id="text_10">
      <!-- 0.25 -->
      <g transform="translate(20.878125 221.477344) scale(0.1 -0.1)">
       <use xlink:href="#DejaVuSans-30"/>
       <use xlink:href="#DejaVuSans-2e" transform="translate(63.623047 0)"/>
       <use xlink:href="#DejaVuSans-32" transform="translate(95.410156 0)"/>
       <use xlink:href="#DejaVuSans-35" transform="translate(159.033203 0)"/>
      </g>
     </g>
    </g>
    <g id="ytick_3">
     <g id="line2d_19">
      <path d="M 50.14375 191.278125 
L 496.54375 191.278125 
" clip-path="url(#p0c29e102ba)" style="fill: none; stroke: #b0b0b0; stroke-opacity: 0.3; stroke-width: 0.8; stroke-linecap: square"/>
     </g>
     <g id="line2d_20">
      <g>
       <use xlink:href="#m1ed5a7977d" x="50.14375" y="191.278125" style="stroke: #000000; stroke-width: 0.8"/>
      </g>
     </g>
     <g id="text_11">
      <!-- 0.50 -->
      <g transform="translate(20.878125 195.077344) scale(0.1 -0.1)">
       <use xlink:href="#DejaVuSans-30"/>
       <use xlink:href="#DejaVuSans-2e" transform="translate(63.623047 0)"/>
       <use xlink:href="#DejaVuSans-35" transform="translate(95.410156 0)"/>
       <use xlink:href="#DejaVuSans-30" transform="translate(159.033203 0)"/>
      </g>
     </g>
    </g>
    <g id="ytick_4">
     <g id="line2d_21">
      <path d="M 50.14375 164.878125 
L 496.54375 164.878125 
" clip-path="url(#p0c29e102ba)" style="fill: none; stroke: #b0b0b0; stroke-opacity: 0.3; stroke-width: 0.8; stroke-linecap: square"/>
     </g>
     <g id="line2d_22">
      <g>
       <use xlink:href="#m1ed5a7977d" x="50.14375" y="164.878125" style="stroke: #000000; stroke-width: 0.8"/>
      </g>
     </g>
     <g id="text_12">
      <!-- 0.75 -->
      <g transform="translate(20.878125 168.677344) scale(0.1 -0.1)">
       <defs>
        <path id="DejaVuSans-37" d="M 525 4666 
L 3525 4666 
L 3525 4397 
L 1831 0 
L 1172 0 
L 2766 4134 
L 525 4134 
L 525 4666 
z
" transform="scale(0.015625)"/>
       </defs>
       <use xlink:href="#DejaVuSans-30"/>
       <use xlink:href="#DejaVuSans-2e" transform="translate(63.623047 0)"/>
       <use xlink:href="#DejaVuSans-37" transform="translate(95.410156 0)"/>
       <use xlink:href="#DejaVuSans-35" transform="translate(159.033203 0)"/>
      </g>
     </g>
    </g>
    <g id="ytick_5">
     <g id="line2d_23">
      <path d="M 50.14375 138.478125 
L 496.54375 138.478125 
" clip-path="url(#p0c29e102ba)" style="fill: none; stroke: #b0b0b0; stroke-opacity: 0.3; stroke-width: 0.8; stroke-linecap: square"/>
     </g>
     <g id="line2d_24">
      <g>
       <use xlink:href="#m1ed5a7977d" x="50.14375" y="138.478125" style="stroke: #000000; stroke-width: 0.8"/>
      </g>
     </g>
     <g id="text_13">
      <!-- 1.00 -->
      <g transform="translate(20.878125 142.277344) scale(0.1 -0.1)">
       <use xlink:href="#DejaVuSans-31"/>
       <use xlink:href="#DejaVuSans-2e" transform="translate(63.623047 0)"/>
       <use xlink:href="#DejaVuSans-30" transform="translate(95.410156 0)"/>
       <use xlink:href="#DejaVuSans-30" transform="translate(159.033203 0)"/>
      </g>
     </g>
    </g>
    <g id="ytick_6">
     <g id="line2d_25">
      <path d="M 50.14375 112.078125 
L 496.54375 112.078125 
" clip-path="url(#p0c29e102ba)" style="fill: none; stroke: #b0b0b0; stroke-opacity: 0.3; stroke-width: 0.8; stroke-linecap: square"/>
     </g>
     <g id="line2d_26">
      <g>
       <use xlink:href="#m1ed5a7977d" x="50.14375" y="112.078125" style="stroke: #000000; stroke-width: 0.8"/>
      </g>
     </g>
     <g id="text_14">
      <!-- 1.25 -->
      <g transform="translate(20.878125 115.877344) scale(0.1 -0.1)">
       <use xlink:href="#DejaVuSans-31"/>
       <use xlink:href="#DejaVuSans-2e" transform="translate(63.623047 0)"/>
       <use xlink:href="#DejaVuSans-32" transform="translate(95.410156 0)"/>
       <use xlink:href="#DejaVuSans-35" transform="translate(159.033203 0)"/>
      </g>
     </g>
    </g>
    <g id="ytick_7">
     <g id="line2d_27">
      <path d="M 50.14375 85.678125 
L 496.54375 85.678125 
" clip-path="url(#p0c29e102ba)" style="fill: none; stroke: #b0b0b0; stroke-opacity: 0.3; stroke-width: 0.8; stroke-linecap: square"/>
     </g>
     <g id="line2d_28">
      <g>
       <use xlink:href="#m1ed5a7977d" x="50.14375" y="85.678125" style="stroke: #000000; stroke-width: 0.8"/>
      </g>
     </g>
     <g id="text_15">
      <!-- 1.50 -->
      <g transform="translate(20.878125 89.477344) scale(0.1 -0.1)">
       <use xlink:href="#DejaVuSans-31"/>
       <use xlink:href="#DejaVuSans-2e" transform="translate(63.623047 0)"/>
       <use xlink:href="#DejaVuSans-35" transform="translate(95.410156 0)"/>
       <use xlink:href="#DejaVuSans-30" transform="translate(159.033203 0)"/>
      </g>
     </g>
    </g>
    <g id="ytick_8">
     <g id="line2d_29">
      <path d="M 50.14375 59.278125 
L 496.54375 59.278125 
" clip-path="url(#p0c29e102ba)" style="fill: none; stroke: #b0b0b0; stroke-opacity: 0.3; stroke-width: 0.8; stroke-linecap: square"/>
     </g>
     <g id="line2d_30">
      <g>
       <use xlink:href="#m1ed5a7977d" x="50.14375" y="59.278125" style="stroke: #000000; stroke-width: 0.8"/>
      </g>
     </g>
     <g id="text_16">
      <!-- 1.75 -->
      <g transform="translate(20.878125 63.077344) scale(0.1 -0.1)">
       <use xlink:href="#DejaVuSans-31"/>
       <use xlink:href="#DejaVuSans-2e" transform="translate(63.623047 0)"/>
       <use xlink:href="#DejaVuSans-37" transform="translate(95.410156 0)"/>
       <use xlink:href="#DejaVuSans-35" transform="translate(159.033203 0)"/>
      </g>
     </g>
    </g>
    <g id="ytick_9">
     <g id="line2d_31">
      <path d="M 50.14375 32.878125 
L 496.54375 32.878125 
" clip-path="url(#p0c29e102ba)" style="fill: none; stroke: #b0b0b0; stroke-opacity: 0.3; stroke-width: 0.8; stroke-linecap: square"/>
     </g>
     <g id="line2d_32">
      <g>
       <use xlink:href="#m1ed5a7977d" x="50.14375" y="32.878125" style="stroke: #000000; stroke-width: 0.8"/>
      </g>
     </g>
     <g id="text_17">
      <!-- 2.00 -->
      <g transform="translate(20.878125 36.677344) scale(0.1 -0.1)">
       <use xlink:href="#DejaVuSans-32"/>
       <use xlink:href="#DejaVuSans-2e" transform="translate(63.623047 0)"/>
       <use xlink:href="#DejaVuSans-30" transform="translate(95.410156 0)"/>
       <use xlink:href="#DejaVuSans-30" transform="translate(159.033203 0)"/>
      </g>
     </g>
    </g>
    <g id="text_18">
     <!-- Density -->
     <g transform="translate(14.798437 152.206719) rotate(-90) scale(0.1 -0.1)">
      <defs>
       <path id="DejaVuSans-44" d="M 1259 4147 
L 1259 519 
L 2022 519 
Q 2988 519 3436 956 
Q 3884 1394 3884 2338 
Q 3884 3275 3436 3711 
Q 2988 4147 2022 4147 
L 1259 4147 
z
M 628 4666 
L 1925 4666 
Q 3281 4666 3915 4102 
Q 4550 3538 4550 2338 
Q 4550 1131 3912 565 
Q 3275 0 1925 0 
L 628 0 
L 628 4666 
z
" transform="scale(0.015625)"/>
       <path id="DejaVuSans-73" d="M 2834 3397 
L 2834 2853 
Q 2591 2978 2328 3040 
Q 2066 3103 1784 3103 
Q 1356 3103 1142 2972 
Q 928 2841 928 2578 
Q 928 2378 1081 2264 
Q 1234 2150 1697 2047 
L 1894 2003 
Q 2506 1872 2764 1633 
Q 3022 1394 3022 966 
Q 3022 478 2636 193 
Q 2250 -91 1575 -91 
Q 1294 -91 989 -36 
Q 684 19 347 128 
L 347 722 
Q 666 556 975 473 
Q 1284 391 1588 391 
Q 1994 391 2212 530 
Q 2431 669 2431 922 
Q 2431 1156 2273 1281 
Q 2116 1406 1581 1522 
L 1381 1569 
Q 847 1681 609 1914 
Q 372 2147 372 2553 
Q 372 3047 722 3315 
Q 1072 3584 1716 3584 
Q 2034 3584 2315 3537 
Q 2597 3491 2834 3397 
z
" transform="scale(0.015625)"/>
       <path id="DejaVuSans-79" d="M 2059 -325 
Q 1816 -950 1584 -1140 
Q 1353 -1331 966 -1331 
L 506 -1331 
L 506 -850 
L 844 -850 
Q 1081 -850 1212 -737 
Q 1344 -625 1503 -206 
L 1606 56 
L 191 3500 
L 800 3500 
L 1894 763 
L 2988 3500 
L 3597 3500 
L 2059 -325 
z
" transform="scale(0.015625)"/>
      </defs>
      <use xlink:href="#DejaVuSans-44"/>
      <use xlink:href="#DejaVuSans-65" transform="translate(77.001953 0)"/>
      <use xlink:href="#DejaVuSans-6e" transform="translate(138.525391 0)"/>
      <use xlink:href="#DejaVuSans-73" transform="translate(201.904297 0)"/>
      <use xlink:href="#DejaVuSans-69" transform="translate(254.003906 0)"/>
      <use xlink:href="#DejaVuSans-74" transform="translate(281.787109 0)"/>
      <use xlink:href="#DejaVuSans-79" transform="translate(320.996094 0)"/>
     </g>
    </g>
   </g>
   <g id="line2d_33">
    <path d="M 70.434659 32.878125 
L 73.178889 48.847784 
L 75.923119 63.609914 
L 78.66735 77.255822 
L 81.41158 89.869909 
L 84.15581 101.530196 
L 86.90004 112.308802 
L 89.64427 122.272397 
L 92.3885 131.482605 
L 95.13273 139.996392 
L 97.876961 147.86642 
L 100.621191 155.141363 
L 103.365421 161.86622 
L 106.109651 168.082584 
L 109.311253 174.743462 
L 112.512855 180.820525 
L 115.714457 186.364944 
L 118.916058 191.423405 
L 122.11766 196.0385 
L 125.319262 200.24909 
L 128.520864 204.090629 
L 131.722466 207.595464 
L 134.924068 210.793106 
L 138.125669 213.71048 
L 141.784643 216.732849 
L 145.443617 219.454414 
L 149.10259 221.905112 
L 153.218935 224.371838 
L 157.335281 226.564143 
L 161.451626 228.512556 
L 166.025343 230.42431 
L 170.59906 232.101264 
L 175.630148 233.709029 
L 181.118609 235.21784 
L 187.064441 236.605668 
L 193.467644 237.858159 
L 200.32822 238.968118 
L 208.103538 239.988601 
L 216.7936 240.889952 
L 226.398406 241.656935 
L 237.375327 242.310287 
L 250.639106 242.869197 
L 252.925964 242.945868 
L 252.925964 242.945868 
" clip-path="url(#p0c29e102ba)" style="fill: none; stroke: #ff7f0e; stroke-width: 1.5; stroke-linecap: square"/>
   </g>
   <g id="patch_63">
    <path d="M 50.14375 244.078125 
L 50.14375 22.318125 
" style="fill: none; stroke: #000000; stroke-width: 0.8; stroke-linejoin: miter; stroke-linecap: square"/>
   </g>
   <g id="patch_64">
    <path d="M 496.54375 244.078125 
L 496.54375 22.318125 
" style="fill: none; stroke: #000000; stroke-width: 0.8; stroke-linejoin: miter; stroke-linecap: square"/>
   </g>
   <g id="patch_65">
    <path d="M 50.14375 244.078125 
L 496.54375 244.078125 
" style="fill: none; stroke: #000000; stroke-width: 0.8; stroke-linejoin: miter; stroke-linecap: square"/>
   </g>
   <g id="patch_66">
    <path d="M 50.14375 22.318125 
L 496.54375 22.318125 
" style="fill: none; stroke: #000000; stroke-width: 0.8; stroke-linejoin: miter; stroke-linecap: square"/>
   </g>
   <g id="text_19">
    <!-- Interarrival time pada Poisson process ~ Exponential -->
    <g transform="translate(114.1975 16.318125) scale(0.12 -0.12)">
     <defs>
      <path id="DejaVuSans-70" d="M 1159 525 
L 1159 -1331 
L 581 -1331 
L 581 3500 
L 1159 3500 
L 1159 2969 
Q 1341 3281 1617 3432 
Q 1894 3584 2278 3584 
Q 2916 3584 3314 3078 
Q 3713 2572 3713 1747 
Q 3713 922 3314 415 
Q 2916 -91 2278 -91 
Q 1894 -91 1617 61 
Q 1341 213 1159 525 
z
M 3116 1747 
Q 3116 2381 2855 2742 
Q 2594 3103 2138 3103 
Q 1681 3103 1420 2742 
Q 1159 2381 1159 1747 
Q 1159 1113 1420 752 
Q 1681 391 2138 391 
Q 2594 391 2855 752 
Q 3116 1113 3116 1747 
z
" transform="scale(0.015625)"/>
      <path id="DejaVuSans-64" d="M 2906 2969 
L 2906 4863 
L 3481 4863 
L 3481 0 
L 2906 0 
L 2906 525 
Q 2725 213 2448 61 
Q 2172 -91 1784 -91 
Q 1150 -91 751 415 
Q 353 922 353 1747 
Q 353 2572 751 3078 
Q 1150 3584 1784 3584 
Q 2172 3584 2448 3432 
Q 2725 3281 2906 2969 
z
M 947 1747 
Q 947 1113 1208 752 
Q 1469 391 1925 391 
Q 2381 391 2643 752 
Q 2906 1113 2906 1747 
Q 2906 2381 2643 2742 
Q 2381 3103 1925 3103 
Q 1469 3103 1208 2742 
Q 947 2381 947 1747 
z
" transform="scale(0.015625)"/>
      <path id="DejaVuSans-50" d="M 1259 4147 
L 1259 2394 
L 2053 2394 
Q 2494 2394 2734 2622 
Q 2975 2850 2975 3272 
Q 2975 3691 2734 3919 
Q 2494 4147 2053 4147 
L 1259 4147 
z
M 628 4666 
L 2053 4666 
Q 2838 4666 3239 4311 
Q 3641 3956 3641 3272 
Q 3641 2581 3239 2228 
Q 2838 1875 2053 1875 
L 1259 1875 
L 1259 0 
L 628 0 
L 628 4666 
z
" transform="scale(0.015625)"/>
      <path id="DejaVuSans-6f" d="M 1959 3097 
Q 1497 3097 1228 2736 
Q 959 2375 959 1747 
Q 959 1119 1226 758 
Q 1494 397 1959 397 
Q 2419 397 2687 759 
Q 2956 1122 2956 1747 
Q 2956 2369 2687 2733 
Q 2419 3097 1959 3097 
z
M 1959 3584 
Q 2709 3584 3137 3096 
Q 3566 2609 3566 1747 
Q 3566 888 3137 398 
Q 2709 -91 1959 -91 
Q 1206 -91 779 398 
Q 353 888 353 1747 
Q 353 2609 779 3096 
Q 1206 3584 1959 3584 
z
" transform="scale(0.015625)"/>
      <path id="DejaVuSans-63" d="M 3122 3366 
L 3122 2828 
Q 2878 2963 2633 3030 
Q 2388 3097 2138 3097 
Q 1578 3097 1268 2742 
Q 959 2388 959 1747 
Q 959 1106 1268 751 
Q 1578 397 2138 397 
Q 2388 397 2633 464 
Q 2878 531 3122 666 
L 3122 134 
Q 2881 22 2623 -34 
Q 2366 -91 2075 -91 
Q 1284 -91 818 406 
Q 353 903 353 1747 
Q 353 2603 823 3093 
Q 1294 3584 2113 3584 
Q 2378 3584 2631 3529 
Q 2884 3475 3122 3366 
z
" transform="scale(0.015625)"/>
      <path id="DejaVuSans-7e" d="M 4684 2553 
L 4684 1997 
Q 4356 1750 4076 1644 
Q 3797 1538 3494 1538 
Q 3150 1538 2694 1722 
Q 2659 1734 2644 1741 
Q 2622 1750 2575 1766 
Q 2091 1959 1797 1959 
Q 1522 1959 1253 1839 
Q 984 1719 678 1459 
L 678 2016 
Q 1006 2263 1286 2370 
Q 1566 2478 1869 2478 
Q 2213 2478 2672 2291 
Q 2703 2278 2719 2272 
Q 2744 2263 2788 2247 
Q 3272 2053 3566 2053 
Q 3834 2053 4098 2172 
Q 4363 2291 4684 2553 
z
" transform="scale(0.015625)"/>
      <path id="DejaVuSans-45" d="M 628 4666 
L 3578 4666 
L 3578 4134 
L 1259 4134 
L 1259 2753 
L 3481 2753 
L 3481 2222 
L 1259 2222 
L 1259 531 
L 3634 531 
L 3634 0 
L 628 0 
L 628 4666 
z
" transform="scale(0.015625)"/>
      <path id="DejaVuSans-78" d="M 3513 3500 
L 2247 1797 
L 3578 0 
L 2900 0 
L 1881 1375 
L 863 0 
L 184 0 
L 1544 1831 
L 300 3500 
L 978 3500 
L 1906 2253 
L 2834 3500 
L 3513 3500 
z
" transform="scale(0.015625)"/>
     </defs>
     <use xlink:href="#DejaVuSans-49"/>
     <use xlink:href="#DejaVuSans-6e" transform="translate(29.492188 0)"/>
     <use xlink:href="#DejaVuSans-74" transform="translate(92.871094 0)"/>
     <use xlink:href="#DejaVuSans-65" transform="translate(132.080078 0)"/>
     <use xlink:href="#DejaVuSans-72" transform="translate(193.603516 0)"/>
     <use xlink:href="#DejaVuSans-61" transform="translate(234.716797 0)"/>
     <use xlink:href="#DejaVuSans-72" transform="translate(295.996094 0)"/>
     <use xlink:href="#DejaVuSans-72" transform="translate(335.359375 0)"/>
     <use xlink:href="#DejaVuSans-69" transform="translate(376.472656 0)"/>
     <use xlink:href="#DejaVuSans-76" transform="translate(404.255859 0)"/>
     <use xlink:href="#DejaVuSans-61" transform="translate(463.435547 0)"/>
     <use xlink:href="#DejaVuSans-6c" transform="translate(524.714844 0)"/>
     <use xlink:href="#DejaVuSans-20" transform="translate(552.498047 0)"/>
     <use xlink:href="#DejaVuSans-74" transform="translate(584.285156 0)"/>
     <use xlink:href="#DejaVuSans-69" transform="translate(623.494141 0)"/>
     <use xlink:href="#DejaVuSans-6d" transform="translate(651.277344 0)"/>
     <use xlink:href="#DejaVuSans-65" transform="translate(748.689453 0)"/>
     <use xlink:href="#DejaVuSans-20" transform="translate(810.212891 0)"/>
     <use xlink:href="#DejaVuSans-70" transform="translate(842 0)"/>
     <use xlink:href="#DejaVuSans-61" transform="translate(905.476562 0)"/>
     <use xlink:href="#DejaVuSans-64" transform="translate(966.755859 0)"/>
     <use xlink:href="#DejaVuSans-61" transform="translate(1030.232422 0)"/>
     <use xlink:href="#DejaVuSans-20" transform="translate(1091.511719 0)"/>
     <use xlink:href="#DejaVuSans-50" transform="translate(1123.298828 0)"/>
     <use xlink:href="#DejaVuSans-6f" transform="translate(1179.976562 0)"/>
     <use xlink:href="#DejaVuSans-69" transform="translate(1241.158203 0)"/>
     <use xlink:href="#DejaVuSans-73" transform="translate(1268.941406 0)"/>
     <use xlink:href="#DejaVuSans-73" transform="translate(1321.041016 0)"/>
     <use xlink:href="#DejaVuSans-6f" transform="translate(1373.140625 0)"/>
     <use xlink:href="#DejaVuSans-6e" transform="translate(1434.322266 0)"/>
     <use xlink:href="#DejaVuSans-20" transform="translate(1497.701172 0)"/>
     <use xlink:href="#DejaVuSans-70" transform="translate(1529.488281 0)"/>
     <use xlink:href="#DejaVuSans-72" transform="translate(1592.964844 0)"/>
     <use xlink:href="#DejaVuSans-6f" transform="translate(1631.828125 0)"/>
     <use xlink:href="#DejaVuSans-63" transform="translate(1693.009766 0)"/>
     <use xlink:href="#DejaVuSans-65" transform="translate(1747.990234 0)"/>
     <use xlink:href="#DejaVuSans-73" transform="translate(1809.513672 0)"/>
     <use xlink:href="#DejaVuSans-73" transform="translate(1861.613281 0)"/>
     <use xlink:href="#DejaVuSans-20" transform="translate(1913.712891 0)"/>
     <use xlink:href="#DejaVuSans-7e" transform="translate(1945.5 0)"/>
     <use xlink:href="#DejaVuSans-20" transform="translate(2029.289062 0)"/>
     <use xlink:href="#DejaVuSans-45" transform="translate(2061.076172 0)"/>
     <use xlink:href="#DejaVuSans-78" transform="translate(2124.259766 0)"/>
     <use xlink:href="#DejaVuSans-70" transform="translate(2183.439453 0)"/>
     <use xlink:href="#DejaVuSans-6f" transform="translate(2246.916016 0)"/>
     <use xlink:href="#DejaVuSans-6e" transform="translate(2308.097656 0)"/>
     <use xlink:href="#DejaVuSans-65" transform="translate(2371.476562 0)"/>
     <use xlink:href="#DejaVuSans-6e" transform="translate(2433 0)"/>
     <use xlink:href="#DejaVuSans-74" transform="translate(2496.378906 0)"/>
     <use xlink:href="#DejaVuSans-69" transform="translate(2535.587891 0)"/>
     <use xlink:href="#DejaVuSans-61" transform="translate(2563.371094 0)"/>
     <use xlink:href="#DejaVuSans-6c" transform="translate(2624.650391 0)"/>
    </g>
   </g>
   <g id="legend_1">
    <g id="patch_67">
     <path d="M 399.895312 59.674375 
L 489.54375 59.674375 
Q 491.54375 59.674375 491.54375 57.674375 
L 491.54375 29.318125 
Q 491.54375 27.318125 489.54375 27.318125 
L 399.895312 27.318125 
Q 397.895312 27.318125 397.895312 29.318125 
L 397.895312 57.674375 
Q 397.895312 59.674375 399.895312 59.674375 
z
" style="fill: #ffffff; opacity: 0.8; stroke: #cccccc; stroke-linejoin: miter"/>
    </g>
    <g id="patch_68">
     <path d="M 401.895312 38.916562 
L 421.895312 38.916562 
L 421.895312 31.916562 
L 401.895312 31.916562 
z
" style="fill: #1f77b4; opacity: 0.6"/>
    </g>
    <g id="text_20">
     <!-- Simulasi -->
     <g transform="translate(429.895312 38.916562) scale(0.1 -0.1)">
      <defs>
       <path id="DejaVuSans-53" d="M 3425 4513 
L 3425 3897 
Q 3066 4069 2747 4153 
Q 2428 4238 2131 4238 
Q 1616 4238 1336 4038 
Q 1056 3838 1056 3469 
Q 1056 3159 1242 3001 
Q 1428 2844 1947 2747 
L 2328 2669 
Q 3034 2534 3370 2195 
Q 3706 1856 3706 1288 
Q 3706 609 3251 259 
Q 2797 -91 1919 -91 
Q 1588 -91 1214 -16 
Q 841 59 441 206 
L 441 856 
Q 825 641 1194 531 
Q 1563 422 1919 422 
Q 2459 422 2753 634 
Q 3047 847 3047 1241 
Q 3047 1584 2836 1778 
Q 2625 1972 2144 2069 
L 1759 2144 
Q 1053 2284 737 2584 
Q 422 2884 422 3419 
Q 422 4038 858 4394 
Q 1294 4750 2059 4750 
Q 2388 4750 2728 4690 
Q 3069 4631 3425 4513 
z
" transform="scale(0.015625)"/>
       <path id="DejaVuSans-75" d="M 544 1381 
L 544 3500 
L 1119 3500 
L 1119 1403 
Q 1119 906 1312 657 
Q 1506 409 1894 409 
Q 2359 409 2629 706 
Q 2900 1003 2900 1516 
L 2900 3500 
L 3475 3500 
L 3475 0 
L 2900 0 
L 2900 538 
Q 2691 219 2414 64 
Q 2138 -91 1772 -91 
Q 1169 -91 856 284 
Q 544 659 544 1381 
z
M 1991 3584 
L 1991 3584 
z
" transform="scale(0.015625)"/>
      </defs>
      <use xlink:href="#DejaVuSans-53"/>
      <use xlink:href="#DejaVuSans-69" transform="translate(63.476562 0)"/>
      <use xlink:href="#DejaVuSans-6d" transform="translate(91.259766 0)"/>
      <use xlink:href="#DejaVuSans-75" transform="translate(188.671875 0)"/>
      <use xlink:href="#DejaVuSans-6c" transform="translate(252.050781 0)"/>
      <use xlink:href="#DejaVuSans-61" transform="translate(279.833984 0)"/>
      <use xlink:href="#DejaVuSans-73" transform="translate(341.113281 0)"/>
      <use xlink:href="#DejaVuSans-69" transform="translate(393.212891 0)"/>
     </g>
    </g>
    <g id="line2d_34">
     <path d="M 401.895312 50.094687 
L 411.895312 50.094687 
L 421.895312 50.094687 
" style="fill: none; stroke: #ff7f0e; stroke-width: 1.5; stroke-linecap: square"/>
    </g>
    <g id="text_21">
     <!-- PDF teoritis -->
     <g transform="translate(429.895312 53.594687) scale(0.1 -0.1)">
      <defs>
       <path id="DejaVuSans-46" d="M 628 4666 
L 3309 4666 
L 3309 4134 
L 1259 4134 
L 1259 2759 
L 3109 2759 
L 3109 2228 
L 1259 2228 
L 1259 0 
L 628 0 
L 628 4666 
z
" transform="scale(0.015625)"/>
      </defs>
      <use xlink:href="#DejaVuSans-50"/>
      <use xlink:href="#DejaVuSans-44" transform="translate(60.302734 0)"/>
      <use xlink:href="#DejaVuSans-46" transform="translate(137.304688 0)"/>
      <use xlink:href="#DejaVuSans-20" transform="translate(194.824219 0)"/>
      <use xlink:href="#DejaVuSans-74" transform="translate(226.611328 0)"/>
      <use xlink:href="#DejaVuSans-65" transform="translate(265.820312 0)"/>
      <use xlink:href="#DejaVuSans-6f" transform="translate(327.34375 0)"/>
      <use xlink:href="#DejaVuSans-72" transform="translate(388.525391 0)"/>
      <use xlink:href="#DejaVuSans-69" transform="translate(429.638672 0)"/>
      <use xlink:href="#DejaVuSans-74" transform="translate(457.421875 0)"/>
      <use xlink:href="#DejaVuSans-69" transform="translate(496.630859 0)"/>
      <use xlink:href="#DejaVuSans-73" transform="translate(524.414062 0)"/>
     </g>
    </g>
   </g>
  </g>
 </g>
 <defs>
  <clipPath id="p0c29e102ba">
   <rect x="50.14375" y="22.318125" width="446.4" height="221.76"/>
  </clipPath>
 </defs>
</svg>
