<?xml version="1.0" encoding="utf-8" standalone="no"?>
<!DOCTYPE svg PUBLIC "-//W3C//DTD SVG 1.1//EN"
  "http://www.w3.org/Graphics/SVG/1.1/DTD/svg11.dtd">
<svg xmlns:xlink="http://www.w3.org/1999/xlink" width="503.74375pt" height="281.634375pt" viewBox="0 0 503.74375 281.634375" xmlns="http://www.w3.org/2000/svg" version="1.1">
 <metadata>
  <rdf:RDF xmlns:dc="http://purl.org/dc/elements/1.1/" xmlns:cc="http://creativecommons.org/ns#" xmlns:rdf="http://www.w3.org/1999/02/22-rdf-syntax-ns#">
   <cc:Work>
    <dc:type rdf:resource="http://purl.org/dc/dcmitype/StillImage"/>
    <dc:date>2026-03-30T12:24:17.974547</dc:date>
    <dc:format>image/svg+xml</dc:format>
    <dc:creator>
     <cc:Agent>
      <dc:title>Matplotlib v3.10.8, https://matplotlib.org/</dc:title>
     </cc:Agent>
    </dc:creator>
   </cc:Work>
  </rdf:RDF>
 </metadata>
 <defs>
  <style type="text/css">*{stroke-linejoin: round; stroke-linecap: butt}</style>
 </defs>
 <g id="figure_1">
  <g id="patch_1">
   <path d="M 0 281.634375 
L 503.74375 281.634375 
L 503.74375 0 
L 0 0 
z
" style="fill: #ffffff"/>
  </g>
  <g id="axes_1">
   <g id="patch_2">
    <path d="M 50.14375 244.078125 
L 496.54375 244.078125 
L 496.54375 22.318125 
L 50.14375 22.318125 
z
" style="fill: #ffffff"/>
   </g>
   <g id="patch_3">
    <path d="M 71.581142 244.078125 
L 78.32567 244.078125 
L 78.32567 231.68658 
L 71.581142 231.68658 
z
" clip-path="url(#p3ea03b972f)" style="fill: #1f77b4; opacity: 0.6"/>
   </g>
   <g id="patch_4">
    <path d="M 78.32567 244.078125 
L 85.070199 244.078125 
L 85.070199 192.594548 
L 78.32567 192.594548 
z
" clip-path="url(#p3ea03b972f)" style="fill: #1f77b4; opacity: 0.6"/>
   </g>
   <g id="patch_5">
    <path d="M 85.070199 244.078125 
L 91.814727 244.078125 
L 91.814727 143.056987 
L 85.070199 143.056987 
z
" clip-path="url(#p3ea03b972f)" style="fill: #1f77b4; opacity: 0.6"/>
   </g>
   <g id="patch_6">
    <path d="M 91.814727 244.078125 
L 98.559255 244.078125 
L 98.559255 99.157149 
L 91.814727 99.157149 
z
" clip-path="url(#p3ea03b972f)" style="fill: #1f77b4; opacity: 0.6"/>
   </g>
   <g id="patch_7">
    <path d="M 98.559255 244.078125 
L 105.303784 244.078125 
L 105.303784 66.962027 
L 98.559255 66.962027 
z
" clip-path="url(#p3ea03b972f)" style="fill: #1f77b4; opacity: 0.6"/>
   </g>
   <g id="patch_8">
    <path d="M 105.303784 244.078125 
L 112.048312 244.078125 
L 112.048312 48.560727 
L 105.303784 48.560727 
z
" clip-path="url(#p3ea03b972f)" style="fill: #1f77b4; opacity: 0.6"/>
   </g>
   <g id="patch_9">
    <path d="M 112.048312 244.078125 
L 118.79284 244.078125 
L 118.79284 35.053084 
L 112.048312 35.053084 
z
" clip-path="url(#p3ea03b972f)" style="fill: #1f77b4; opacity: 0.6"/>
   </g>
   <g id="patch_10">
    <path d="M 118.79284 244.078125 
L 125.537369 244.078125 
L 125.537369 32.878125 
L 118.79284 32.878125 
z
" clip-path="url(#p3ea03b972f)" style="fill: #1f77b4; opacity: 0.6"/>
   </g>
   <g id="patch_11">
    <path d="M 125.537369 244.078125 
L 132.281897 244.078125 
L 132.281897 39.345767 
L 125.537369 39.345767 
z
" clip-path="url(#p3ea03b972f)" style="fill: #1f77b4; opacity: 0.6"/>
   </g>
   <g id="patch_12">
    <path d="M 132.281897 244.078125 
L 139.026425 244.078125 
L 139.026425 51.708694 
L 132.281897 51.708694 
z
" clip-path="url(#p3ea03b972f)" style="fill: #1f77b4; opacity: 0.6"/>
   </g>
   <g id="patch_13">
    <path d="M 139.026425 244.078125 
L 145.770954 244.078125 
L 145.770954 63.81406 
L 139.026425 63.81406 
z
" clip-path="url(#p3ea03b972f)" style="fill: #1f77b4; opacity: 0.6"/>
   </g>
   <g id="patch_14">
    <path d="M 145.770954 244.078125 
L 152.515482 244.078125 
L 152.515482 77.89406 
L 145.770954 77.89406 
z
" clip-path="url(#p3ea03b972f)" style="fill: #1f77b4; opacity: 0.6"/>
   </g>
   <g id="patch_15">
    <path d="M 152.515482 244.078125 
L 159.26001 244.078125 
L 159.26001 97.182515 
L 152.515482 97.182515 
z
" clip-path="url(#p3ea03b972f)" style="fill: #1f77b4; opacity: 0.6"/>
   </g>
   <g id="patch_16">
    <path d="M 159.26001 244.078125 
L 166.004539 244.078125 
L 166.004539 113.752271 
L 159.26001 113.752271 
z
" clip-path="url(#p3ea03b972f)" style="fill: #1f77b4; opacity: 0.6"/>
   </g>
   <g id="patch_17">
    <path d="M 166.004539 244.078125 
L 172.749067 244.078125 
L 172.749067 129.663816 
L 166.004539 129.663816 
z
" clip-path="url(#p3ea03b972f)" style="fill: #1f77b4; opacity: 0.6"/>
   </g>
   <g id="patch_18">
    <path d="M 172.749067 244.078125 
L 179.493595 244.078125 
L 179.493595 145.146092 
L 172.749067 145.146092 
z
" clip-path="url(#p3ea03b972f)" style="fill: #1f77b4; opacity: 0.6"/>
   </g>
   <g id="patch_19">
    <path d="M 179.493595 244.078125 
L 186.238123 244.078125 
L 186.238123 160.456662 
L 179.493595 160.456662 
z
" clip-path="url(#p3ea03b972f)" style="fill: #1f77b4; opacity: 0.6"/>
   </g>
   <g id="patch_20">
    <path d="M 186.238123 244.078125 
L 192.982652 244.078125 
L 192.982652 169.671621 
L 186.238123 169.671621 
z
" clip-path="url(#p3ea03b972f)" style="fill: #1f77b4; opacity: 0.6"/>
   </g>
   <g id="patch_21">
    <path d="M 192.982652 244.078125 
L 199.72718 244.078125 
L 199.72718 180.546418 
L 192.982652 180.546418 
z
" clip-path="url(#p3ea03b972f)" style="fill: #1f77b4; opacity: 0.6"/>
   </g>
   <g id="patch_22">
    <path d="M 199.72718 244.078125 
L 206.471708 244.078125 
L 206.471708 192.222515 
L 199.72718 192.222515 
z
" clip-path="url(#p3ea03b972f)" style="fill: #1f77b4; opacity: 0.6"/>
   </g>
   <g id="patch_23">
    <path d="M 206.471708 244.078125 
L 213.216237 244.078125 
L 213.216237 201.265767 
L 206.471708 201.265767 
z
" clip-path="url(#p3ea03b972f)" style="fill: #1f77b4; opacity: 0.6"/>
   </g>
   <g id="patch_24">
    <path d="M 213.216237 244.078125 
L 219.960765 244.078125 
L 219.960765 207.017962 
L 213.216237 207.017962 
z
" clip-path="url(#p3ea03b972f)" style="fill: #1f77b4; opacity: 0.6"/>
   </g>
   <g id="patch_25">
    <path d="M 219.960765 244.078125 
L 226.705293 244.078125 
L 226.705293 214.000727 
L 219.960765 214.000727 
z
" clip-path="url(#p3ea03b972f)" style="fill: #1f77b4; opacity: 0.6"/>
   </g>
   <g id="patch_26">
    <path d="M 226.705293 244.078125 
L 233.449822 244.078125 
L 233.449822 217.892759 
L 226.705293 217.892759 
z
" clip-path="url(#p3ea03b972f)" style="fill: #1f77b4; opacity: 0.6"/>
   </g>
   <g id="patch_27">
    <path d="M 233.449822 244.078125 
L 240.19435 244.078125 
L 240.19435 223.902515 
L 233.449822 223.902515 
z
" clip-path="url(#p3ea03b972f)" style="fill: #1f77b4; opacity: 0.6"/>
   </g>
   <g id="patch_28">
    <path d="M 240.19435 244.078125 
L 246.938878 244.078125 
L 246.938878 226.649832 
L 240.19435 226.649832 
z
" clip-path="url(#p3ea03b972f)" style="fill: #1f77b4; opacity: 0.6"/>
   </g>
   <g id="patch_29">
    <path d="M 246.938878 244.078125 
L 253.683407 244.078125 
L 253.683407 229.25406 
L 246.938878 229.25406 
z
" clip-path="url(#p3ea03b972f)" style="fill: #1f77b4; opacity: 0.6"/>
   </g>
   <g id="patch_30">
    <path d="M 253.683407 244.078125 
L 260.427935 244.078125 
L 260.427935 231.858288 
L 253.683407 231.858288 
z
" clip-path="url(#p3ea03b972f)" style="fill: #1f77b4; opacity: 0.6"/>
   </g>
   <g id="patch_31">
    <path d="M 260.427935 244.078125 
L 267.172463 244.078125 
L 267.172463 234.920401 
L 260.427935 234.920401 
z
" clip-path="url(#p3ea03b972f)" style="fill: #1f77b4; opacity: 0.6"/>
   </g>
   <g id="patch_32">
    <path d="M 267.172463 244.078125 
L 273.916992 244.078125 
L 273.916992 235.807556 
L 267.172463 235.807556 
z
" clip-path="url(#p3ea03b972f)" style="fill: #1f77b4; opacity: 0.6"/>
   </g>
   <g id="patch_33">
    <path d="M 273.916992 244.078125 
L 280.66152 244.078125 
L 280.66152 238.011133 
L 273.916992 238.011133 
z
" clip-path="url(#p3ea03b972f)" style="fill: #1f77b4; opacity: 0.6"/>
   </g>
   <g id="patch_34">
    <path d="M 280.66152 244.078125 
L 287.406048 244.078125 
L 287.406048 238.469019 
L 280.66152 238.469019 
z
" clip-path="url(#p3ea03b972f)" style="fill: #1f77b4; opacity: 0.6"/>
   </g>
   <g id="patch_35">
    <path d="M 287.406048 244.078125 
L 294.150576 244.078125 
L 294.150576 239.785442 
L 287.406048 239.785442 
z
" clip-path="url(#p3ea03b972f)" style="fill: #1f77b4; opacity: 0.6"/>
   </g>
   <g id="patch_36">
    <path d="M 294.150576 244.078125 
L 300.895105 244.078125 
L 300.895105 240.186092 
L 294.150576 240.186092 
z
" clip-path="url(#p3ea03b972f)" style="fill: #1f77b4; opacity: 0.6"/>
   </g>
   <g id="patch_37">
    <path d="M 300.895105 244.078125 
L 307.639633 244.078125 
L 307.639633 241.531133 
L 300.895105 241.531133 
z
" clip-path="url(#p3ea03b972f)" style="fill: #1f77b4; opacity: 0.6"/>
   </g>
   <g id="patch_38">
    <path d="M 307.639633 244.078125 
L 314.384161 244.078125 
L 314.384161 241.330808 
L 307.639633 241.330808 
z
" clip-path="url(#p3ea03b972f)" style="fill: #1f77b4; opacity: 0.6"/>
   </g>
   <g id="patch_39">
    <path d="M 314.384161 244.078125 
L 321.12869 244.078125 
L 321.12869 242.475523 
L 314.384161 242.475523 
z
" clip-path="url(#p3ea03b972f)" style="fill: #1f77b4; opacity: 0.6"/>
   </g>
   <g id="patch_40">
    <path d="M 321.12869 244.078125 
L 327.873218 244.078125 
L 327.873218 242.647231 
L 321.12869 242.647231 
z
" clip-path="url(#p3ea03b972f)" style="fill: #1f77b4; opacity: 0.6"/>
   </g>
   <g id="patch_41">
    <path d="M 327.873218 244.078125 
L 334.617746 244.078125 
L 334.617746 242.704466 
L 327.873218 242.704466 
z
" clip-path="url(#p3ea03b972f)" style="fill: #1f77b4; opacity: 0.6"/>
   </g>
   <g id="patch_42">
    <path d="M 334.617746 244.078125 
L 341.362275 244.078125 
L 341.362275 243.362678 
L 334.617746 243.362678 
z
" clip-path="url(#p3ea03b972f)" style="fill: #1f77b4; opacity: 0.6"/>
   </g>
   <g id="patch_43">
    <path d="M 341.362275 244.078125 
L 348.106803 244.078125 
L 348.106803 243.448532 
L 341.362275 243.448532 
z
" clip-path="url(#p3ea03b972f)" style="fill: #1f77b4; opacity: 0.6"/>
   </g>
   <g id="patch_44">
    <path d="M 348.106803 244.078125 
L 354.851331 244.078125 
L 354.851331 243.448532 
L 348.106803 243.448532 
z
" clip-path="url(#p3ea03b972f)" style="fill: #1f77b4; opacity: 0.6"/>
   </g>
   <g id="patch_45">
    <path d="M 354.851331 244.078125 
L 361.59586 244.078125 
L 361.59586 243.935036 
L 354.851331 243.935036 
z
" clip-path="url(#p3ea03b972f)" style="fill: #1f77b4; opacity: 0.6"/>
   </g>
   <g id="patch_46">
    <path d="M 361.59586 244.078125 
L 368.340388 244.078125 
L 368.340388 243.563003 
L 361.59586 243.563003 
z
" clip-path="url(#p3ea03b972f)" style="fill: #1f77b4; opacity: 0.6"/>
   </g>
   <g id="patch_47">
    <path d="M 368.340388 244.078125 
L 375.084916 244.078125 
L 375.084916 243.8778 
L 368.340388 243.8778 
z
" clip-path="url(#p3ea03b972f)" style="fill: #1f77b4; opacity: 0.6"/>
   </g>
   <g id="patch_48">
    <path d="M 375.084916 244.078125 
L 381.829445 244.078125 
L 381.829445 243.849182 
L 375.084916 243.849182 
z
" clip-path="url(#p3ea03b972f)" style="fill: #1f77b4; opacity: 0.6"/>
   </g>
   <g id="patch_49">
    <path d="M 381.829445 244.078125 
L 388.573973 244.078125 
L 388.573973 243.906418 
L 381.829445 243.906418 
z
" clip-path="url(#p3ea03b972f)" style="fill: #1f77b4; opacity: 0.6"/>
   </g>
   <g id="patch_50">
    <path d="M 388.573973 244.078125 
L 395.318501 244.078125 
L 395.318501 243.935036 
L 388.573973 243.935036 
z
" clip-path="url(#p3ea03b972f)" style="fill: #1f77b4; opacity: 0.6"/>
   </g>
   <g id="patch_51">
    <path d="M 395.318501 244.078125 
L 402.063029 244.078125 
L 402.063029 243.992271 
L 395.318501 243.992271 
z
" clip-path="url(#p3ea03b972f)" style="fill: #1f77b4; opacity: 0.6"/>
   </g>
   <g id="patch_52">
    <path d="M 402.063029 244.078125 
L 408.807558 244.078125 
L 408.807558 244.020889 
L 402.063029 244.020889 
z
" clip-path="url(#p3ea03b972f)" style="fill: #1f77b4; opacity: 0.6"/>
   </g>
   <g id="patch_53">
    <path d="M 408.807558 244.078125 
L 415.552086 244.078125 
L 415.552086 244.078125 
L 408.807558 244.078125 
z
" clip-path="url(#p3ea03b972f)" style="fill: #1f77b4; opacity: 0.6"/>
   </g>
   <g id="patch_54">
    <path d="M 415.552086 244.078125 
L 422.296614 244.078125 
L 422.296614 244.078125 
L 415.552086 244.078125 
z
" clip-path="url(#p3ea03b972f)" style="fill: #1f77b4; opacity: 0.6"/>
   </g>
   <g id="patch_55">
    <path d="M 422.296614 244.078125 
L 429.041143 244.078125 
L 429.041143 244.020889 
L 422.296614 244.020889 
z
" clip-path="url(#p3ea03b972f)" style="fill: #1f77b4; opacity: 0.6"/>
   </g>
   <g id="patch_56">
    <path d="M 429.041143 244.078125 
L 435.785671 244.078125 
L 435.785671 244.020889 
L 429.041143 244.020889 
z
" clip-path="url(#p3ea03b972f)" style="fill: #1f77b4; opacity: 0.6"/>
   </g>
   <g id="patch_57">
    <path d="M 435.785671 244.078125 
L 442.530199 244.078125 
L 442.530199 244.049507 
L 435.785671 244.049507 
z
" clip-path="url(#p3ea03b972f)" style="fill: #1f77b4; opacity: 0.6"/>
   </g>
   <g id="patch_58">
    <path d="M 442.530199 244.078125 
L 449.274728 244.078125 
L 449.274728 244.049507 
L 442.530199 244.049507 
z
" clip-path="url(#p3ea03b972f)" style="fill: #1f77b4; opacity: 0.6"/>
   </g>
   <g id="patch_59">
    <path d="M 449.274728 244.078125 
L 456.019256 244.078125 
L 456.019256 244.078125 
L 449.274728 244.078125 
z
" clip-path="url(#p3ea03b972f)" style="fill: #1f77b4; opacity: 0.6"/>
   </g>
   <g id="patch_60">
    <path d="M 456.019256 244.078125 
L 462.763784 244.078125 
L 462.763784 244.020889 
L 456.019256 244.020889 
z
" clip-path="url(#p3ea03b972f)" style="fill: #1f77b4; opacity: 0.6"/>
   </g>
   <g id="patch_61">
    <path d="M 462.763784 244.078125 
L 469.508313 244.078125 
L 469.508313 244.049507 
L 462.763784 244.049507 
z
" clip-path="url(#p3ea03b972f)" style="fill: #1f77b4; opacity: 0.6"/>
   </g>
   <g id="patch_62">
    <path d="M 469.508313 244.078125 
L 476.252841 244.078125 
L 476.252841 244.049507 
L 469.508313 244.049507 
z
" clip-path="url(#p3ea03b972f)" style="fill: #1f77b4; opacity: 0.6"/>
   </g>
   <g id="matplotlib.axis_1">
    <g id="xtick_1">
     <g id="line2d_1">
      <path d="M 70.434659 244.078125 
L 70.434659 22.318125 
" clip-path="url(#p3ea03b972f)" style="fill: none; stroke: #b0b0b0; stroke-opacity: 0.3; stroke-width: 0.8; stroke-linecap: square"/>
     </g>
     <g id="line2d_2">
      <defs>
       <path id="md7e1ff0c70" d="M 0 0 
L 0 3.5 
" style="stroke: #000000; stroke-width: 0.8"/>
      </defs>
      <g>
       <use xlink:href="#md7e1ff0c70" x="70.434659" y="244.078125" style="stroke: #000000; stroke-width: 0.8"/>
      </g>
     </g>
     <g id="text_1">
      <!-- 0 -->
      <g transform="translate(67.253409 258.676562) scale(0.1 -0.1)">
       <defs>
        <path id="DejaVuSans-30" d="M 2034 4250 
Q 1547 4250 1301 3770 
Q 1056 3291 1056 2328 
Q 1056 1369 1301 889 
Q 1547 409 2034 409 
Q 2525 409 2770 889 
Q 3016 1369 3016 2328 
Q 3016 3291 2770 3770 
Q 2525 4250 2034 4250 
z
M 2034 4750 
Q 2819 4750 3233 4129 
Q 3647 3509 3647 2328 
Q 3647 1150 3233 529 
Q 2819 -91 2034 -91 
Q 1250 -91 836 529 
Q 422 1150 422 2328 
Q 422 3509 836 4129 
Q 1250 4750 2034 4750 
z
" transform="scale(0.015625)"/>
       </defs>
       <use xlink:href="#DejaVuSans-30"/>
      </g>
     </g>
    </g>
    <g id="xtick_2">
     <g id="line2d_3">
      <path d="M 132.32395 244.078125 
L 132.32395 22.318125 
" clip-path="url(#p3ea03b972f)" style="fill: none; stroke: #b0b0b0; stroke-opacity: 0.3; stroke-width: 0.8; stroke-linecap: square"/>
     </g>
     <g id="line2d_4">
      <g>
       <use xlink:href="#md7e1ff0c70" x="132.32395" y="244.078125" style="stroke: #000000; stroke-width: 0.8"/>
      </g>
     </g>
     <g id="text_2">
      <!-- 5 -->
      <g transform="translate(129.1427 258.676562) scale(0.1 -0.1)">
       <defs>
        <path id="DejaVuSans-35" d="M 691 4666 
L 3169 4666 
L 3169 4134 
L 1269 4134 
L 1269 2991 
Q 1406 3038 1543 3061 
Q 1681 3084 1819 3084 
Q 2600 3084 3056 2656 
Q 3513 2228 3513 1497 
Q 3513 744 3044 326 
Q 2575 -91 1722 -91 
Q 1428 -91 1123 -41 
Q 819 9 494 109 
L 494 744 
Q 775 591 1075 516 
Q 1375 441 1709 441 
Q 2250 441 2565 725 
Q 2881 1009 2881 1497 
Q 2881 1984 2565 2268 
Q 2250 2553 1709 2553 
Q 1456 2553 1204 2497 
Q 953 2441 691 2322 
L 691 4666 
z
" transform="scale(0.015625)"/>
       </defs>
       <use xlink:href="#DejaVuSans-35"/>
      </g>
     </g>
    </g>
    <g id="xtick_3">
     <g id="line2d_5">
      <path d="M 194.213241 244.078125 
L 194.213241 22.318125 
" clip-path="url(#p3ea03b972f)" style="fill: none; stroke: #b0b0b0; stroke-opacity: 0.3; stroke-width: 0.8; stroke-linecap: square"/>
     </g>
     <g id="line2d_6">
      <g>
       <use xlink:href="#md7e1ff0c70" x="194.213241" y="244.078125" style="stroke: #000000; stroke-width: 0.8"/>
      </g>
     </g>
     <g id="text_3">
      <!-- 10 -->
      <g transform="translate(187.850741 258.676562) scale(0.1 -0.1)">
       <defs>
        <path id="DejaVuSans-31" d="M 794 531 
L 1825 531 
L 1825 4091 
L 703 3866 
L 703 4441 
L 1819 4666 
L 2450 4666 
L 2450 531 
L 3481 531 
L 3481 0 
L 794 0 
L 794 531 
z
" transform="scale(0.015625)"/>
       </defs>
       <use xlink:href="#DejaVuSans-31"/>
       <use xlink:href="#DejaVuSans-30" transform="translate(63.623047 0)"/>
      </g>
     </g>
    </g>
    <g id="xtick_4">
     <g id="line2d_7">
      <path d="M 256.102532 244.078125 
L 256.102532 22.318125 
" clip-path="url(#p3ea03b972f)" style="fill: none; stroke: #b0b0b0; stroke-opacity: 0.3; stroke-width: 0.8; stroke-linecap: square"/>
     </g>
     <g id="line2d_8">
      <g>
       <use xlink:href="#md7e1ff0c70" x="256.102532" y="244.078125" style="stroke: #000000; stroke-width: 0.8"/>
      </g>
     </g>
     <g id="text_4">
      <!-- 15 -->
      <g transform="translate(249.740032 258.676562) scale(0.1 -0.1)">
       <use xlink:href="#DejaVuSans-31"/>
       <use xlink:href="#DejaVuSans-35" transform="translate(63.623047 0)"/>
      </g>
     </g>
    </g>
    <g id="xtick_5">
     <g id="line2d_9">
      <path d="M 317.991823 244.078125 
L 317.991823 22.318125 
" clip-path="url(#p3ea03b972f)" style="fill: none; stroke: #b0b0b0; stroke-opacity: 0.3; stroke-width: 0.8; stroke-linecap: square"/>
     </g>
     <g id="line2d_10">
      <g>
       <use xlink:href="#md7e1ff0c70" x="317.991823" y="244.078125" style="stroke: #000000; stroke-width: 0.8"/>
      </g>
     </g>
     <g id="text_5">
      <!-- 20 -->
      <g transform="translate(311.629323 258.676562) scale(0.1 -0.1)">
       <defs>
        <path id="DejaVuSans-32" d="M 1228 531 
L 3431 531 
L 3431 0 
L 469 0 
L 469 531 
Q 828 903 1448 1529 
Q 2069 2156 2228 2338 
Q 2531 2678 2651 2914 
Q 2772 3150 2772 3378 
Q 2772 3750 2511 3984 
Q 2250 4219 1831 4219 
Q 1534 4219 1204 4116 
Q 875 4013 500 3803 
L 500 4441 
Q 881 4594 1212 4672 
Q 1544 4750 1819 4750 
Q 2544 4750 2975 4387 
Q 3406 4025 3406 3419 
Q 3406 3131 3298 2873 
Q 3191 2616 2906 2266 
Q 2828 2175 2409 1742 
Q 1991 1309 1228 531 
z
" transform="scale(0.015625)"/>
       </defs>
       <use xlink:href="#DejaVuSans-32"/>
       <use xlink:href="#DejaVuSans-30" transform="translate(63.623047 0)"/>
      </g>
     </g>
    </g>
    <g id="xtick_6">
     <g id="line2d_11">
      <path d="M 379.881114 244.078125 
L 379.881114 22.318125 
" clip-path="url(#p3ea03b972f)" style="fill: none; stroke: #b0b0b0; stroke-opacity: 0.3; stroke-width: 0.8; stroke-linecap: square"/>
     </g>
     <g id="line2d_12">
      <g>
       <use xlink:href="#md7e1ff0c70" x="379.881114" y="244.078125" style="stroke: #000000; stroke-width: 0.8"/>
      </g>
     </g>
     <g id="text_6">
      <!-- 25 -->
      <g transform="translate(373.518614 258.676562) scale(0.1 -0.1)">
       <use xlink:href="#DejaVuSans-32"/>
       <use xlink:href="#DejaVuSans-35" transform="translate(63.623047 0)"/>
      </g>
     </g>
    </g>
    <g id="xtick_7">
     <g id="line2d_13">
      <path d="M 441.770405 244.078125 
L 441.770405 22.318125 
" clip-path="url(#p3ea03b972f)" style="fill: none; stroke: #b0b0b0; stroke-opacity: 0.3; stroke-width: 0.8; stroke-linecap: square"/>
     </g>
     <g id="line2d_14">
      <g>
       <use xlink:href="#md7e1ff0c70" x="441.770405" y="244.078125" style="stroke: #000000; stroke-width: 0.8"/>
      </g>
     </g>
     <g id="text_7">
      <!-- 30 -->
      <g transform="translate(435.407905 258.676562) scale(0.1 -0.1)">
       <defs>
        <path id="DejaVuSans-33" d="M 2597 2516 
Q 3050 2419 3304 2112 
Q 3559 1806 3559 1356 
Q 3559 666 3084 287 
Q 2609 -91 1734 -91 
Q 1441 -91 1130 -33 
Q 819 25 488 141 
L 488 750 
Q 750 597 1062 519 
Q 1375 441 1716 441 
Q 2309 441 2620 675 
Q 2931 909 2931 1356 
Q 2931 1769 2642 2001 
Q 2353 2234 1838 2234 
L 1294 2234 
L 1294 2753 
L 1863 2753 
Q 2328 2753 2575 2939 
Q 2822 3125 2822 3475 
Q 2822 3834 2567 4026 
Q 2313 4219 1838 4219 
Q 1578 4219 1281 4162 
Q 984 4106 628 3988 
L 628 4550 
Q 988 4650 1302 4700 
Q 1616 4750 1894 4750 
Q 2613 4750 3031 4423 
Q 3450 4097 3450 3541 
Q 3450 3153 3228 2886 
Q 3006 2619 2597 2516 
z
" transform="scale(0.015625)"/>
       </defs>
       <use xlink:href="#DejaVuSans-33"/>
       <use xlink:href="#DejaVuSans-30" transform="translate(63.623047 0)"/>
      </g>
     </g>
    </g>
    <g id="text_8">
     <!-- Durasi total -->
     <g transform="translate(244.189844 272.354687) scale(0.1 -0.1)">
      <defs>
       <path id="DejaVuSans-44" d="M 1259 4147 
L 1259 519 
L 2022 519 
Q 2988 519 3436 956 
Q 3884 1394 3884 2338 
Q 3884 3275 3436 3711 
Q 2988 4147 2022 4147 
L 1259 4147 
z
M 628 4666 
L 1925 4666 
Q 3281 4666 3915 4102 
Q 4550 3538 4550 2338 
Q 4550 1131 3912 565 
Q 3275 0 1925 0 
L 628 0 
L 628 4666 
z
" transform="scale(0.015625)"/>
       <path id="DejaVuSans-75" d="M 544 1381 
L 544 3500 
L 1119 3500 
L 1119 1403 
Q 1119 906 1312 657 
Q 1506 409 1894 409 
Q 2359 409 2629 706 
Q 2900 1003 2900 1516 
L 2900 3500 
L 3475 3500 
L 3475 0 
L 2900 0 
L 2900 538 
Q 2691 219 2414 64 
Q 2138 -91 1772 -91 
Q 1169 -91 856 284 
Q 544 659 544 1381 
z
M 1991 3584 
L 1991 3584 
z
" transform="scale(0.015625)"/>
       <path id="DejaVuSans-72" d="M 2631 2963 
Q 2534 3019 2420 3045 
Q 2306 3072 2169 3072 
Q 1681 3072 1420 2755 
Q 1159 2438 1159 1844 
L 1159 0 
L 581 0 
L 581 3500 
L 1159 3500 
L 1159 2956 
Q 1341 3275 1631 3429 
Q 1922 3584 2338 3584 
Q 2397 3584 2469 3576 
Q 2541 3569 2628 3553 
L 2631 2963 
z
" transform="scale(0.015625)"/>
       <path id="DejaVuSans-61" d="M 2194 1759 
Q 1497 1759 1228 1600 
Q 959 1441 959 1056 
Q 959 750 1161 570 
Q 1363 391 1709 391 
Q 2188 391 2477 730 
Q 2766 1069 2766 1631 
L 2766 1759 
L 2194 1759 
z
M 3341 1997 
L 3341 0 
L 2766 0 
L 2766 531 
Q 2569 213 2275 61 
Q 1981 -91 1556 -91 
Q 1019 -91 701 211 
Q 384 513 384 1019 
Q 384 1609 779 1909 
Q 1175 2209 1959 2209 
L 2766 2209 
L 2766 2266 
Q 2766 2663 2505 2880 
Q 2244 3097 1772 3097 
Q 1472 3097 1187 3025 
Q 903 2953 641 2809 
L 641 3341 
Q 956 3463 1253 3523 
Q 1550 3584 1831 3584 
Q 2591 3584 2966 3190 
Q 3341 2797 3341 1997 
z
" transform="scale(0.015625)"/>
       <path id="DejaVuSans-73" d="M 2834 3397 
L 2834 2853 
Q 2591 2978 2328 3040 
Q 2066 3103 1784 3103 
Q 1356 3103 1142 2972 
Q 928 2841 928 2578 
Q 928 2378 1081 2264 
Q 1234 2150 1697 2047 
L 1894 2003 
Q 2506 1872 2764 1633 
Q 3022 1394 3022 966 
Q 3022 478 2636 193 
Q 2250 -91 1575 -91 
Q 1294 -91 989 -36 
Q 684 19 347 128 
L 347 722 
Q 666 556 975 473 
Q 1284 391 1588 391 
Q 1994 391 2212 530 
Q 2431 669 2431 922 
Q 2431 1156 2273 1281 
Q 2116 1406 1581 1522 
L 1381 1569 
Q 847 1681 609 1914 
Q 372 2147 372 2553 
Q 372 3047 722 3315 
Q 1072 3584 1716 3584 
Q 2034 3584 2315 3537 
Q 2597 3491 2834 3397 
z
" transform="scale(0.015625)"/>
       <path id="DejaVuSans-69" d="M 603 3500 
L 1178 3500 
L 1178 0 
L 603 0 
L 603 3500 
z
M 603 4863 
L 1178 4863 
L 1178 4134 
L 603 4134 
L 603 4863 
z
" transform="scale(0.015625)"/>
       <path id="DejaVuSans-20" transform="scale(0.015625)"/>
       <path id="DejaVuSans-74" d="M 1172 4494 
L 1172 3500 
L 2356 3500 
L 2356 3053 
L 1172 3053 
L 1172 1153 
Q 1172 725 1289 603 
Q 1406 481 1766 481 
L 2356 481 
L 2356 0 
L 1766 0 
Q 1100 0 847 248 
Q 594 497 594 1153 
L 594 3053 
L 172 3053 
L 172 3500 
L 594 3500 
L 594 4494 
L 1172 4494 
z
" transform="scale(0.015625)"/>
       <path id="DejaVuSans-6f" d="M 1959 3097 
Q 1497 3097 1228 2736 
Q 959 2375 959 1747 
Q 959 1119 1226 758 
Q 1494 397 1959 397 
Q 2419 397 2687 759 
Q 2956 1122 2956 1747 
Q 2956 2369 2687 2733 
Q 2419 3097 1959 3097 
z
M 1959 3584 
Q 2709 3584 3137 3096 
Q 3566 2609 3566 1747 
Q 3566 888 3137 398 
Q 2709 -91 1959 -91 
Q 1206 -91 779 398 
Q 353 888 353 1747 
Q 353 2609 779 3096 
Q 1206 3584 1959 3584 
z
" transform="scale(0.015625)"/>
       <path id="DejaVuSans-6c" d="M 603 4863 
L 1178 4863 
L 1178 0 
L 603 0 
L 603 4863 
z
" transform="scale(0.015625)"/>
      </defs>
      <use xlink:href="#DejaVuSans-44"/>
      <use xlink:href="#DejaVuSans-75" transform="translate(77.001953 0)"/>
      <use xlink:href="#DejaVuSans-72" transform="translate(140.380859 0)"/>
      <use xlink:href="#DejaVuSans-61" transform="translate(181.494141 0)"/>
      <use xlink:href="#DejaVuSans-73" transform="translate(242.773438 0)"/>
      <use xlink:href="#DejaVuSans-69" transform="translate(294.873047 0)"/>
      <use xlink:href="#DejaVuSans-20" transform="translate(322.65625 0)"/>
      <use xlink:href="#DejaVuSans-74" transform="translate(354.443359 0)"/>
      <use xlink:href="#DejaVuSans-6f" transform="translate(393.652344 0)"/>
      <use xlink:href="#DejaVuSans-74" transform="translate(454.833984 0)"/>
      <use xlink:href="#DejaVuSans-61" transform="translate(494.042969 0)"/>
      <use xlink:href="#DejaVuSans-6c" transform="translate(555.322266 0)"/>
     </g>
    </g>
   </g>
   <g id="matplotlib.axis_2">
    <g id="ytick_1">
     <g id="line2d_15">
      <path d="M 50.14375 244.078125 
L 496.54375 244.078125 
" clip-path="url(#p3ea03b972f)" style="fill: none; stroke: #b0b0b0; stroke-opacity: 0.3; stroke-width: 0.8; stroke-linecap: square"/>
     </g>
     <g id="line2d_16">
      <defs>
       <path id="m0923a7763b" d="M 0 0 
L -3.5 0 
" style="stroke: #000000; stroke-width: 0.8"/>
      </defs>
      <g>
       <use xlink:href="#m0923a7763b" x="50.14375" y="244.078125" style="stroke: #000000; stroke-width: 0.8"/>
      </g>
     </g>
     <g id="text_9">
      <!-- 0.00 -->
      <g transform="translate(20.878125 247.877344) scale(0.1 -0.1)">
       <defs>
        <path id="DejaVuSans-2e" d="M 684 794 
L 1344 794 
L 1344 0 
L 684 0 
L 684 794 
z
" transform="scale(0.015625)"/>
       </defs>
       <use xlink:href="#DejaVuSans-30"/>
       <use xlink:href="#DejaVuSans-2e" transform="translate(63.623047 0)"/>
       <use xlink:href="#DejaVuSans-30" transform="translate(95.410156 0)"/>
       <use xlink:href="#DejaVuSans-30" transform="translate(159.033203 0)"/>
      </g>
     </g>
    </g>
    <g id="ytick_2">
     <g id="line2d_17">
      <path d="M 50.14375 212.891123 
L 496.54375 212.891123 
" clip-path="url(#p3ea03b972f)" style="fill: none; stroke: #b0b0b0; stroke-opacity: 0.3; stroke-width: 0.8; stroke-linecap: square"/>
     </g>
     <g id="line2d_18">
      <g>
       <use xlink:href="#m0923a7763b" x="50.14375" y="212.891123" style="stroke: #000000; stroke-width: 0.8"/>
      </g>
     </g>
     <g id="text_10">
      <!-- 0.02 -->
      <g transform="translate(20.878125 216.690342) scale(0.1 -0.1)">
       <use xlink:href="#DejaVuSans-30"/>
       <use xlink:href="#DejaVuSans-2e" transform="translate(63.623047 0)"/>
       <use xlink:href="#DejaVuSans-30" transform="translate(95.410156 0)"/>
       <use xlink:href="#DejaVuSans-32" transform="translate(159.033203 0)"/>
      </g>
     </g>
    </g>
    <g id="ytick_3">
     <g id="line2d_19">
      <path d="M 50.14375 181.704121 
L 496.54375 181.704121 
" clip-path="url(#p3ea03b972f)" style="fill: none; stroke: #b0b0b0; stroke-opacity: 0.3; stroke-width: 0.8; stroke-linecap: square"/>
     </g>
     <g id="line2d_20">
      <g>
       <use xlink:href="#m0923a7763b" x="50.14375" y="181.704121" style="stroke: #000000; stroke-width: 0.8"/>
      </g>
     </g>
     <g id="text_11">
      <!-- 0.04 -->
      <g transform="translate(20.878125 185.50334) scale(0.1 -0.1)">
       <defs>
        <path id="DejaVuSans-34" d="M 2419 4116 
L 825 1625 
L 2419 1625 
L 2419 4116 
z
M 2253 4666 
L 3047 4666 
L 3047 1625 
L 3713 1625 
L 3713 1100 
L 3047 1100 
L 3047 0 
L 2419 0 
L 2419 1100 
L 313 1100 
L 313 1709 
L 2253 4666 
z
" transform="scale(0.015625)"/>
       </defs>
       <use xlink:href="#DejaVuSans-30"/>
       <use xlink:href="#DejaVuSans-2e" transform="translate(63.623047 0)"/>
       <use xlink:href="#DejaVuSans-30" transform="translate(95.410156 0)"/>
       <use xlink:href="#DejaVuSans-34" transform="translate(159.033203 0)"/>
      </g>
     </g>
    </g>
    <g id="ytick_4">
     <g id="line2d_21">
      <path d="M 50.14375 150.517119 
L 496.54375 150.517119 
" clip-path="url(#p3ea03b972f)" style="fill: none; stroke: #b0b0b0; stroke-opacity: 0.3; stroke-width: 0.8; stroke-linecap: square"/>
     </g>
     <g id="line2d_22">
      <g>
       <use xlink:href="#m0923a7763b" x="50.14375" y="150.517119" style="stroke: #000000; stroke-width: 0.8"/>
      </g>
     </g>
     <g id="text_12">
      <!-- 0.06 -->
      <g transform="translate(20.878125 154.316338) scale(0.1 -0.1)">
       <defs>
        <path id="DejaVuSans-36" d="M 2113 2584 
Q 1688 2584 1439 2293 
Q 1191 2003 1191 1497 
Q 1191 994 1439 701 
Q 1688 409 2113 409 
Q 2538 409 2786 701 
Q 3034 994 3034 1497 
Q 3034 2003 2786 2293 
Q 2538 2584 2113 2584 
z
M 3366 4563 
L 3366 3988 
Q 3128 4100 2886 4159 
Q 2644 4219 2406 4219 
Q 1781 4219 1451 3797 
Q 1122 3375 1075 2522 
Q 1259 2794 1537 2939 
Q 1816 3084 2150 3084 
Q 2853 3084 3261 2657 
Q 3669 2231 3669 1497 
Q 3669 778 3244 343 
Q 2819 -91 2113 -91 
Q 1303 -91 875 529 
Q 447 1150 447 2328 
Q 447 3434 972 4092 
Q 1497 4750 2381 4750 
Q 2619 4750 2861 4703 
Q 3103 4656 3366 4563 
z
" transform="scale(0.015625)"/>
       </defs>
       <use xlink:href="#DejaVuSans-30"/>
       <use xlink:href="#DejaVuSans-2e" transform="translate(63.623047 0)"/>
       <use xlink:href="#DejaVuSans-30" transform="translate(95.410156 0)"/>
       <use xlink:href="#DejaVuSans-36" transform="translate(159.033203 0)"/>
      </g>
     </g>
    </g>
    <g id="ytick_5">
     <g id="line2d_23">
      <path d="M 50.14375 119.330117 
L 496.54375 119.330117 
" clip-path="url(#p3ea03b972f)" style="fill: none; stroke: #b0b0b0; stroke-opacity: 0.3; stroke-width: 0.8; stroke-linecap: square"/>
     </g>
     <g id="line2d_24">
      <g>
       <use xlink:href="#m0923a7763b" x="50.14375" y="119.330117" style="stroke: #000000; stroke-width: 0.8"/>
      </g>
     </g>
     <g id="text_13">
      <!-- 0.08 -->
      <g transform="translate(20.878125 123.129336) scale(0.1 -0.1)">
       <defs>
        <path id="DejaVuSans-38" d="M 2034 2216 
Q 1584 2216 1326 1975 
Q 1069 1734 1069 1313 
Q 1069 891 1326 650 
Q 1584 409 2034 409 
Q 2484 409 2743 651 
Q 3003 894 3003 1313 
Q 3003 1734 2745 1975 
Q 2488 2216 2034 2216 
z
M 1403 2484 
Q 997 2584 770 2862 
Q 544 3141 544 3541 
Q 544 4100 942 4425 
Q 1341 4750 2034 4750 
Q 2731 4750 3128 4425 
Q 3525 4100 3525 3541 
Q 3525 3141 3298 2862 
Q 3072 2584 2669 2484 
Q 3125 2378 3379 2068 
Q 3634 1759 3634 1313 
Q 3634 634 3220 271 
Q 2806 -91 2034 -91 
Q 1263 -91 848 271 
Q 434 634 434 1313 
Q 434 1759 690 2068 
Q 947 2378 1403 2484 
z
M 1172 3481 
Q 1172 3119 1398 2916 
Q 1625 2713 2034 2713 
Q 2441 2713 2670 2916 
Q 2900 3119 2900 3481 
Q 2900 3844 2670 4047 
Q 2441 4250 2034 4250 
Q 1625 4250 1398 4047 
Q 1172 3844 1172 3481 
z
" transform="scale(0.015625)"/>
       </defs>
       <use xlink:href="#DejaVuSans-30"/>
       <use xlink:href="#DejaVuSans-2e" transform="translate(63.623047 0)"/>
       <use xlink:href="#DejaVuSans-30" transform="translate(95.410156 0)"/>
       <use xlink:href="#DejaVuSans-38" transform="translate(159.033203 0)"/>
      </g>
     </g>
    </g>
    <g id="ytick_6">
     <g id="line2d_25">
      <path d="M 50.14375 88.143115 
L 496.54375 88.143115 
" clip-path="url(#p3ea03b972f)" style="fill: none; stroke: #b0b0b0; stroke-opacity: 0.3; stroke-width: 0.8; stroke-linecap: square"/>
     </g>
     <g id="line2d_26">
      <g>
       <use xlink:href="#m0923a7763b" x="50.14375" y="88.143115" style="stroke: #000000; stroke-width: 0.8"/>
      </g>
     </g>
     <g id="text_14">
      <!-- 0.10 -->
      <g transform="translate(20.878125 91.942334) scale(0.1 -0.1)">
       <use xlink:href="#DejaVuSans-30"/>
       <use xlink:href="#DejaVuSans-2e" transform="translate(63.623047 0)"/>
       <use xlink:href="#DejaVuSans-31" transform="translate(95.410156 0)"/>
       <use xlink:href="#DejaVuSans-30" transform="translate(159.033203 0)"/>
      </g>
     </g>
    </g>
    <g id="ytick_7">
     <g id="line2d_27">
      <path d="M 50.14375 56.956114 
L 496.54375 56.956114 
" clip-path="url(#p3ea03b972f)" style="fill: none; stroke: #b0b0b0; stroke-opacity: 0.3; stroke-width: 0.8; stroke-linecap: square"/>
     </g>
     <g id="line2d_28">
      <g>
       <use xlink:href="#m0923a7763b" x="50.14375" y="56.956114" style="stroke: #000000; stroke-width: 0.8"/>
      </g>
     </g>
     <g id="text_15">
      <!-- 0.12 -->
      <g transform="translate(20.878125 60.755332) scale(0.1 -0.1)">
       <use xlink:href="#DejaVuSans-30"/>
       <use xlink:href="#DejaVuSans-2e" transform="translate(63.623047 0)"/>
       <use xlink:href="#DejaVuSans-31" transform="translate(95.410156 0)"/>
       <use xlink:href="#DejaVuSans-32" transform="translate(159.033203 0)"/>
      </g>
     </g>
    </g>
    <g id="ytick_8">
     <g id="line2d_29">
      <path d="M 50.14375 25.769112 
L 496.54375 25.769112 
" clip-path="url(#p3ea03b972f)" style="fill: none; stroke: #b0b0b0; stroke-opacity: 0.3; stroke-width: 0.8; stroke-linecap: square"/>
     </g>
     <g id="line2d_30">
      <g>
       <use xlink:href="#m0923a7763b" x="50.14375" y="25.769112" style="stroke: #000000; stroke-width: 0.8"/>
      </g>
     </g>
     <g id="text_16">
      <!-- 0.14 -->
      <g transform="translate(20.878125 29.56833) scale(0.1 -0.1)">
       <use xlink:href="#DejaVuSans-30"/>
       <use xlink:href="#DejaVuSans-2e" transform="translate(63.623047 0)"/>
       <use xlink:href="#DejaVuSans-31" transform="translate(95.410156 0)"/>
       <use xlink:href="#DejaVuSans-34" transform="translate(159.033203 0)"/>
      </g>
     </g>
    </g>
    <g id="text_17">
     <!-- Density -->
     <g transform="translate(14.798437 152.206719) rotate(-90) scale(0.1 -0.1)">
      <defs>
       <path id="DejaVuSans-65" d="M 3597 1894 
L 3597 1613 
L 953 1613 
Q 991 1019 1311 708 
Q 1631 397 2203 397 
Q 2534 397 2845 478 
Q 3156 559 3463 722 
L 3463 178 
Q 3153 47 2828 -22 
Q 2503 -91 2169 -91 
Q 1331 -91 842 396 
Q 353 884 353 1716 
Q 353 2575 817 3079 
Q 1281 3584 2069 3584 
Q 2775 3584 3186 3129 
Q 3597 2675 3597 1894 
z
M 3022 2063 
Q 3016 2534 2758 2815 
Q 2500 3097 2075 3097 
Q 1594 3097 1305 2825 
Q 1016 2553 972 2059 
L 3022 2063 
z
" transform="scale(0.015625)"/>
       <path id="DejaVuSans-6e" d="M 3513 2113 
L 3513 0 
L 2938 0 
L 2938 2094 
Q 2938 2591 2744 2837 
Q 2550 3084 2163 3084 
Q 1697 3084 1428 2787 
Q 1159 2491 1159 1978 
L 1159 0 
L 581 0 
L 581 3500 
L 1159 3500 
L 1159 2956 
Q 1366 3272 1645 3428 
Q 1925 3584 2291 3584 
Q 2894 3584 3203 3211 
Q 3513 2838 3513 2113 
z
" transform="scale(0.015625)"/>
       <path id="DejaVuSans-79" d="M 2059 -325 
Q 1816 -950 1584 -1140 
Q 1353 -1331 966 -1331 
L 506 -1331 
L 506 -850 
L 844 -850 
Q 1081 -850 1212 -737 
Q 1344 -625 1503 -206 
L 1606 56 
L 191 3500 
L 800 3500 
L 1894 763 
L 2988 3500 
L 3597 3500 
L 2059 -325 
z
" transform="scale(0.015625)"/>
      </defs>
      <use xlink:href="#DejaVuSans-44"/>
      <use xlink:href="#DejaVuSans-65" transform="translate(77.001953 0)"/>
      <use xlink:href="#DejaVuSans-6e" transform="translate(138.525391 0)"/>
      <use xlink:href="#DejaVuSans-73" transform="translate(201.904297 0)"/>
      <use xlink:href="#DejaVuSans-69" transform="translate(254.003906 0)"/>
      <use xlink:href="#DejaVuSans-74" transform="translate(281.787109 0)"/>
      <use xlink:href="#DejaVuSans-79" transform="translate(320.996094 0)"/>
     </g>
    </g>
   </g>
   <g id="line2d_31">
    <path d="M 70.434659 244.078125 
L 71.007664 243.874047 
L 71.580668 243.28049 
L 72.153673 242.324509 
L 72.726678 241.031917 
L 73.872687 237.534213 
L 75.018696 232.970781 
L 76.164706 227.508008 
L 77.88372 217.953186 
L 80.175738 203.353501 
L 83.040761 183.328595 
L 90.489822 130.275234 
L 93.354845 111.681927 
L 95.646864 98.044945 
L 97.938882 85.654727 
L 100.230901 74.591982 
L 101.949915 67.191139 
L 103.668929 60.564005 
L 105.387943 54.705952 
L 107.106957 49.605071 
L 108.825971 45.243467 
L 110.544985 41.598394 
L 112.263999 38.643241 
L 113.410008 37.041906 
L 114.556017 35.72473 
L 115.702027 34.681999 
L 116.848036 33.90372 
L 117.994045 33.379693 
L 119.140054 33.099576 
L 120.286064 33.052943 
L 121.432073 33.229331 
L 122.578082 33.618291 
L 123.724092 34.209429 
L 124.870101 34.992436 
L 126.589115 36.504465 
L 128.308129 38.391603 
L 130.027143 40.621067 
L 131.746157 43.16115 
L 134.038175 46.978548 
L 136.330194 51.225269 
L 139.195217 57.039539 
L 142.633245 64.606499 
L 146.644278 74.022249 
L 152.374324 88.109557 
L 164.980427 119.287625 
L 170.137468 131.399609 
L 174.721506 141.638798 
L 179.305543 151.307078 
L 183.316575 159.263379 
L 187.327608 166.733008 
L 191.338641 173.710786 
L 195.349673 180.199897 
L 199.360706 186.210113 
L 202.798734 190.9917 
L 206.236761 195.443878 
L 209.674789 199.579761 
L 213.112817 203.413556 
L 216.550845 206.960188 
L 220.561878 210.755461 
L 224.57291 214.205366 
L 228.583943 217.334357 
L 232.594975 220.166397 
L 236.606008 222.72469 
L 240.617041 225.031488 
L 244.628073 227.107954 
L 249.21211 229.224599 
L 253.796147 231.09433 
L 258.953189 232.934603 
L 264.110231 234.528352 
L 269.840278 236.04666 
L 275.570324 237.334724 
L 281.873375 238.524328 
L 288.749431 239.593159 
L 296.198492 240.528182 
L 299.063515 240.835378 
L 299.063515 240.835378 
" clip-path="url(#p3ea03b972f)" style="fill: none; stroke: #ff7f0e; stroke-width: 1.5; stroke-linecap: square"/>
   </g>
   <g id="patch_63">
    <path d="M 50.14375 244.078125 
L 50.14375 22.318125 
" style="fill: none; stroke: #000000; stroke-width: 0.8; stroke-linejoin: miter; stroke-linecap: square"/>
   </g>
   <g id="patch_64">
    <path d="M 496.54375 244.078125 
L 496.54375 22.318125 
" style="fill: none; stroke: #000000; stroke-width: 0.8; stroke-linejoin: miter; stroke-linecap: square"/>
   </g>
   <g id="patch_65">
    <path d="M 50.14375 244.078125 
L 496.54375 244.078125 
" style="fill: none; stroke: #000000; stroke-width: 0.8; stroke-linejoin: miter; stroke-linecap: square"/>
   </g>
   <g id="patch_66">
    <path d="M 50.14375 22.318125 
L 496.54375 22.318125 
" style="fill: none; stroke: #000000; stroke-width: 0.8; stroke-linejoin: miter; stroke-linecap: square"/>
   </g>
   <g id="text_18">
    <!-- Jumlah 3 Exponential iid menghasilkan Erlang-3 -->
    <g transform="translate(129.672812 16.318125) scale(0.12 -0.12)">
     <defs>
      <path id="DejaVuSans-4a" d="M 628 4666 
L 1259 4666 
L 1259 325 
Q 1259 -519 939 -900 
Q 619 -1281 -91 -1281 
L -331 -1281 
L -331 -750 
L -134 -750 
Q 284 -750 456 -515 
Q 628 -281 628 325 
L 628 4666 
z
" transform="scale(0.015625)"/>
      <path id="DejaVuSans-6d" d="M 3328 2828 
Q 3544 3216 3844 3400 
Q 4144 3584 4550 3584 
Q 5097 3584 5394 3201 
Q 5691 2819 5691 2113 
L 5691 0 
L 5113 0 
L 5113 2094 
Q 5113 2597 4934 2840 
Q 4756 3084 4391 3084 
Q 3944 3084 3684 2787 
Q 3425 2491 3425 1978 
L 3425 0 
L 2847 0 
L 2847 2094 
Q 2847 2600 2669 2842 
Q 2491 3084 2119 3084 
Q 1678 3084 1418 2786 
Q 1159 2488 1159 1978 
L 1159 0 
L 581 0 
L 581 3500 
L 1159 3500 
L 1159 2956 
Q 1356 3278 1631 3431 
Q 1906 3584 2284 3584 
Q 2666 3584 2933 3390 
Q 3200 3197 3328 2828 
z
" transform="scale(0.015625)"/>
      <path id="DejaVuSans-68" d="M 3513 2113 
L 3513 0 
L 2938 0 
L 2938 2094 
Q 2938 2591 2744 2837 
Q 2550 3084 2163 3084 
Q 1697 3084 1428 2787 
Q 1159 2491 1159 1978 
L 1159 0 
L 581 0 
L 581 4863 
L 1159 4863 
L 1159 2956 
Q 1366 3272 1645 3428 
Q 1925 3584 2291 3584 
Q 2894 3584 3203 3211 
Q 3513 2838 3513 2113 
z
" transform="scale(0.015625)"/>
      <path id="DejaVuSans-45" d="M 628 4666 
L 3578 4666 
L 3578 4134 
L 1259 4134 
L 1259 2753 
L 3481 2753 
L 3481 2222 
L 1259 2222 
L 1259 531 
L 3634 531 
L 3634 0 
L 628 0 
L 628 4666 
z
" transform="scale(0.015625)"/>
      <path id="DejaVuSans-78" d="M 3513 3500 
L 2247 1797 
L 3578 0 
L 2900 0 
L 1881 1375 
L 863 0 
L 184 0 
L 1544 1831 
L 300 3500 
L 978 3500 
L 1906 2253 
L 2834 3500 
L 3513 3500 
z
" transform="scale(0.015625)"/>
      <path id="DejaVuSans-70" d="M 1159 525 
L 1159 -1331 
L 581 -1331 
L 581 3500 
L 1159 3500 
L 1159 2969 
Q 1341 3281 1617 3432 
Q 1894 3584 2278 3584 
Q 2916 3584 3314 3078 
Q 3713 2572 3713 1747 
Q 3713 922 3314 415 
Q 2916 -91 2278 -91 
Q 1894 -91 1617 61 
Q 1341 213 1159 525 
z
M 3116 1747 
Q 3116 2381 2855 2742 
Q 2594 3103 2138 3103 
Q 1681 3103 1420 2742 
Q 1159 2381 1159 1747 
Q 1159 1113 1420 752 
Q 1681 391 2138 391 
Q 2594 391 2855 752 
Q 3116 1113 3116 1747 
z
" transform="scale(0.015625)"/>
      <path id="DejaVuSans-64" d="M 2906 2969 
L 2906 4863 
L 3481 4863 
L 3481 0 
L 2906 0 
L 2906 525 
Q 2725 213 2448 61 
Q 2172 -91 1784 -91 
Q 1150 -91 751 415 
Q 353 922 353 1747 
Q 353 2572 751 3078 
Q 1150 3584 1784 3584 
Q 2172 3584 2448 3432 
Q 2725 3281 2906 2969 
z
M 947 1747 
Q 947 1113 1208 752 
Q 1469 391 1925 391 
Q 2381 391 2643 752 
Q 2906 1113 2906 1747 
Q 2906 2381 2643 2742 
Q 2381 3103 1925 3103 
Q 1469 3103 1208 2742 
Q 947 2381 947 1747 
z
" transform="scale(0.015625)"/>
      <path id="DejaVuSans-67" d="M 2906 1791 
Q 2906 2416 2648 2759 
Q 2391 3103 1925 3103 
Q 1463 3103 1205 2759 
Q 947 2416 947 1791 
Q 947 1169 1205 825 
Q 1463 481 1925 481 
Q 2391 481 2648 825 
Q 2906 1169 2906 1791 
z
M 3481 434 
Q 3481 -459 3084 -895 
Q 2688 -1331 1869 -1331 
Q 1566 -1331 1297 -1286 
Q 1028 -1241 775 -1147 
L 775 -588 
Q 1028 -725 1275 -790 
Q 1522 -856 1778 -856 
Q 2344 -856 2625 -561 
Q 2906 -266 2906 331 
L 2906 616 
Q 2728 306 2450 153 
Q 2172 0 1784 0 
Q 1141 0 747 490 
Q 353 981 353 1791 
Q 353 2603 747 3093 
Q 1141 3584 1784 3584 
Q 2172 3584 2450 3431 
Q 2728 3278 2906 2969 
L 2906 3500 
L 3481 3500 
L 3481 434 
z
" transform="scale(0.015625)"/>
      <path id="DejaVuSans-6b" d="M 581 4863 
L 1159 4863 
L 1159 1991 
L 2875 3500 
L 3609 3500 
L 1753 1863 
L 3688 0 
L 2938 0 
L 1159 1709 
L 1159 0 
L 581 0 
L 581 4863 
z
" transform="scale(0.015625)"/>
      <path id="DejaVuSans-2d" d="M 313 2009 
L 1997 2009 
L 1997 1497 
L 313 1497 
L 313 2009 
z
" transform="scale(0.015625)"/>
     </defs>
     <use xlink:href="#DejaVuSans-4a"/>
     <use xlink:href="#DejaVuSans-75" transform="translate(29.492188 0)"/>
     <use xlink:href="#DejaVuSans-6d" transform="translate(92.871094 0)"/>
     <use xlink:href="#DejaVuSans-6c" transform="translate(190.283203 0)"/>
     <use xlink:href="#DejaVuSans-61" transform="translate(218.066406 0)"/>
     <use xlink:href="#DejaVuSans-68" transform="translate(279.345703 0)"/>
     <use xlink:href="#DejaVuSans-20" transform="translate(342.724609 0)"/>
     <use xlink:href="#DejaVuSans-33" transform="translate(374.511719 0)"/>
     <use xlink:href="#DejaVuSans-20" transform="translate(438.134766 0)"/>
     <use xlink:href="#DejaVuSans-45" transform="translate(469.921875 0)"/>
     <use xlink:href="#DejaVuSans-78" transform="translate(533.105469 0)"/>
     <use xlink:href="#DejaVuSans-70" transform="translate(592.285156 0)"/>
     <use xlink:href="#DejaVuSans-6f" transform="translate(655.761719 0)"/>
     <use xlink:href="#DejaVuSans-6e" transform="translate(716.943359 0)"/>
     <use xlink:href="#DejaVuSans-65" transform="translate(780.322266 0)"/>
     <use xlink:href="#DejaVuSans-6e" transform="translate(841.845703 0)"/>
     <use xlink:href="#DejaVuSans-74" transform="translate(905.224609 0)"/>
     <use xlink:href="#DejaVuSans-69" transform="translate(944.433594 0)"/>
     <use xlink:href="#DejaVuSans-61" transform="translate(972.216797 0)"/>
     <use xlink:href="#DejaVuSans-6c" transform="translate(1033.496094 0)"/>
     <use xlink:href="#DejaVuSans-20" transform="translate(1061.279297 0)"/>
     <use xlink:href="#DejaVuSans-69" transform="translate(1093.066406 0)"/>
     <use xlink:href="#DejaVuSans-69" transform="translate(1120.849609 0)"/>
     <use xlink:href="#DejaVuSans-64" transform="translate(1148.632812 0)"/>
     <use xlink:href="#DejaVuSans-20" transform="translate(1212.109375 0)"/>
     <use xlink:href="#DejaVuSans-6d" transform="translate(1243.896484 0)"/>
     <use xlink:href="#DejaVuSans-65" transform="translate(1341.308594 0)"/>
     <use xlink:href="#DejaVuSans-6e" transform="translate(1402.832031 0)"/>
     <use xlink:href="#DejaVuSans-67" transform="translate(1466.210938 0)"/>
     <use xlink:href="#DejaVuSans-68" transform="translate(1529.6875 0)"/>
     <use xlink:href="#DejaVuSans-61" transform="translate(1593.066406 0)"/>
     <use xlink:href="#DejaVuSans-73" transform="translate(1654.345703 0)"/>
     <use xlink:href="#DejaVuSans-69" transform="translate(1706.445312 0)"/>
     <use xlink:href="#DejaVuSans-6c" transform="translate(1734.228516 0)"/>
     <use xlink:href="#DejaVuSans-6b" transform="translate(1762.011719 0)"/>
     <use xlink:href="#DejaVuSans-61" transform="translate(1818.171875 0)"/>
     <use xlink:href="#DejaVuSans-6e" transform="translate(1879.451172 0)"/>
     <use xlink:href="#DejaVuSans-20" transform="translate(1942.830078 0)"/>
     <use xlink:href="#DejaVuSans-45" transform="translate(1974.617188 0)"/>
     <use xlink:href="#DejaVuSans-72" transform="translate(2037.800781 0)"/>
     <use xlink:href="#DejaVuSans-6c" transform="translate(2078.914062 0)"/>
     <use xlink:href="#DejaVuSans-61" transform="translate(2106.697266 0)"/>
     <use xlink:href="#DejaVuSans-6e" transform="translate(2167.976562 0)"/>
     <use xlink:href="#DejaVuSans-67" transform="translate(2231.355469 0)"/>
     <use xlink:href="#DejaVuSans-2d" transform="translate(2294.832031 0)"/>
     <use xlink:href="#DejaVuSans-33" transform="translate(2330.916016 0)"/>
    </g>
   </g>
   <g id="legend_1">
    <g id="patch_67">
     <path d="M 392.892187 59.674375 
L 489.54375 59.674375 
Q 491.54375 59.674375 491.54375 57.674375 
L 491.54375 29.318125 
Q 491.54375 27.318125 489.54375 27.318125 
L 392.892187 27.318125 
Q 390.892187 27.318125 390.892187 29.318125 
L 390.892187 57.674375 
Q 390.892187 59.674375 392.892187 59.674375 
z
" style="fill: #ffffff; opacity: 0.8; stroke: #cccccc; stroke-linejoin: miter"/>
    </g>
    <g id="patch_68">
     <path d="M 394.892187 38.916562 
L 414.892187 38.916562 
L 414.892187 31.916562 
L 394.892187 31.916562 
z
" style="fill: #1f77b4; opacity: 0.6"/>
    </g>
    <g id="text_19">
     <!-- Monte Carlo -->
     <g transform="translate(422.892187 38.916562) scale(0.1 -0.1)">
      <defs>
       <path id="DejaVuSans-4d" d="M 628 4666 
L 1569 4666 
L 2759 1491 
L 3956 4666 
L 4897 4666 
L 4897 0 
L 4281 0 
L 4281 4097 
L 3078 897 
L 2444 897 
L 1241 4097 
L 1241 0 
L 628 0 
L 628 4666 
z
" transform="scale(0.015625)"/>
       <path id="DejaVuSans-43" d="M 4122 4306 
L 4122 3641 
Q 3803 3938 3442 4084 
Q 3081 4231 2675 4231 
Q 1875 4231 1450 3742 
Q 1025 3253 1025 2328 
Q 1025 1406 1450 917 
Q 1875 428 2675 428 
Q 3081 428 3442 575 
Q 3803 722 4122 1019 
L 4122 359 
Q 3791 134 3420 21 
Q 3050 -91 2638 -91 
Q 1578 -91 968 557 
Q 359 1206 359 2328 
Q 359 3453 968 4101 
Q 1578 4750 2638 4750 
Q 3056 4750 3426 4639 
Q 3797 4528 4122 4306 
z
" transform="scale(0.015625)"/>
      </defs>
      <use xlink:href="#DejaVuSans-4d"/>
      <use xlink:href="#DejaVuSans-6f" transform="translate(86.279297 0)"/>
      <use xlink:href="#DejaVuSans-6e" transform="translate(147.460938 0)"/>
      <use xlink:href="#DejaVuSans-74" transform="translate(210.839844 0)"/>
      <use xlink:href="#DejaVuSans-65" transform="translate(250.048828 0)"/>
      <use xlink:href="#DejaVuSans-20" transform="translate(311.572266 0)"/>
      <use xlink:href="#DejaVuSans-43" transform="translate(343.359375 0)"/>
      <use xlink:href="#DejaVuSans-61" transform="translate(413.183594 0)"/>
      <use xlink:href="#DejaVuSans-72" transform="translate(474.462891 0)"/>
      <use xlink:href="#DejaVuSans-6c" transform="translate(515.576172 0)"/>
      <use xlink:href="#DejaVuSans-6f" transform="translate(543.359375 0)"/>
     </g>
    </g>
    <g id="line2d_32">
     <path d="M 394.892187 50.094687 
L 404.892187 50.094687 
L 414.892187 50.094687 
" style="fill: none; stroke: #ff7f0e; stroke-width: 1.5; stroke-linecap: square"/>
    </g>
    <g id="text_20">
     <!-- PDF Erlang-3 -->
     <g transform="translate(422.892187 53.594687) scale(0.1 -0.1)">
      <defs>
       <path id="DejaVuSans-50" d="M 1259 4147 
L 1259 2394 
L 2053 2394 
Q 2494 2394 2734 2622 
Q 2975 2850 2975 3272 
Q 2975 3691 2734 3919 
Q 2494 4147 2053 4147 
L 1259 4147 
z
M 628 4666 
L 2053 4666 
Q 2838 4666 3239 4311 
Q 3641 3956 3641 3272 
Q 3641 2581 3239 2228 
Q 2838 1875 2053 1875 
L 1259 1875 
L 1259 0 
L 628 0 
L 628 4666 
z
" transform="scale(0.015625)"/>
       <path id="DejaVuSans-46" d="M 628 4666 
L 3309 4666 
L 3309 4134 
L 1259 4134 
L 1259 2759 
L 3109 2759 
L 3109 2228 
L 1259 2228 
L 1259 0 
L 628 0 
L 628 4666 
z
" transform="scale(0.015625)"/>
      </defs>
      <use xlink:href="#DejaVuSans-50"/>
      <use xlink:href="#DejaVuSans-44" transform="translate(60.302734 0)"/>
      <use xlink:href="#DejaVuSans-46" transform="translate(137.304688 0)"/>
      <use xlink:href="#DejaVuSans-20" transform="translate(194.824219 0)"/>
      <use xlink:href="#DejaVuSans-45" transform="translate(226.611328 0)"/>
      <use xlink:href="#DejaVuSans-72" transform="translate(289.794922 0)"/>
      <use xlink:href="#DejaVuSans-6c" transform="translate(330.908203 0)"/>
      <use xlink:href="#DejaVuSans-61" transform="translate(358.691406 0)"/>
      <use xlink:href="#DejaVuSans-6e" transform="translate(419.970703 0)"/>
      <use xlink:href="#DejaVuSans-67" transform="translate(483.349609 0)"/>
      <use xlink:href="#DejaVuSans-2d" transform="translate(546.826172 0)"/>
      <use xlink:href="#DejaVuSans-33" transform="translate(582.910156 0)"/>
     </g>
    </g>
   </g>
  </g>
 </g>
 <defs>
  <clipPath id="p3ea03b972f">
   <rect x="50.14375" y="22.318125" width="446.4" height="221.76"/>
  </clipPath>
 </defs>
</svg>
