<?xml version="1.0" encoding="utf-8" standalone="no"?>
<!DOCTYPE svg PUBLIC "-//W3C//DTD SVG 1.1//EN"
  "http://www.w3.org/Graphics/SVG/1.1/DTD/svg11.dtd">
<svg xmlns:xlink="http://www.w3.org/1999/xlink" width="497.38125pt" height="281.634375pt" viewBox="0 0 497.38125 281.634375" xmlns="http://www.w3.org/2000/svg" version="1.1">
 <metadata>
  <rdf:RDF xmlns:dc="http://purl.org/dc/elements/1.1/" xmlns:cc="http://creativecommons.org/ns#" xmlns:rdf="http://www.w3.org/1999/02/22-rdf-syntax-ns#">
   <cc:Work>
    <dc:type rdf:resource="http://purl.org/dc/dcmitype/StillImage"/>
    <dc:date>2026-03-30T14:07:54.300017</dc:date>
    <dc:format>image/svg+xml</dc:format>
    <dc:creator>
     <cc:Agent>
      <dc:title>Matplotlib v3.10.8, https://matplotlib.org/</dc:title>
     </cc:Agent>
    </dc:creator>
   </cc:Work>
  </rdf:RDF>
 </metadata>
 <defs>
  <style type="text/css">*{stroke-linejoin: round; stroke-linecap: butt}</style>
 </defs>
 <g id="figure_1">
  <g id="patch_1">
   <path d="M 0 281.634375 
L 497.38125 281.634375 
L 497.38125 0 
L 0 0 
z
" style="fill: #ffffff"/>
  </g>
  <g id="axes_1">
   <g id="patch_2">
    <path d="M 43.78125 244.078125 
L 490.18125 244.078125 
L 490.18125 22.318125 
L 43.78125 22.318125 
z
" style="fill: #ffffff"/>
   </g>
   <g id="FillBetweenPolyCollection_1">
    <path d="M 181.037299 32.398125 
L 181.037299 233.998125 
L 182.054387 233.998125 
L 183.071476 233.998125 
L 184.088564 233.998125 
L 185.105652 233.998125 
L 186.12274 233.998125 
L 187.139828 233.998125 
L 188.156916 233.998125 
L 189.174005 233.998125 
L 190.191093 233.998125 
L 191.208181 233.998125 
L 192.225269 233.998125 
L 193.242357 233.998125 
L 194.259445 233.998125 
L 195.276534 233.998125 
L 196.293622 233.998125 
L 197.31071 233.998125 
L 198.327798 233.998125 
L 199.344886 233.998125 
L 200.361975 233.998125 
L 201.379063 233.998125 
L 202.396151 233.998125 
L 203.413239 233.998125 
L 204.430327 233.998125 
L 205.447415 233.998125 
L 206.464504 233.998125 
L 207.481592 233.998125 
L 208.49868 233.998125 
L 209.515768 233.998125 
L 210.532856 233.998125 
L 211.549944 233.998125 
L 212.567033 233.998125 
L 213.584121 233.998125 
L 214.601209 233.998125 
L 215.618297 233.998125 
L 216.635385 233.998125 
L 217.652474 233.998125 
L 218.669562 233.998125 
L 219.68665 233.998125 
L 220.703738 233.998125 
L 221.720826 233.998125 
L 222.737914 233.998125 
L 223.755003 233.998125 
L 224.772091 233.998125 
L 225.789179 233.998125 
L 226.806267 233.998125 
L 227.823355 233.998125 
L 228.840443 233.998125 
L 229.857532 233.998125 
L 230.87462 233.998125 
L 231.891708 233.998125 
L 232.908796 233.998125 
L 233.925884 233.998125 
L 234.942972 233.998125 
L 235.960061 233.998125 
L 236.977149 233.998125 
L 237.994237 233.998125 
L 239.011325 233.998125 
L 240.028413 233.998125 
L 241.045502 233.998125 
L 242.06259 233.998125 
L 243.079678 233.998125 
L 244.096766 233.998125 
L 245.113854 233.998125 
L 246.130942 233.998125 
L 247.148031 233.998125 
L 248.165119 233.998125 
L 249.182207 233.998125 
L 250.199295 233.998125 
L 251.216383 233.998125 
L 252.233471 233.998125 
L 253.25056 233.998125 
L 254.267648 233.998125 
L 255.284736 233.998125 
L 256.301824 233.998125 
L 257.318912 233.998125 
L 258.336001 233.998125 
L 259.353089 233.998125 
L 260.370177 233.998125 
L 261.387265 233.998125 
L 262.404353 233.998125 
L 263.421441 233.998125 
L 264.43853 233.998125 
L 265.455618 233.998125 
L 266.472706 233.998125 
L 267.489794 233.998125 
L 268.506882 233.998125 
L 269.52397 233.998125 
L 270.541059 233.998125 
L 271.558147 233.998125 
L 272.575235 233.998125 
L 273.592323 233.998125 
L 274.609411 233.998125 
L 275.626499 233.998125 
L 276.643588 233.998125 
L 277.660676 233.998125 
L 278.677764 233.998125 
L 279.694852 233.998125 
L 280.71194 233.998125 
L 281.729029 233.998125 
L 282.746117 233.998125 
L 283.763205 233.998125 
L 284.780293 233.998125 
L 285.797381 233.998125 
L 286.814469 233.998125 
L 287.831558 233.998125 
L 288.848646 233.998125 
L 289.865734 233.998125 
L 290.882822 233.998125 
L 291.89991 233.998125 
L 292.916998 233.998125 
L 293.934087 233.998125 
L 294.951175 233.998125 
L 295.968263 233.998125 
L 296.985351 233.998125 
L 298.002439 233.998125 
L 299.019528 233.998125 
L 300.036616 233.998125 
L 301.053704 233.998125 
L 302.070792 233.998125 
L 303.08788 233.998125 
L 304.104968 233.998125 
L 305.122057 233.998125 
L 306.139145 233.998125 
L 307.156233 233.998125 
L 308.173321 233.998125 
L 309.190409 233.998125 
L 310.207497 233.998125 
L 311.224586 233.998125 
L 312.241674 233.998125 
L 313.258762 233.998125 
L 314.27585 233.998125 
L 315.292938 233.998125 
L 316.310026 233.998125 
L 317.327115 233.998125 
L 318.344203 233.998125 
L 319.361291 233.998125 
L 320.378379 233.998125 
L 321.395467 233.998125 
L 322.412556 233.998125 
L 323.429644 233.998125 
L 324.446732 233.998125 
L 324.446732 32.398125 
L 324.446732 32.398125 
L 323.429644 32.398125 
L 322.412556 32.398125 
L 321.395467 32.398125 
L 320.378379 32.398125 
L 319.361291 32.398125 
L 318.344203 32.398125 
L 317.327115 32.398125 
L 316.310026 32.398125 
L 315.292938 32.398125 
L 314.27585 32.398125 
L 313.258762 32.398125 
L 312.241674 32.398125 
L 311.224586 32.398125 
L 310.207497 32.398125 
L 309.190409 32.398125 
L 308.173321 32.398125 
L 307.156233 32.398125 
L 306.139145 32.398125 
L 305.122057 32.398125 
L 304.104968 32.398125 
L 303.08788 32.398125 
L 302.070792 32.398125 
L 301.053704 32.398125 
L 300.036616 32.398125 
L 299.019528 32.398125 
L 298.002439 32.398125 
L 296.985351 32.398125 
L 295.968263 32.398125 
L 294.951175 32.398125 
L 293.934087 32.398125 
L 292.916998 32.398125 
L 291.89991 32.398125 
L 290.882822 32.398125 
L 289.865734 32.398125 
L 288.848646 32.398125 
L 287.831558 32.398125 
L 286.814469 32.398125 
L 285.797381 32.398125 
L 284.780293 32.398125 
L 283.763205 32.398125 
L 282.746117 32.398125 
L 281.729029 32.398125 
L 280.71194 32.398125 
L 279.694852 32.398125 
L 278.677764 32.398125 
L 277.660676 32.398125 
L 276.643588 32.398125 
L 275.626499 32.398125 
L 274.609411 32.398125 
L 273.592323 32.398125 
L 272.575235 32.398125 
L 271.558147 32.398125 
L 270.541059 32.398125 
L 269.52397 32.398125 
L 268.506882 32.398125 
L 267.489794 32.398125 
L 266.472706 32.398125 
L 265.455618 32.398125 
L 264.43853 32.398125 
L 263.421441 32.398125 
L 262.404353 32.398125 
L 261.387265 32.398125 
L 260.370177 32.398125 
L 259.353089 32.398125 
L 258.336001 32.398125 
L 257.318912 32.398125 
L 256.301824 32.398125 
L 255.284736 32.398125 
L 254.267648 32.398125 
L 253.25056 32.398125 
L 252.233471 32.398125 
L 251.216383 32.398125 
L 250.199295 32.398125 
L 249.182207 32.398125 
L 248.165119 32.398125 
L 247.148031 32.398125 
L 246.130942 32.398125 
L 245.113854 32.398125 
L 244.096766 32.398125 
L 243.079678 32.398125 
L 242.06259 32.398125 
L 241.045502 32.398125 
L 240.028413 32.398125 
L 239.011325 32.398125 
L 237.994237 32.398125 
L 236.977149 32.398125 
L 235.960061 32.398125 
L 234.942972 32.398125 
L 233.925884 32.398125 
L 232.908796 32.398125 
L 231.891708 32.398125 
L 230.87462 32.398125 
L 229.857532 32.398125 
L 228.840443 32.398125 
L 227.823355 32.398125 
L 226.806267 32.398125 
L 225.789179 32.398125 
L 224.772091 32.398125 
L 223.755003 32.398125 
L 222.737914 32.398125 
L 221.720826 32.398125 
L 220.703738 32.398125 
L 219.68665 32.398125 
L 218.669562 32.398125 
L 217.652474 32.398125 
L 216.635385 32.398125 
L 215.618297 32.398125 
L 214.601209 32.398125 
L 213.584121 32.398125 
L 212.567033 32.398125 
L 211.549944 32.398125 
L 210.532856 32.398125 
L 209.515768 32.398125 
L 208.49868 32.398125 
L 207.481592 32.398125 
L 206.464504 32.398125 
L 205.447415 32.398125 
L 204.430327 32.398125 
L 203.413239 32.398125 
L 202.396151 32.398125 
L 201.379063 32.398125 
L 200.361975 32.398125 
L 199.344886 32.398125 
L 198.327798 32.398125 
L 197.31071 32.398125 
L 196.293622 32.398125 
L 195.276534 32.398125 
L 194.259445 32.398125 
L 193.242357 32.398125 
L 192.225269 32.398125 
L 191.208181 32.398125 
L 190.191093 32.398125 
L 189.174005 32.398125 
L 188.156916 32.398125 
L 187.139828 32.398125 
L 186.12274 32.398125 
L 185.105652 32.398125 
L 184.088564 32.398125 
L 183.071476 32.398125 
L 182.054387 32.398125 
L 181.037299 32.398125 
z
" clip-path="url(#ped4d359037)" style="fill: #1f77b4; fill-opacity: 0.3"/>
   </g>
   <g id="matplotlib.axis_1">
    <g id="xtick_1">
     <g id="line2d_1">
      <path d="M 64.072159 244.078125 
L 64.072159 22.318125 
" clip-path="url(#ped4d359037)" style="fill: none; stroke: #b0b0b0; stroke-opacity: 0.3; stroke-width: 0.8; stroke-linecap: square"/>
     </g>
     <g id="line2d_2">
      <defs>
       <path id="meb6fbd6585" d="M 0 0 
L 0 3.5 
" style="stroke: #000000; stroke-width: 0.8"/>
      </defs>
      <g>
       <use xlink:href="#meb6fbd6585" x="64.072159" y="244.078125" style="stroke: #000000; stroke-width: 0.8"/>
      </g>
     </g>
     <g id="text_1">
      <!-- −0.2 -->
      <g transform="translate(51.930753 258.676562) scale(0.1 -0.1)">
       <defs>
        <path id="DejaVuSans-2212" d="M 678 2272 
L 4684 2272 
L 4684 1741 
L 678 1741 
L 678 2272 
z
" transform="scale(0.015625)"/>
        <path id="DejaVuSans-30" d="M 2034 4250 
Q 1547 4250 1301 3770 
Q 1056 3291 1056 2328 
Q 1056 1369 1301 889 
Q 1547 409 2034 409 
Q 2525 409 2770 889 
Q 3016 1369 3016 2328 
Q 3016 3291 2770 3770 
Q 2525 4250 2034 4250 
z
M 2034 4750 
Q 2819 4750 3233 4129 
Q 3647 3509 3647 2328 
Q 3647 1150 3233 529 
Q 2819 -91 2034 -91 
Q 1250 -91 836 529 
Q 422 1150 422 2328 
Q 422 3509 836 4129 
Q 1250 4750 2034 4750 
z
" transform="scale(0.015625)"/>
        <path id="DejaVuSans-2e" d="M 684 794 
L 1344 794 
L 1344 0 
L 684 0 
L 684 794 
z
" transform="scale(0.015625)"/>
        <path id="DejaVuSans-32" d="M 1228 531 
L 3431 531 
L 3431 0 
L 469 0 
L 469 531 
Q 828 903 1448 1529 
Q 2069 2156 2228 2338 
Q 2531 2678 2651 2914 
Q 2772 3150 2772 3378 
Q 2772 3750 2511 3984 
Q 2250 4219 1831 4219 
Q 1534 4219 1204 4116 
Q 875 4013 500 3803 
L 500 4441 
Q 881 4594 1212 4672 
Q 1544 4750 1819 4750 
Q 2544 4750 2975 4387 
Q 3406 4025 3406 3419 
Q 3406 3131 3298 2873 
Q 3191 2616 2906 2266 
Q 2828 2175 2409 1742 
Q 1991 1309 1228 531 
z
" transform="scale(0.015625)"/>
       </defs>
       <use xlink:href="#DejaVuSans-2212"/>
       <use xlink:href="#DejaVuSans-30" transform="translate(83.789062 0)"/>
       <use xlink:href="#DejaVuSans-2e" transform="translate(147.412109 0)"/>
       <use xlink:href="#DejaVuSans-32" transform="translate(179.199219 0)"/>
      </g>
     </g>
    </g>
    <g id="xtick_2">
     <g id="line2d_3">
      <path d="M 122.046185 244.078125 
L 122.046185 22.318125 
" clip-path="url(#ped4d359037)" style="fill: none; stroke: #b0b0b0; stroke-opacity: 0.3; stroke-width: 0.8; stroke-linecap: square"/>
     </g>
     <g id="line2d_4">
      <g>
       <use xlink:href="#meb6fbd6585" x="122.046185" y="244.078125" style="stroke: #000000; stroke-width: 0.8"/>
      </g>
     </g>
     <g id="text_2">
      <!-- 0.0 -->
      <g transform="translate(114.094623 258.676562) scale(0.1 -0.1)">
       <use xlink:href="#DejaVuSans-30"/>
       <use xlink:href="#DejaVuSans-2e" transform="translate(63.623047 0)"/>
       <use xlink:href="#DejaVuSans-30" transform="translate(95.410156 0)"/>
      </g>
     </g>
    </g>
    <g id="xtick_3">
     <g id="line2d_5">
      <path d="M 180.020211 244.078125 
L 180.020211 22.318125 
" clip-path="url(#ped4d359037)" style="fill: none; stroke: #b0b0b0; stroke-opacity: 0.3; stroke-width: 0.8; stroke-linecap: square"/>
     </g>
     <g id="line2d_6">
      <g>
       <use xlink:href="#meb6fbd6585" x="180.020211" y="244.078125" style="stroke: #000000; stroke-width: 0.8"/>
      </g>
     </g>
     <g id="text_3">
      <!-- 0.2 -->
      <g transform="translate(172.068649 258.676562) scale(0.1 -0.1)">
       <use xlink:href="#DejaVuSans-30"/>
       <use xlink:href="#DejaVuSans-2e" transform="translate(63.623047 0)"/>
       <use xlink:href="#DejaVuSans-32" transform="translate(95.410156 0)"/>
      </g>
     </g>
    </g>
    <g id="xtick_4">
     <g id="line2d_7">
      <path d="M 237.994237 244.078125 
L 237.994237 22.318125 
" clip-path="url(#ped4d359037)" style="fill: none; stroke: #b0b0b0; stroke-opacity: 0.3; stroke-width: 0.8; stroke-linecap: square"/>
     </g>
     <g id="line2d_8">
      <g>
       <use xlink:href="#meb6fbd6585" x="237.994237" y="244.078125" style="stroke: #000000; stroke-width: 0.8"/>
      </g>
     </g>
     <g id="text_4">
      <!-- 0.4 -->
      <g transform="translate(230.042675 258.676562) scale(0.1 -0.1)">
       <defs>
        <path id="DejaVuSans-34" d="M 2419 4116 
L 825 1625 
L 2419 1625 
L 2419 4116 
z
M 2253 4666 
L 3047 4666 
L 3047 1625 
L 3713 1625 
L 3713 1100 
L 3047 1100 
L 3047 0 
L 2419 0 
L 2419 1100 
L 313 1100 
L 313 1709 
L 2253 4666 
z
" transform="scale(0.015625)"/>
       </defs>
       <use xlink:href="#DejaVuSans-30"/>
       <use xlink:href="#DejaVuSans-2e" transform="translate(63.623047 0)"/>
       <use xlink:href="#DejaVuSans-34" transform="translate(95.410156 0)"/>
      </g>
     </g>
    </g>
    <g id="xtick_5">
     <g id="line2d_9">
      <path d="M 295.968263 244.078125 
L 295.968263 22.318125 
" clip-path="url(#ped4d359037)" style="fill: none; stroke: #b0b0b0; stroke-opacity: 0.3; stroke-width: 0.8; stroke-linecap: square"/>
     </g>
     <g id="line2d_10">
      <g>
       <use xlink:href="#meb6fbd6585" x="295.968263" y="244.078125" style="stroke: #000000; stroke-width: 0.8"/>
      </g>
     </g>
     <g id="text_5">
      <!-- 0.6 -->
      <g transform="translate(288.0167 258.676562) scale(0.1 -0.1)">
       <defs>
        <path id="DejaVuSans-36" d="M 2113 2584 
Q 1688 2584 1439 2293 
Q 1191 2003 1191 1497 
Q 1191 994 1439 701 
Q 1688 409 2113 409 
Q 2538 409 2786 701 
Q 3034 994 3034 1497 
Q 3034 2003 2786 2293 
Q 2538 2584 2113 2584 
z
M 3366 4563 
L 3366 3988 
Q 3128 4100 2886 4159 
Q 2644 4219 2406 4219 
Q 1781 4219 1451 3797 
Q 1122 3375 1075 2522 
Q 1259 2794 1537 2939 
Q 1816 3084 2150 3084 
Q 2853 3084 3261 2657 
Q 3669 2231 3669 1497 
Q 3669 778 3244 343 
Q 2819 -91 2113 -91 
Q 1303 -91 875 529 
Q 447 1150 447 2328 
Q 447 3434 972 4092 
Q 1497 4750 2381 4750 
Q 2619 4750 2861 4703 
Q 3103 4656 3366 4563 
z
" transform="scale(0.015625)"/>
       </defs>
       <use xlink:href="#DejaVuSans-30"/>
       <use xlink:href="#DejaVuSans-2e" transform="translate(63.623047 0)"/>
       <use xlink:href="#DejaVuSans-36" transform="translate(95.410156 0)"/>
      </g>
     </g>
    </g>
    <g id="xtick_6">
     <g id="line2d_11">
      <path d="M 353.942289 244.078125 
L 353.942289 22.318125 
" clip-path="url(#ped4d359037)" style="fill: none; stroke: #b0b0b0; stroke-opacity: 0.3; stroke-width: 0.8; stroke-linecap: square"/>
     </g>
     <g id="line2d_12">
      <g>
       <use xlink:href="#meb6fbd6585" x="353.942289" y="244.078125" style="stroke: #000000; stroke-width: 0.8"/>
      </g>
     </g>
     <g id="text_6">
      <!-- 0.8 -->
      <g transform="translate(345.990726 258.676562) scale(0.1 -0.1)">
       <defs>
        <path id="DejaVuSans-38" d="M 2034 2216 
Q 1584 2216 1326 1975 
Q 1069 1734 1069 1313 
Q 1069 891 1326 650 
Q 1584 409 2034 409 
Q 2484 409 2743 651 
Q 3003 894 3003 1313 
Q 3003 1734 2745 1975 
Q 2488 2216 2034 2216 
z
M 1403 2484 
Q 997 2584 770 2862 
Q 544 3141 544 3541 
Q 544 4100 942 4425 
Q 1341 4750 2034 4750 
Q 2731 4750 3128 4425 
Q 3525 4100 3525 3541 
Q 3525 3141 3298 2862 
Q 3072 2584 2669 2484 
Q 3125 2378 3379 2068 
Q 3634 1759 3634 1313 
Q 3634 634 3220 271 
Q 2806 -91 2034 -91 
Q 1263 -91 848 271 
Q 434 634 434 1313 
Q 434 1759 690 2068 
Q 947 2378 1403 2484 
z
M 1172 3481 
Q 1172 3119 1398 2916 
Q 1625 2713 2034 2713 
Q 2441 2713 2670 2916 
Q 2900 3119 2900 3481 
Q 2900 3844 2670 4047 
Q 2441 4250 2034 4250 
Q 1625 4250 1398 4047 
Q 1172 3844 1172 3481 
z
" transform="scale(0.015625)"/>
       </defs>
       <use xlink:href="#DejaVuSans-30"/>
       <use xlink:href="#DejaVuSans-2e" transform="translate(63.623047 0)"/>
       <use xlink:href="#DejaVuSans-38" transform="translate(95.410156 0)"/>
      </g>
     </g>
    </g>
    <g id="xtick_7">
     <g id="line2d_13">
      <path d="M 411.916315 244.078125 
L 411.916315 22.318125 
" clip-path="url(#ped4d359037)" style="fill: none; stroke: #b0b0b0; stroke-opacity: 0.3; stroke-width: 0.8; stroke-linecap: square"/>
     </g>
     <g id="line2d_14">
      <g>
       <use xlink:href="#meb6fbd6585" x="411.916315" y="244.078125" style="stroke: #000000; stroke-width: 0.8"/>
      </g>
     </g>
     <g id="text_7">
      <!-- 1.0 -->
      <g transform="translate(403.964752 258.676562) scale(0.1 -0.1)">
       <defs>
        <path id="DejaVuSans-31" d="M 794 531 
L 1825 531 
L 1825 4091 
L 703 3866 
L 703 4441 
L 1819 4666 
L 2450 4666 
L 2450 531 
L 3481 531 
L 3481 0 
L 794 0 
L 794 531 
z
" transform="scale(0.015625)"/>
       </defs>
       <use xlink:href="#DejaVuSans-31"/>
       <use xlink:href="#DejaVuSans-2e" transform="translate(63.623047 0)"/>
       <use xlink:href="#DejaVuSans-30" transform="translate(95.410156 0)"/>
      </g>
     </g>
    </g>
    <g id="xtick_8">
     <g id="line2d_15">
      <path d="M 469.890341 244.078125 
L 469.890341 22.318125 
" clip-path="url(#ped4d359037)" style="fill: none; stroke: #b0b0b0; stroke-opacity: 0.3; stroke-width: 0.8; stroke-linecap: square"/>
     </g>
     <g id="line2d_16">
      <g>
       <use xlink:href="#meb6fbd6585" x="469.890341" y="244.078125" style="stroke: #000000; stroke-width: 0.8"/>
      </g>
     </g>
     <g id="text_8">
      <!-- 1.2 -->
      <g transform="translate(461.938778 258.676562) scale(0.1 -0.1)">
       <use xlink:href="#DejaVuSans-31"/>
       <use xlink:href="#DejaVuSans-2e" transform="translate(63.623047 0)"/>
       <use xlink:href="#DejaVuSans-32" transform="translate(95.410156 0)"/>
      </g>
     </g>
    </g>
    <g id="text_9">
     <!-- x -->
     <g transform="translate(264.021875 272.354687) scale(0.1 -0.1)">
      <defs>
       <path id="DejaVuSans-78" d="M 3513 3500 
L 2247 1797 
L 3578 0 
L 2900 0 
L 1881 1375 
L 863 0 
L 184 0 
L 1544 1831 
L 300 3500 
L 978 3500 
L 1906 2253 
L 2834 3500 
L 3513 3500 
z
" transform="scale(0.015625)"/>
      </defs>
      <use xlink:href="#DejaVuSans-78"/>
     </g>
    </g>
   </g>
   <g id="matplotlib.axis_2">
    <g id="ytick_1">
     <g id="line2d_17">
      <path d="M 43.78125 233.998125 
L 490.18125 233.998125 
" clip-path="url(#ped4d359037)" style="fill: none; stroke: #b0b0b0; stroke-opacity: 0.3; stroke-width: 0.8; stroke-linecap: square"/>
     </g>
     <g id="line2d_18">
      <defs>
       <path id="m2acc10ab50" d="M 0 0 
L -3.5 0 
" style="stroke: #000000; stroke-width: 0.8"/>
      </defs>
      <g>
       <use xlink:href="#m2acc10ab50" x="43.78125" y="233.998125" style="stroke: #000000; stroke-width: 0.8"/>
      </g>
     </g>
     <g id="text_10">
      <!-- 0.0 -->
      <g transform="translate(20.878125 237.797344) scale(0.1 -0.1)">
       <use xlink:href="#DejaVuSans-30"/>
       <use xlink:href="#DejaVuSans-2e" transform="translate(63.623047 0)"/>
       <use xlink:href="#DejaVuSans-30" transform="translate(95.410156 0)"/>
      </g>
     </g>
    </g>
    <g id="ytick_2">
     <g id="line2d_19">
      <path d="M 43.78125 193.678125 
L 490.18125 193.678125 
" clip-path="url(#ped4d359037)" style="fill: none; stroke: #b0b0b0; stroke-opacity: 0.3; stroke-width: 0.8; stroke-linecap: square"/>
     </g>
     <g id="line2d_20">
      <g>
       <use xlink:href="#m2acc10ab50" x="43.78125" y="193.678125" style="stroke: #000000; stroke-width: 0.8"/>
      </g>
     </g>
     <g id="text_11">
      <!-- 0.2 -->
      <g transform="translate(20.878125 197.477344) scale(0.1 -0.1)">
       <use xlink:href="#DejaVuSans-30"/>
       <use xlink:href="#DejaVuSans-2e" transform="translate(63.623047 0)"/>
       <use xlink:href="#DejaVuSans-32" transform="translate(95.410156 0)"/>
      </g>
     </g>
    </g>
    <g id="ytick_3">
     <g id="line2d_21">
      <path d="M 43.78125 153.358125 
L 490.18125 153.358125 
" clip-path="url(#ped4d359037)" style="fill: none; stroke: #b0b0b0; stroke-opacity: 0.3; stroke-width: 0.8; stroke-linecap: square"/>
     </g>
     <g id="line2d_22">
      <g>
       <use xlink:href="#m2acc10ab50" x="43.78125" y="153.358125" style="stroke: #000000; stroke-width: 0.8"/>
      </g>
     </g>
     <g id="text_12">
      <!-- 0.4 -->
      <g transform="translate(20.878125 157.157344) scale(0.1 -0.1)">
       <use xlink:href="#DejaVuSans-30"/>
       <use xlink:href="#DejaVuSans-2e" transform="translate(63.623047 0)"/>
       <use xlink:href="#DejaVuSans-34" transform="translate(95.410156 0)"/>
      </g>
     </g>
    </g>
    <g id="ytick_4">
     <g id="line2d_23">
      <path d="M 43.78125 113.038125 
L 490.18125 113.038125 
" clip-path="url(#ped4d359037)" style="fill: none; stroke: #b0b0b0; stroke-opacity: 0.3; stroke-width: 0.8; stroke-linecap: square"/>
     </g>
     <g id="line2d_24">
      <g>
       <use xlink:href="#m2acc10ab50" x="43.78125" y="113.038125" style="stroke: #000000; stroke-width: 0.8"/>
      </g>
     </g>
     <g id="text_13">
      <!-- 0.6 -->
      <g transform="translate(20.878125 116.837344) scale(0.1 -0.1)">
       <use xlink:href="#DejaVuSans-30"/>
       <use xlink:href="#DejaVuSans-2e" transform="translate(63.623047 0)"/>
       <use xlink:href="#DejaVuSans-36" transform="translate(95.410156 0)"/>
      </g>
     </g>
    </g>
    <g id="ytick_5">
     <g id="line2d_25">
      <path d="M 43.78125 72.718125 
L 490.18125 72.718125 
" clip-path="url(#ped4d359037)" style="fill: none; stroke: #b0b0b0; stroke-opacity: 0.3; stroke-width: 0.8; stroke-linecap: square"/>
     </g>
     <g id="line2d_26">
      <g>
       <use xlink:href="#m2acc10ab50" x="43.78125" y="72.718125" style="stroke: #000000; stroke-width: 0.8"/>
      </g>
     </g>
     <g id="text_14">
      <!-- 0.8 -->
      <g transform="translate(20.878125 76.517344) scale(0.1 -0.1)">
       <use xlink:href="#DejaVuSans-30"/>
       <use xlink:href="#DejaVuSans-2e" transform="translate(63.623047 0)"/>
       <use xlink:href="#DejaVuSans-38" transform="translate(95.410156 0)"/>
      </g>
     </g>
    </g>
    <g id="ytick_6">
     <g id="line2d_27">
      <path d="M 43.78125 32.398125 
L 490.18125 32.398125 
" clip-path="url(#ped4d359037)" style="fill: none; stroke: #b0b0b0; stroke-opacity: 0.3; stroke-width: 0.8; stroke-linecap: square"/>
     </g>
     <g id="line2d_28">
      <g>
       <use xlink:href="#m2acc10ab50" x="43.78125" y="32.398125" style="stroke: #000000; stroke-width: 0.8"/>
      </g>
     </g>
     <g id="text_15">
      <!-- 1.0 -->
      <g transform="translate(20.878125 36.197344) scale(0.1 -0.1)">
       <use xlink:href="#DejaVuSans-31"/>
       <use xlink:href="#DejaVuSans-2e" transform="translate(63.623047 0)"/>
       <use xlink:href="#DejaVuSans-30" transform="translate(95.410156 0)"/>
      </g>
     </g>
    </g>
    <g id="text_16">
     <!-- f(x) -->
     <g transform="translate(14.798438 141.819219) rotate(-90) scale(0.1 -0.1)">
      <defs>
       <path id="DejaVuSans-66" d="M 2375 4863 
L 2375 4384 
L 1825 4384 
Q 1516 4384 1395 4259 
Q 1275 4134 1275 3809 
L 1275 3500 
L 2222 3500 
L 2222 3053 
L 1275 3053 
L 1275 0 
L 697 0 
L 697 3053 
L 147 3053 
L 147 3500 
L 697 3500 
L 697 3744 
Q 697 4328 969 4595 
Q 1241 4863 1831 4863 
L 2375 4863 
z
" transform="scale(0.015625)"/>
       <path id="DejaVuSans-28" d="M 1984 4856 
Q 1566 4138 1362 3434 
Q 1159 2731 1159 2009 
Q 1159 1288 1364 580 
Q 1569 -128 1984 -844 
L 1484 -844 
Q 1016 -109 783 600 
Q 550 1309 550 2009 
Q 550 2706 781 3412 
Q 1013 4119 1484 4856 
L 1984 4856 
z
" transform="scale(0.015625)"/>
       <path id="DejaVuSans-29" d="M 513 4856 
L 1013 4856 
Q 1481 4119 1714 3412 
Q 1947 2706 1947 2009 
Q 1947 1309 1714 600 
Q 1481 -109 1013 -844 
L 513 -844 
Q 928 -128 1133 580 
Q 1338 1288 1338 2009 
Q 1338 2731 1133 3434 
Q 928 4138 513 4856 
z
" transform="scale(0.015625)"/>
      </defs>
      <use xlink:href="#DejaVuSans-66"/>
      <use xlink:href="#DejaVuSans-28" transform="translate(35.205078 0)"/>
      <use xlink:href="#DejaVuSans-78" transform="translate(74.21875 0)"/>
      <use xlink:href="#DejaVuSans-29" transform="translate(133.398438 0)"/>
     </g>
    </g>
   </g>
   <g id="line2d_29">
    <path d="M 64.072159 233.998125 
L 122.046185 233.998125 
L 123.063273 32.398125 
L 411.916315 32.398125 
L 412.933403 233.998125 
L 469.890341 233.998125 
L 469.890341 233.998125 
" clip-path="url(#ped4d359037)" style="fill: none; stroke: #1f77b4; stroke-width: 1.5; stroke-linecap: square"/>
   </g>
   <g id="patch_3">
    <path d="M 43.78125 244.078125 
L 43.78125 22.318125 
" style="fill: none; stroke: #000000; stroke-width: 0.8; stroke-linejoin: miter; stroke-linecap: square"/>
   </g>
   <g id="patch_4">
    <path d="M 490.18125 244.078125 
L 490.18125 22.318125 
" style="fill: none; stroke: #000000; stroke-width: 0.8; stroke-linejoin: miter; stroke-linecap: square"/>
   </g>
   <g id="patch_5">
    <path d="M 43.78125 244.078125 
L 490.18125 244.078125 
" style="fill: none; stroke: #000000; stroke-width: 0.8; stroke-linejoin: miter; stroke-linecap: square"/>
   </g>
   <g id="patch_6">
    <path d="M 43.78125 22.318125 
L 490.18125 22.318125 
" style="fill: none; stroke: #000000; stroke-width: 0.8; stroke-linejoin: miter; stroke-linecap: square"/>
   </g>
   <g id="text_17">
    <!-- PDF Uniform(0,1) -->
    <g transform="translate(215.311875 16.318125) scale(0.12 -0.12)">
     <defs>
      <path id="DejaVuSans-50" d="M 1259 4147 
L 1259 2394 
L 2053 2394 
Q 2494 2394 2734 2622 
Q 2975 2850 2975 3272 
Q 2975 3691 2734 3919 
Q 2494 4147 2053 4147 
L 1259 4147 
z
M 628 4666 
L 2053 4666 
Q 2838 4666 3239 4311 
Q 3641 3956 3641 3272 
Q 3641 2581 3239 2228 
Q 2838 1875 2053 1875 
L 1259 1875 
L 1259 0 
L 628 0 
L 628 4666 
z
" transform="scale(0.015625)"/>
      <path id="DejaVuSans-44" d="M 1259 4147 
L 1259 519 
L 2022 519 
Q 2988 519 3436 956 
Q 3884 1394 3884 2338 
Q 3884 3275 3436 3711 
Q 2988 4147 2022 4147 
L 1259 4147 
z
M 628 4666 
L 1925 4666 
Q 3281 4666 3915 4102 
Q 4550 3538 4550 2338 
Q 4550 1131 3912 565 
Q 3275 0 1925 0 
L 628 0 
L 628 4666 
z
" transform="scale(0.015625)"/>
      <path id="DejaVuSans-46" d="M 628 4666 
L 3309 4666 
L 3309 4134 
L 1259 4134 
L 1259 2759 
L 3109 2759 
L 3109 2228 
L 1259 2228 
L 1259 0 
L 628 0 
L 628 4666 
z
" transform="scale(0.015625)"/>
      <path id="DejaVuSans-20" transform="scale(0.015625)"/>
      <path id="DejaVuSans-55" d="M 556 4666 
L 1191 4666 
L 1191 1831 
Q 1191 1081 1462 751 
Q 1734 422 2344 422 
Q 2950 422 3222 751 
Q 3494 1081 3494 1831 
L 3494 4666 
L 4128 4666 
L 4128 1753 
Q 4128 841 3676 375 
Q 3225 -91 2344 -91 
Q 1459 -91 1007 375 
Q 556 841 556 1753 
L 556 4666 
z
" transform="scale(0.015625)"/>
      <path id="DejaVuSans-6e" d="M 3513 2113 
L 3513 0 
L 2938 0 
L 2938 2094 
Q 2938 2591 2744 2837 
Q 2550 3084 2163 3084 
Q 1697 3084 1428 2787 
Q 1159 2491 1159 1978 
L 1159 0 
L 581 0 
L 581 3500 
L 1159 3500 
L 1159 2956 
Q 1366 3272 1645 3428 
Q 1925 3584 2291 3584 
Q 2894 3584 3203 3211 
Q 3513 2838 3513 2113 
z
" transform="scale(0.015625)"/>
      <path id="DejaVuSans-69" d="M 603 3500 
L 1178 3500 
L 1178 0 
L 603 0 
L 603 3500 
z
M 603 4863 
L 1178 4863 
L 1178 4134 
L 603 4134 
L 603 4863 
z
" transform="scale(0.015625)"/>
      <path id="DejaVuSans-6f" d="M 1959 3097 
Q 1497 3097 1228 2736 
Q 959 2375 959 1747 
Q 959 1119 1226 758 
Q 1494 397 1959 397 
Q 2419 397 2687 759 
Q 2956 1122 2956 1747 
Q 2956 2369 2687 2733 
Q 2419 3097 1959 3097 
z
M 1959 3584 
Q 2709 3584 3137 3096 
Q 3566 2609 3566 1747 
Q 3566 888 3137 398 
Q 2709 -91 1959 -91 
Q 1206 -91 779 398 
Q 353 888 353 1747 
Q 353 2609 779 3096 
Q 1206 3584 1959 3584 
z
" transform="scale(0.015625)"/>
      <path id="DejaVuSans-72" d="M 2631 2963 
Q 2534 3019 2420 3045 
Q 2306 3072 2169 3072 
Q 1681 3072 1420 2755 
Q 1159 2438 1159 1844 
L 1159 0 
L 581 0 
L 581 3500 
L 1159 3500 
L 1159 2956 
Q 1341 3275 1631 3429 
Q 1922 3584 2338 3584 
Q 2397 3584 2469 3576 
Q 2541 3569 2628 3553 
L 2631 2963 
z
" transform="scale(0.015625)"/>
      <path id="DejaVuSans-6d" d="M 3328 2828 
Q 3544 3216 3844 3400 
Q 4144 3584 4550 3584 
Q 5097 3584 5394 3201 
Q 5691 2819 5691 2113 
L 5691 0 
L 5113 0 
L 5113 2094 
Q 5113 2597 4934 2840 
Q 4756 3084 4391 3084 
Q 3944 3084 3684 2787 
Q 3425 2491 3425 1978 
L 3425 0 
L 2847 0 
L 2847 2094 
Q 2847 2600 2669 2842 
Q 2491 3084 2119 3084 
Q 1678 3084 1418 2786 
Q 1159 2488 1159 1978 
L 1159 0 
L 581 0 
L 581 3500 
L 1159 3500 
L 1159 2956 
Q 1356 3278 1631 3431 
Q 1906 3584 2284 3584 
Q 2666 3584 2933 3390 
Q 3200 3197 3328 2828 
z
" transform="scale(0.015625)"/>
      <path id="DejaVuSans-2c" d="M 750 794 
L 1409 794 
L 1409 256 
L 897 -744 
L 494 -744 
L 750 256 
L 750 794 
z
" transform="scale(0.015625)"/>
     </defs>
     <use xlink:href="#DejaVuSans-50"/>
     <use xlink:href="#DejaVuSans-44" transform="translate(60.302734 0)"/>
     <use xlink:href="#DejaVuSans-46" transform="translate(137.304688 0)"/>
     <use xlink:href="#DejaVuSans-20" transform="translate(194.824219 0)"/>
     <use xlink:href="#DejaVuSans-55" transform="translate(226.611328 0)"/>
     <use xlink:href="#DejaVuSans-6e" transform="translate(299.804688 0)"/>
     <use xlink:href="#DejaVuSans-69" transform="translate(363.183594 0)"/>
     <use xlink:href="#DejaVuSans-66" transform="translate(390.966797 0)"/>
     <use xlink:href="#DejaVuSans-6f" transform="translate(426.171875 0)"/>
     <use xlink:href="#DejaVuSans-72" transform="translate(487.353516 0)"/>
     <use xlink:href="#DejaVuSans-6d" transform="translate(526.716797 0)"/>
     <use xlink:href="#DejaVuSans-28" transform="translate(624.128906 0)"/>
     <use xlink:href="#DejaVuSans-30" transform="translate(663.142578 0)"/>
     <use xlink:href="#DejaVuSans-2c" transform="translate(726.765625 0)"/>
     <use xlink:href="#DejaVuSans-31" transform="translate(758.552734 0)"/>
     <use xlink:href="#DejaVuSans-29" transform="translate(822.175781 0)"/>
    </g>
   </g>
  </g>
 </g>
 <defs>
  <clipPath id="ped4d359037">
   <rect x="43.78125" y="22.318125" width="446.4" height="221.76"/>
  </clipPath>
 </defs>
</svg>
